<svg viewBox="0 0 960 1039" fill="none" xmlns="http://www.w3.org/2000/svg">
<rect width="720" height="1035" transform="matrix(-1 0 0 1 957.999 2)" fill="#F5F5F5"/>
<line y1="-1" x2="1037" y2="-1" transform="matrix(0 1 1 0 878.999 0)" stroke="#3E464E" stroke-width="2"/>
<line y1="-1" x2="1037" y2="-1" transform="matrix(0 1 1 0 958.999 0)" stroke="#3E464E" stroke-width="2"/>
<line y1="-1" x2="1037" y2="-1" transform="matrix(0 1 1 0 719.999 0)" stroke="#3E464E" stroke-width="2"/>
<line x1="800.999" y1="5.88208e-08" x2="800.999" y2="1037" stroke="#3E464E" stroke-width="2"/>
<line y1="-1" x2="1037" y2="-1" transform="matrix(0 1 1 0 559.999 0)" stroke="#3E464E" stroke-width="2"/>
<line y1="-1" x2="1037" y2="-1" transform="matrix(0 1 1 0 639.999 0)" stroke="#3E464E" stroke-width="2"/>
<line y1="-1" x2="1037" y2="-1" transform="matrix(0 1 1 0 400.999 0)" stroke="#3E464E" stroke-width="2"/>
<line y1="-1" x2="1037" y2="-1" transform="matrix(0 1 1 0 479.999 0)" stroke="#3E464E" stroke-width="2"/>
<line y1="-1" x2="1037" y2="-1" transform="matrix(0 1 1 0 240.999 0)" stroke="#3E464E" stroke-width="2"/>
<line y1="-1" x2="1037" y2="-1" transform="matrix(0 1 1 0 320.999 0)" stroke="#3E464E" stroke-width="2"/>
<line y1="-1" x2="718" y2="-1" transform="matrix(1 -4.37114e-08 -4.37114e-08 -1 239.999 319)" stroke="#3E464E" stroke-width="2"/>
<path d="M239.999 240L957.999 240" stroke="#3E464E" stroke-width="2"/>
<path d="M239.999 160L957.999 160" stroke="#3E464E" stroke-width="2"/>
<line y1="-1" x2="718" y2="-1" transform="matrix(1 -4.37114e-08 -4.37114e-08 -1 239.999 479)" stroke="#3E464E" stroke-width="2"/>
<line y1="-1" x2="718" y2="-1" transform="matrix(1 -4.37114e-08 -4.37114e-08 -1 239.999 399)" stroke="#3E464E" stroke-width="2"/>
<line y1="-1" x2="718" y2="-1" transform="matrix(1 -4.37114e-08 -4.37114e-08 -1 239.999 639)" stroke="#3E464E" stroke-width="2"/>
<line y1="-1" x2="718" y2="-1" transform="matrix(1 -4.37114e-08 -4.37114e-08 -1 239.999 559)" stroke="#3E464E" stroke-width="2"/>
<line y1="-1" x2="718" y2="-1" transform="matrix(1 -4.37114e-08 -4.37114e-08 -1 239.999 799)" stroke="#3E464E" stroke-width="2"/>
<line y1="-1" x2="718" y2="-1" transform="matrix(1 -4.37114e-08 -4.37114e-08 -1 239.999 719)" stroke="#3E464E" stroke-width="2"/>
<line y1="-1" x2="718" y2="-1" transform="matrix(1 -4.37114e-08 -4.37114e-08 -1 239.999 959)" stroke="#3E464E" stroke-width="2"/>
<line y1="-1" x2="718" y2="-1" transform="matrix(1 -4.37114e-08 -4.37114e-08 -1 239.999 879)" stroke="#3E464E" stroke-width="2"/>
<line x1="239.999" y1="1" x2="959.999" y2="0.999991" stroke="#3E464E" stroke-width="2"/>
<line y1="-1" x2="718" y2="-1" transform="matrix(1 -4.37114e-08 -4.37114e-08 -1 237.999 79)" stroke="#3E464E" stroke-width="2"/>
<rect x="-1" y="1" width="559" height="80" transform="matrix(-1 0 0 1 798.999 719)" fill="white" stroke="#3E464E" stroke-width="2"/>
<rect x="-1" y="1" width="399" height="80" transform="matrix(-1 0 0 1 798.999 639)" fill="white" stroke="#3E464E" stroke-width="2"/>
<rect x="-1" y="1" width="559" height="80" transform="matrix(-1 0 0 1 718.999 799)" fill="white" stroke="#3E464E" stroke-width="2"/>
<rect x="-1" y="1" width="559" height="80" transform="matrix(-1 0 0 1 638.999 879)" fill="white" stroke="#3E464E" stroke-width="2"/>
<rect x="-1" y="1" width="559" height="78" transform="matrix(-1 0 0 1 558.999 959)" fill="white" stroke="#3E464E" stroke-width="2"/>
<ellipse cx="72.5" cy="3.5" rx="72.5" ry="3.5" transform="matrix(-1 0 0 1 666.999 686)" fill="black" fill-opacity="0.14"/>
<ellipse cx="55" cy="3.5" rx="55" ry="3.5" transform="matrix(-1 0 0 1 800.999 663)" fill="black" fill-opacity="0.14"/>
<ellipse cx="14.5" cy="2" rx="14.5" ry="2" transform="matrix(-1 0 0 1 266.999 799)" fill="black" fill-opacity="0.14"/>
<mask id="path-33-inside-1_130_372" fill="white">
<path d="M399.999 264.5C399.999 263.572 399.999 263.107 400.001 262.715C400.432 153.148 489.147 64.4329 598.714 64.0015C599.107 64 599.571 64 600.499 64C601.428 64 601.892 64 602.285 64.0015C711.852 64.4329 800.566 153.148 800.998 262.715C800.999 263.107 800.999 263.572 800.999 264.5V663H399.999V264.5Z"/>
</mask>
<path d="M399.999 264.5C399.999 263.572 399.999 263.107 400.001 262.715C400.432 153.148 489.147 64.4329 598.714 64.0015C599.107 64 599.571 64 600.499 64C601.428 64 601.892 64 602.285 64.0015C711.852 64.4329 800.566 153.148 800.998 262.715C800.999 263.107 800.999 263.572 800.999 264.5V663H399.999V264.5Z" fill="white"/>
<path d="M397.999 263.5C397.999 152.215 488.214 62 599.499 62H601.499C712.785 62 802.999 152.215 802.999 263.5H798.999C798.999 154.424 710.576 66 601.499 66H599.499C490.423 66 401.999 154.424 401.999 263.5H397.999ZM800.999 663H399.999H800.999ZM397.999 663V263.5C397.999 152.215 488.214 62 599.499 62V66C490.423 66 401.999 154.424 401.999 263.5V663H397.999ZM601.499 62C712.785 62 802.999 152.215 802.999 263.5V663H798.999V263.5C798.999 154.424 710.576 66 601.499 66V62Z" fill="#3E464E" mask="url(#path-33-inside-1_130_372)"/>
<path fill-rule="evenodd" clip-rule="evenodd" d="M627.999 79C533.559 79 456.999 155.559 456.999 250V661L399.999 718L401.413 719.414L458.828 662H798.999V250C798.999 155.559 722.44 79 627.999 79Z" fill="#3E464E"/>
<path d="M543.179 674.662L525.319 675.052C514.326 675.292 504.649 684.207 503.533 695.121L543.179 694.957L543.179 674.662Z" fill="#9770DF"/>
<path d="M594.69 674.657L612.55 675.047C623.543 675.287 633.22 684.202 634.336 695.116L594.69 694.952L594.69 674.657Z" fill="#9770DF"/>
<line y1="-9" x2="284.14" y2="-9" transform="matrix(0 -1 -1 0 594.542 694.963)" stroke="#9770DF" stroke-width="18"/>
<path d="M536.215 694.972V410.832" stroke="#9770DF" stroke-width="18"/>
<path d="M677.11 336.579L668.153 335.7L669.909 317.786L678.866 318.664L677.11 336.579ZM729.275 426.245C728.608 431.171 724.074 434.623 719.148 433.955C714.223 433.287 710.771 428.753 711.439 423.828L729.275 426.245ZM678.866 318.664C694.099 320.158 707.618 325.226 716.975 337.371C726.058 349.161 729.999 366.093 729.999 388.506H711.999C711.999 367.681 708.237 355.523 702.716 348.357C697.468 341.546 689.482 337.791 677.11 336.579L678.866 318.664ZM729.999 388.506C729.999 404.453 729.838 413.687 729.674 418.974C729.591 421.619 729.507 423.307 729.439 424.374C729.405 424.91 729.374 425.303 729.347 425.592C729.334 425.738 729.321 425.861 729.309 425.966C729.304 426.019 729.298 426.069 729.292 426.115C729.289 426.138 729.287 426.16 729.284 426.182C729.282 426.193 729.281 426.203 729.28 426.214C729.279 426.219 729.278 426.225 729.278 426.23C729.277 426.232 729.277 426.236 729.276 426.238C729.276 426.242 729.275 426.245 720.357 425.037C711.439 423.828 711.438 423.831 711.438 423.835C711.437 423.837 711.437 423.84 711.437 423.843C711.436 423.848 711.435 423.853 711.435 423.857C711.433 423.867 711.432 423.876 711.431 423.884C711.429 423.901 711.427 423.916 711.425 423.929C711.422 423.955 711.42 423.974 711.419 423.985C711.417 424.005 711.418 423.996 711.422 423.95C711.431 423.856 711.45 423.631 711.476 423.225C711.528 422.411 711.604 420.928 711.682 418.415C711.839 413.385 711.999 404.354 711.999 388.506H729.999Z" fill="#9770DF"/>
<path d="M461.887 337.255L470.844 336.377L469.088 318.462L460.131 319.34L461.887 337.255ZM409.722 426.922C410.39 431.847 414.924 435.299 419.849 434.631C424.775 433.963 428.227 429.429 427.559 424.504L409.722 426.922ZM460.131 319.34C444.899 320.834 431.38 325.902 422.023 338.047C412.94 349.838 408.999 366.769 408.999 389.182H426.999C426.999 368.357 430.761 356.199 436.282 349.033C441.529 342.222 449.516 338.467 461.887 337.255L460.131 319.34ZM408.999 389.182C408.999 405.129 409.159 414.363 409.324 419.65C409.406 422.295 409.49 423.983 409.559 425.05C409.593 425.586 409.624 425.979 409.65 426.268C409.664 426.414 409.676 426.537 409.688 426.642C409.694 426.695 409.7 426.745 409.705 426.791C409.708 426.814 409.711 426.836 409.714 426.858C409.715 426.869 409.716 426.879 409.718 426.89C409.719 426.895 409.719 426.901 409.72 426.906C409.72 426.909 409.721 426.912 409.721 426.914C409.722 426.918 409.722 426.922 418.641 425.713C427.559 424.504 427.559 424.508 427.56 424.511C427.56 424.513 427.561 424.516 427.561 424.519C427.562 424.524 427.562 424.529 427.563 424.533C427.564 424.543 427.565 424.552 427.566 424.56C427.569 424.577 427.57 424.592 427.572 424.605C427.575 424.632 427.577 424.65 427.579 424.661C427.581 424.681 427.58 424.672 427.575 424.626C427.567 424.532 427.548 424.307 427.522 423.901C427.47 423.087 427.393 421.604 427.315 419.091C427.159 414.061 426.999 405.03 426.999 389.182H408.999Z" fill="#9770DF"/>
<g filter="url(#filter0_i_130_372)">
<ellipse cx="102.712" cy="108.239" rx="102.712" ry="108.239" transform="matrix(-1 0 0 1 671.569 216)" fill="#AD82FF"/>
</g>
<ellipse cx="8.71906" cy="9.06984" rx="8.71906" ry="9.06984" transform="matrix(-0.992035 -0.0515553 -0.0470305 1.00498 591.918 282.321)" fill="#3E464E"/>
<ellipse cx="8.71906" cy="9.06984" rx="8.71906" ry="9.06984" transform="matrix(-0.992035 -0.0515553 -0.0470305 1.00498 530.584 279.134)" fill="#3E464E"/>
<ellipse cx="12.9743" cy="9.06984" rx="12.9743" ry="9.06984" transform="matrix(-0.992035 -0.0515553 -0.0470305 1.00498 595.819 295.811)" fill="#AD82FF"/>
<ellipse cx="12.9743" cy="9.06984" rx="12.9743" ry="9.06984" transform="matrix(-0.992035 -0.0515553 -0.0470305 1.00498 531.624 291.752)" fill="#AD82FF"/>
<path d="M565.006 297.179C565.006 304.137 560.782 313.414 549.862 313.414C536.233 313.414 535.476 300.271 535.476 297.179" stroke="#3E464E" stroke-width="3" stroke-linecap="round"/>
<path d="M556.018 226.824C541.896 229.53 521.665 234.321 505.304 253.207" stroke="white" stroke-opacity="0.3" stroke-width="6" stroke-linecap="round"/>
<g filter="url(#filter1_i_130_372)">
<path d="M716.751 371.614C716.751 348.809 696.175 331.435 673.587 334.576C642.985 338.831 601.92 343.559 570.365 343.587C538.413 343.616 496.787 338.843 465.885 334.557C443.305 331.425 422.738 348.796 422.738 371.593C422.738 389.012 434.959 404.007 452.121 406.987C483.416 412.419 533.43 419.94 570.365 419.916C606.903 419.892 656.346 412.42 687.392 407.007C704.543 404.016 716.751 389.024 716.751 371.614Z" fill="#FFAEF7"/>
</g>
<path d="M337.742 884C337.742 886.209 367.067 888 403.242 888C439.416 888 468.742 886.209 468.742 884C468.742 881.791 439.416 880 403.242 880C367.067 880 337.742 881.791 337.742 884Z" fill="black" fill-opacity="0.14"/>
<ellipse cx="87.9196" cy="3.63805" rx="87.9196" ry="3.63805" transform="matrix(-1 0 0 1 409.742 955)" fill="black" fill-opacity="0.14"/>
<path d="M184.291 692.097C186.674 687.115 192.645 685.008 197.627 687.391C202.609 689.773 204.717 695.744 202.334 700.726L184.291 692.097ZM193.312 762.431L185.663 768.872L193.312 762.431ZM240.671 773.114L250.605 771.965L252.901 791.833L242.968 792.982L240.671 773.114ZM202.334 700.726C199.049 707.595 194.815 717.128 193.447 727.338C192.114 737.285 193.567 747.208 200.962 755.99L185.663 768.872C173.656 754.613 171.773 738.499 173.624 724.683C175.439 711.131 180.907 699.174 184.291 692.097L202.334 700.726ZM200.962 755.99C209.285 765.875 219.266 770.132 227.311 771.946C231.35 772.856 234.849 773.135 237.291 773.189C238.507 773.216 239.443 773.187 240.033 773.156C240.328 773.14 240.534 773.124 240.644 773.115C240.698 773.11 240.729 773.107 240.734 773.107C240.736 773.107 240.732 773.107 240.722 773.108C240.717 773.109 240.71 773.109 240.701 773.11C240.697 773.111 240.692 773.111 240.687 773.112C240.685 773.112 240.681 773.113 240.679 773.113C240.675 773.113 240.671 773.114 241.819 783.048C242.968 792.982 242.963 792.982 242.958 792.983C242.957 792.983 242.952 792.983 242.949 792.984C242.942 792.984 242.935 792.985 242.927 792.986C242.911 792.988 242.894 792.99 242.875 792.992C242.838 792.996 242.793 793.001 242.741 793.006C242.637 793.016 242.506 793.029 242.348 793.042C242.032 793.069 241.608 793.101 241.087 793.128C240.047 793.183 238.609 793.223 236.849 793.185C233.34 793.107 228.486 792.713 222.913 791.456C211.736 788.936 197.463 782.885 185.663 768.872L200.962 755.99Z" fill="#21C487"/>
<path d="M270.241 947.5C269.647 924.844 258.366 911.066 216.462 906.871C198.054 905.028 145.325 948.43 145.325 948.43" stroke="#21C487" stroke-width="20" stroke-linecap="square" stroke-linejoin="round"/>
<path d="M147.952 959.151L132.585 946.514C124.974 940.256 113.155 940.644 105.999 947.387L135.086 971.75L147.952 959.151Z" fill="#21C487"/>
<g filter="url(#filter2_i_130_372)">
<rect width="158.749" height="291.044" rx="79.3745" transform="matrix(-0.944753 -0.327783 -0.327783 0.944753 427.361 709.035)" fill="#29DA98"/>
</g>
<path d="M227.572 944.615L207.672 944.238C198.1 944.057 189.744 951.537 188.877 961.062L226.326 962.106L227.572 944.615Z" fill="#21C487"/>
<path d="M285.241 951.5C284.909 903.598 280.369 859.043 256.797 860.779C228.64 862.852 217.566 949.861 217.566 949.861" stroke="#21C487" stroke-width="20" stroke-linecap="square" stroke-linejoin="round"/>
<path d="M373.968 890.909C372.677 896.278 367.277 899.585 361.907 898.294C356.537 897.003 353.231 891.603 354.522 886.233L373.968 890.909ZM390.604 843.398L381.206 839.981L388.041 821.185L397.439 824.602L390.604 843.398ZM354.522 886.233C356.367 878.558 360.566 872.851 366.422 869.241C371.946 865.835 378.171 864.765 383.581 864.566C393.866 864.186 405.731 867.094 410.068 867.779L406.948 887.534C399.765 886.4 392.022 884.268 384.318 884.552C380.732 884.684 378.368 885.372 376.919 886.265C375.802 886.953 374.646 888.086 373.968 890.909L354.522 886.233ZM410.068 867.779C415.703 868.669 423.288 869.38 428.885 868.18C431.609 867.595 432.772 866.778 433.172 866.354C433.264 866.257 433.9 865.723 433.707 863.288L453.645 861.708C454.212 868.871 452.273 875.257 447.713 880.085C443.462 884.588 437.898 886.702 433.08 887.735C423.593 889.77 412.834 888.464 406.948 887.534L410.068 867.779ZM433.707 863.288C433.628 862.291 433.004 860.54 429.947 858.081C426.893 855.626 422.441 853.333 417.16 851.283C411.975 849.27 406.533 847.693 401.817 846.443C399.43 845.81 397.387 845.301 395.511 844.817C393.867 844.393 391.983 843.899 390.604 843.398L397.439 824.602C397.439 824.602 397.46 824.61 397.507 824.625C397.554 824.641 397.617 824.661 397.7 824.687C397.868 824.739 398.087 824.803 398.366 824.881C398.93 825.04 399.634 825.226 400.505 825.45C402.179 825.882 404.482 826.458 406.943 827.111C411.925 828.432 418.194 830.23 424.399 832.639C430.508 835.01 437.124 838.188 442.481 842.496C447.834 846.801 452.963 853.108 453.645 861.708L433.707 863.288Z" fill="#21C487"/>
<circle cx="8.17976" cy="8.17976" r="8.17976" transform="matrix(-0.960116 -0.279602 -0.279602 0.960116 342.473 755.402)" fill="#3E464E"/>
<circle cx="8.17976" cy="8.17976" r="8.17976" transform="matrix(-0.960116 -0.279602 -0.279602 0.960116 286.785 739.186)" fill="#3E464E"/>
<path d="M315.585 771.444C316.274 769.078 314.915 766.602 312.549 765.913L285.419 758.012C283.053 757.323 280.576 758.683 279.888 761.048C277.132 770.512 282.569 780.417 292.032 783.173L293.46 783.589C302.924 786.345 312.829 780.908 315.585 771.444Z" fill="#3E464E"/>
<path d="M275.059 711.928C272.527 714.123 269.999 716.878 267.99 720.876" stroke="white" stroke-opacity="0.4" stroke-width="6" stroke-linecap="round"/>
<path d="M329.74 690.349C316.401 689.136 302.455 690.349 284.264 704.295" stroke="white" stroke-opacity="0.4" stroke-width="6" stroke-linecap="round"/>
<path d="M749.448 658.624L736.341 658.915C727.997 659.1 720.652 665.868 719.805 674.152L734.614 674.09L749.423 674.028L749.448 658.624Z" fill="#D58713"/>
<path d="M798.927 659L789.827 659.235C781.471 659.452 774.135 666.235 773.287 674.528L798.681 674.404L798.927 659Z" fill="#D58713"/>
<path d="M747.999 559V674" stroke="#D58713" stroke-width="13"/>
<path d="M707.499 497L706.999 590" stroke="#D58713" stroke-width="13" stroke-linecap="round"/>
<path d="M794.999 558V674" stroke="#D58713" stroke-width="8"/>
<g filter="url(#filter3_i_130_372)">
<path fill-rule="evenodd" clip-rule="evenodd" d="M799.999 557.716C794.891 559.203 789.49 560 783.902 560H748.499C716.743 560 690.999 534.256 690.999 502.5C690.999 470.744 716.743 445 748.499 445H766.201H783.902C789.49 445 794.891 445.797 799.999 447.284V557.716Z" fill="#F7A326"/>
</g>
<circle cx="6" cy="6" r="6" transform="matrix(-0.953229 -0.302249 -0.258382 0.966043 771.999 482.603)" fill="#3E464E"/>
<circle cx="6" cy="6" r="6" transform="matrix(-0.953229 -0.302249 -0.258382 0.966043 729.988 482.603)" fill="#3E464E"/>
<rect width="22.0058" height="7.62365" rx="3.81183" transform="matrix(-1 0 0 1 753.995 495.336)" fill="#3E464E" stroke="#3E464E" stroke-width="3"/>
<path d="M730.5 453.214C716.499 458.5 707.602 468.961 701.999 478" stroke="white" stroke-opacity="0.3" stroke-width="5" stroke-linecap="round"/>
<line y1="-1" x2="124" y2="-1" transform="matrix(4.37114e-08 1 1 -4.37114e-08 800.999 435)" stroke="#3E464E" stroke-width="2"/>
<path d="M698.999 487C697.748 490.5 696.733 494.483 696.674 499.214" stroke="white" stroke-opacity="0.3" stroke-width="5" stroke-linecap="round"/>
<defs>
<filter id="filter0_i_130_372" x="466.145" y="216" width="205.424" height="216.478" filterUnits="userSpaceOnUse" color-interpolation-filters="sRGB">
<feFlood flood-opacity="0" result="BackgroundImageFix"/>
<feBlend mode="normal" in="SourceGraphic" in2="BackgroundImageFix" result="shape"/>
<feColorMatrix in="SourceAlpha" type="matrix" values="0 0 0 0 0 0 0 0 0 0 0 0 0 0 0 0 0 0 127 0" result="hardAlpha"/>
<feOffset dx="15" dy="-12"/>
<feComposite in2="hardAlpha" operator="arithmetic" k2="-1" k3="1"/>
<feColorMatrix type="matrix" values="0 0 0 0 0.590392 0 0 0 0 0.441146 0 0 0 0 0.875 0 0 0 0.5 0"/>
<feBlend mode="normal" in2="shape" result="effect1_innerShadow_130_372"/>
</filter>
<filter id="filter1_i_130_372" x="422.738" y="334.191" width="294.013" height="85.7247" filterUnits="userSpaceOnUse" color-interpolation-filters="sRGB">
<feFlood flood-opacity="0" result="BackgroundImageFix"/>
<feBlend mode="normal" in="SourceGraphic" in2="BackgroundImageFix" result="shape"/>
<feColorMatrix in="SourceAlpha" type="matrix" values="0 0 0 0 0 0 0 0 0 0 0 0 0 0 0 0 0 0 127 0" result="hardAlpha"/>
<feOffset dx="4" dy="-5"/>
<feComposite in2="hardAlpha" operator="arithmetic" k2="-1" k3="1"/>
<feColorMatrix type="matrix" values="0 0 0 0 0 0 0 0 0 0 0 0 0 0 0 0 0 0 0.1 0"/>
<feBlend mode="normal" in2="shape" result="effect1_innerShadow_130_372"/>
</filter>
<filter id="filter2_i_130_372" x="203.594" y="678.611" width="202.156" height="283.778" filterUnits="userSpaceOnUse" color-interpolation-filters="sRGB">
<feFlood flood-opacity="0" result="BackgroundImageFix"/>
<feBlend mode="normal" in="SourceGraphic" in2="BackgroundImageFix" result="shape"/>
<feColorMatrix in="SourceAlpha" type="matrix" values="0 0 0 0 0 0 0 0 0 0 0 0 0 0 0 0 0 0 127 0" result="hardAlpha"/>
<feOffset dx="15" dy="-11"/>
<feComposite in2="hardAlpha" operator="arithmetic" k2="-1" k3="1"/>
<feColorMatrix type="matrix" values="0 0 0 0 0.129412 0 0 0 0 0.768627 0 0 0 0 0.529412 0 0 0 0.5 0"/>
<feBlend mode="normal" in2="shape" result="effect1_innerShadow_130_372"/>
</filter>
<filter id="filter3_i_130_372" x="690.999" y="445" width="109" height="115" filterUnits="userSpaceOnUse" color-interpolation-filters="sRGB">
<feFlood flood-opacity="0" result="BackgroundImageFix"/>
<feBlend mode="normal" in="SourceGraphic" in2="BackgroundImageFix" result="shape"/>
<feColorMatrix in="SourceAlpha" type="matrix" values="0 0 0 0 0 0 0 0 0 0 0 0 0 0 0 0 0 0 127 0" result="hardAlpha"/>
<feOffset dx="1" dy="-8"/>
<feComposite in2="hardAlpha" operator="arithmetic" k2="-1" k3="1"/>
<feColorMatrix type="matrix" values="0 0 0 0 0.779167 0 0 0 0 0.494771 0 0 0 0 0.068177 0 0 0 0.5 0"/>
<feBlend mode="normal" in2="shape" result="effect1_innerShadow_130_372"/>
</filter>
</defs>
</svg>
