<?xml version="1.0" encoding="utf-8"?>
<!-- Generator: Adobe Illustrator 26.3.1, SVG Export Plug-In . SVG Version: 6.00 Build 0)  -->
<svg version="1.1" id="Layer_1" xmlns="http://www.w3.org/2000/svg" xmlns:xlink="http://www.w3.org/1999/xlink" x="0px" y="0px"
	 viewBox="0 0 356.6 169.8" style="enable-background:new 0 0 356.6 169.8;" xml:space="preserve">
<style type="text/css">
	.st0{fill:#FFFFFF;stroke:#2A2A2A;stroke-width:8;stroke-miterlimit:10;}
	.st1{fill:#2A2A2A;stroke:#2A2A2A;stroke-width:10;stroke-miterlimit:10;}
	.st2{fill:#FF7558;stroke:#2A2A2A;stroke-width:2.3638;stroke-miterlimit:10;}
	.st3{fill:#FF7558;}
	.st4{fill:#2A2A2A;}
	.st5{fill:#FF7558;stroke:#2A2A2A;stroke-width:4;stroke-linecap:round;stroke-miterlimit:24;}
	.st6{fill:#FFFFFF;}
</style>
<path class="st0" d="M112.4,99.4c-3.1-27.2-19.8-26.7-29.9-27.5c-6.9-0.5-31.6-0.5-38.4,0C34,72.7,17.3,72.2,14.2,99.4
	c-0.3,1.6-0.3,12.6,0,14.3c3.1,27.2,19.8,26.8,29.9,27.6c0.5,0,1.2,0.1,1.9,0.1c7.9,0.6,9.6,1.9,8.1,6c-2.9,8.1,7.6,12.2,14.4,3.7
	c5.5-6.8,5.6-9.1,9.8-9.7c1.7-0.1,3.1-0.1,4.2-0.2c10-0.8,26.8-0.3,29.9-27.5C112.7,112.1,112.7,101.1,112.4,99.4z"/>
<g>
	<path class="st1" d="M45.4,90.5c5.9,0,12.7,4.8,20.6,6.4c1.9,0.4,3.8,0.5,5.5,0.5c5.2,0,9.6-1.3,13.2-1.3c3.4,0,6.2,1.2,8.2,5.9
		c4,9-5,25.1-25.8,25.1c-2,0-4.2-0.2-6.5-0.5c-25.1-3.7-29.8-22.7-23.9-31C39.4,91.8,42.3,90.5,45.4,90.5"/>
</g>
<path class="st2" d="M35.9,110.6c2.8,7.6,11.5,14.5,27.9,16.3c8,1.2,14.9-1.1,20.6-3.3C71.8,97.3,38.4,107.2,35.9,110.6z"/>
<g>
	<path class="st3" d="M81.8,156.2c-8.9,0-17.7-8.6-19.6-19.2c-1.4-7.6-8.4-12.2-12.9-12.2h-0.5l-0.5-0.2c-0.4-0.1-11-3.7-14.3-14.2
		l-0.7-2.3l2-1.2c3.6-2.1,7.7-3.6,12.3-4.3c3.2-1.4,6.6-2.2,10.1-2.2c10.9,0,20.3,6.8,26.3,12.6c9.3,9,14.4,22.3,12.1,31.8
		c-1.3,5.4-5,9.2-10.5,10.8C84.5,156,83.1,156.2,81.8,156.2z"/>
	<path class="st4" d="M57.8,103.5c9.3,0,18.1,5.8,24.3,11.7c12.3,11.8,17.4,33.3,2.9,37.5c-1,0.3-2.1,0.4-3.1,0.4
		c-7.7,0-15-7.7-16.7-16.7c-1.6-8.7-9.8-14.7-15.9-14.7c0,0-9.5-3.1-12.4-12.2c3.5-2.1,7.4-3.4,11.6-4
		C51.6,104.1,54.7,103.5,57.8,103.5 M57.8,97.5L57.8,97.5c-3.8,0-7.5,0.8-11,2.3c-4.8,0.8-9.1,2.4-12.9,4.6l-4.1,2.4l1.4,4.5
		c3.8,11.9,15.7,16,16.2,16.1l0.9,0.3h1c3.3,0,8.9,3.9,10,9.7c2.2,12.1,12.1,21.7,22.6,21.7c1.6,0,3.2-0.2,4.8-0.7
		c6.5-1.9,11-6.5,12.5-13c2.6-10.4-2.9-25-12.9-34.7C79.8,104.8,69.7,97.5,57.8,97.5L57.8,97.5z"/>
</g>
<path class="st5" d="M35.9,108.8c18.3-8.2,33.3,7.4,33.3,7.4"/>
<g>
	<path class="st4" d="M164.7,105.7c0.4-0.5,0.7-1.2,0.9-1.8c0.3-0.4,0.6-0.9,0.8-1.4c1.3-0.8,2.3-2,2.7-3.4c0.4-0.5,0.7-1.2,0.9-1.8
		c0.4-0.5,0.7-1.2,0.9-1.8c0.4-0.5,0.7-1.2,0.9-1.8c0.4-0.5,0.7-1.2,0.9-1.8c0.4-0.5,0.7-1.2,0.9-1.8c0.4-0.5,0.7-1.2,0.9-1.8
		c0.4-0.5,0.7-1.2,0.9-1.8c0.4-0.5,0.7-1.2,0.9-1.8c0.4-0.5,0.7-1.2,0.9-1.8c0.4-0.5,0.7-1.2,0.9-1.8c0.9-1.2,1.3-2.7,1.1-4.2
		l-1.7-14.4c-0.2-1.6-1-3-2.2-4c-1.1-0.8-2.4-1.3-3.7-1.3c-0.2,0-0.5,0-0.7,0l-1.4,0.2l-0.3-2.5c-0.2-1.6-1-3-2.2-4
		c-1.1-0.8-2.4-1.3-3.7-1.3c-0.2,0-0.5,0-0.7,0l-8.2,1l0.1-0.1c0,0,0-0.1,0.1-0.1l0.9-1.7c0,0,0-0.1,0.1-0.1l0.9-1.7
		c0,0,0-0.1,0.1-0.1l0.9-1.7c0,0,0-0.1,0.1-0.1l0.9-1.7c0,0,0-0.1,0.1-0.1l0.9-1.7c0,0,0-0.1,0.1-0.1l0.9-1.7c0,0,0-0.1,0.1-0.1
		l0.9-1.7c0,0,0-0.1,0.1-0.1l0.9-1.7c1-2,0.8-4.3-0.4-6.1c-1.1-1.6-3-2.6-4.9-2.6c-0.2,0-0.5,0-0.7,0l-19.1,2.3
		c-2,0.2-3.7,1.4-4.6,3.2l-19.3,36.7c-0.1,0.2-0.2,0.4-0.2,0.5l-0.7,1.3c-0.1,0.2-0.2,0.4-0.2,0.5l-0.7,1.3
		c-0.1,0.2-0.2,0.4-0.2,0.5l-0.7,1.3c-0.1,0.2-0.2,0.4-0.2,0.5l-0.7,1.3c-0.1,0.2-0.2,0.4-0.2,0.5l-0.7,1.3
		c-0.1,0.2-0.2,0.4-0.2,0.5l-0.7,1.3c-0.1,0.2-0.2,0.4-0.2,0.5l-0.7,1.3c-0.1,0.2-0.2,0.4-0.2,0.5l-0.7,1.3
		c-0.1,0.2-0.2,0.4-0.2,0.5l-0.7,1.3c-0.1,0.2-0.2,0.4-0.2,0.5l-0.7,1.3c-0.1,0.2-0.2,0.4-0.2,0.5l-0.7,1.3
		c-0.6,1.1-0.8,2.3-0.7,3.5l1.4,11.8c0.4,3,3,5.3,6,5.3c0.2,0,0.5,0,0.7,0l22.6-2.7l0.4,3.5c0.2,1.6,1,3,2.2,4
		c1.1,0.8,2.4,1.3,3.7,1.3c0.2,0,0.5,0,0.7,0l18-2.2c2.4-0.3,4.4-2,5-4.2c0.4-0.5,0.7-1.2,0.9-1.8
		C164.2,107,164.5,106.3,164.7,105.7z"/>
	<path class="st4" d="M243.6,44.2c-0.6-1.5-1.3-3-2-4.4c-0.2-0.4-0.4-0.9-0.7-1.3c-0.2-0.4-0.4-0.9-0.7-1.3
		c-0.2-0.4-0.4-0.9-0.7-1.3c-0.2-0.4-0.4-0.9-0.7-1.3c-0.2-0.4-0.4-0.9-0.7-1.3c-0.2-0.4-0.4-0.9-0.7-1.3c-0.2-0.4-0.4-0.9-0.7-1.3
		c-0.2-0.4-0.4-0.9-0.7-1.3c-0.2-0.4-0.4-0.9-0.7-1.3c-0.2-0.4-0.4-0.9-0.7-1.3c-2.1-4.2-4.9-7.7-8.5-10.4
		c-4.4-3.3-9.7-5.3-15.7-5.9c-1.2-0.1-2.4-0.2-3.5-0.2c0,0,0,0,0,0c-4.6,0-9,1-13,2.9c-5,2.4-9.2,6.2-12.3,11.3
		c-3,4.9-4.9,10.9-5.6,17.8c-0.7,6.9,0,13.1,2,18.5c0.6,1.5,1.3,3,2,4.4c0.2,0.4,0.4,0.9,0.7,1.3c0.2,0.4,0.4,0.9,0.7,1.3
		c0.2,0.4,0.4,0.9,0.7,1.3c0.2,0.4,0.4,0.9,0.7,1.3c0.2,0.4,0.4,0.9,0.7,1.3c0.2,0.4,0.4,0.9,0.7,1.3c0.2,0.4,0.4,0.9,0.7,1.3
		c0.2,0.4,0.4,0.9,0.7,1.3c0.2,0.4,0.4,0.9,0.7,1.3c0.2,0.4,0.4,0.9,0.7,1.3c2.1,4.2,4.9,7.7,8.5,10.4c4.4,3.3,9.7,5.3,15.7,5.9
		c1.2,0.1,2.4,0.2,3.5,0.2c4.6,0,9-1,13-2.9c5-2.4,9.2-6.2,12.3-11.3c3-4.9,4.9-10.9,5.6-17.8C246.3,55.8,245.7,49.6,243.6,44.2z"/>
	<path class="st4" d="M325.8,89.1c-0.3-0.6-0.7-1.2-1.1-1.7c-0.3-0.6-0.7-1.2-1.1-1.7c-0.3-0.6-0.7-1.2-1.1-1.7
		c-0.2-0.5-0.6-1-0.9-1.4c-0.2-0.9-0.5-1.7-1-2.4c-0.2-0.2-0.3-0.4-0.5-0.6c-0.2-0.4-0.4-0.7-0.6-1c-0.2-0.2-0.3-0.4-0.5-0.6
		c-0.2-0.4-0.4-0.7-0.6-1c-0.2-0.2-0.3-0.4-0.5-0.6c-0.2-0.4-0.4-0.7-0.6-1c-0.2-0.2-0.3-0.4-0.5-0.6c-0.2-0.4-0.4-0.7-0.6-1
		c-0.2-0.2-0.3-0.4-0.5-0.6c-0.2-0.4-0.4-0.7-0.6-1c-0.2-0.2-0.3-0.4-0.5-0.6c-0.1-0.2-0.2-0.4-0.3-0.6l5.6-6.1c1.5-1.6,2-3.9,1.3-6
		c-0.3-0.8-0.8-1.6-1.4-2.2c-0.3-0.6-0.7-1.2-1.1-1.7c-0.3-0.6-0.7-1.2-1.1-1.7c-0.3-0.6-0.7-1.2-1.1-1.7c-0.3-0.6-0.7-1.2-1.1-1.7
		c-0.3-0.6-0.7-1.2-1.1-1.7c-0.3-0.6-0.7-1.2-1.1-1.7c-0.3-0.6-0.7-1.2-1.1-1.7c-0.3-0.6-0.7-1.2-1.1-1.7c-0.3-0.6-0.7-1.2-1.1-1.7
		c-0.3-0.6-0.7-1.2-1.1-1.7c-0.8-1.8-2.5-3.1-4.5-3.4l-19-3c-0.3,0-0.6-0.1-0.9-0.1c-1.6,0-3.2,0.7-4.3,1.9l-28.6,30
		c-0.8,0.9-1.4,2-1.6,3.2L247,79.7c-0.2,1.6,0.1,3.2,1.1,4.5c0.2,0.2,0.3,0.4,0.5,0.6c0.2,0.4,0.4,0.7,0.6,1
		c0.2,0.2,0.3,0.4,0.5,0.6c0.2,0.4,0.4,0.7,0.6,1c0.2,0.2,0.3,0.4,0.5,0.6c0.2,0.4,0.4,0.7,0.6,1c0.2,0.2,0.3,0.4,0.5,0.6
		c0.2,0.4,0.4,0.7,0.6,1c0.2,0.2,0.3,0.4,0.5,0.6c0.2,0.4,0.4,0.7,0.6,1c0.2,0.2,0.3,0.4,0.5,0.6c0.2,0.4,0.4,0.7,0.6,1
		c0.2,0.2,0.3,0.4,0.5,0.6c0.2,0.4,0.4,0.7,0.6,1c0.2,0.2,0.3,0.4,0.5,0.6c0.2,0.4,0.4,0.7,0.6,1c0.2,0.2,0.3,0.4,0.5,0.6
		c0.2,0.4,0.4,0.7,0.6,1c0.2,0.2,0.3,0.4,0.5,0.6c0.2,0.4,0.4,0.7,0.6,1c0.2,0.2,0.3,0.4,0.5,0.6c0.2,0.4,0.4,0.7,0.6,1
		c0.9,1.3,2.3,2.2,3.9,2.4l17,2.7c0.1,0.1,0.2,0.3,0.3,0.4c0.2,0.2,0.3,0.4,0.5,0.6c0.2,0.4,0.4,0.7,0.6,1c0.2,0.2,0.3,0.4,0.5,0.6
		c0.2,0.4,0.4,0.7,0.6,1c0.2,0.2,0.3,0.4,0.5,0.6c0.2,0.4,0.4,0.7,0.6,1c0.2,0.2,0.3,0.4,0.5,0.6c0.2,0.4,0.4,0.7,0.6,1
		c0.2,0.2,0.3,0.4,0.5,0.6c0.2,0.4,0.4,0.7,0.6,1c0.9,1.3,2.3,2.2,3.9,2.4l17.9,2.8c0.3,0,0.6,0.1,0.9,0.1c1.3,0,2.5-0.4,3.5-1.1
		c1.3-0.9,2.2-2.3,2.4-3.9l0.6-3.5l1.4,0.2c0.3,0,0.6,0.1,0.9,0.1c1.3,0,2.5-0.4,3.5-1.1c1.3-0.9,2.2-2.3,2.4-3.9l2.3-14.3
		C327.7,92.3,327,90.4,325.8,89.1z"/>
	<g>
		<g>
			<path class="st6" d="M149.1,92.8c-0.7,0-1.3-0.2-1.9-0.6c-0.6-0.5-1-1.2-1.1-2l-0.8-6.5l-25.6,3.1c-0.1,0-0.2,0-0.4,0
				c-1.5,0-2.8-1.1-3-2.6L115,72.3c-0.1-0.6,0-1.2,0.3-1.8l19.3-36.7c0.5-0.9,1.3-1.5,2.3-1.6L156,30c0.1,0,0.2,0,0.4,0
				c1,0,1.9,0.5,2.5,1.3c0.6,0.9,0.7,2.1,0.2,3.1L149.1,54l13.8-1.6c0.1,0,0.2,0,0.4,0c0.7,0,1.3,0.2,1.9,0.6c0.6,0.5,1,1.2,1.1,2
				l0.7,5.4l4.3-0.5c0.1,0,0.2,0,0.4,0c0.7,0,1.3,0.2,1.9,0.6c0.6,0.5,1,1.2,1.1,2l1.7,14.4c0.2,1.6-1,3.1-2.6,3.3l-4.3,0.5l0.8,6.5
				c0.2,1.6-1,3.1-2.6,3.3l-18,2.2C149.3,92.8,149.2,92.8,149.1,92.8z"/>
			<path class="st4" d="M156.4,33l-17.1,33.7l7.5-0.9l-1-8.4l17.5-2.1l1,8.4l7.3-0.9l1.7,14.4l-7.3,0.9l1.1,9.4l-18,2.2l-1.1-9.4
				l-28.6,3.4L118,71.9l19.3-36.7L156.4,33 M156.4,27c-0.2,0-0.5,0-0.7,0l-19.1,2.3c-2,0.2-3.7,1.4-4.6,3.2l-19.3,36.7
				c-0.6,1.1-0.8,2.3-0.7,3.5l1.4,11.8c0.4,3,3,5.3,6,5.3c0.2,0,0.5,0,0.7,0l22.6-2.7l0.4,3.5c0.2,1.6,1,3,2.2,4
				c1.1,0.8,2.4,1.3,3.7,1.3c0.2,0,0.5,0,0.7,0l18-2.2c3.3-0.4,5.6-3.4,5.2-6.7l-0.4-3.5l1.4-0.2c3.3-0.4,5.6-3.4,5.2-6.7l-1.7-14.4
				c-0.2-1.6-1-3-2.2-4c-1.1-0.8-2.4-1.3-3.7-1.3c-0.2,0-0.5,0-0.7,0l-1.4,0.2l-0.3-2.5c-0.2-1.6-1-3-2.2-4
				c-1.1-0.8-2.4-1.3-3.7-1.3c-0.2,0-0.5,0-0.7,0l-8.2,1l7.4-14.7c1-2,0.8-4.3-0.4-6.1C160.2,27.9,158.3,27,156.4,27L156.4,27z"/>
		</g>
	</g>
	<g>
		<g>
			<path class="st6" d="M297.8,100.3c-0.2,0-0.3,0-0.5,0l-17.9-2.8c-0.8-0.1-1.5-0.6-2-1.2c-0.5-0.6-0.7-1.4-0.5-2.2l1-6.4l-25.5-4
				c-0.8-0.1-1.5-0.6-2-1.2c-0.5-0.6-0.7-1.4-0.5-2.2l1.9-11.7c0.1-0.6,0.4-1.2,0.8-1.6l28.6-30c0.6-0.6,1.4-0.9,2.2-0.9
				c0.2,0,0.3,0,0.5,0l19,3c1.1,0.2,2,0.9,2.4,2s0.1,2.2-0.6,3l-14.9,16.2l13.7,2.2c0.8,0.1,1.5,0.6,2,1.2c0.5,0.6,0.7,1.4,0.5,2.2
				l-0.9,5.4l4.3,0.7c1.6,0.3,2.8,1.8,2.5,3.4l-2.3,14.3c-0.1,0.8-0.6,1.5-1.2,2c-0.5,0.4-1.1,0.6-1.8,0.6c-0.2,0-0.3,0-0.5,0
				l-4.3-0.7l-1,6.4C300.5,99.3,299.2,100.3,297.8,100.3z"/>
			<path class="st4" d="M283.3,38.9l19,3l-25.6,27.8l7.4,1.2l1.3-8.4l17.4,2.8l-1.3,8.4l7.3,1.2l-2.3,14.3l-7.3-1.2l-1.5,9.4
				l-17.9-2.8l1.5-9.4l-28.4-4.5l1.9-11.7L283.3,38.9 M283.3,32.9c-1.6,0-3.2,0.7-4.3,1.9l-28.6,30c-0.8,0.9-1.4,2-1.6,3.2L247,79.7
				c-0.2,1.6,0.1,3.2,1.1,4.5c0.9,1.3,2.3,2.2,3.9,2.4l22.5,3.6l-0.6,3.5c-0.2,1.6,0.1,3.2,1.1,4.5c0.9,1.3,2.3,2.2,3.9,2.4
				l17.9,2.8c0.3,0,0.6,0.1,0.9,0.1c1.3,0,2.5-0.4,3.5-1.1c1.3-0.9,2.2-2.3,2.4-3.9l0.6-3.5l1.4,0.2c0.3,0,0.6,0.1,0.9,0.1
				c1.3,0,2.5-0.4,3.5-1.1c1.3-0.9,2.2-2.3,2.4-3.9l2.3-14.3c0.5-3.3-1.7-6.3-5-6.9l-1.4-0.2l0.4-2.5c0.2-1.6-0.1-3.2-1.1-4.5
				s-2.3-2.2-3.9-2.4l-8.2-1.3l11.1-12.1c1.5-1.6,2-3.9,1.3-6c-0.7-2.1-2.5-3.6-4.7-4l-19-3C284,32.9,283.7,32.9,283.3,32.9
				L283.3,32.9z"/>
		</g>
	</g>
	<g>
		<g>
			<path class="st6" d="M214.7,91.7c-1,0-2.1-0.1-3.2-0.2c-5.4-0.5-10.2-2.3-14.2-5.3c-4-3-7-7.1-8.9-12.2c-1.9-5-2.5-10.7-1.8-17.2
				c0.6-6.4,2.4-12,5.2-16.5c2.9-4.6,6.6-8,11.1-10.2c3.6-1.7,7.5-2.6,11.7-2.6c1,0,2.1,0.1,3.2,0.2c5.4,0.5,10.2,2.3,14.2,5.3
				c4,3,7,7.1,8.9,12.2c1.9,5,2.5,10.7,1.8,17.2c-0.6,6.4-2.4,12-5.2,16.5c-2.9,4.6-6.6,8-11.1,10.2
				C222.9,90.8,218.9,91.7,214.7,91.7z M215.5,48.7c-1.9,0-3.5,4.1-4.2,10.7c-0.5,5.2-0.1,8,0.4,9.4c0.6,1.8,1.4,1.9,1.8,1.9
				c0.1,0,0.2,0,0.2,0c1.9,0,3.5-4.1,4.2-10.7c0.3-2.6,0.8-11-2.2-11.3C215.7,48.7,215.6,48.7,215.5,48.7z"/>
			<path class="st4" d="M214.6,30.6c1,0,1.9,0,2.9,0.1c4.9,0.5,9.1,2.1,12.6,4.7c3.5,2.7,6.2,6.3,7.9,10.8c1.7,4.6,2.3,9.8,1.7,15.8
				c-0.6,6-2.2,11.1-4.7,15.2c-2.6,4.1-5.8,7.2-9.8,9.1c-3.2,1.5-6.7,2.3-10.4,2.3c-0.9,0-1.9,0-2.9-0.1c-4.9-0.5-9.1-2.1-12.6-4.7
				c-3.5-2.7-6.2-6.3-7.9-10.8c-1.7-4.6-2.3-9.8-1.7-15.8c0.6-6,2.2-11.1,4.7-15.2c2.6-4.1,5.8-7.2,9.8-9.1
				C207.4,31.4,210.9,30.6,214.6,30.6 M213.8,73.7c3.9,0,6.3-4.5,7.2-13.4c0.9-9.3-0.7-14.2-4.9-14.6c-0.2,0-0.4,0-0.5,0
				c-3.9,0-6.3,4.5-7.2,13.4c-0.9,9.3,0.7,14.2,4.9,14.6C213.5,73.6,213.6,73.7,213.8,73.7 M214.6,24.6
				C214.6,24.6,214.6,24.6,214.6,24.6c-4.6,0-9,1-13,2.9c-5,2.4-9.2,6.2-12.3,11.3c-3,4.9-4.9,10.9-5.6,17.8c-0.7,6.9,0,13.1,2,18.5
				c2.1,5.6,5.4,10.2,9.9,13.5c4.4,3.3,9.7,5.3,15.7,5.9c1.2,0.1,2.4,0.2,3.5,0.2c4.6,0,9-1,13-2.9c5-2.4,9.2-6.2,12.3-11.3
				c3-4.9,4.9-10.9,5.6-17.8c0.7-6.9,0-13.1-2-18.5c-2.1-5.6-5.4-10.2-9.9-13.5c-4.4-3.3-9.7-5.3-15.7-5.9
				C216.9,24.7,215.8,24.6,214.6,24.6L214.6,24.6z M214.1,65c-0.1-1.3,0-3,0.2-5.3c0.2-2.3,0.5-4,0.9-5.3c0.1,1.3,0,3-0.2,5.3
				C214.8,62,214.5,63.7,214.1,65L214.1,65z"/>
		</g>
	</g>
</g>
</svg>
