<?xml version="1.0" encoding="utf-8"?>
<!-- Generator: Adobe Illustrator 26.3.1, SVG Export Plug-In . SVG Version: 6.00 Build 0)  -->
<svg version="1.1" id="Layer_1" xmlns="http://www.w3.org/2000/svg" xmlns:xlink="http://www.w3.org/1999/xlink" x="0px" y="0px"
	 viewBox="0 0 400 169.8" style="enable-background:new 0 0 400 169.8;" xml:space="preserve">
<style type="text/css">
	.st0{fill:#FFFFFF;}
	.st1{fill:#2A2A2A;}
	.st2{fill:#FFFFFF;stroke:#2A2A2A;stroke-width:8;stroke-miterlimit:10;}
	.st3{fill:#2A2A2A;stroke:#2A2A2A;stroke-width:10;stroke-miterlimit:10;}
	.st4{fill:#FF7558;stroke:#2A2A2A;stroke-width:4;stroke-linecap:round;stroke-miterlimit:24;}
	.st5{fill:none;stroke:#2A2A2A;stroke-width:10;stroke-miterlimit:10;}
</style>
<g>
	<g>
		<path class="st0" d="M237.6,82.8c-4.7,0-9-1-13-3c-4.7-2.4-8.5-6.1-11.4-11c-2.8-4.8-4.6-10.7-5.1-17.5
			c-0.5-6.8,0.2-12.9,2.3-18.1c2.1-5.3,5.3-9.6,9.6-12.6c4.2-3.1,9.3-4.8,15-5.3c0.9-0.1,1.8-0.1,2.7-0.1c4.7,0,9,1,13,3
			c4.7,2.4,8.5,6.1,11.4,11c2.8,4.8,4.6,10.7,5.1,17.5c0.5,6.8-0.2,12.9-2.3,18.1c-2.1,5.3-5.3,9.5-9.6,12.6
			c-4.2,3.1-9.3,4.8-15,5.3C239.4,82.8,238.5,82.8,237.6,82.8z M236.8,37.2c-3.4,0.3-3.1,8.6-2.8,12.1c0.6,7.2,2.2,11.6,4.4,11.6
			c0,0,0.1,0,0.2,0c3.4-0.3,3.1-8.6,2.8-12.1c-0.6-7.2-2.2-11.6-4.4-11.6C236.9,37.2,236.9,37.2,236.8,37.2z"/>
		<path class="st1" d="M237.8,18.2c4.2,0,8.1,0.9,11.6,2.7c4.2,2.1,7.6,5.4,10.2,9.8c2.6,4.4,4.2,9.8,4.7,16.2
			c0.5,6.4-0.2,12-2.1,16.7c-1.9,4.8-4.8,8.6-8.6,11.3c-3.8,2.7-8.3,4.3-13.5,4.7c-0.8,0.1-1.7,0.1-2.5,0.1c-4.2,0-8.1-0.9-11.6-2.7
			c-4.2-2.1-7.6-5.4-10.2-9.8c-2.6-4.4-4.2-9.8-4.7-16.2c-0.5-6.4,0.2-12,2.1-16.7s4.8-8.6,8.6-11.3c3.8-2.7,8.3-4.3,13.5-4.7
			C236.1,18.3,237,18.2,237.8,18.2 M238.4,63.9c0.1,0,0.3,0,0.5,0c4.5-0.3,6.3-5.5,5.6-15.4c-0.7-9.6-3.2-14.3-7.4-14.3
			c-0.1,0-0.3,0-0.4,0c-4.5,0.3-6.3,5.5-5.6,15.4C231.7,59.1,234.2,63.9,238.4,63.9 M237.8,12.2C237.8,12.2,237.8,12.2,237.8,12.2
			c-1,0-1.9,0-2.9,0.1c-6.3,0.5-11.9,2.5-16.5,5.8c-4.7,3.4-8.3,8.1-10.6,13.9c-2.2,5.6-3.1,12.2-2.5,19.4
			c0.6,7.3,2.4,13.6,5.5,18.8c3.2,5.4,7.5,9.5,12.7,12.1c4.3,2.2,9.2,3.3,14.3,3.3c1,0,1.9,0,2.9-0.1c6.3-0.5,11.9-2.5,16.5-5.8
			c4.7-3.4,8.3-8.1,10.6-13.9c2.2-5.6,3.1-12.2,2.5-19.4c-0.6-7.3-2.4-13.6-5.5-18.8c-3.2-5.4-7.5-9.5-12.7-12.1
			C247.8,13.4,242.9,12.2,237.8,12.2L237.8,12.2z M238.3,56.5c-0.5-1.3-1-3.6-1.3-7.4c-0.3-3.8-0.1-6.1,0.1-7.5
			c0.5,1.3,1,3.6,1.3,7.4C238.7,52.8,238.5,55.1,238.3,56.5L238.3,56.5z"/>
	</g>
	<g>
		<path class="st0" d="M236.2,83.7c-4.7,0-9-1-13-3c-4.7-2.4-8.5-6.1-11.4-11c-2.8-4.8-4.6-10.7-5.1-17.5
			c-0.5-6.8,0.2-12.9,2.3-18.1c2.1-5.3,5.3-9.6,9.6-12.6c4.2-3.1,9.3-4.8,15-5.3c0.9-0.1,1.8-0.1,2.7-0.1c4.7,0,9,1,13,3
			c4.7,2.4,8.5,6.1,11.4,11c2.8,4.8,4.6,10.7,5.1,17.5c0.5,6.8-0.2,12.9-2.3,18.1c-2.1,5.3-5.3,9.5-9.6,12.6
			c-4.2,3.1-9.3,4.8-15,5.3C238,83.7,237.1,83.7,236.2,83.7z M235.3,38.1c-0.5,0-1.4,0.1-2.2,2.1c-0.5,1.5-1.1,4.4-0.6,10
			c0.6,7.2,2.2,11.6,4.4,11.6c0,0,0.1,0,0.2,0c3.4-0.3,3.1-8.6,2.8-12.1c-0.6-7.2-2.2-11.6-4.4-11.6
			C235.5,38.1,235.4,38.1,235.3,38.1z"/>
		<path class="st1" d="M236.3,19.2c4.2,0,8.1,0.9,11.6,2.7c4.2,2.1,7.6,5.4,10.2,9.8c2.6,4.4,4.2,9.8,4.7,16.2
			c0.5,6.4-0.2,12-2.1,16.7c-1.9,4.8-4.8,8.6-8.6,11.3c-3.8,2.7-8.3,4.3-13.5,4.7c-0.8,0.1-1.7,0.1-2.5,0.1c-4.2,0-8.1-0.9-11.6-2.7
			c-4.2-2.1-7.6-5.4-10.2-9.8c-2.6-4.4-4.2-9.8-4.7-16.2c-0.5-6.4,0.2-12,2.1-16.7c1.9-4.8,4.8-8.6,8.6-11.3
			c3.8-2.7,8.3-4.3,13.5-4.7C234.7,19.2,235.5,19.2,236.3,19.2 M237,64.8c0.1,0,0.3,0,0.5,0c4.5-0.3,6.3-5.5,5.6-15.4
			c-0.7-9.6-3.2-14.3-7.4-14.3c-0.1,0-0.3,0-0.4,0c-4.5,0.3-6.3,5.5-5.6,15.4C230.3,60,232.8,64.8,237,64.8 M236.3,13.2
			C236.3,13.2,236.3,13.2,236.3,13.2c-1,0-1.9,0-2.9,0.1c-6.3,0.5-11.9,2.5-16.5,5.8c-4.7,3.4-8.3,8.1-10.6,13.9
			c-2.2,5.6-3.1,12.2-2.5,19.4c0.6,7.3,2.4,13.6,5.5,18.8c3.2,5.4,7.5,9.5,12.7,12.1c4.3,2.2,9.2,3.3,14.3,3.3c1,0,1.9,0,2.9-0.1
			c6.3-0.5,11.9-2.5,16.5-5.8c4.7-3.4,8.3-8.1,10.6-13.9c2.2-5.6,3.1-12.2,2.5-19.4c-0.6-7.3-2.4-13.6-5.5-18.8
			c-3.2-5.4-7.5-9.5-12.7-12.1C246.3,14.3,241.5,13.2,236.3,13.2L236.3,13.2z M236.8,57.4c-0.5-1.3-1-3.6-1.3-7.4
			c-0.3-3.8-0.1-6.1,0.1-7.5c0.5,1.3,1,3.6,1.3,7.4C237.3,53.7,237.1,56,236.8,57.4L236.8,57.4z"/>
	</g>
	<g>
		<path class="st0" d="M234.7,84.6c-4.7,0-9-1-13-3c-4.7-2.4-8.5-6.1-11.4-11c-2.8-4.8-4.6-10.7-5.1-17.5
			c-0.5-6.8,0.2-12.9,2.3-18.1c2.1-5.3,5.3-9.6,9.6-12.6c4.2-3.1,9.3-4.8,15-5.3c0.9-0.1,1.8-0.1,2.7-0.1c4.7,0,9,1,13,3
			c4.7,2.4,8.5,6.1,11.4,11c2.8,4.8,4.6,10.7,5.1,17.5c0.5,6.8-0.2,12.9-2.3,18.1c-2.1,5.3-5.3,9.5-9.6,12.6
			c-4.2,3.1-9.3,4.8-15,5.3C236.5,84.6,235.6,84.6,234.7,84.6z M233.9,39c-0.5,0-1.4,0.1-2.2,2.1c-0.5,1.5-1.1,4.4-0.6,10
			c0.6,7.2,2.2,11.6,4.4,11.6c0.1,0,0.1,0,0.2,0c0.5,0,1.4-0.1,2.2-2.1c0.5-1.5,1.1-4.4,0.6-10c-0.6-7.2-2.2-11.6-4.4-11.6
			C234,39,233.9,39,233.9,39z"/>
		<path class="st1" d="M234.9,20.1c4.2,0,8.1,0.9,11.6,2.7c4.2,2.1,7.6,5.4,10.2,9.8c2.6,4.4,4.2,9.8,4.7,16.2
			c0.5,6.4-0.2,12-2.1,16.7c-1.9,4.8-4.8,8.6-8.6,11.3c-3.8,2.7-8.3,4.3-13.5,4.7c-0.8,0.1-1.7,0.1-2.5,0.1c-4.2,0-8.1-0.9-11.6-2.7
			c-4.2-2.1-7.6-5.4-10.2-9.8c-2.6-4.4-4.2-9.8-4.7-16.2c-0.5-6.4,0.2-12,2.1-16.7c1.9-4.8,4.8-8.6,8.6-11.3
			c3.8-2.7,8.3-4.3,13.5-4.7C233.2,20.1,234.1,20.1,234.9,20.1 M235.5,65.7c0.1,0,0.3,0,0.5,0c4.5-0.3,6.3-5.5,5.6-15.4
			c-0.7-9.6-3.2-14.3-7.4-14.3c-0.1,0-0.3,0-0.4,0c-4.5,0.3-6.3,5.5-5.6,15.4C228.8,60.9,231.3,65.7,235.5,65.7 M234.9,14.1
			C234.9,14.1,234.9,14.1,234.9,14.1c-1,0-1.9,0-2.9,0.1c-6.3,0.5-11.9,2.5-16.5,5.8c-4.7,3.4-8.3,8.1-10.6,13.9
			c-2.2,5.6-3.1,12.2-2.5,19.4c0.6,7.3,2.4,13.6,5.5,18.8c3.2,5.4,7.5,9.5,12.7,12.1c4.3,2.2,9.2,3.3,14.3,3.3c1,0,1.9,0,2.9-0.1
			c6.3-0.5,11.9-2.5,16.5-5.8c4.7-3.4,8.3-8.1,10.6-13.9c2.2-5.6,3.1-12.2,2.5-19.4c-0.6-7.3-2.4-13.6-5.5-18.8
			c-3.2-5.4-7.5-9.5-12.7-12.1C244.8,15.2,240,14.1,234.9,14.1L234.9,14.1z M235.4,58.3c-0.5-1.3-1-3.6-1.3-7.4
			c-0.3-3.8-0.1-6.1,0.1-7.5c0.5,1.3,1,3.6,1.3,7.4C235.8,54.6,235.6,56.9,235.4,58.3L235.4,58.3z"/>
	</g>
	<g>
		<path class="st0" d="M233.3,85.5c-4.7,0-9-1-13-3c-4.7-2.4-8.5-6.1-11.4-11c-2.8-4.8-4.6-10.7-5.1-17.5
			c-0.5-6.8,0.2-12.9,2.3-18.1c2.1-5.3,5.3-9.6,9.6-12.6c4.2-3.1,9.3-4.8,15-5.3c0.9-0.1,1.8-0.1,2.7-0.1c4.7,0,9,1,13,3
			c4.7,2.4,8.5,6.1,11.4,11c2.8,4.8,4.6,10.7,5.1,17.5c0.5,6.8-0.2,12.9-2.3,18.1c-2.1,5.3-5.3,9.6-9.6,12.6
			c-4.2,3.1-9.3,4.8-15,5.3C235.1,85.5,234.2,85.5,233.3,85.5z M232.4,39.9c-3.4,0.3-3.1,8.6-2.8,12.1c0.6,7.2,2.2,11.6,4.4,11.6
			c0.1,0,0.1,0,0.2,0c0.5,0,1.4-0.1,2.2-2.1c0.5-1.5,1.1-4.4,0.6-10c-0.6-7.2-2.2-11.6-4.4-11.6C232.6,39.9,232.5,39.9,232.4,39.9z"
			/>
		<path class="st1" d="M233.4,21c4.2,0,8.1,0.9,11.6,2.7c4.2,2.1,7.6,5.4,10.2,9.8c2.6,4.4,4.2,9.8,4.7,16.2
			c0.5,6.4-0.2,12-2.1,16.7c-1.9,4.8-4.8,8.6-8.6,11.3c-3.8,2.7-8.3,4.3-13.5,4.7c-0.8,0.1-1.7,0.1-2.5,0.1c-4.2,0-8.1-0.9-11.6-2.7
			c-4.2-2.1-7.6-5.4-10.2-9.8c-2.6-4.4-4.2-9.8-4.7-16.2c-0.5-6.4,0.2-12,2.1-16.7c1.9-4.8,4.8-8.6,8.6-11.3
			c3.8-2.7,8.3-4.3,13.5-4.7C231.8,21,232.6,21,233.4,21 M234,66.6c0.1,0,0.3,0,0.5,0c4.5-0.3,6.3-5.5,5.6-15.4
			c-0.7-9.6-3.2-14.3-7.4-14.3c-0.1,0-0.3,0-0.4,0c-4.5,0.3-6.3,5.5-5.6,15.4C227.4,61.8,229.9,66.6,234,66.6 M233.4,15
			C233.4,15,233.4,15,233.4,15c-1,0-1.9,0-2.9,0.1c-6.3,0.5-11.9,2.5-16.5,5.8c-4.7,3.4-8.3,8.1-10.6,13.9
			c-2.2,5.6-3.1,12.2-2.5,19.4c0.6,7.3,2.4,13.6,5.5,18.8c3.2,5.4,7.5,9.5,12.7,12.1c4.3,2.2,9.2,3.3,14.3,3.3c1,0,1.9,0,2.9-0.1
			c6.3-0.5,11.9-2.5,16.5-5.8c4.7-3.4,8.3-8.1,10.6-13.9c2.2-5.6,3.1-12.2,2.5-19.4c-0.6-7.3-2.4-13.6-5.5-18.8
			c-3.2-5.4-7.5-9.5-12.7-12.1C243.4,16.1,238.6,15,233.4,15L233.4,15z M233.9,59.2c-0.5-1.3-1-3.6-1.3-7.4
			c-0.3-3.8-0.1-6.1,0.1-7.5c0.5,1.3,1,3.6,1.3,7.4C234.4,55.5,234.2,57.8,233.9,59.2L233.9,59.2z"/>
	</g>
	<g>
		<path class="st0" d="M231.8,86.4c-4.7,0-9-1-13-3c-4.7-2.4-8.5-6.1-11.4-11c-2.8-4.8-4.6-10.7-5.1-17.5
			c-0.5-6.8,0.2-12.9,2.3-18.1c2.1-5.3,5.3-9.6,9.6-12.6c4.2-3.1,9.3-4.8,15-5.3c0.9-0.1,1.8-0.1,2.7-0.1c4.7,0,9,1,13,3
			c4.7,2.4,8.5,6.1,11.4,11c2.8,4.8,4.6,10.7,5.1,17.5c0.5,6.8-0.2,12.9-2.3,18.1c-2.1,5.3-5.3,9.6-9.6,12.6
			c-4.2,3.1-9.3,4.8-15,5.3C233.6,86.4,232.7,86.4,231.8,86.4z M231,40.8c-3.4,0.3-3.1,8.6-2.8,12.1c0.6,7.2,2.2,11.6,4.4,11.6
			c0.1,0,0.1,0,0.2,0c0.5,0,1.4-0.1,2.2-2.1c0.5-1.5,1.1-4.4,0.6-10c-0.6-7.2-2.2-11.6-4.4-11.6C231.1,40.8,231,40.8,231,40.8z"/>
		<path class="st1" d="M232,21.9c4.2,0,8.1,0.9,11.6,2.7c4.2,2.1,7.6,5.4,10.2,9.8c2.6,4.4,4.2,9.8,4.7,16.2
			c0.5,6.4-0.2,12-2.1,16.7c-1.9,4.8-4.8,8.6-8.6,11.3c-3.8,2.7-8.3,4.3-13.5,4.7c-0.8,0.1-1.7,0.1-2.5,0.1c-4.2,0-8.1-0.9-11.6-2.7
			c-4.2-2.1-7.6-5.4-10.2-9.8c-2.6-4.4-4.2-9.8-4.7-16.2c-0.5-6.4,0.2-12,2.1-16.7s4.8-8.6,8.6-11.3c3.8-2.7,8.3-4.3,13.5-4.7
			C230.3,21.9,231.2,21.9,232,21.9 M232.6,67.5c0.1,0,0.3,0,0.5,0c4.5-0.3,6.3-5.5,5.6-15.4c-0.7-9.6-3.2-14.3-7.4-14.3
			c-0.1,0-0.3,0-0.4,0c-4.5,0.3-6.3,5.5-5.6,15.4C225.9,62.7,228.4,67.5,232.6,67.5 M232,15.9C232,15.9,232,15.9,232,15.9
			c-1,0-1.9,0-2.9,0.1c-6.3,0.5-11.9,2.5-16.5,5.8c-4.7,3.4-8.3,8.1-10.6,13.9c-2.2,5.6-3.1,12.2-2.5,19.4
			c0.6,7.3,2.4,13.6,5.5,18.8c3.2,5.4,7.5,9.5,12.7,12.1c4.3,2.2,9.2,3.3,14.3,3.3c1,0,1.9,0,2.9-0.1c6.3-0.5,11.9-2.5,16.5-5.8
			c4.7-3.4,8.3-8.1,10.6-13.9c2.2-5.6,3.1-12.2,2.5-19.4c-0.6-7.3-2.4-13.6-5.5-18.8c-3.2-5.4-7.5-9.5-12.7-12.1
			C241.9,17,237.1,15.9,232,15.9L232,15.9z M232.5,60.1c-0.5-1.3-1-3.6-1.3-7.4c-0.3-3.8-0.1-6.1,0.1-7.5c0.5,1.3,1,3.6,1.3,7.4
			C232.9,56.4,232.7,58.7,232.5,60.1L232.5,60.1z"/>
	</g>
	<g>
		<path class="st0" d="M230.4,87.4c-4.7,0-9-1-13-3c-4.7-2.4-8.5-6.1-11.4-11c-2.8-4.8-4.6-10.7-5.1-17.5
			c-0.5-6.8,0.2-12.9,2.3-18.1c2.1-5.3,5.3-9.6,9.6-12.6c4.2-3.1,9.3-4.8,15-5.3c0.9-0.1,1.8-0.1,2.7-0.1c4.7,0,9,1,13,3
			c4.7,2.4,8.5,6.1,11.4,11c2.8,4.8,4.6,10.7,5.1,17.5c0.5,6.8-0.2,12.9-2.3,18.1c-2.1,5.3-5.3,9.5-9.6,12.6
			c-4.2,3.1-9.3,4.8-15,5.3C232.2,87.3,231.2,87.4,230.4,87.4z M229.5,41.7c-0.5,0-1.4,0.1-2.2,2.1c-0.5,1.5-1.1,4.4-0.6,10
			c0.6,7.2,2.2,11.6,4.4,11.6c0.1,0,0.1,0,0.2,0c0.5,0,1.4-0.1,2.2-2.1c0.5-1.5,1.1-4.4,0.6-10c-0.6-7.2-2.2-11.6-4.4-11.6
			C229.7,41.7,229.6,41.7,229.5,41.7z"/>
		<path class="st1" d="M230.5,22.8c4.2,0,8.1,0.9,11.6,2.7c4.2,2.1,7.6,5.4,10.2,9.8c2.6,4.4,4.2,9.8,4.7,16.2
			c0.5,6.4-0.2,12-2.1,16.7c-1.9,4.8-4.8,8.6-8.6,11.3c-3.8,2.7-8.3,4.3-13.5,4.7c-0.8,0.1-1.7,0.1-2.5,0.1c-4.2,0-8.1-0.9-11.6-2.7
			c-4.2-2.1-7.6-5.4-10.2-9.8c-2.6-4.4-4.2-9.8-4.7-16.2c-0.5-6.4,0.2-12,2.1-16.7c1.9-4.8,4.8-8.6,8.6-11.3
			c3.8-2.7,8.3-4.3,13.5-4.7C228.9,22.8,229.7,22.8,230.5,22.8 M231.1,68.4c0.1,0,0.3,0,0.5,0c4.5-0.3,6.3-5.5,5.6-15.4
			c-0.7-9.6-3.2-14.3-7.4-14.3c-0.1,0-0.3,0-0.4,0c-4.5,0.3-6.3,5.5-5.6,15.4C224.5,63.7,226.9,68.4,231.1,68.4 M230.5,16.8
			C230.5,16.8,230.5,16.8,230.5,16.8c-1,0-1.9,0-2.9,0.1c-6.3,0.5-11.9,2.5-16.5,5.8c-4.7,3.4-8.3,8.1-10.6,13.9
			c-2.2,5.6-3.1,12.2-2.5,19.4c0.6,7.3,2.4,13.6,5.5,18.8c3.2,5.4,7.5,9.5,12.7,12.1c4.3,2.2,9.2,3.3,14.3,3.3c1,0,1.9,0,2.9-0.1
			c6.3-0.5,11.9-2.5,16.5-5.8c4.7-3.4,8.3-8.1,10.6-13.9c2.2-5.6,3.1-12.2,2.5-19.4c-0.6-7.3-2.4-13.6-5.5-18.8
			c-3.2-5.4-7.5-9.5-12.7-12.1C240.5,17.9,235.7,16.8,230.5,16.8L230.5,16.8z M231,61c-0.5-1.3-1-3.6-1.3-7.4
			c-0.3-3.8-0.1-6.1,0.1-7.5c0.5,1.3,1,3.6,1.3,7.4C231.5,57.3,231.3,59.6,231,61L231,61z"/>
	</g>
	<g>
		<path class="st0" d="M228.9,88.3c-4.7,0-9-1-13-3c-4.7-2.4-8.5-6.1-11.4-11c-2.8-4.8-4.6-10.7-5.1-17.5
			c-0.5-6.8,0.2-12.9,2.3-18.1c2.1-5.3,5.3-9.6,9.6-12.6c4.2-3.1,9.3-4.8,15-5.3c0.9-0.1,1.8-0.1,2.7-0.1c4.7,0,9,1,13,3
			c4.7,2.4,8.5,6.1,11.4,11c2.8,4.8,4.6,10.7,5.1,17.5c0.5,6.8-0.2,12.9-2.3,18.1c-2.1,5.3-5.3,9.5-9.6,12.6
			c-4.2,3.1-9.3,4.8-15,5.3C230.7,88.2,229.8,88.3,228.9,88.3z M228.1,42.6c-3.4,0.3-3.1,8.6-2.8,12.1c0.6,7.2,2.2,11.6,4.4,11.6
			c0,0,0.1,0,0.2,0c0.5,0,1.4-0.1,2.2-2.1c0.5-1.5,1.1-4.4,0.6-10c-0.6-7.2-2.2-11.6-4.4-11.6C228.2,42.6,228.1,42.6,228.1,42.6z"/>
		<path class="st1" d="M229.1,23.7c4.2,0,8.1,0.9,11.6,2.7c4.2,2.1,7.6,5.4,10.2,9.8c2.6,4.4,4.2,9.8,4.7,16.2
			c0.5,6.4-0.2,12-2.1,16.7c-1.9,4.8-4.8,8.6-8.6,11.3c-3.8,2.7-8.3,4.3-13.5,4.7c-0.8,0.1-1.7,0.1-2.5,0.1c-4.2,0-8.1-0.9-11.6-2.7
			c-4.2-2.1-7.6-5.4-10.2-9.8c-2.6-4.4-4.2-9.8-4.7-16.2c-0.5-6.4,0.2-12,2.1-16.7c1.9-4.8,4.8-8.6,8.6-11.3
			c3.8-2.7,8.3-4.3,13.5-4.7C227.4,23.7,228.2,23.7,229.1,23.7 M229.7,69.3c0.1,0,0.3,0,0.5,0c4.5-0.3,6.3-5.5,5.6-15.4
			c-0.7-9.6-3.2-14.3-7.4-14.3c-0.1,0-0.3,0-0.4,0c-4.5,0.3-6.3,5.5-5.6,15.4C223,64.6,225.5,69.3,229.7,69.3 M229.1,17.7
			C229.1,17.7,229.1,17.7,229.1,17.7c-1,0-1.9,0-2.9,0.1c-6.3,0.5-11.9,2.5-16.5,5.8c-4.7,3.4-8.3,8.1-10.6,13.9
			c-2.2,5.6-3.1,12.2-2.5,19.4c0.6,7.3,2.4,13.6,5.5,18.8c3.2,5.4,7.5,9.5,12.7,12.1c4.3,2.2,9.2,3.3,14.3,3.3c1,0,1.9,0,2.9-0.1
			c6.3-0.5,11.9-2.5,16.5-5.8c4.7-3.4,8.3-8.1,10.6-13.9c2.2-5.6,3.1-12.2,2.5-19.4c-0.6-7.3-2.4-13.6-5.5-18.8
			c-3.2-5.4-7.5-9.5-12.7-12.1C239,18.8,234.2,17.7,229.1,17.7L229.1,17.7z M229.6,61.9c-0.5-1.3-1-3.6-1.3-7.4
			c-0.3-3.8-0.1-6.1,0.1-7.5c0.5,1.3,1,3.6,1.3,7.4C230,58.2,229.8,60.5,229.6,61.9L229.6,61.9z"/>
	</g>
	<g>
		<path class="st0" d="M227.5,89.2c-4.7,0-9-1-13-3c-4.7-2.4-8.5-6.1-11.4-11c-2.8-4.8-4.6-10.7-5.1-17.5
			c-0.5-6.8,0.2-12.9,2.3-18.1c2.1-5.3,5.3-9.6,9.6-12.6c4.2-3.1,9.3-4.8,15-5.3c0.9-0.1,1.8-0.1,2.7-0.1c4.7,0,9,1,13,3
			c4.7,2.4,8.5,6.1,11.4,11c2.8,4.8,4.6,10.7,5.1,17.5c0.5,6.8-0.2,12.9-2.3,18.1c-2.1,5.3-5.3,9.6-9.6,12.6
			c-4.2,3.1-9.3,4.8-15,5.3C229.2,89.1,228.3,89.2,227.5,89.2z M226.6,43.5c-0.5,0-1.4,0.1-2.2,2.1c-0.5,1.5-1.1,4.4-0.6,10
			c0.6,7.2,2.2,11.6,4.4,11.6c0.1,0,0.1,0,0.2,0c3.4-0.3,3.1-8.6,2.8-12.1c-0.6-7.2-2.2-11.6-4.4-11.6
			C226.7,43.5,226.7,43.5,226.6,43.5z"/>
		<path class="st1" d="M227.6,24.6c4.2,0,8.1,0.9,11.6,2.7c4.2,2.1,7.6,5.4,10.2,9.8c2.6,4.4,4.2,9.8,4.7,16.2
			c0.5,6.4-0.2,12-2.1,16.7c-1.9,4.8-4.8,8.6-8.6,11.3c-3.8,2.7-8.3,4.3-13.5,4.7c-0.8,0.1-1.7,0.1-2.5,0.1c-4.2,0-8.1-0.9-11.6-2.7
			c-4.2-2.1-7.6-5.4-10.2-9.8c-2.6-4.4-4.2-9.8-4.7-16.2c-0.5-6.4,0.2-12,2.1-16.7c1.9-4.8,4.8-8.6,8.6-11.3
			c3.8-2.7,8.3-4.3,13.5-4.7C226,24.6,226.8,24.6,227.6,24.6 M228.2,70.3c0.1,0,0.3,0,0.5,0c4.5-0.3,6.3-5.5,5.6-15.4
			c-0.7-9.6-3.2-14.3-7.4-14.3c-0.1,0-0.3,0-0.4,0c-4.5,0.3-6.3,5.5-5.6,15.4C221.6,65.5,224,70.3,228.2,70.3 M227.6,18.6
			C227.6,18.6,227.6,18.6,227.6,18.6c-1,0-1.9,0-2.9,0.1c-6.3,0.5-11.9,2.5-16.5,5.8c-4.7,3.4-8.3,8.1-10.6,13.9
			c-2.2,5.6-3.1,12.2-2.5,19.4c0.6,7.3,2.4,13.6,5.5,18.8c3.2,5.4,7.5,9.5,12.7,12.1c4.3,2.2,9.2,3.3,14.3,3.3c1,0,1.9,0,2.9-0.1
			c6.3-0.5,11.9-2.5,16.5-5.8c4.7-3.4,8.3-8.1,10.6-13.9c2.2-5.6,3.1-12.2,2.5-19.4c-0.6-7.3-2.4-13.6-5.5-18.8
			c-3.2-5.4-7.5-9.5-12.7-12.1C237.6,19.7,232.8,18.6,227.6,18.6L227.6,18.6z M228.1,62.8c-0.5-1.3-1-3.6-1.3-7.4
			c-0.3-3.8-0.1-6.1,0.1-7.5c0.5,1.3,1,3.6,1.3,7.4C228.5,59.1,228.4,61.5,228.1,62.8L228.1,62.8z"/>
	</g>
	<g>
		<path class="st0" d="M226,90.1c-4.7,0-9-1-13-3c-4.7-2.4-8.5-6.1-11.4-11c-2.8-4.8-4.6-10.7-5.1-17.5c-0.5-6.8,0.2-12.9,2.3-18.1
			c2.1-5.3,5.3-9.6,9.6-12.6c4.2-3.1,9.3-4.8,15-5.3c0.9-0.1,1.8-0.1,2.7-0.1c4.7,0,9,1,13,3c4.7,2.4,8.5,6.1,11.4,11
			c2.8,4.8,4.6,10.7,5.1,17.5c0.5,6.8-0.2,12.9-2.3,18.1c-2.1,5.3-5.3,9.5-9.6,12.6c-4.2,3.1-9.3,4.8-15,5.3
			C227.8,90.1,226.9,90.1,226,90.1z M225.1,44.5c-0.5,0-1.4,0.1-2.2,2.1c-0.5,1.5-1.1,4.4-0.6,10c0.6,7.2,2.2,11.6,4.4,11.6
			c0.1,0,0.1,0,0.2,0c0.5,0,1.4-0.1,2.2-2.1c0.5-1.5,1.1-4.4,0.6-10c-0.6-7.2-2.2-11.6-4.4-11.6C225.3,44.4,225.2,44.4,225.1,44.5z"
			/>
		<path class="st1" d="M226.1,25.5c4.2,0,8.1,0.9,11.6,2.7c4.2,2.1,7.6,5.4,10.2,9.8c2.6,4.4,4.2,9.8,4.7,16.2
			c0.5,6.4-0.2,12-2.1,16.7c-1.9,4.8-4.8,8.6-8.6,11.3c-3.8,2.7-8.3,4.3-13.5,4.7c-0.8,0.1-1.7,0.1-2.5,0.1c-4.2,0-8.1-0.9-11.6-2.7
			c-4.2-2.1-7.6-5.4-10.2-9.8c-2.6-4.4-4.2-9.8-4.7-16.2c-0.5-6.4,0.2-12,2.1-16.7c1.9-4.8,4.8-8.6,8.6-11.3
			c3.8-2.7,8.3-4.3,13.5-4.7C224.5,25.6,225.3,25.5,226.1,25.5 M226.8,71.2c0.1,0,0.3,0,0.5,0c4.5-0.3,6.3-5.5,5.6-15.4
			c-0.7-9.6-3.2-14.3-7.4-14.3c-0.1,0-0.3,0-0.4,0c-4.5,0.3-6.3,5.5-5.6,15.4C220.1,66.4,222.6,71.2,226.8,71.2 M226.1,19.5
			C226.1,19.5,226.1,19.5,226.1,19.5c-1,0-1.9,0-2.9,0.1c-6.3,0.5-11.9,2.5-16.5,5.8c-4.7,3.4-8.3,8.1-10.6,13.9
			c-2.2,5.6-3.1,12.2-2.5,19.4c0.6,7.3,2.4,13.6,5.5,18.8c3.2,5.4,7.5,9.5,12.7,12.1c4.3,2.2,9.2,3.3,14.3,3.3c1,0,1.9,0,2.9-0.1
			c6.3-0.5,11.9-2.5,16.5-5.8c4.7-3.4,8.3-8.1,10.6-13.9c2.2-5.6,3.1-12.2,2.5-19.4c-0.6-7.3-2.4-13.6-5.5-18.8
			c-3.2-5.4-7.5-9.5-12.7-12.1C236.1,20.6,231.3,19.5,226.1,19.5L226.1,19.5z M226.7,63.7c-0.5-1.3-1-3.6-1.3-7.4
			c-0.3-3.8-0.1-6.1,0.1-7.5c0.5,1.3,1,3.6,1.3,7.4C227.1,60,226.9,62.4,226.7,63.7L226.7,63.7z"/>
	</g>
	<g>
		<path class="st0" d="M224.5,91c-4.7,0-9-1-13-3c-4.7-2.4-8.5-6.1-11.4-11c-2.8-4.8-4.6-10.7-5.1-17.5c-0.5-6.8,0.2-12.9,2.3-18.1
			c2.1-5.3,5.3-9.6,9.6-12.6c4.2-3.1,9.3-4.8,15-5.3c0.9-0.1,1.8-0.1,2.7-0.1c4.7,0,9,1,13,3c4.7,2.4,8.5,6.1,11.4,11
			c2.8,4.8,4.6,10.7,5.1,17.5c0.5,6.8-0.2,12.9-2.3,18.1c-2.1,5.3-5.3,9.6-9.6,12.6c-4.2,3.1-9.3,4.8-15,5.3
			C226.3,91,225.4,91,224.5,91z M223.7,45.4c-0.5,0-1.4,0.1-2.2,2.1c-0.5,1.5-1.1,4.4-0.6,10c0.6,7.2,2.2,11.6,4.4,11.6
			c0.1,0,0.1,0,0.2,0c0.5,0,1.4-0.1,2.2-2.1c0.5-1.5,1.1-4.4,0.6-10c-0.6-7.2-2.2-11.6-4.4-11.6C223.8,45.4,223.8,45.4,223.7,45.4z"
			/>
		<path class="st1" d="M224.7,26.4c4.2,0,8.1,0.9,11.6,2.7c4.2,2.1,7.6,5.4,10.2,9.8c2.6,4.4,4.2,9.8,4.7,16.2
			c0.5,6.4-0.2,12-2.1,16.7c-1.9,4.8-4.8,8.6-8.6,11.3c-3.8,2.7-8.3,4.3-13.5,4.7c-0.8,0.1-1.7,0.1-2.5,0.1c-4.2,0-8.1-0.9-11.6-2.7
			c-4.2-2.1-7.6-5.4-10.2-9.8c-2.6-4.4-4.2-9.8-4.7-16.2c-0.5-6.4,0.2-12,2.1-16.7s4.8-8.6,8.6-11.3c3.8-2.7,8.3-4.3,13.5-4.7
			C223.1,26.5,223.9,26.4,224.7,26.4 M225.3,72.1c0.1,0,0.3,0,0.5,0c4.5-0.3,6.3-5.5,5.6-15.4c-0.7-9.6-3.2-14.3-7.4-14.3
			c-0.1,0-0.3,0-0.4,0c-4.5,0.3-6.3,5.5-5.6,15.4C218.7,67.3,221.1,72.1,225.3,72.1 M224.7,20.4C224.7,20.4,224.7,20.4,224.7,20.4
			c-1,0-1.9,0-2.9,0.1c-6.3,0.5-11.9,2.5-16.5,5.8c-4.7,3.4-8.3,8.1-10.6,13.9c-2.2,5.6-3.1,12.2-2.5,19.4
			c0.6,7.3,2.4,13.6,5.5,18.8c3.2,5.4,7.5,9.5,12.7,12.1c4.3,2.2,9.2,3.3,14.3,3.3c1,0,1.9,0,2.9-0.1c6.3-0.5,11.9-2.5,16.5-5.8
			c4.7-3.4,8.3-8.1,10.6-13.9c2.2-5.6,3.1-12.2,2.5-19.4c-0.6-7.3-2.4-13.6-5.5-18.8c-3.2-5.4-7.5-9.5-12.7-12.1
			C234.7,21.5,229.8,20.4,224.7,20.4L224.7,20.4z M225.2,64.7c-0.5-1.3-1-3.6-1.3-7.4c-0.3-3.8-0.1-6.1,0.1-7.5
			c0.5,1.3,1,3.6,1.3,7.4C225.6,60.9,225.5,63.3,225.2,64.7L225.2,64.7z"/>
	</g>
	<g>
		<path class="st0" d="M223.1,91.9c-4.7,0-9-1-13-3c-4.7-2.4-8.5-6.1-11.4-11c-2.8-4.8-4.6-10.7-5.1-17.5
			c-0.5-6.8,0.2-12.9,2.3-18.1c2.1-5.3,5.3-9.6,9.6-12.6c4.2-3.1,9.3-4.8,15-5.3c0.9-0.1,1.8-0.1,2.7-0.1c4.7,0,9,1,13,3
			c4.7,2.4,8.5,6.1,11.4,11c2.8,4.8,4.6,10.7,5.1,17.5c0.5,6.8-0.2,12.9-2.3,18.1c-2.1,5.3-5.3,9.5-9.6,12.6
			c-4.2,3.1-9.3,4.8-15,5.3C224.9,91.9,224,91.9,223.1,91.9z M222.2,46.3c-3.4,0.3-3.1,8.6-2.8,12.1c0.6,7.2,2.2,11.6,4.4,11.6
			c0.1,0,0.1,0,0.2,0c0.5,0,1.4-0.1,2.2-2.1c0.5-1.5,1.1-4.4,0.6-10c-0.6-7.2-2.2-11.6-4.4-11.6C222.4,46.3,222.3,46.3,222.2,46.3z"
			/>
		<path class="st1" d="M223.2,27.3c4.2,0,8.1,0.9,11.6,2.7c4.2,2.1,7.6,5.4,10.2,9.8c2.6,4.4,4.2,9.8,4.7,16.2
			c0.5,6.4-0.2,12-2.1,16.7c-1.9,4.8-4.8,8.6-8.6,11.3c-3.8,2.7-8.3,4.3-13.5,4.7c-0.8,0.1-1.7,0.1-2.5,0.1c-4.2,0-8.1-0.9-11.6-2.7
			c-4.2-2.1-7.6-5.4-10.2-9.8c-2.6-4.4-4.2-9.8-4.7-16.2c-0.5-6.4,0.2-12,2.1-16.7c1.9-4.8,4.8-8.6,8.6-11.3
			c3.8-2.7,8.3-4.3,13.5-4.7C221.6,27.4,222.4,27.3,223.2,27.3 M223.9,73c0.1,0,0.3,0,0.5,0c4.5-0.3,6.3-5.5,5.6-15.4
			c-0.7-9.6-3.2-14.3-7.4-14.3c-0.1,0-0.3,0-0.4,0c-4.5,0.3-6.3,5.5-5.6,15.4C217.2,68.2,219.7,73,223.9,73 M223.2,21.3
			C223.2,21.3,223.2,21.3,223.2,21.3c-1,0-1.9,0-2.9,0.1c-6.3,0.5-11.9,2.5-16.5,5.8c-4.7,3.4-8.3,8.1-10.6,13.9
			c-2.2,5.6-3.1,12.2-2.5,19.4c0.6,7.3,2.4,13.6,5.5,18.8c3.2,5.4,7.5,9.5,12.7,12.1c4.3,2.2,9.2,3.3,14.3,3.3c1,0,1.9,0,2.9-0.1
			c6.3-0.5,11.9-2.5,16.5-5.8c4.7-3.4,8.3-8.1,10.6-13.9c2.2-5.6,3.1-12.2,2.5-19.4c-0.6-7.3-2.4-13.6-5.5-18.8
			c-3.2-5.4-7.5-9.5-12.7-12.1C233.2,22.5,228.4,21.3,223.2,21.3L223.2,21.3z M223.7,65.6c-0.5-1.3-1-3.6-1.3-7.4
			c-0.3-3.8-0.1-6.1,0.1-7.5c0.5,1.3,1,3.6,1.3,7.4C224.2,61.9,224,64.2,223.7,65.6L223.7,65.6z"/>
	</g>
	<g>
		<path class="st0" d="M221.6,92.8c-4.7,0-9-1-13-3c-4.7-2.4-8.5-6.1-11.4-11c-2.8-4.8-4.6-10.7-5.1-17.5
			c-0.5-6.8,0.2-12.9,2.3-18.1c2.1-5.3,5.3-9.6,9.6-12.6c4.2-3.1,9.3-4.8,15-5.3c0.9-0.1,1.8-0.1,2.7-0.1c4.7,0,9,1,13,3
			c4.7,2.4,8.5,6.1,11.4,11c2.8,4.8,4.6,10.7,5.1,17.5c0.5,6.8-0.2,12.9-2.3,18.1c-2.1,5.3-5.3,9.5-9.6,12.6
			c-4.2,3.1-9.3,4.8-15,5.3C223.4,92.8,222.5,92.8,221.6,92.8z M220.8,47.2c-3.4,0.3-3.1,8.6-2.8,12.1c0.6,7.2,2.2,11.6,4.4,11.6
			c0,0,0.1,0,0.2,0c3.4-0.3,3.1-8.6,2.8-12.1c-0.6-7.2-2.2-11.6-4.4-11.6C220.9,47.2,220.9,47.2,220.8,47.2z"/>
		<path class="st1" d="M221.8,28.2c4.2,0,8.1,0.9,11.6,2.7c4.2,2.1,7.6,5.4,10.2,9.8c2.6,4.4,4.2,9.8,4.7,16.2
			c0.5,6.4-0.2,12-2.1,16.7c-1.9,4.8-4.8,8.6-8.6,11.3c-3.8,2.7-8.3,4.3-13.5,4.7c-0.8,0.1-1.7,0.1-2.5,0.1c-4.2,0-8.1-0.9-11.6-2.7
			c-4.2-2.1-7.6-5.4-10.2-9.8c-2.6-4.4-4.2-9.8-4.7-16.2c-0.5-6.4,0.2-12,2.1-16.7c1.9-4.8,4.8-8.6,8.6-11.3
			c3.8-2.7,8.3-4.3,13.5-4.7C220.1,28.3,221,28.2,221.8,28.2 M222.4,73.9c0.1,0,0.3,0,0.5,0c4.5-0.3,6.3-5.5,5.6-15.4
			c-0.7-9.6-3.2-14.3-7.4-14.3c-0.1,0-0.3,0-0.4,0c-4.5,0.3-6.3,5.5-5.6,15.4C215.7,69.1,218.2,73.9,222.4,73.9 M221.8,22.2
			C221.8,22.2,221.8,22.2,221.8,22.2c-1,0-1.9,0-2.9,0.1c-6.3,0.5-11.9,2.5-16.5,5.8c-4.7,3.4-8.3,8.1-10.6,13.9
			c-2.2,5.6-3.1,12.2-2.5,19.4c0.6,7.3,2.4,13.6,5.5,18.8c3.2,5.4,7.5,9.5,12.7,12.1c4.3,2.2,9.2,3.3,14.3,3.3c1,0,1.9,0,2.9-0.1
			c6.3-0.5,11.9-2.5,16.5-5.8c4.7-3.4,8.3-8.1,10.6-13.9c2.2-5.6,3.1-12.2,2.5-19.4c-0.6-7.3-2.4-13.6-5.5-18.8
			c-3.2-5.4-7.5-9.5-12.7-12.1C231.8,23.4,226.9,22.2,221.8,22.2L221.8,22.2z M222.3,66.5c-0.5-1.3-1-3.6-1.3-7.4
			c-0.3-3.8-0.1-6.1,0.1-7.5c0.5,1.3,1,3.6,1.3,7.4C222.7,62.8,222.5,65.1,222.3,66.5L222.3,66.5z"/>
	</g>
</g>
<g>
	<g>
		<path class="st0" d="M287.9,120.8c-0.3,0-0.6,0-0.8,0c-5.7-0.1-10.9-1.6-15.3-4.5c-4.4-2.8-7.9-6.9-10.3-12.1
			c-2.3-5.1-3.5-11.1-3.3-17.9c0.2-6.8,1.6-12.8,4.1-17.8c2.6-5.1,6.3-9,10.8-11.6c4.3-2.5,9.2-3.7,14.6-3.7c0.3,0,0.6,0,0.8,0
			c5.7,0.1,10.9,1.6,15.3,4.5c4.4,2.8,7.9,6.9,10.3,12.1c2.3,5.1,3.5,11.1,3.3,17.9c-0.2,6.8-1.6,12.8-4.1,17.8
			c-2.6,5.1-6.3,9-10.8,11.6C298.3,119.6,293.4,120.8,287.9,120.8z M288.1,75.1c-2.3,0-3.8,4.4-3.9,11.8c-0.1,3.6,0.1,11.9,3.4,12
			c0,0,0,0,0,0c2.4,0,3.8-4.4,4-11.8C291.7,83.5,291.5,75.2,288.1,75.1L288.1,75.1z"/>
		<path class="st1" d="M287.8,56.3c0.3,0,0.5,0,0.8,0c5.2,0.1,9.8,1.5,13.7,4c3.9,2.5,7,6.1,9.2,10.8c2.2,4.7,3.2,10.2,3,16.6
			c-0.2,6.4-1.4,11.9-3.8,16.4c-2.4,4.6-5.6,8-9.7,10.4c-3.9,2.2-8.2,3.3-13.1,3.3c-0.3,0-0.5,0-0.8,0c-5.2-0.1-9.8-1.5-13.7-4
			c-4-2.5-7-6.1-9.2-10.8c-2.2-4.7-3.2-10.2-3-16.6c0.2-6.4,1.4-11.9,3.8-16.4c2.4-4.6,5.6-8,9.7-10.4
			C278.6,57.4,283,56.3,287.8,56.3 M287.7,101.9c4.4,0,6.7-4.9,6.9-14.7c0.2-9.9-1.9-14.9-6.4-15c0,0-0.1,0-0.1,0
			c-4.4,0-6.7,4.9-6.9,14.7c-0.2,9.9,1.9,14.9,6.4,15C287.6,101.9,287.6,101.9,287.7,101.9 M287.8,50.3
			C287.8,50.3,287.8,50.3,287.8,50.3c-5.9,0-11.4,1.4-16.1,4.1c-5.1,2.9-9.1,7.2-12,12.8c-2.8,5.4-4.3,11.8-4.5,19.1
			c-0.2,7.3,1,13.8,3.6,19.3c2.6,5.7,6.5,10.2,11.4,13.4c4.9,3.1,10.5,4.8,16.8,4.9c0.3,0,0.6,0,0.9,0c5.9,0,11.4-1.4,16.1-4.1
			c5.1-2.9,9.1-7.2,12-12.8c2.8-5.4,4.3-11.8,4.5-19.1c0.2-7.3-1-13.8-3.6-19.3c-2.6-5.7-6.5-10.2-11.4-13.3
			c-4.9-3.1-10.5-4.8-16.8-4.9C288.5,50.3,288.2,50.3,287.8,50.3L287.8,50.3z M287.7,94.5c-0.3-1.4-0.6-3.7-0.6-7.5
			c0.1-3.8,0.5-6.1,0.9-7.4c0.3,1.4,0.6,3.7,0.6,7.5C288.5,90.8,288.1,93.1,287.7,94.5L287.7,94.5z"/>
	</g>
	<g>
		<path class="st0" d="M288.6,118.1c-0.3,0-0.6,0-0.8,0c-5.7-0.1-10.9-1.6-15.3-4.5c-4.4-2.8-7.9-6.9-10.3-12.1
			c-2.3-5.1-3.5-11.1-3.3-17.9c0.2-6.8,1.6-12.8,4.1-17.8c2.6-5.1,6.3-9,10.8-11.6c4.3-2.5,9.2-3.7,14.6-3.7c0.3,0,0.6,0,0.8,0
			c5.7,0.1,10.9,1.6,15.3,4.5c4.4,2.8,7.9,6.9,10.3,12.1c2.3,5.1,3.5,11.1,3.3,17.9c-0.2,6.8-1.6,12.8-4.1,17.8
			c-2.6,5.1-6.3,9-10.8,11.6C298.9,116.8,294,118.1,288.6,118.1z M288.7,72.4c-2.3,0-3.8,4.4-3.9,11.8c-0.1,5.6,0.6,8.5,1.2,10
			c0.8,2,1.8,2,2.3,2l0,0c2.4,0,3.8-4.4,4-11.8C292.3,80.8,292.2,72.5,288.7,72.4L288.7,72.4z"/>
		<path class="st1" d="M288.5,53.5c0.3,0,0.5,0,0.8,0c5.2,0.1,9.8,1.5,13.7,4c3.9,2.5,7,6.1,9.2,10.8c2.2,4.7,3.2,10.2,3,16.6
			c-0.2,6.4-1.4,11.9-3.8,16.4c-2.4,4.6-5.6,8-9.7,10.4c-3.9,2.2-8.2,3.3-13.1,3.3c-0.3,0-0.5,0-0.8,0c-5.2-0.1-9.8-1.5-13.7-4
			c-4-2.5-7-6.1-9.2-10.8c-2.2-4.7-3.2-10.2-3-16.6c0.2-6.4,1.4-11.9,3.8-16.4c2.4-4.6,5.6-8,9.7-10.4
			C279.2,54.6,283.6,53.5,288.5,53.5 M288.3,99.2c4.4,0,6.7-4.9,6.9-14.7c0.2-9.9-1.9-14.9-6.4-15c0,0-0.1,0-0.1,0
			c-4.4,0-6.7,4.9-6.9,14.7c-0.2,9.9,1.9,14.9,6.4,15C288.2,99.2,288.3,99.2,288.3,99.2 M288.5,47.5
			C288.5,47.5,288.5,47.5,288.5,47.5c-5.9,0-11.4,1.4-16.1,4.1c-5.1,2.9-9.1,7.2-12,12.8c-2.8,5.4-4.3,11.8-4.5,19.1
			c-0.2,7.3,1,13.8,3.6,19.3c2.6,5.7,6.5,10.2,11.4,13.4c4.9,3.1,10.5,4.8,16.8,4.9c0.3,0,0.6,0,0.9,0c5.9,0,11.4-1.4,16.1-4.1
			c5.1-2.9,9.1-7.2,12-12.8c2.8-5.4,4.3-11.8,4.5-19.1c0.2-7.3-1-13.8-3.6-19.3c-2.6-5.7-6.5-10.2-11.4-13.3
			c-4.9-3.1-10.5-4.8-16.8-4.9C289.1,47.5,288.8,47.5,288.5,47.5L288.5,47.5z M288.4,91.8c-0.3-1.4-0.6-3.7-0.6-7.5
			c0.1-3.8,0.5-6.1,0.9-7.4c0.3,1.4,0.6,3.7,0.6,7.5C289.2,88.1,288.8,90.4,288.4,91.8L288.4,91.8z"/>
	</g>
	<g>
		<path class="st0" d="M289.2,115.4c-0.3,0-0.6,0-0.8,0c-5.7-0.1-10.9-1.6-15.3-4.5c-4.4-2.8-7.9-6.9-10.3-12.1
			c-2.3-5.1-3.5-11.1-3.3-17.9c0.2-6.8,1.6-12.8,4.1-17.8c2.6-5.1,6.3-9,10.8-11.6c4.3-2.5,9.2-3.7,14.6-3.7c0.3,0,0.6,0,0.8,0
			c5.7,0.1,10.9,1.6,15.3,4.5c4.4,2.8,7.9,6.9,10.3,12.1c2.3,5.1,3.5,11.1,3.3,17.9c-0.2,6.8-1.6,12.8-4.1,17.8
			c-2.6,5.1-6.3,9-10.8,11.6C299.6,114.1,294.6,115.4,289.2,115.4z M289.4,69.7c-2.3,0-3.8,4.4-3.9,11.8c-0.1,3.6,0.1,11.9,3.4,12
			c0,0,0,0,0,0c2.4,0,3.8-4.4,4-11.8C293,78.1,292.8,69.8,289.4,69.7L289.4,69.7z"/>
		<path class="st1" d="M289.1,50.8c0.3,0,0.5,0,0.8,0c5.2,0.1,9.8,1.5,13.7,4c3.9,2.5,7,6.1,9.2,10.8c2.2,4.7,3.2,10.2,3,16.6
			c-0.2,6.4-1.4,11.9-3.8,16.4c-2.4,4.6-5.6,8-9.7,10.4c-3.9,2.2-8.2,3.3-13.1,3.3c-0.3,0-0.5,0-0.8,0c-5.2-0.1-9.8-1.5-13.7-4
			c-4-2.5-7-6.1-9.2-10.8c-2.2-4.7-3.2-10.2-3-16.6c0.2-6.4,1.4-11.9,3.8-16.4c2.4-4.6,5.6-8,9.7-10.4
			C279.8,51.9,284.2,50.8,289.1,50.8 M289,96.5c4.4,0,6.7-4.9,6.9-14.7c0.2-9.9-1.9-14.9-6.4-15c0,0-0.1,0-0.1,0
			c-4.4,0-6.7,4.9-6.9,14.7c-0.2,9.9,1.9,14.9,6.4,15C288.9,96.5,288.9,96.5,289,96.5 M289.1,44.8C289.1,44.8,289.1,44.8,289.1,44.8
			c-5.9,0-11.4,1.4-16.1,4.1c-5.1,2.9-9.1,7.2-12,12.8c-2.8,5.4-4.3,11.8-4.5,19.1c-0.2,7.3,1,13.8,3.6,19.3
			c2.6,5.7,6.5,10.2,11.4,13.4c4.9,3.1,10.5,4.8,16.8,4.9c0.3,0,0.6,0,0.9,0c5.9,0,11.4-1.4,16.1-4.1c5.1-2.9,9.1-7.2,12-12.8
			c2.8-5.4,4.3-11.8,4.5-19.1c0.2-7.3-1-13.8-3.6-19.3c-2.6-5.7-6.5-10.2-11.4-13.3c-4.9-3.1-10.5-4.8-16.8-4.9
			C289.7,44.8,289.4,44.8,289.1,44.8L289.1,44.8z M289,89c-0.3-1.4-0.6-3.7-0.6-7.5c0.1-3.8,0.5-6.1,0.9-7.4
			c0.3,1.4,0.6,3.7,0.6,7.5C289.8,85.4,289.4,87.7,289,89L289,89z"/>
	</g>
	<g>
		<path class="st0" d="M289.9,112.6c-0.3,0-0.6,0-0.8,0c-5.7-0.1-10.9-1.6-15.3-4.5c-4.4-2.8-7.9-6.9-10.3-12.1
			c-2.3-5.1-3.5-11.1-3.3-17.9c0.2-6.8,1.6-12.8,4.1-17.8c2.6-5.1,6.3-9,10.8-11.6c4.3-2.5,9.2-3.7,14.6-3.7c0.3,0,0.6,0,0.8,0
			c5.7,0.1,10.9,1.6,15.3,4.5c4.4,2.8,7.9,6.9,10.3,12.1c2.3,5.1,3.5,11.1,3.3,17.9c-0.2,6.8-1.6,12.8-4.1,17.8
			c-2.6,5.1-6.3,9-10.8,11.6C300.2,111.4,295.3,112.6,289.9,112.6z M290,67c-2.3,0-3.8,4.4-3.9,11.8c-0.1,5.6,0.6,8.5,1.2,10
			c0.8,2,1.8,2,2.3,2l0,0c2.4,0,3.8-4.4,4-11.8C293.6,75.4,293.5,67,290,67L290,67z"/>
		<path class="st1" d="M289.8,48.1c0.3,0,0.5,0,0.8,0c5.2,0.1,9.8,1.5,13.7,4c3.9,2.5,7,6.1,9.2,10.8c2.2,4.7,3.2,10.2,3,16.6
			c-0.2,6.4-1.4,11.9-3.8,16.4c-2.4,4.6-5.6,8-9.7,10.4c-3.9,2.2-8.2,3.3-13.1,3.3c-0.3,0-0.5,0-0.8,0c-5.2-0.1-9.8-1.5-13.7-4
			c-4-2.5-7-6.1-9.2-10.8c-2.2-4.7-3.2-10.2-3-16.6c0.2-6.4,1.4-11.9,3.8-16.4c2.4-4.6,5.6-8,9.7-10.4
			C280.5,49.2,284.9,48.1,289.8,48.1 M289.6,93.7c4.4,0,6.7-4.9,6.9-14.7c0.2-9.9-1.9-14.9-6.4-15c0,0-0.1,0-0.1,0
			c-4.4,0-6.7,4.9-6.9,14.7c-0.2,9.9,1.9,14.9,6.4,15C289.5,93.7,289.6,93.7,289.6,93.7 M289.8,42.1
			C289.8,42.1,289.8,42.1,289.8,42.1c-5.9,0-11.4,1.4-16.1,4.1c-5.1,2.9-9.1,7.2-12,12.8c-2.8,5.4-4.3,11.8-4.5,19.1
			c-0.2,7.3,1,13.8,3.6,19.3c2.6,5.7,6.5,10.2,11.4,13.4c4.9,3.1,10.5,4.8,16.8,4.9c0.3,0,0.6,0,0.9,0c5.9,0,11.4-1.4,16.1-4.1
			c5.1-2.9,9.1-7.2,12-12.8c2.8-5.4,4.3-11.8,4.5-19.1c0.2-7.3-1-13.8-3.6-19.3c-2.6-5.7-6.5-10.2-11.4-13.3
			c-4.9-3.1-10.5-4.8-16.8-4.9C290.4,42.1,290.1,42.1,289.8,42.1L289.8,42.1z M289.6,86.3c-0.3-1.4-0.6-3.7-0.6-7.5
			c0.1-3.8,0.5-6.1,0.9-7.4c0.3,1.4,0.6,3.7,0.6,7.5C290.4,82.7,290,85,289.6,86.3L289.6,86.3z"/>
	</g>
	<g>
		<path class="st0" d="M290.5,109.9c-0.3,0-0.6,0-0.8,0c-5.7-0.1-10.9-1.6-15.3-4.5c-4.4-2.8-7.9-6.9-10.3-12.1
			c-2.3-5.1-3.5-11.1-3.3-17.9s1.6-12.8,4.1-17.8c2.6-5.1,6.3-9,10.8-11.6c4.3-2.5,9.2-3.7,14.6-3.7c0.3,0,0.6,0,0.8,0
			c5.7,0.1,10.9,1.6,15.3,4.5c4.4,2.8,7.9,6.9,10.3,12.1c2.3,5.1,3.5,11.1,3.3,17.9c-0.2,6.8-1.6,12.8-4.1,17.8
			c-2.6,5.1-6.3,9-10.8,11.6C300.8,108.6,295.9,109.9,290.5,109.9z M290.7,64.2c-2.3,0-3.8,4.4-3.9,11.8c-0.1,3.6,0.1,11.9,3.4,12
			l0,0c2.4,0,3.8-4.4,4-11.8C294.3,72.6,294.1,64.3,290.7,64.2L290.7,64.2z"/>
		<path class="st1" d="M290.4,45.3c0.3,0,0.5,0,0.8,0c5.2,0.1,9.8,1.5,13.7,4c3.9,2.5,7,6.1,9.2,10.8c2.2,4.7,3.2,10.2,3,16.6
			c-0.2,6.4-1.4,11.9-3.8,16.4c-2.4,4.6-5.6,8-9.7,10.4c-3.9,2.2-8.2,3.3-13.1,3.3c-0.3,0-0.5,0-0.8,0c-5.2-0.1-9.8-1.5-13.7-4
			c-4-2.5-7-6.1-9.2-10.8c-2.2-4.7-3.2-10.2-3-16.6c0.2-6.4,1.4-11.9,3.8-16.4c2.4-4.6,5.6-8,9.7-10.4
			C281.1,46.5,285.5,45.3,290.4,45.3 M290.2,91c4.4,0,6.7-4.9,6.9-14.7c0.2-9.9-1.9-14.9-6.4-15c0,0-0.1,0-0.1,0
			c-4.4,0-6.7,4.9-6.9,14.7c-0.2,9.9,1.9,14.9,6.4,15C290.1,91,290.2,91,290.2,91 M290.4,39.3C290.4,39.3,290.4,39.3,290.4,39.3
			c-5.9,0-11.4,1.4-16.1,4.1c-5.1,2.9-9.1,7.2-12,12.8c-2.8,5.4-4.3,11.8-4.5,19.1c-0.2,7.3,1,13.8,3.6,19.3
			c2.6,5.7,6.5,10.2,11.4,13.4c4.9,3.1,10.5,4.8,16.8,4.9c0.3,0,0.6,0,0.9,0c5.9,0,11.4-1.4,16.1-4.1c5.1-2.9,9.1-7.2,12-12.8
			c2.8-5.4,4.3-11.8,4.5-19.1c0.2-7.3-1-13.8-3.6-19.3c-2.6-5.7-6.5-10.2-11.4-13.3c-4.9-3.1-10.5-4.8-16.8-4.9
			C291,39.3,290.7,39.3,290.4,39.3L290.4,39.3z M290.3,83.6c-0.3-1.4-0.6-3.7-0.6-7.5c0.1-3.8,0.5-6.1,0.9-7.4
			c0.3,1.4,0.6,3.7,0.6,7.5C291.1,79.9,290.7,82.2,290.3,83.6L290.3,83.6z"/>
	</g>
	<g>
		<path class="st0" d="M291.1,107.2c-0.3,0-0.6,0-0.8,0c-5.7-0.1-10.9-1.6-15.3-4.5c-4.4-2.8-7.9-6.9-10.3-12.1
			c-2.3-5.1-3.5-11.1-3.3-17.9c0.2-6.8,1.6-12.8,4.1-17.8c2.6-5.1,6.3-9,10.8-11.6c4.3-2.5,9.2-3.7,14.6-3.7c0.3,0,0.6,0,0.8,0
			c5.7,0.1,10.9,1.6,15.3,4.5c4.4,2.8,7.9,6.9,10.3,12.1c2.3,5.1,3.5,11.1,3.3,17.9c-0.2,6.8-1.6,12.8-4.1,17.8
			c-2.6,5.1-6.3,9-10.8,11.6C301.5,105.9,296.5,107.2,291.1,107.2z M291.3,61.5c-2.3,0-3.8,4.4-3.9,11.8c-0.1,5.6,0.6,8.5,1.2,10
			c0.8,2,1.8,2,2.3,2l0,0c2.4,0,3.8-4.4,4-11.8C294.9,69.9,294.7,61.6,291.3,61.5L291.3,61.5z"/>
		<path class="st1" d="M291,42.6c0.3,0,0.5,0,0.8,0c5.2,0.1,9.8,1.5,13.7,4c3.9,2.5,7,6.1,9.2,10.8c2.2,4.7,3.2,10.2,3,16.6
			c-0.2,6.4-1.4,11.9-3.8,16.4c-2.4,4.6-5.6,8-9.7,10.4c-3.9,2.2-8.2,3.3-13.1,3.3c-0.3,0-0.5,0-0.8,0c-5.2-0.1-9.8-1.5-13.7-4
			c-4-2.5-7-6.1-9.2-10.8c-2.2-4.7-3.2-10.2-3-16.6c0.2-6.4,1.4-11.9,3.8-16.4c2.4-4.6,5.6-8,9.7-10.4
			C281.8,43.7,286.1,42.6,291,42.6 M290.9,88.3c4.4,0,6.7-4.9,6.9-14.7c0.2-9.9-1.9-14.9-6.4-15c0,0-0.1,0-0.1,0
			c-4.4,0-6.7,4.9-6.9,14.7c-0.2,9.9,1.9,14.9,6.4,15C290.8,88.3,290.8,88.3,290.9,88.3 M291,36.6C291,36.6,291,36.6,291,36.6
			c-5.9,0-11.4,1.4-16.1,4.1c-5.1,2.9-9.1,7.2-12,12.8c-2.8,5.4-4.3,11.8-4.5,19.1c-0.2,7.3,1,13.8,3.6,19.3
			c2.6,5.7,6.5,10.2,11.4,13.4c4.9,3.1,10.5,4.8,16.8,4.9c0.3,0,0.6,0,0.9,0c5.9,0,11.4-1.4,16.1-4.1c5.1-2.9,9.1-7.2,12-12.8
			c2.8-5.4,4.3-11.8,4.5-19.1c0.2-7.3-1-13.8-3.6-19.3c-2.6-5.7-6.5-10.2-11.4-13.3c-4.9-3.1-10.5-4.8-16.8-4.9
			C291.6,36.6,291.3,36.6,291,36.6L291,36.6z M290.9,80.9c-0.3-1.4-0.6-3.7-0.6-7.5c0.1-3.8,0.5-6.1,0.9-7.4
			c0.3,1.4,0.6,3.7,0.6,7.5C291.7,77.2,291.3,79.5,290.9,80.9L290.9,80.9z"/>
	</g>
	<g>
		<path class="st0" d="M291.8,104.4c-0.3,0-0.6,0-0.8,0c-5.7-0.1-10.9-1.6-15.3-4.5c-4.4-2.8-7.9-6.9-10.3-12.1
			c-2.3-5.1-3.5-11.1-3.3-17.9c0.2-6.8,1.6-12.8,4.1-17.8c2.6-5.1,6.3-9,10.8-11.6c4.3-2.5,9.2-3.7,14.6-3.7c0.3,0,0.6,0,0.8,0
			c5.7,0.1,10.9,1.6,15.3,4.5c4.4,2.8,7.9,6.9,10.3,12.1c2.3,5.1,3.5,11.1,3.3,17.9c-0.2,6.8-1.6,12.8-4.1,17.8
			c-2.6,5.1-6.3,9-10.8,11.6C302.1,103.2,297.2,104.4,291.8,104.4z M291.9,58.8c-2.3,0-3.8,4.4-3.9,11.8c-0.1,5.6,0.6,8.5,1.2,10
			c0.8,2,1.8,2,2.3,2l0,0c2.4,0,3.8-4.4,4-11.8C295.5,67.2,295.4,58.9,291.9,58.8L291.9,58.8z"/>
		<path class="st1" d="M291.7,39.9c0.3,0,0.5,0,0.8,0c5.2,0.1,9.8,1.5,13.7,4c3.9,2.5,7,6.1,9.2,10.8c2.2,4.7,3.2,10.2,3,16.6
			c-0.2,6.4-1.4,11.9-3.8,16.4c-2.4,4.6-5.6,8-9.7,10.4c-3.9,2.2-8.2,3.3-13.1,3.3c-0.3,0-0.5,0-0.8,0c-5.2-0.1-9.8-1.5-13.7-4
			c-4-2.5-7-6.1-9.2-10.8c-2.2-4.7-3.2-10.2-3-16.6c0.2-6.4,1.4-11.9,3.8-16.4c2.4-4.6,5.6-8,9.7-10.4
			C282.4,41,286.8,39.9,291.7,39.9 M291.5,85.5c4.4,0,6.7-4.9,6.9-14.7c0.2-9.9-1.9-14.9-6.4-15c0,0-0.1,0-0.1,0
			c-4.4,0-6.7,4.9-6.9,14.7c-0.2,9.9,1.9,14.9,6.4,15C291.4,85.5,291.5,85.5,291.5,85.5 M291.7,33.9
			C291.7,33.9,291.7,33.9,291.7,33.9c-5.9,0-11.4,1.4-16.1,4.1c-5.1,2.9-9.1,7.2-12,12.8c-2.8,5.4-4.3,11.8-4.5,19.1
			c-0.2,7.3,1,13.8,3.6,19.3c2.6,5.7,6.5,10.2,11.4,13.4c4.9,3.1,10.5,4.8,16.8,4.9c0.3,0,0.6,0,0.9,0c5.9,0,11.4-1.4,16.1-4.1
			c5.1-2.9,9.1-7.2,12-12.8c2.8-5.4,4.3-11.8,4.5-19.1c0.2-7.3-1-13.8-3.6-19.3c-2.6-5.7-6.5-10.2-11.4-13.3
			c-4.9-3.1-10.5-4.8-16.8-4.9C292.3,33.9,292,33.9,291.7,33.9L291.7,33.9z M291.5,78.1c-0.3-1.4-0.6-3.7-0.6-7.5
			c0.1-3.8,0.5-6.1,0.9-7.4c0.3,1.4,0.6,3.7,0.6,7.5C292.4,74.5,291.9,76.8,291.5,78.1L291.5,78.1z"/>
	</g>
	<g>
		<path class="st0" d="M292.4,101.7c-0.3,0-0.6,0-0.8,0c-5.7-0.1-10.9-1.6-15.3-4.5c-4.4-2.8-7.9-6.9-10.3-12.1
			c-2.3-5.1-3.5-11.1-3.3-17.9c0.2-6.8,1.6-12.8,4.1-17.8c2.6-5.1,6.3-9,10.8-11.6c4.3-2.5,9.2-3.7,14.6-3.7c0.3,0,0.6,0,0.8,0
			c5.7,0.1,10.9,1.6,15.3,4.5c4.4,2.8,7.9,6.9,10.3,12.1c2.3,5.1,3.5,11.1,3.3,17.9c-0.2,6.8-1.6,12.8-4.1,17.8
			c-2.6,5.1-6.3,9-10.8,11.6C302.7,100.5,297.8,101.7,292.4,101.7z M292.6,56.1c-2.3,0-3.8,4.4-3.9,11.8c-0.1,3.6,0.1,11.9,3.4,12
			l0,0c2.4,0,3.8-4.4,4-11.8C296.2,64.5,296,56.1,292.6,56.1L292.6,56.1z"/>
		<path class="st1" d="M292.3,37.2c0.3,0,0.5,0,0.8,0c5.2,0.1,9.8,1.5,13.7,4c3.9,2.5,7,6.1,9.2,10.8c2.2,4.7,3.2,10.2,3,16.6
			c-0.2,6.4-1.4,11.9-3.8,16.4c-2.4,4.6-5.6,8-9.7,10.4c-3.9,2.2-8.2,3.3-13.1,3.3c-0.3,0-0.5,0-0.8,0c-5.2-0.1-9.8-1.5-13.7-4
			c-4-2.5-7-6.1-9.2-10.8c-2.2-4.7-3.2-10.2-3-16.6c0.2-6.4,1.4-11.9,3.8-16.4c2.4-4.6,5.6-8,9.7-10.4
			C283,38.3,287.4,37.2,292.3,37.2 M292.1,82.8c4.4,0,6.7-4.9,6.9-14.7c0.2-9.9-1.9-14.9-6.4-15c0,0-0.1,0-0.1,0
			c-4.4,0-6.7,4.9-6.9,14.7c-0.2,9.9,1.9,14.9,6.4,15C292,82.8,292.1,82.8,292.1,82.8 M292.3,31.2C292.3,31.2,292.3,31.2,292.3,31.2
			c-5.9,0-11.4,1.4-16.1,4.1c-5.1,2.9-9.1,7.2-12,12.8c-2.8,5.4-4.3,11.8-4.5,19.1c-0.2,7.3,1,13.8,3.6,19.3
			c2.6,5.7,6.5,10.2,11.4,13.4c4.9,3.1,10.5,4.8,16.8,4.9c0.3,0,0.6,0,0.9,0c5.9,0,11.4-1.4,16.1-4.1c5.1-2.9,9.1-7.2,12-12.8
			c2.8-5.4,4.3-11.8,4.5-19.1c0.2-7.3-1-13.8-3.6-19.3c-2.6-5.7-6.5-10.2-11.4-13.3c-4.9-3.1-10.5-4.8-16.8-4.9
			C292.9,31.2,292.6,31.2,292.3,31.2L292.3,31.2z M292.2,75.4c-0.3-1.4-0.6-3.7-0.6-7.5c0.1-3.8,0.5-6.1,0.9-7.4
			c0.3,1.4,0.6,3.7,0.6,7.5C293,71.8,292.6,74.1,292.2,75.4L292.2,75.4z"/>
	</g>
	<g>
		<path class="st0" d="M293,99c-0.3,0-0.6,0-0.8,0c-5.7-0.1-10.9-1.6-15.3-4.5c-4.4-2.8-7.9-6.9-10.3-12.1
			c-2.3-5.1-3.5-11.1-3.3-17.9c0.2-6.8,1.6-12.8,4.1-17.8c2.6-5.1,6.3-9,10.8-11.6c4.3-2.5,9.2-3.7,14.6-3.7c0.3,0,0.6,0,0.8,0
			c5.7,0.1,10.9,1.6,15.3,4.5c4.4,2.8,7.9,6.9,10.3,12.1c2.3,5.1,3.5,11.1,3.3,17.9c-0.2,6.8-1.6,12.8-4.1,17.8
			c-2.6,5.1-6.3,9-10.8,11.6C303.4,97.7,298.4,99,293,99z M293.2,53.3c-2.3,0-3.8,4.4-3.9,11.8c-0.1,5.6,0.6,8.5,1.2,10
			c0.8,2,1.8,2,2.3,2l0,0c2.4,0,3.8-4.4,4-11.8C296.8,61.7,296.6,53.4,293.2,53.3L293.2,53.3z"/>
		<path class="st1" d="M292.9,34.4c0.3,0,0.5,0,0.8,0c5.2,0.1,9.8,1.5,13.7,4c3.9,2.5,7,6.1,9.2,10.8c2.2,4.7,3.2,10.2,3,16.6
			c-0.2,6.4-1.4,11.9-3.8,16.4c-2.4,4.6-5.6,8-9.7,10.4c-3.9,2.2-8.2,3.3-13.1,3.3c-0.3,0-0.5,0-0.8,0c-5.2-0.1-9.8-1.5-13.7-4
			c-4-2.5-7-6.1-9.2-10.8c-2.2-4.7-3.2-10.2-3-16.6c0.2-6.4,1.4-11.9,3.8-16.4c2.4-4.6,5.6-8,9.7-10.4
			C283.7,35.5,288,34.4,292.9,34.4 M292.8,80.1c4.4,0,6.7-4.9,6.9-14.7c0.2-9.9-1.9-14.9-6.4-15c0,0-0.1,0-0.1,0
			c-4.4,0-6.7,4.9-6.9,14.7c-0.2,9.9,1.9,14.9,6.4,15C292.7,80.1,292.7,80.1,292.8,80.1 M292.9,28.4
			C292.9,28.4,292.9,28.4,292.9,28.4c-5.9,0-11.4,1.4-16.1,4.1c-5.1,2.9-9.1,7.2-12,12.8c-2.8,5.4-4.3,11.8-4.5,19.1
			c-0.2,7.3,1,13.8,3.6,19.3c2.6,5.7,6.5,10.2,11.4,13.4c4.9,3.1,10.5,4.8,16.8,4.9c0.3,0,0.6,0,0.9,0c5.9,0,11.4-1.4,16.1-4.1
			c5.1-2.9,9.1-7.2,12-12.8c2.8-5.4,4.3-11.8,4.5-19.1c0.2-7.3-1-13.8-3.6-19.3c-2.6-5.7-6.5-10.2-11.4-13.3
			c-4.9-3.1-10.5-4.8-16.8-4.9C293.6,28.4,293.2,28.4,292.9,28.4L292.9,28.4z M292.8,72.7c-0.3-1.4-0.6-3.7-0.6-7.5
			c0.1-3.8,0.5-6.1,0.9-7.4c0.3,1.4,0.6,3.7,0.6,7.5C293.6,69,293.2,71.3,292.8,72.7L292.8,72.7z"/>
	</g>
	<g>
		<path class="st0" d="M293.7,96.3c-0.3,0-0.6,0-0.8,0c-5.7-0.1-10.9-1.6-15.3-4.5c-4.4-2.8-7.9-6.9-10.3-12.1
			c-2.3-5.1-3.5-11.1-3.3-17.9c0.2-6.8,1.6-12.8,4.1-17.8c2.6-5.1,6.3-9,10.8-11.6c4.3-2.5,9.2-3.7,14.6-3.7c0.3,0,0.6,0,0.8,0
			c5.7,0.1,10.9,1.6,15.3,4.5c4.4,2.8,7.9,6.9,10.3,12.1c2.3,5.1,3.5,11.1,3.3,17.9c-0.2,6.8-1.6,12.8-4.1,17.8
			c-2.6,5.1-6.3,9-10.8,11.6C304,95,299.1,96.3,293.7,96.3z M293.8,50.6c-2.3,0-3.8,4.4-3.9,11.8c-0.1,5.6,0.6,8.5,1.2,10
			c0.8,2,1.8,2,2.3,2l0,0c2.4,0,3.8-4.4,4-11.8C297.4,59,297.3,50.7,293.8,50.6L293.8,50.6z"/>
		<path class="st1" d="M293.6,31.7c0.3,0,0.5,0,0.8,0c5.2,0.1,9.8,1.5,13.7,4c3.9,2.5,7,6.1,9.2,10.8c2.2,4.7,3.2,10.2,3,16.6
			c-0.2,6.4-1.4,11.9-3.8,16.4c-2.4,4.6-5.6,8-9.7,10.4c-3.9,2.2-8.2,3.3-13.1,3.3c-0.3,0-0.5,0-0.8,0c-5.2-0.1-9.8-1.5-13.7-4
			c-4-2.5-7-6.1-9.2-10.8c-2.2-4.7-3.2-10.2-3-16.6c0.2-6.4,1.4-11.9,3.8-16.4c2.4-4.6,5.6-8,9.7-10.4
			C284.3,32.8,288.7,31.7,293.6,31.7 M293.4,77.4c4.4,0,6.7-4.9,6.9-14.7c0.2-9.9-1.9-14.9-6.4-15c0,0-0.1,0-0.1,0
			c-4.4,0-6.7,4.9-6.9,14.7c-0.2,9.9,1.9,14.9,6.4,15C293.3,77.4,293.4,77.4,293.4,77.4 M293.6,25.7
			C293.6,25.7,293.6,25.7,293.6,25.7c-5.9,0-11.4,1.4-16.1,4.1c-5.1,2.9-9.1,7.2-12,12.8c-2.8,5.4-4.3,11.8-4.5,19.1
			c-0.2,7.3,1,13.8,3.6,19.3c2.6,5.7,6.5,10.2,11.4,13.4c4.9,3.1,10.5,4.8,16.8,4.9c0.3,0,0.6,0,0.9,0c5.9,0,11.4-1.4,16.1-4.1
			c5.1-2.9,9.1-7.2,12-12.8c2.8-5.4,4.3-11.8,4.5-19.1c0.2-7.3-1-13.8-3.6-19.3c-2.6-5.7-6.5-10.2-11.4-13.3
			c-4.9-3.1-10.5-4.8-16.8-4.9C294.2,25.7,293.9,25.7,293.6,25.7L293.6,25.7z M293.4,69.9c-0.3-1.4-0.6-3.7-0.6-7.5
			c0.1-3.8,0.5-6.1,0.9-7.4c0.3,1.4,0.6,3.7,0.6,7.5C294.3,66.3,293.8,68.6,293.4,69.9L293.4,69.9z"/>
	</g>
	<g>
		<path class="st0" d="M294.3,93.5c-0.3,0-0.6,0-0.8,0c-5.7-0.1-10.9-1.6-15.3-4.5c-4.4-2.8-7.9-6.9-10.3-12.1
			c-2.3-5.1-3.5-11.1-3.3-17.9c0.2-6.8,1.6-12.8,4.1-17.8c2.6-5.1,6.3-9,10.8-11.6c4.3-2.5,9.2-3.7,14.6-3.7c0.3,0,0.6,0,0.8,0
			c5.7,0.1,10.9,1.6,15.3,4.5c4.4,2.8,7.9,6.9,10.3,12.1c2.3,5.1,3.5,11.1,3.3,17.9c-0.2,6.8-1.6,12.8-4.1,17.8
			c-2.6,5.1-6.3,9-10.8,11.6C304.6,92.3,299.7,93.5,294.3,93.5z M294.5,47.9c-2.3,0-3.8,4.4-3.9,11.8c-0.1,5.6,0.6,8.5,1.2,10
			c0.8,2,1.8,2,2.3,2l0,0c2.4,0,3.8-4.4,4-11.8c0.1-5.6-0.6-8.5-1.2-10C296,47.9,295,47.9,294.5,47.9L294.5,47.9z"/>
		<path class="st1" d="M294.2,29c0.3,0,0.5,0,0.8,0c5.2,0.1,9.8,1.5,13.7,4c3.9,2.5,7,6.1,9.2,10.8c2.2,4.7,3.2,10.2,3,16.6
			c-0.2,6.4-1.4,11.9-3.8,16.4c-2.4,4.6-5.6,8-9.7,10.4c-3.9,2.2-8.2,3.3-13.1,3.3c-0.3,0-0.5,0-0.8,0c-5.2-0.1-9.8-1.5-13.7-4
			c-4-2.5-7-6.1-9.2-10.8c-2.2-4.7-3.2-10.2-3-16.6c0.2-6.4,1.4-11.9,3.8-16.4c2.4-4.6,5.6-8,9.7-10.4C284.9,30.1,289.3,29,294.2,29
			 M294.1,74.6c4.4,0,6.7-4.9,6.9-14.7c0.2-9.9-1.9-14.9-6.4-15c0,0-0.1,0-0.1,0c-4.4,0-6.7,4.9-6.9,14.7c-0.2,9.9,1.9,14.9,6.4,15
			C294,74.6,294,74.6,294.1,74.6 M294.2,23C294.2,23,294.2,23,294.2,23c-5.9,0-11.4,1.4-16.1,4.1c-5.1,2.9-9.1,7.2-12,12.8
			c-2.8,5.4-4.3,11.8-4.5,19.1c-0.2,7.3,1,13.8,3.6,19.3c2.6,5.7,6.5,10.2,11.4,13.4c4.9,3.1,10.5,4.8,16.8,4.9c0.3,0,0.6,0,0.9,0
			c5.9,0,11.4-1.4,16.1-4.1c5.1-2.9,9.1-7.2,12-12.8c2.8-5.4,4.3-11.8,4.5-19.1c0.2-7.3-1-13.8-3.6-19.3
			c-2.6-5.7-6.5-10.2-11.4-13.3c-4.9-3.1-10.5-4.8-16.8-4.9C294.8,23,294.5,23,294.2,23L294.2,23z M294.1,67.2
			c-0.3-1.4-0.6-3.7-0.6-7.5c0.1-3.8,0.5-6.1,0.9-7.4c0.3,1.4,0.6,3.7,0.6,7.5C294.9,63.6,294.5,65.9,294.1,67.2L294.1,67.2z"/>
	</g>
	<g>
		<path class="st0" d="M294.9,90.8c-0.3,0-0.6,0-0.8,0c-5.7-0.1-10.9-1.6-15.3-4.5c-4.4-2.8-7.9-6.9-10.3-12.1
			c-2.3-5.1-3.5-11.1-3.3-17.9c0.2-6.8,1.6-12.8,4.1-17.8c2.6-5.1,6.3-9,10.8-11.6c4.3-2.5,9.2-3.7,14.6-3.7c0.3,0,0.6,0,0.8,0
			c5.7,0.1,10.9,1.6,15.3,4.5c4.4,2.8,7.9,6.9,10.3,12.1c2.3,5.1,3.5,11.1,3.3,17.9c-0.2,6.8-1.6,12.8-4.1,17.8
			c-2.6,5.1-6.3,9-10.8,11.6C305.3,89.6,300.4,90.8,294.9,90.8z M295.1,45.1c-2.3,0-3.8,4.4-3.9,11.8c-0.1,3.6,0.1,11.9,3.4,12
			c0,0,0,0,0,0c2.4,0,3.8-4.4,4-11.8C298.7,53.5,298.5,45.2,295.1,45.1L295.1,45.1z"/>
		<path class="st1" d="M294.8,26.3c0.3,0,0.5,0,0.8,0c5.2,0.1,9.8,1.5,13.7,4c3.9,2.5,7,6.1,9.2,10.8c2.2,4.7,3.2,10.2,3,16.6
			c-0.2,6.4-1.4,11.9-3.8,16.4c-2.4,4.6-5.6,8-9.7,10.4c-3.9,2.2-8.2,3.3-13.1,3.3c-0.3,0-0.5,0-0.8,0c-5.2-0.1-9.8-1.5-13.7-4
			c-4-2.5-7-6.1-9.2-10.8c-2.2-4.7-3.2-10.2-3-16.6c0.2-6.4,1.4-11.9,3.8-16.4c2.4-4.6,5.6-8,9.7-10.4
			C285.6,27.4,290,26.3,294.8,26.3 M294.7,71.9c4.4,0,6.7-4.9,6.9-14.7c0.2-9.9-1.9-14.9-6.4-15c0,0-0.1,0-0.1,0
			c-4.4,0-6.7,4.9-6.9,14.7c-0.2,9.9,1.9,14.9,6.4,15C294.6,71.9,294.6,71.9,294.7,71.9 M294.8,20.3
			C294.8,20.3,294.8,20.3,294.8,20.3c-5.9,0-11.4,1.4-16.1,4.1c-5.1,2.9-9.1,7.2-12,12.8c-2.8,5.4-4.3,11.8-4.5,19.1
			c-0.2,7.3,1,13.8,3.6,19.3c2.6,5.7,6.5,10.2,11.4,13.4c4.9,3.1,10.5,4.8,16.8,4.9c0.3,0,0.6,0,0.9,0c5.9,0,11.4-1.4,16.1-4.1
			c5.1-2.9,9.1-7.2,12-12.8c2.8-5.4,4.3-11.8,4.5-19.1c0.2-7.3-1-13.8-3.6-19.3c-2.6-5.7-6.5-10.2-11.4-13.3
			c-4.9-3.1-10.5-4.8-16.8-4.9C295.5,20.3,295.2,20.3,294.8,20.3L294.8,20.3z M294.7,64.5c-0.3-1.4-0.6-3.7-0.6-7.5
			c0.1-3.8,0.5-6.1,0.9-7.4c0.3,1.4,0.6,3.7,0.6,7.5C295.5,60.8,295.1,63.1,294.7,64.5L294.7,64.5z"/>
	</g>
</g>
<path class="st2" d="M112.4,99.4c-3.1-27.2-19.8-26.7-29.9-27.5c-6.9-0.5-31.6-0.5-38.4,0C34,72.7,17.3,72.2,14.2,99.4
	c-0.3,1.6-0.3,12.6,0,14.3c3.1,27.2,19.8,26.8,29.9,27.6c0.5,0,1.2,0.1,1.9,0.1c7.9,0.6,9.6,1.9,8.1,6c-2.9,8.1,7.6,12.2,14.4,3.7
	c5.5-6.8,5.6-9.1,9.8-9.7c1.7-0.1,3.1-0.1,4.2-0.2c10-0.8,26.8-0.3,29.9-27.5C112.7,112.1,112.7,101.1,112.4,99.4z"/>
<g>
	<path class="st3" d="M45.4,90.5c5.9,0,12.7,4.8,20.6,6.4c1.9,0.4,3.8,0.5,5.5,0.5c5.2,0,9.6-1.3,13.2-1.3c3.4,0,6.2,1.2,8.2,5.9
		c4,9-5,25.1-25.8,25.1c-2,0-4.2-0.2-6.5-0.5c-25.1-3.7-29.8-22.7-23.9-31C39.4,91.8,42.3,90.5,45.4,90.5"/>
</g>
<path class="st4" d="M69.2,116.2"/>
<path class="st0" d="M77.7,95.5c1.4,1.7,2.3,14.3,0,15.9c-8.2,5.9-30.7,0.6-35.1-8.3c-1.5-2.9,0.6-8.9,0.6-8.9l12.1-3.8l18.9,4.1
	L77.7,95.5z"/>
<g>
	<path class="st5" d="M45.4,90.5c5.9,0,12.7,4.8,20.6,6.4c1.9,0.4,3.8,0.5,5.5,0.5c5.2,0,9.6-1.3,13.2-1.3c3.4,0,6.2,1.2,8.2,5.9
		c4,9-5,25.1-25.8,25.1c-2,0-4.2-0.2-6.5-0.5c-25.1-3.7-29.8-22.7-23.9-31C39.4,91.8,42.3,90.5,45.4,90.5"/>
</g>
<g>
	<g>
		<path class="st0" d="M158.3,125.4c-1.5,0-2.9-0.1-4.4-0.2c-4.5-0.3-8.6-1.2-12.1-2.6c-1.5-0.6-2.2-2.1-1.8-3.6l4.6-15.4
			c0-0.1,0.1-0.2,0.1-0.3c-0.1,0-0.3,0-0.4,0c-0.7,0-1.4-0.2-1.9-0.7c-0.7-0.5-1-1.3-1.1-2.1L139,64.7c-0.1-1.6,1-2.9,2.6-3.2
			l38.7-5.6c0.1,0,0.3,0,0.4,0c1.5,0,2.7,1.1,3,2.6l2.1,14.8c0.1,0.8-0.1,1.6-0.6,2.2c-0.5,0.6-1.2,1.1-2,1.2L168,78.9
			c0.8,0,1.6-0.1,2.4-0.1c5.6,0,10.2,1.2,13.7,3.5c5.1,3.3,8.1,8.3,9,14.7c0.6,4.2,0.1,8.3-1.6,12.2c-1.7,3.9-4.7,7.3-8.9,10.1
			c-4.1,2.7-9.4,4.6-15.7,5.5C164.1,125.1,161.2,125.4,158.3,125.4z M150.6,102.4c1.7,0.5,3.5,0.9,5.2,1.1c1.2,0.1,2.4,0.2,3.5,0.2
			c1.3,0,2.5-0.1,3.7-0.3c1.7-0.3,3.1-0.7,4-1.4c0.6-0.4,0.5-0.7,0.5-0.9c0-0.2,0-0.3-0.4-0.5c-0.2-0.1-0.7-0.2-1.9-0.2
			c-1,0-2.3,0.1-3.7,0.3L150.6,102.4z"/>
		<path class="st1" d="M180.7,58.9l2.1,14.8L160.3,77l0.4,5.8l3-0.4c2.4-0.3,4.6-0.5,6.7-0.5c5,0,9,1,12.1,3
			c4.3,2.9,6.9,7.1,7.7,12.6c0.5,3.7,0.1,7.2-1.4,10.5c-1.5,3.4-4.1,6.3-7.8,8.8c-3.7,2.5-8.5,4.2-14.5,5c-2.7,0.4-5.5,0.6-8.3,0.6
			c-1.4,0-2.8,0-4.2-0.1c-4.2-0.3-8-1.1-11.3-2.4l4.6-15.4c2.6,1,5.4,1.7,8.2,2c1.3,0.2,2.6,0.2,3.9,0.2c1.4,0,2.8-0.1,4.1-0.3
			c2.3-0.3,4.1-1,5.4-2c1.3-1,1.8-2.2,1.6-3.7c-0.2-1.4-1-2.3-2.4-2.8c-0.7-0.3-1.7-0.4-2.9-0.4c-1.2,0-2.5,0.1-4.2,0.4l-16.9,2.4
			L142,64.5L180.7,58.9 M180.7,52.9c-0.3,0-0.6,0-0.9,0.1l-38.7,5.6c-3.1,0.4-5.3,3.2-5.1,6.3l2.2,35.8c0.1,1.7,0.9,3.2,2.2,4.3
			c0.1,0.1,0.3,0.2,0.4,0.3l-3.8,12.9c-0.9,3,0.7,6.2,3.6,7.3c3.8,1.5,8.2,2.4,13,2.8c1.5,0.1,3.1,0.2,4.6,0.2
			c3.1,0,6.1-0.2,9.1-0.7c6.8-1,12.5-3,17-6c4.7-3.1,8-6.9,9.9-11.4c1.9-4.4,2.5-9,1.9-13.8c-1.1-7.3-4.5-12.9-10.4-16.8
			c-0.3-0.2-0.5-0.3-0.8-0.5c2.6-1,4.3-3.6,3.8-6.5L186.6,58c-0.2-1.6-1.1-3-2.3-3.9C183.3,53.3,182,52.9,180.7,52.9L180.7,52.9z"/>
	</g>
	<g>
		<path class="st0" d="M157.3,122.6c-1.5,0-2.9-0.1-4.4-0.2c-4.5-0.3-8.6-1.2-12.1-2.6c-1.5-0.6-2.2-2.2-1.8-3.6l4.6-15.4
			c0-0.1,0.1-0.2,0.1-0.3c-0.1,0-0.3,0-0.4,0c-0.7,0-1.4-0.2-1.9-0.7c-0.7-0.5-1-1.3-1.1-2.1l-2.2-35.8c-0.1-1.6,1-2.9,2.6-3.2
			l38.7-5.6c0.1,0,0.3,0,0.4,0c1.5,0,2.7,1.1,3,2.6l2.1,14.8c0.1,0.8-0.1,1.6-0.6,2.2c-0.5,0.6-1.2,1.1-2,1.2L167,76.1
			c0.8,0,1.6-0.1,2.4-0.1c5.6,0,10.2,1.2,13.7,3.5c5.1,3.3,8.1,8.3,9,14.7c0.6,4.2,0.1,8.3-1.6,12.2c-1.7,3.9-4.7,7.3-8.9,10.1
			c-4.1,2.7-9.4,4.6-15.7,5.5C163.2,122.4,160.2,122.6,157.3,122.6z M149.7,99.6c1.7,0.5,3.5,0.9,5.2,1.1c1.2,0.1,2.4,0.2,3.5,0.2
			c1.3,0,2.5-0.1,3.7-0.3c1.7-0.3,3.1-0.7,3.9-1.4c0.6-0.4,0.5-0.7,0.5-0.9c0-0.2,0-0.3-0.4-0.5c-0.2-0.1-0.7-0.2-1.9-0.2
			c-1,0-2.3,0.1-3.7,0.3L149.7,99.6z"/>
		<path class="st1" d="M179.8,56.1l2.1,14.8l-22.6,3.3l0.4,5.8l3-0.4c2.4-0.3,4.6-0.5,6.7-0.5c5,0,9,1,12.1,3
			c4.3,2.9,6.9,7.1,7.7,12.6c0.5,3.7,0.1,7.2-1.4,10.5c-1.5,3.4-4.1,6.3-7.8,8.8c-3.7,2.5-8.5,4.2-14.5,5c-2.7,0.4-5.5,0.6-8.3,0.6
			c-1.4,0-2.8,0-4.2-0.1c-4.2-0.3-8-1.1-11.3-2.4l4.6-15.4c2.6,1,5.4,1.7,8.2,2c1.3,0.2,2.6,0.2,3.9,0.2c1.4,0,2.8-0.1,4.1-0.3
			c2.3-0.3,4.1-1,5.4-2c1.3-1,1.8-2.2,1.6-3.7c-0.2-1.4-1-2.3-2.4-2.8c-0.7-0.3-1.7-0.4-2.9-0.4c-1.2,0-2.5,0.1-4.2,0.4l-16.9,2.4
			l-2.2-35.8L179.8,56.1 M179.8,50.1c-0.3,0-0.6,0-0.9,0.1l-38.7,5.6c-3.1,0.4-5.3,3.2-5.1,6.3l2.2,35.8c0.1,1.7,0.9,3.2,2.2,4.3
			c0.1,0.1,0.3,0.2,0.4,0.3l-3.8,12.9c-0.9,3,0.7,6.2,3.6,7.3c3.8,1.5,8.2,2.4,13,2.8c1.5,0.1,3.1,0.2,4.6,0.2
			c3.1,0,6.1-0.2,9.1-0.7c6.8-1,12.5-3,17-6c4.7-3.1,8-6.9,9.9-11.4c1.9-4.4,2.5-9,1.9-13.8c-1.1-7.3-4.5-12.9-10.4-16.8
			c-0.3-0.2-0.5-0.3-0.8-0.5c1.1-0.4,2-1.1,2.7-2c1-1.3,1.4-2.9,1.1-4.5l-2.1-14.8C185.3,52.3,182.7,50.1,179.8,50.1L179.8,50.1z"/>
	</g>
	<g>
		<path class="st0" d="M156.4,119.9c-1.5,0-2.9-0.1-4.4-0.2c-4.5-0.3-8.6-1.2-12.1-2.6c-1.5-0.6-2.2-2.2-1.8-3.6l4.6-15.4
			c0-0.1,0.1-0.2,0.1-0.3c-0.1,0-0.3,0-0.4,0c-0.7,0-1.4-0.2-1.9-0.7c-0.7-0.5-1-1.3-1.1-2.1l-2.2-35.8c-0.1-1.6,1-2.9,2.6-3.2
			l38.7-5.6c0.1,0,0.3,0,0.4,0c1.5,0,2.7,1.1,3,2.6l2.1,14.8c0.1,0.8-0.1,1.6-0.6,2.2c-0.5,0.6-1.2,1.1-2,1.2l-15.3,2.2
			c0.8,0,1.6-0.1,2.4-0.1c5.6,0,10.2,1.2,13.7,3.5c5.1,3.3,8.1,8.3,9,14.7c0.6,4.2,0.1,8.3-1.6,12.2c-1.7,3.9-4.7,7.3-8.9,10.1
			c-4.1,2.7-9.4,4.6-15.7,5.5C162.3,119.7,159.3,119.9,156.4,119.9z M148.8,96.9c1.7,0.5,3.5,0.9,5.2,1.1c1.2,0.1,2.4,0.2,3.5,0.2
			c1.3,0,2.5-0.1,3.7-0.3c1.7-0.3,3.1-0.7,4-1.4c0.6-0.4,0.5-0.7,0.5-0.9c0-0.2,0-0.3-0.4-0.5c-0.2-0.1-0.7-0.2-1.9-0.2
			c-1,0-2.3,0.1-3.7,0.3L148.8,96.9z"/>
		<path class="st1" d="M178.9,53.4l2.1,14.8l-22.6,3.3l0.4,5.8l3-0.4c2.4-0.3,4.6-0.5,6.7-0.5c5,0,9,1,12.1,3
			c4.3,2.9,6.9,7.1,7.7,12.6c0.5,3.7,0.1,7.2-1.4,10.5c-1.5,3.4-4.1,6.3-7.8,8.8c-3.7,2.5-8.5,4.2-14.5,5c-2.7,0.4-5.5,0.6-8.3,0.6
			c-1.4,0-2.8,0-4.2-0.1c-4.2-0.3-8-1.1-11.3-2.4l4.6-15.4c2.6,1,5.4,1.7,8.2,2c1.3,0.2,2.6,0.2,3.9,0.2c1.4,0,2.8-0.1,4.1-0.3
			c2.3-0.3,4.1-1,5.4-2c1.3-1,1.8-2.2,1.6-3.7c-0.2-1.4-1-2.3-2.4-2.8c-0.7-0.3-1.7-0.4-2.9-0.4c-1.2,0-2.5,0.1-4.2,0.4l-16.9,2.4
			L140.2,59L178.9,53.4 M178.9,47.4c-0.3,0-0.6,0-0.9,0.1l-38.7,5.6c-3.1,0.4-5.3,3.2-5.1,6.3l2.2,35.8c0.1,1.7,0.9,3.2,2.2,4.3
			c0.1,0.1,0.3,0.2,0.4,0.3l-3.8,12.9c-0.9,3,0.7,6.2,3.6,7.3c3.8,1.5,8.2,2.4,13,2.8c1.5,0.1,3.1,0.2,4.6,0.2
			c3.1,0,6.1-0.2,9.1-0.7c6.8-1,12.5-3,17-6c4.7-3.1,8-6.9,9.9-11.4c1.9-4.4,2.5-9,1.9-13.8c-1.1-7.3-4.5-12.9-10.4-16.8
			c-0.3-0.2-0.5-0.3-0.8-0.5c2.6-1,4.3-3.6,3.8-6.5l-2.1-14.8c-0.2-1.6-1.1-3-2.3-3.9C181.4,47.8,180.2,47.4,178.9,47.4L178.9,47.4z
			"/>
	</g>
	<g>
		<path class="st0" d="M155.5,117.2c-1.5,0-2.9-0.1-4.4-0.2c-4.5-0.3-8.6-1.2-12.1-2.6c-1.5-0.6-2.2-2.2-1.8-3.6l4.6-15.4
			c0-0.1,0.1-0.2,0.1-0.3c-0.1,0-0.3,0-0.4,0c-0.7,0-1.4-0.2-1.9-0.7c-0.7-0.5-1-1.3-1.1-2.1l-2.2-35.8c-0.1-1.6,1-2.9,2.6-3.2
			l38.7-5.6c0.1,0,0.3,0,0.4,0c1.5,0,2.7,1.1,3,2.6l2.1,14.8c0.1,0.8-0.1,1.6-0.6,2.2c-0.5,0.6-1.2,1.1-2,1.2l-15.3,2.2
			c0.8,0,1.6-0.1,2.4-0.1c5.6,0,10.2,1.2,13.7,3.5c5.1,3.3,8.1,8.3,9,14.7c0.6,4.2,0.1,8.3-1.6,12.2c-1.7,3.9-4.7,7.3-8.9,10.1
			c-4.1,2.7-9.4,4.6-15.7,5.5C161.4,117,158.4,117.2,155.5,117.2z M147.9,94.2c1.7,0.5,3.5,0.9,5.2,1.1c1.2,0.1,2.4,0.2,3.5,0.2
			c1.3,0,2.5-0.1,3.7-0.3c1.7-0.3,3.1-0.7,3.9-1.4c0.6-0.4,0.5-0.7,0.5-0.9c0-0.2,0-0.3-0.4-0.5c-0.2-0.1-0.7-0.2-1.9-0.2
			c-1,0-2.3,0.1-3.7,0.3L147.9,94.2z"/>
		<path class="st1" d="M178,50.7l2.1,14.8l-22.6,3.3l0.4,5.8l3-0.4c2.4-0.3,4.6-0.5,6.7-0.5c5,0,9,1,12.1,3
			c4.3,2.9,6.9,7.1,7.7,12.6c0.5,3.7,0.1,7.2-1.4,10.5c-1.5,3.4-4.1,6.3-7.8,8.8c-3.7,2.5-8.5,4.2-14.5,5c-2.7,0.4-5.5,0.6-8.3,0.6
			c-1.4,0-2.8,0-4.2-0.1c-4.2-0.3-8-1.1-11.3-2.4l4.6-15.4c2.6,1,5.4,1.7,8.2,2c1.3,0.2,2.6,0.2,3.9,0.2c1.4,0,2.8-0.1,4.1-0.3
			c2.3-0.3,4.1-1,5.4-2c1.3-1,1.8-2.2,1.6-3.7c-0.2-1.4-1-2.3-2.4-2.8c-0.7-0.3-1.7-0.4-2.9-0.4c-1.2,0-2.5,0.1-4.2,0.4l-16.9,2.4
			l-2.2-35.8L178,50.7 M178,44.7c-0.3,0-0.6,0-0.9,0.1l-38.7,5.6c-3.1,0.4-5.3,3.2-5.1,6.3l2.2,35.8c0.1,1.7,0.9,3.2,2.2,4.3
			c0.1,0.1,0.3,0.2,0.4,0.3l-3.8,12.9c-0.9,3,0.7,6.2,3.6,7.3c3.8,1.5,8.2,2.4,13,2.8c1.5,0.1,3.1,0.2,4.6,0.2
			c3.1,0,6.1-0.2,9.1-0.7c6.8-1,12.5-3,17-6c4.7-3.1,8-6.9,9.9-11.4c1.9-4.4,2.5-9,1.9-13.8c-1.1-7.3-4.5-12.9-10.4-16.8
			c-0.3-0.2-0.5-0.3-0.8-0.5c2.6-1,4.3-3.6,3.8-6.5l-2.1-14.8c-0.2-1.6-1.1-3-2.3-3.9C180.5,45.1,179.3,44.7,178,44.7L178,44.7z"/>
	</g>
	<g>
		<path class="st0" d="M154.6,114.4c-1.5,0-2.9-0.1-4.4-0.2c-4.5-0.3-8.6-1.2-12.1-2.6c-1.5-0.6-2.2-2.2-1.8-3.6l4.6-15.4
			c0-0.1,0.1-0.2,0.1-0.3c-0.1,0-0.3,0-0.4,0c-0.7,0-1.4-0.2-1.9-0.7c-0.7-0.5-1-1.3-1.1-2.1l-2.2-35.8c-0.1-1.6,1-2.9,2.6-3.2
			l38.7-5.6c0.1,0,0.3,0,0.4,0c0.6,0,1.3,0.2,1.8,0.6c0.6,0.5,1.1,1.2,1.2,2l2.1,14.8c0.2,1.6-0.9,3.2-2.5,3.4L164.3,68
			c0.8,0,1.6-0.1,2.4-0.1c5.6,0,10.2,1.2,13.7,3.5c5.1,3.3,8.1,8.3,9,14.7c0.6,4.2,0.1,8.3-1.6,12.2c-1.7,3.9-4.7,7.3-8.9,10.1
			c-4.1,2.7-9.4,4.6-15.7,5.5C160.4,114.2,157.5,114.4,154.6,114.4z M147,91.5c1.7,0.5,3.5,0.9,5.2,1.1c1.2,0.1,2.4,0.2,3.5,0.2
			c1.3,0,2.5-0.1,3.7-0.3c1.7-0.3,3.1-0.7,4-1.4c0.6-0.4,0.5-0.7,0.5-0.9c0-0.2,0-0.3-0.4-0.5c-0.2-0.1-0.7-0.2-1.9-0.2
			c-1,0-2.3,0.1-3.7,0.3L147,91.5z"/>
		<path class="st1" d="M177.1,48l2.1,14.8L156.7,66l0.4,5.8l3-0.4c2.4-0.3,4.6-0.5,6.7-0.5c5,0,9,1,12.1,3c4.3,2.9,6.9,7.1,7.7,12.6
			c0.5,3.7,0.1,7.2-1.4,10.5c-1.5,3.4-4.1,6.3-7.8,8.8c-3.7,2.5-8.5,4.2-14.5,5c-2.7,0.4-5.5,0.6-8.3,0.6c-1.4,0-2.8,0-4.2-0.1
			c-4.2-0.3-8-1.1-11.3-2.4l4.6-15.4c2.6,1,5.4,1.7,8.2,2c1.3,0.2,2.6,0.2,3.9,0.2c1.4,0,2.8-0.1,4.1-0.3c2.3-0.3,4.1-1,5.4-2
			c1.3-1,1.8-2.2,1.6-3.7c-0.2-1.4-1-2.3-2.4-2.8c-0.7-0.3-1.7-0.4-2.9-0.4c-1.2,0-2.5,0.1-4.2,0.4l-16.9,2.4l-2.2-35.8L177.1,48
			 M177.1,42c-0.3,0-0.6,0-0.9,0.1l-38.7,5.6c-3.1,0.4-5.3,3.2-5.1,6.3l2.2,35.8c0.1,1.7,0.9,3.2,2.2,4.3c0.1,0.1,0.3,0.2,0.4,0.3
			l-3.8,12.9c-0.9,3,0.7,6.2,3.6,7.3c3.8,1.5,8.2,2.4,13,2.8c1.5,0.1,3.1,0.2,4.6,0.2c3.1,0,6.1-0.2,9.1-0.7c6.8-1,12.5-3,17-6
			c4.7-3.1,8-6.9,9.9-11.4c1.9-4.4,2.5-9,1.9-13.8c-1.1-7.3-4.5-12.9-10.4-16.8c-0.3-0.2-0.5-0.3-0.8-0.5c1.1-0.4,2-1.1,2.7-2
			c1-1.3,1.4-2.9,1.1-4.5L183,47.1C182.6,44.1,180,42,177.1,42L177.1,42z"/>
	</g>
	<g>
		<path class="st0" d="M153.7,111.7c-1.5,0-2.9-0.1-4.4-0.2c-4.5-0.3-8.6-1.2-12.1-2.6c-1.5-0.6-2.2-2.2-1.8-3.6l4.6-15.4
			c0-0.1,0.1-0.2,0.1-0.3c-0.1,0-0.3,0-0.4,0c-0.7,0-1.4-0.2-1.9-0.7c-0.7-0.5-1-1.3-1.1-2.1L134.5,51c-0.1-1.6,1-2.9,2.6-3.2
			l38.7-5.6c0.1,0,0.3,0,0.4,0c0.6,0,1.3,0.2,1.8,0.6c0.6,0.5,1.1,1.2,1.2,2l2.1,14.8c0.2,1.6-0.9,3.2-2.5,3.4l-15.3,2.2
			c0.8,0,1.6-0.1,2.4-0.1c5.6,0,10.2,1.2,13.7,3.5c5.1,3.3,8.1,8.3,9,14.7c0.6,4.2,0.1,8.3-1.6,12.2c-1.7,3.9-4.7,7.3-8.9,10.1
			c-4.1,2.7-9.4,4.6-15.7,5.5C159.5,111.5,156.6,111.7,153.7,111.7z M146.1,88.7c1.7,0.5,3.5,0.9,5.2,1.1c1.2,0.1,2.4,0.2,3.5,0.2
			c1.3,0,2.5-0.1,3.7-0.3c1.7-0.3,3.1-0.7,3.9-1.4c0.6-0.4,0.5-0.7,0.5-0.9c0-0.2,0-0.3-0.4-0.5c-0.2-0.1-0.7-0.2-1.9-0.2
			c-1,0-2.3,0.1-3.7,0.3L146.1,88.7z"/>
		<path class="st1" d="M176.2,45.2l2.1,14.8l-22.6,3.3l0.4,5.8l3-0.4c2.4-0.3,4.6-0.5,6.7-0.5c5,0,9,1,12.1,3
			c4.3,2.9,6.9,7.1,7.7,12.6c0.5,3.7,0.1,7.2-1.4,10.5c-1.5,3.4-4.1,6.3-7.8,8.8c-3.7,2.5-8.5,4.2-14.5,5c-2.7,0.4-5.5,0.6-8.3,0.6
			c-1.4,0-2.8,0-4.2-0.1c-4.2-0.3-8-1.1-11.3-2.4l4.6-15.4c2.6,1,5.4,1.7,8.2,2c1.3,0.2,2.6,0.2,3.9,0.2c1.4,0,2.8-0.1,4.1-0.3
			c2.3-0.3,4.1-1,5.4-2c1.3-1,1.8-2.2,1.6-3.7c-0.2-1.4-1-2.3-2.4-2.8c-0.7-0.3-1.7-0.4-2.9-0.4c-1.2,0-2.5,0.1-4.2,0.4l-16.9,2.4
			l-2.2-35.8L176.2,45.2 M176.2,39.2c-0.3,0-0.6,0-0.9,0.1l-38.7,5.6c-3.1,0.4-5.3,3.2-5.1,6.3l2.2,35.8c0.1,1.7,0.9,3.2,2.2,4.3
			c0.1,0.1,0.3,0.2,0.4,0.3l-3.8,12.9c-0.9,3,0.7,6.2,3.6,7.3c3.8,1.5,8.2,2.4,13,2.8c1.5,0.1,3.1,0.2,4.6,0.2
			c3.1,0,6.1-0.2,9.1-0.7c6.8-1,12.5-3,17-6c4.7-3.1,8-6.9,9.9-11.4c1.9-4.4,2.5-9,1.9-13.8c-1.1-7.3-4.5-12.9-10.4-16.8
			c-0.3-0.2-0.5-0.3-0.8-0.5c1.1-0.4,2-1.1,2.7-2c1-1.3,1.4-2.9,1.1-4.5l-2.1-14.8C181.7,41.4,179.1,39.2,176.2,39.2L176.2,39.2z"/>
	</g>
	<g>
		<path class="st0" d="M152.8,109c-1.5,0-2.9-0.1-4.4-0.2c-4.5-0.3-8.6-1.2-12.1-2.6c-1.5-0.6-2.2-2.2-1.8-3.6l4.6-15.4
			c0-0.1,0.1-0.2,0.1-0.3c-0.1,0-0.3,0-0.4,0c-0.7,0-1.4-0.2-1.9-0.7c-0.7-0.5-1-1.3-1.1-2.1l-2.2-35.8c-0.1-1.6,1-2.9,2.6-3.2
			l38.7-5.6c0.1,0,0.3,0,0.4,0c0.6,0,1.3,0.2,1.8,0.6c0.6,0.5,1.1,1.2,1.2,2l2.1,14.8c0.2,1.6-0.9,3.2-2.5,3.4l-15.3,2.2
			c0.8,0,1.6-0.1,2.4-0.1c5.6,0,10.2,1.2,13.7,3.5c5.1,3.3,8.1,8.3,9,14.7c0.6,4.2,0.1,8.3-1.6,12.2c-1.7,3.9-4.7,7.3-8.9,10.1
			c-4.1,2.7-9.4,4.6-15.7,5.5C158.6,108.8,155.7,109,152.8,109z M145.2,86c1.7,0.5,3.5,0.9,5.2,1.1c1.2,0.1,2.4,0.2,3.5,0.2
			c1.3,0,2.5-0.1,3.7-0.3c1.7-0.3,3.1-0.7,3.9-1.4c0.6-0.4,0.5-0.7,0.5-0.9c0-0.2,0-0.3-0.4-0.5c-0.2-0.1-0.7-0.2-1.9-0.2
			c-1,0-2.3,0.1-3.7,0.3L145.2,86z"/>
		<path class="st1" d="M175.3,42.5l2.1,14.8l-22.6,3.3l0.4,5.8l3-0.4c2.4-0.3,4.6-0.5,6.7-0.5c5,0,9,1,12.1,3
			c4.3,2.9,6.9,7.1,7.7,12.6c0.5,3.7,0.1,7.2-1.4,10.5c-1.5,3.4-4.1,6.3-7.8,8.8c-3.7,2.5-8.5,4.2-14.5,5c-2.7,0.4-5.5,0.6-8.3,0.6
			c-1.4,0-2.8,0-4.2-0.1c-4.2-0.3-8-1.1-11.3-2.4l4.6-15.4c2.6,1,5.4,1.7,8.2,2c1.3,0.2,2.6,0.2,3.9,0.2c1.4,0,2.8-0.1,4.1-0.3
			c2.3-0.3,4.1-1,5.4-2c1.3-1,1.8-2.2,1.6-3.7c-0.2-1.4-1-2.3-2.4-2.8c-0.7-0.3-1.7-0.4-2.9-0.4c-1.2,0-2.5,0.1-4.2,0.4l-16.9,2.4
			l-2.2-35.8L175.3,42.5 M175.3,36.5c-0.3,0-0.6,0-0.9,0.1l-38.7,5.6c-3.1,0.4-5.3,3.2-5.1,6.3l2.2,35.8c0.1,1.7,0.9,3.2,2.2,4.3
			c0.1,0.1,0.3,0.2,0.4,0.3l-3.8,12.9c-0.9,3,0.7,6.2,3.6,7.3c3.8,1.5,8.2,2.4,13,2.8c1.5,0.1,3.1,0.2,4.6,0.2
			c3.1,0,6.1-0.2,9.1-0.7c6.8-1,12.5-3,17-6c4.7-3.1,8-6.9,9.9-11.4c1.9-4.4,2.5-9,1.9-13.8c-1.1-7.3-4.5-12.9-10.4-16.8
			c-0.3-0.2-0.5-0.3-0.8-0.5c1.1-0.4,2-1.1,2.7-2c1-1.3,1.4-2.9,1.1-4.5l-2.1-14.8C180.8,38.7,178.2,36.5,175.3,36.5L175.3,36.5z"/>
	</g>
	<g>
		<path class="st0" d="M151.9,106.3c-1.5,0-2.9-0.1-4.4-0.2c-4.5-0.3-8.6-1.2-12.1-2.6c-1.5-0.6-2.2-2.2-1.8-3.6l4.6-15.4
			c0-0.1,0.1-0.2,0.1-0.3c-0.1,0-0.3,0-0.4,0c-0.7,0-1.4-0.2-1.9-0.7c-0.7-0.5-1-1.3-1.1-2.1l-2.2-35.8c-0.1-1.6,1-2.9,2.6-3.2
			l38.7-5.6c0.1,0,0.3,0,0.4,0c0.6,0,1.3,0.2,1.8,0.6c0.6,0.5,1.1,1.2,1.2,2l2.1,14.8c0.2,1.6-0.9,3.2-2.5,3.4l-15.3,2.2
			c0.8,0,1.6-0.1,2.4-0.1c5.6,0,10.2,1.2,13.7,3.5c5.1,3.3,8.1,8.3,9,14.7c0.6,4.2,0.1,8.3-1.6,12.2c-1.7,3.9-4.7,7.3-8.9,10.1
			c-4.1,2.7-9.4,4.6-15.7,5.5C157.7,106.1,154.8,106.3,151.9,106.3z M144.3,83.3c1.7,0.5,3.5,0.9,5.2,1.1c1.2,0.1,2.4,0.2,3.5,0.2
			c1.3,0,2.5-0.1,3.7-0.3c1.7-0.3,3.1-0.7,3.9-1.4c0.6-0.4,0.5-0.7,0.5-0.9c0-0.2,0-0.3-0.4-0.5c-0.2-0.1-0.7-0.2-1.9-0.2
			c-1,0-2.3,0.1-3.7,0.3L144.3,83.3z"/>
		<path class="st1" d="M174.3,39.8l2.1,14.8l-22.6,3.3l0.4,5.8l3-0.4c2.4-0.3,4.6-0.5,6.7-0.5c5,0,9,1,12.1,3
			c4.3,2.9,6.9,7.1,7.7,12.6c0.5,3.7,0.1,7.2-1.4,10.5c-1.5,3.4-4.1,6.3-7.8,8.8c-3.7,2.5-8.5,4.2-14.5,5c-2.7,0.4-5.5,0.6-8.3,0.6
			c-1.4,0-2.8,0-4.2-0.1c-4.2-0.3-8-1.1-11.3-2.4l4.6-15.4c2.6,1,5.4,1.7,8.2,2c1.3,0.2,2.6,0.2,3.9,0.2c1.4,0,2.8-0.1,4.1-0.3
			c2.3-0.3,4.1-1,5.4-2c1.3-1,1.8-2.2,1.6-3.7c-0.2-1.4-1-2.3-2.4-2.8c-0.7-0.3-1.7-0.4-2.9-0.4c-1.2,0-2.5,0.1-4.2,0.4l-16.9,2.4
			l-2.2-35.8L174.3,39.8 M174.3,33.8c-0.3,0-0.6,0-0.9,0.1l-38.7,5.6c-3.1,0.4-5.3,3.2-5.1,6.3l2.2,35.8c0.1,1.7,0.9,3.2,2.2,4.3
			c0.1,0.1,0.3,0.2,0.4,0.3L130.7,99c-0.9,3,0.7,6.2,3.6,7.3c3.8,1.5,8.2,2.4,13,2.8c1.5,0.1,3.1,0.2,4.6,0.2c3.1,0,6.1-0.2,9.1-0.7
			c6.8-1,12.5-3,17-6c4.7-3.1,8-6.9,9.9-11.4c1.9-4.4,2.5-9,1.9-13.8c-1.1-7.3-4.5-12.9-10.4-16.8c-0.3-0.2-0.5-0.3-0.8-0.5
			c1.1-0.4,2-1.1,2.7-2c1-1.3,1.4-2.9,1.1-4.5l-2.1-14.8C179.8,35.9,177.3,33.8,174.3,33.8L174.3,33.8z"/>
	</g>
	<g>
		<path class="st0" d="M151,103.5c-1.5,0-2.9-0.1-4.4-0.2c-4.5-0.3-8.6-1.2-12.1-2.6c-1.5-0.6-2.2-2.2-1.8-3.6l4.6-15.4
			c0-0.1,0.1-0.2,0.1-0.3c-0.1,0-0.3,0-0.4,0c-0.7,0-1.4-0.2-1.9-0.7c-0.7-0.5-1-1.3-1.1-2.1l-2.2-35.8c-0.1-1.6,1-2.9,2.6-3.2
			l38.7-5.6c0.1,0,0.3,0,0.4,0c0.6,0,1.3,0.2,1.8,0.6c0.6,0.5,1.1,1.2,1.2,2l2.1,14.8c0.2,1.6-0.9,3.2-2.5,3.4l-15.3,2.2
			c0.8,0,1.6-0.1,2.4-0.1c5.6,0,10.2,1.2,13.7,3.5c5.1,3.3,8.1,8.3,9,14.7c0.6,4.2,0.1,8.3-1.6,12.2c-1.7,3.9-4.7,7.3-8.9,10.1
			c-4.1,2.7-9.4,4.6-15.7,5.5C156.8,103.3,153.9,103.5,151,103.5z M143.4,80.5c1.7,0.5,3.5,0.9,5.2,1.1c1.2,0.1,2.4,0.2,3.5,0.2
			c1.3,0,2.5-0.1,3.7-0.3c1.7-0.3,3.1-0.7,3.9-1.4c0.6-0.4,0.5-0.7,0.5-0.9c0-0.2,0-0.3-0.4-0.5c-0.2-0.1-0.7-0.2-1.9-0.2
			c-1,0-2.3,0.1-3.7,0.3L143.4,80.5z"/>
		<path class="st1" d="M173.4,37.1l2.1,14.8L153,55.1l0.4,5.8l3-0.4c2.4-0.3,4.6-0.5,6.7-0.5c5,0,9,1,12.1,3
			c4.3,2.9,6.9,7.1,7.7,12.6c0.5,3.7,0.1,7.2-1.4,10.5c-1.5,3.4-4.1,6.3-7.8,8.8c-3.7,2.5-8.5,4.2-14.5,5c-2.7,0.4-5.5,0.6-8.3,0.6
			c-1.4,0-2.8,0-4.2-0.1c-4.2-0.3-8-1.1-11.3-2.4l4.6-15.4c2.6,1,5.4,1.7,8.2,2c1.3,0.2,2.6,0.2,3.9,0.2c1.4,0,2.8-0.1,4.1-0.3
			c2.3-0.3,4.1-1,5.4-2c1.3-1,1.8-2.2,1.6-3.7c-0.2-1.4-1-2.3-2.4-2.8c-0.7-0.3-1.7-0.4-2.9-0.4c-1.2,0-2.5,0.1-4.2,0.4l-16.9,2.4
			l-2.2-35.8L173.4,37.1 M173.4,31.1c-0.3,0-0.6,0-0.9,0.1l-38.7,5.6c-3.1,0.4-5.3,3.2-5.1,6.3l2.2,35.8c0.1,1.7,0.9,3.2,2.2,4.3
			c0.1,0.1,0.3,0.2,0.4,0.3l-3.8,12.9c-0.9,3,0.7,6.2,3.6,7.3c3.8,1.5,8.2,2.4,13,2.8c1.5,0.1,3.1,0.2,4.6,0.2
			c3.1,0,6.1-0.2,9.1-0.7c6.8-1,12.5-3,17-6c4.7-3.1,8-6.9,9.9-11.4c1.9-4.4,2.5-9,1.9-13.8c-1.1-7.3-4.5-12.9-10.4-16.8
			c-0.3-0.2-0.5-0.3-0.8-0.5c1.1-0.4,2-1.1,2.7-2c1-1.3,1.4-2.9,1.1-4.5l-2.1-14.8C178.9,33.2,176.4,31.1,173.4,31.1L173.4,31.1z"/>
	</g>
	<g>
		<path class="st0" d="M150.1,100.8c-1.5,0-2.9-0.1-4.4-0.2c-4.5-0.3-8.6-1.2-12.1-2.6c-1.5-0.6-2.2-2.2-1.8-3.6l4.6-15.4
			c0-0.1,0.1-0.2,0.1-0.3c-0.1,0-0.3,0-0.4,0c-0.7,0-1.4-0.2-1.9-0.7c-0.7-0.5-1-1.3-1.1-2.1l-2.2-35.8c-0.1-1.6,1-2.9,2.6-3.2
			l38.7-5.6c0.1,0,0.3,0,0.4,0c0.6,0,1.3,0.2,1.8,0.6c0.6,0.5,1.1,1.2,1.2,2l2.1,14.8c0.2,1.6-0.9,3.2-2.5,3.4l-15.3,2.2
			c0.8,0,1.6-0.1,2.4-0.1c5.6,0,10.2,1.2,13.7,3.5c5.1,3.3,8.1,8.3,9,14.7c0.6,4.2,0.1,8.3-1.6,12.2c-1.7,3.9-4.7,7.3-8.9,10.1
			c-4.1,2.7-9.4,4.6-15.7,5.5C155.9,100.6,153,100.8,150.1,100.8z M142.5,77.8c1.7,0.5,3.5,0.9,5.2,1.1c1.2,0.1,2.4,0.2,3.5,0.2
			c1.3,0,2.5-0.1,3.7-0.3c1.7-0.3,3.1-0.7,3.9-1.4c0.6-0.4,0.5-0.7,0.5-0.9c0-0.2,0-0.3-0.4-0.5c-0.2-0.1-0.7-0.2-1.9-0.2
			c-1,0-2.3,0.1-3.7,0.3L142.5,77.8z"/>
		<path class="st1" d="M172.5,34.3l2.1,14.8l-22.6,3.3l0.4,5.8l3-0.4c2.4-0.3,4.6-0.5,6.7-0.5c5,0,9,1,12.1,3
			c4.3,2.9,6.9,7.1,7.7,12.6c0.5,3.7,0.1,7.2-1.4,10.5c-1.5,3.4-4.1,6.3-7.8,8.8c-3.7,2.5-8.5,4.2-14.5,5c-2.7,0.4-5.5,0.6-8.3,0.6
			c-1.4,0-2.8,0-4.2-0.1c-4.2-0.3-8-1.1-11.3-2.4l4.6-15.4c2.6,1,5.4,1.7,8.2,2c1.3,0.2,2.6,0.2,3.9,0.2c1.4,0,2.8-0.1,4.1-0.3
			c2.3-0.3,4.1-1,5.4-2c1.3-1,1.8-2.2,1.6-3.7c-0.2-1.4-1-2.3-2.4-2.8c-0.7-0.3-1.7-0.4-2.9-0.4c-1.2,0-2.5,0.1-4.2,0.4L136,75.7
			l-2.2-35.8L172.5,34.3 M172.5,28.3c-0.3,0-0.6,0-0.9,0.1L133,34c-3.1,0.4-5.3,3.2-5.1,6.3l2.2,35.8c0.1,1.7,0.9,3.2,2.2,4.3
			c0.1,0.1,0.3,0.2,0.4,0.3l-3.8,12.9c-0.9,3,0.7,6.2,3.6,7.3c3.8,1.5,8.2,2.4,13,2.8c1.5,0.1,3.1,0.2,4.6,0.2
			c3.1,0,6.1-0.2,9.1-0.7c6.8-1,12.5-3,17-6c4.7-3.1,8-6.9,9.9-11.4c1.9-4.4,2.5-9,1.9-13.8c-1.1-7.3-4.5-12.9-10.4-16.8
			c-0.3-0.2-0.5-0.3-0.8-0.5c2.6-1,4.3-3.6,3.8-6.5l-2.1-14.8c-0.2-1.6-1.1-3-2.3-3.9C175.1,28.7,173.8,28.3,172.5,28.3L172.5,28.3z
			"/>
	</g>
	<g>
		<path class="st0" d="M149.2,98.1c-1.5,0-2.9-0.1-4.4-0.2c-4.5-0.3-8.6-1.2-12.1-2.6c-1.5-0.6-2.2-2.2-1.8-3.6l4.6-15.4
			c0-0.1,0.1-0.2,0.1-0.3c-0.1,0-0.3,0-0.4,0c-0.7,0-1.4-0.2-1.9-0.7c-0.7-0.5-1-1.3-1.1-2.1l-2.2-35.8c-0.1-1.6,1-2.9,2.6-3.2
			l38.7-5.6c0.1,0,0.3,0,0.4,0c1.5,0,2.7,1.1,3,2.6l2.1,14.8c0.1,0.8-0.1,1.6-0.6,2.2c-0.5,0.6-1.2,1.1-2,1.2l-15.3,2.2
			c0.8,0,1.6-0.1,2.4-0.1c5.6,0,10.2,1.2,13.7,3.5c5.1,3.3,8.1,8.3,9,14.7c0.6,4.2,0.1,8.3-1.6,12.2c-1.7,3.9-4.7,7.3-8.9,10.1
			c-4.1,2.7-9.4,4.6-15.7,5.5C155,97.9,152.1,98.1,149.2,98.1z M141.5,75.1c1.7,0.5,3.5,0.9,5.2,1.1c1.2,0.1,2.4,0.2,3.5,0.2
			c1.3,0,2.5-0.1,3.7-0.3c1.7-0.3,3.1-0.7,3.9-1.4c0.6-0.4,0.5-0.7,0.5-0.9c0-0.2,0-0.3-0.4-0.5c-0.2-0.1-0.7-0.2-1.9-0.2
			c-1,0-2.3,0.1-3.7,0.3L141.5,75.1z"/>
		<path class="st1" d="M171.6,31.6l2.1,14.8l-22.6,3.3l0.4,5.8l3-0.4c2.4-0.3,4.6-0.5,6.7-0.5c5,0,9,1,12.1,3
			c4.3,2.9,6.9,7.1,7.7,12.6c0.5,3.7,0.1,7.2-1.4,10.5c-1.5,3.4-4.1,6.3-7.8,8.8c-3.7,2.5-8.5,4.2-14.5,5c-2.7,0.4-5.5,0.6-8.3,0.6
			c-1.4,0-2.8,0-4.2-0.1c-4.2-0.3-8-1.1-11.3-2.4l4.6-15.4c2.6,1,5.4,1.7,8.2,2c1.3,0.2,2.6,0.2,3.9,0.2c1.4,0,2.8-0.1,4.1-0.3
			c2.3-0.3,4.1-1,5.4-2c1.3-1,1.8-2.2,1.6-3.7c-0.2-1.4-1-2.3-2.4-2.8c-0.7-0.3-1.7-0.4-2.9-0.4c-1.2,0-2.5,0.1-4.2,0.4L135.1,73
			l-2.2-35.8L171.6,31.6 M171.6,25.6c-0.3,0-0.6,0-0.9,0.1l-38.7,5.6c-3.1,0.4-5.3,3.2-5.1,6.3l2.2,35.8c0.1,1.7,0.9,3.2,2.2,4.3
			c0.1,0.1,0.3,0.2,0.4,0.3l-3.8,12.9c-0.9,3,0.7,6.2,3.6,7.3c3.8,1.5,8.2,2.4,13,2.8c1.5,0.1,3.1,0.2,4.6,0.2
			c3.1,0,6.1-0.2,9.1-0.7c6.8-1,12.5-3,17-6c4.7-3.1,8-6.9,9.9-11.4c1.9-4.4,2.5-9,1.9-13.8c-1.1-7.3-4.5-12.9-10.4-16.8
			c-0.3-0.2-0.5-0.3-0.8-0.5c1.1-0.4,2-1.1,2.7-2c1-1.3,1.4-2.9,1.1-4.5l-2.1-14.8C177.1,27.8,174.6,25.6,171.6,25.6L171.6,25.6z"/>
	</g>
	<g>
		<path class="st0" d="M148.3,95.4c-1.5,0-2.9-0.1-4.4-0.2c-4.5-0.3-8.6-1.2-12.1-2.6c-1.5-0.6-2.2-2.1-1.8-3.6l4.6-15.4
			c0-0.1,0.1-0.2,0.1-0.3c-0.1,0-0.3,0-0.4,0c-0.7,0-1.4-0.2-1.9-0.7c-0.7-0.5-1-1.3-1.1-2.1L129,34.7c-0.1-1.6,1-2.9,2.6-3.2
			l38.7-5.6c0.1,0,0.3,0,0.4,0c1.5,0,2.7,1.1,3,2.6l2.1,14.8c0.1,0.8-0.1,1.6-0.6,2.2c-0.5,0.6-1.2,1.1-2,1.2L158,48.9
			c0.8,0,1.6-0.1,2.4-0.1c5.6,0,10.2,1.2,13.7,3.5c5.1,3.3,8.1,8.3,9,14.7c0.6,4.2,0.1,8.3-1.6,12.2c-1.7,3.9-4.7,7.3-8.9,10.1
			c-4.1,2.7-9.4,4.6-15.7,5.5C154.1,95.1,151.2,95.4,148.3,95.4z M140.6,72.4c1.7,0.5,3.5,0.9,5.2,1.1c1.2,0.1,2.4,0.2,3.5,0.2
			c1.3,0,2.5-0.1,3.7-0.3c1.7-0.3,3.1-0.7,4-1.4c0.6-0.4,0.5-0.7,0.5-0.9c0-0.2,0-0.3-0.4-0.5c-0.2-0.1-0.7-0.2-1.9-0.2
			c-1,0-2.3,0.1-3.7,0.3L140.6,72.4z"/>
		<path class="st1" d="M170.7,28.9l2.1,14.8L150.3,47l0.4,5.8l3-0.4c2.4-0.3,4.6-0.5,6.7-0.5c5,0,9,1,12.1,3
			c4.3,2.9,6.9,7.1,7.7,12.6c0.5,3.7,0.1,7.2-1.4,10.5c-1.5,3.4-4.1,6.3-7.8,8.8c-3.7,2.5-8.5,4.2-14.5,5c-2.7,0.4-5.5,0.6-8.3,0.6
			c-1.4,0-2.8,0-4.2-0.1c-4.2-0.3-8-1.1-11.3-2.4l4.6-15.4c2.6,1,5.4,1.7,8.2,2c1.3,0.2,2.6,0.2,3.9,0.2c1.4,0,2.8-0.1,4.1-0.3
			c2.3-0.3,4.1-1,5.4-2c1.3-1,1.8-2.2,1.6-3.7c-0.2-1.4-1-2.3-2.4-2.8c-0.7-0.3-1.7-0.4-2.9-0.4c-1.2,0-2.5,0.1-4.2,0.4l-16.9,2.4
			L132,34.5L170.7,28.9 M170.7,22.9c-0.3,0-0.6,0-0.9,0.1l-38.7,5.6c-3.1,0.4-5.3,3.2-5.1,6.3l2.2,35.8c0.1,1.7,0.9,3.2,2.2,4.3
			c0.1,0.1,0.3,0.2,0.4,0.3L127,88.1c-0.9,3,0.7,6.2,3.6,7.3c3.8,1.5,8.2,2.4,13,2.8c1.5,0.1,3.1,0.2,4.6,0.2c3.1,0,6.1-0.2,9.1-0.7
			c6.8-1,12.5-3,17-6c4.7-3.1,8-6.9,9.9-11.4c1.9-4.4,2.5-9,1.9-13.8c-1.1-7.3-4.5-12.9-10.4-16.8c-0.3-0.2-0.5-0.3-0.8-0.5
			c2.6-1,4.3-3.6,3.8-6.5L176.6,28c-0.2-1.6-1.1-3-2.3-3.9C173.3,23.3,172,22.9,170.7,22.9L170.7,22.9z"/>
	</g>
</g>
</svg>
