<svg viewBox="0 0 870 379" fill="none" xmlns="http://www.w3.org/2000/svg">
<path d="M272.633 108.285C270.082 99.7885 261.177 94.9448 252.745 97.4667C244.313 99.9886 239.546 108.921 242.098 117.418L272.633 108.285ZM245.447 199.819L234.572 188.02L245.447 199.819ZM173.88 199.657L158.278 196.23L151.631 227.585L167.232 231.013L173.88 199.657ZM242.098 117.418C250.61 145.761 253.616 170.267 234.572 188.02L256.323 211.617C290.796 179.48 280.987 136.101 272.633 108.285L242.098 117.418ZM234.572 188.02C224.708 197.216 210.479 200.668 196.839 201.245C190.243 201.524 184.347 201.103 180.11 200.608C178.006 200.362 176.347 200.103 175.26 199.915C174.718 199.821 174.321 199.745 174.085 199.698C173.967 199.675 173.889 199.659 173.854 199.652C173.837 199.648 173.83 199.647 173.834 199.647C173.836 199.648 173.841 199.649 173.849 199.651C173.852 199.651 173.857 199.652 173.862 199.653C173.865 199.654 173.869 199.655 173.87 199.655C173.875 199.656 173.88 199.657 170.556 215.335C167.232 231.013 167.237 231.014 167.243 231.015C167.245 231.016 167.25 231.017 167.254 231.018C167.262 231.02 167.271 231.021 167.28 231.023C167.299 231.028 167.321 231.032 167.346 231.038C167.396 231.048 167.457 231.061 167.53 231.076C167.675 231.107 167.865 231.146 168.099 231.192C168.567 231.284 169.21 231.406 170.011 231.545C171.61 231.822 173.851 232.169 176.599 232.49C182.068 233.128 189.691 233.679 198.349 233.313C215.217 232.6 238.434 228.294 256.323 211.617L234.572 188.02Z" fill="#21C487"/>
<g filter="url(#filter0_i_130_243)">
<rect width="209.933" height="389.041" rx="104.966" transform="matrix(0.999854 0.017107 -0.0167431 0.99986 -4.48627 0)" fill="#29DA98"/>
</g>
<ellipse cx="10.8379" cy="10.9133" rx="10.8379" ry="10.9133" transform="matrix(0.995799 0.0680472 -0.0668544 0.999616 79.855 97.2042)" fill="#3E464E"/>
<ellipse cx="10.8379" cy="10.9133" rx="10.8379" ry="10.9133" transform="matrix(0.995799 0.0680472 -0.0668544 0.999616 157.133 94.2672)" fill="#3E464E"/>
<path d="M108.126 129.93C108.086 126.637 110.711 123.933 113.989 123.892L151.281 123.424C154.56 123.383 157.25 126.019 157.291 129.313C157.453 142.487 146.953 153.301 133.84 153.465L132.164 153.486C119.05 153.651 108.288 143.105 108.126 129.93Z" fill="#3E464E"/>
<path d="M418.757 192.545C420.904 196.463 422.79 201.083 423.468 207.025" stroke="white" stroke-opacity="0.4" stroke-width="12" stroke-linecap="round"/>
<path d="M125.237 21.3975C142.354 26.0045 159.121 33.9343 175.372 59.7976" stroke="white" stroke-opacity="0.4" stroke-width="12" stroke-linecap="round"/>
<path d="M129.285 198.24C131.816 189.764 127.027 180.792 118.589 178.2C110.151 175.608 101.258 180.378 98.7266 188.854L129.285 198.24ZM67.8726 250.208L62.4978 235.069L67.8726 250.208ZM18.7747 216.781L9.40365 203.744L-16.4142 222.461L-7.04314 235.498L18.7747 216.781ZM98.7266 188.854C91.5604 212.849 78.1769 229.509 62.4978 235.069L73.2473 265.346C102.213 255.074 120.577 227.396 129.285 198.24L98.7266 188.854ZM62.4978 235.069C51.2497 239.059 41.1462 235.648 32.4623 229.677C28.1488 226.712 24.6128 223.366 22.1411 220.72C20.9219 219.415 20.0051 218.327 19.4256 217.609C19.1369 217.252 18.9351 216.991 18.8245 216.845C18.7693 216.773 18.7372 216.729 18.7286 216.718C18.7244 216.712 18.726 216.714 18.7337 216.725C18.7375 216.73 18.7428 216.737 18.7497 216.747C18.7531 216.751 18.7569 216.757 18.761 216.762C18.7631 216.765 18.7666 216.77 18.7676 216.771C18.7711 216.776 18.7747 216.781 5.86578 226.14C-7.04314 235.498 -7.03933 235.503 -7.03542 235.509C-7.03398 235.511 -7.02996 235.516 -7.02706 235.52C-7.02128 235.528 -7.01508 235.537 -7.00844 235.546C-6.99518 235.564 -6.98022 235.585 -6.96358 235.608C-6.9303 235.653 -6.89025 235.708 -6.84352 235.771C-6.75006 235.898 -6.62972 236.059 -6.48299 236.252C-6.18971 236.638 -5.78992 237.153 -5.28768 237.775C-4.28529 239.015 -2.86268 240.696 -1.05196 242.634C2.53631 246.475 7.82224 251.515 14.5573 256.146C27.9706 265.368 48.8706 273.992 73.2473 265.346L62.4978 235.069Z" fill="#21C487"/>
<path d="M241.988 251.712L238.019 319.905" stroke="#D58713" stroke-width="21"/>
<path d="M444.378 250.709L448.346 318.902" stroke="#D58713" stroke-width="21"/>
<g filter="url(#filter1_i_130_243)">
<rect x="227.106" y="166.471" width="228.185" height="153.434" rx="76.717" fill="#F7A326"/>
</g>
<circle cx="314" cy="209" r="11" fill="#3E464E"/>
<ellipse cx="309.566" cy="197.57" rx="26.3032" ry="8.95203" transform="rotate(-25.9831 309.566 197.57)" fill="#F7A326"/>
<circle cx="369" cy="209" r="11" fill="#3E464E"/>
<ellipse cx="26.3032" cy="8.95203" rx="26.3032" ry="8.95203" transform="matrix(-0.898923 -0.438106 -0.438106 0.898923 398.133 200.047)" fill="#F7A326"/>
<rect x="320" y="225" width="46" height="16" rx="8" fill="#3E464E"/>
<g filter="url(#filter2_i_130_243)">
<ellipse cx="145.076" cy="154.536" rx="145.076" ry="154.536" transform="matrix(-1 0 0 1 828.729 23.0652)" fill="#AD82FF"/>
</g>
<path d="M535.69 250.954L534.009 264.906L534.009 264.906L535.69 250.954ZM581.214 266.306C588.393 263.531 591.958 255.401 589.178 248.148C586.398 240.895 578.325 237.264 571.147 240.039L581.214 266.306ZM539.913 190.959L552.502 184.976L540.537 159.525L527.949 165.508L539.913 190.959ZM485.321 193.421C482.049 197.045 478.153 202.298 475.556 208.624C472.948 214.976 471.243 223.488 474.234 232.512C477.282 241.708 484.344 248.859 494.163 254.029C503.812 259.11 516.899 262.738 534.009 264.906L537.371 237.002C521.985 235.052 512.537 232.034 506.982 229.109C501.597 226.274 500.788 224.058 500.667 223.692C500.489 223.155 500.318 221.911 501.316 219.478C502.326 217.018 504.111 214.458 505.964 212.405L485.321 193.421ZM534.009 264.906C551.728 267.152 562.477 267.776 569.041 267.78C572.333 267.781 574.739 267.628 576.548 267.398C577.462 267.282 578.279 267.139 579.023 266.968C579.397 266.882 579.764 266.786 580.125 266.678C580.306 266.623 580.487 266.566 580.668 266.504C580.758 266.473 580.849 266.441 580.94 266.408C580.986 266.392 581.031 266.375 581.077 266.358C581.1 266.349 581.123 266.341 581.146 266.332C581.157 266.328 581.174 266.321 581.18 266.319C581.197 266.312 581.214 266.306 576.181 253.172C571.147 240.039 571.164 240.032 571.182 240.026C571.187 240.023 571.204 240.017 571.216 240.013C571.238 240.004 571.26 239.996 571.283 239.987C571.327 239.971 571.37 239.955 571.413 239.939C571.498 239.908 571.581 239.879 571.659 239.853C571.817 239.799 571.962 239.753 572.092 239.714C572.353 239.636 572.564 239.583 572.715 239.548C573.012 239.48 573.114 239.474 572.952 239.495C572.608 239.538 571.419 239.657 568.94 239.656C563.963 239.654 554.466 239.169 537.371 237.002L534.009 264.906ZM533.931 178.233C527.949 165.508 527.947 165.509 527.946 165.509C527.945 165.51 527.944 165.51 527.943 165.511C527.94 165.512 527.938 165.513 527.934 165.515C527.928 165.518 527.92 165.522 527.91 165.527C527.89 165.536 527.863 165.549 527.83 165.565C527.764 165.596 527.671 165.641 527.554 165.697C527.319 165.811 526.985 165.973 526.562 166.181C525.716 166.597 524.513 167.195 523.046 167.946C520.118 169.444 516.092 171.57 511.709 174.081C503.495 178.788 492.103 185.908 485.321 193.421L505.964 212.405C509.432 208.564 517.185 203.344 525.552 198.55C529.46 196.311 533.084 194.396 535.734 193.04C537.055 192.364 538.123 191.833 538.851 191.475C539.214 191.296 539.492 191.162 539.673 191.074C539.764 191.031 539.83 190.999 539.87 190.979C539.891 190.97 539.904 190.963 539.912 190.96C539.915 190.958 539.917 190.957 539.918 190.957C539.918 190.957 539.917 190.957 539.917 190.957C539.916 190.957 539.916 190.958 539.915 190.958C539.914 190.958 539.913 190.959 533.931 178.233Z" fill="#9770DF"/>
<path d="M815.375 181.513C824.61 209.161 814.435 301.854 814.435 301.854" stroke="#9770DF" stroke-width="28" stroke-linecap="round"/>
<path d="M552.976 185.467C548.524 188.469 539.62 194.273 539.62 193.472C539.62 193.305 539.124 191.04 539.124 191.04C539.124 191.04 539.62 168.894 539.62 160.452L540.689 159.451L553.51 183.966L552.976 185.467Z" fill="#AD82FF"/>
<path d="M179.366 74.6104C181.513 78.529 183.399 83.1493 184.077 89.0908" stroke="white" stroke-opacity="0.4" stroke-width="12" stroke-linecap="round"/>
<path d="M252.901 195.701C255.381 192.043 276.216 178.505 288.285 177.527" stroke="white" stroke-opacity="0.4" stroke-width="9" stroke-linecap="round"/>
<path d="M299.537 176.276C303.499 176.276 296.049 176.276 306.475 176.276" stroke="white" stroke-opacity="0.4" stroke-width="9" stroke-linecap="round"/>
<ellipse cx="12.3334" cy="12.9338" rx="12.3334" ry="12.9338" transform="matrix(-0.990578 -0.0520362 -0.0465833 1.00619 691.071 120.464)" fill="#3E464E"/>
<path d="M609.146 147.741C609.432 143.499 613.094 140.297 617.323 140.588L651.06 142.916C655.29 143.208 658.486 146.884 658.2 151.126L657.786 157.252C656.869 170.837 645.144 181.092 631.598 180.157C618.052 179.222 607.815 167.452 608.732 153.867L609.146 147.741Z" fill="#3E464E"/>
<ellipse cx="12.3334" cy="12.9338" rx="12.3334" ry="12.9338" transform="matrix(-0.990578 -0.0520362 -0.0465833 1.00619 604.44 115.915)" fill="#3E464E"/>
<path d="M665.518 38.5191C645.57 42.3825 616.996 49.2219 593.887 76.1873" stroke="white" stroke-opacity="0.3" stroke-width="10" stroke-linecap="round"/>
<defs>
<filter id="filter0_i_130_243" x="-9.25757" y="1.77997" width="212.931" height="389.018" filterUnits="userSpaceOnUse" color-interpolation-filters="sRGB">
<feFlood flood-opacity="0" result="BackgroundImageFix"/>
<feBlend mode="normal" in="SourceGraphic" in2="BackgroundImageFix" result="shape"/>
<feColorMatrix in="SourceAlpha" type="matrix" values="0 0 0 0 0 0 0 0 0 0 0 0 0 0 0 0 0 0 127 0" result="hardAlpha"/>
<feOffset dx="15" dy="-11"/>
<feComposite in2="hardAlpha" operator="arithmetic" k2="-1" k3="1"/>
<feColorMatrix type="matrix" values="0 0 0 0 0.129412 0 0 0 0 0.768627 0 0 0 0 0.529412 0 0 0 0.5 0"/>
<feBlend mode="normal" in2="shape" result="effect1_innerShadow_130_243"/>
</filter>
<filter id="filter1_i_130_243" x="227.106" y="166.471" width="228.185" height="153.434" filterUnits="userSpaceOnUse" color-interpolation-filters="sRGB">
<feFlood flood-opacity="0" result="BackgroundImageFix"/>
<feBlend mode="normal" in="SourceGraphic" in2="BackgroundImageFix" result="shape"/>
<feColorMatrix in="SourceAlpha" type="matrix" values="0 0 0 0 0 0 0 0 0 0 0 0 0 0 0 0 0 0 127 0" result="hardAlpha"/>
<feOffset dx="5" dy="-9"/>
<feComposite in2="hardAlpha" operator="arithmetic" k2="-1" k3="1"/>
<feColorMatrix type="matrix" values="0 0 0 0 0.833333 0 0 0 0 0.530555 0 0 0 0 0.0763888 0 0 0 0.5 0"/>
<feBlend mode="normal" in2="shape" result="effect1_innerShadow_130_243"/>
</filter>
<filter id="filter2_i_130_243" x="538.576" y="23.0652" width="290.152" height="309.072" filterUnits="userSpaceOnUse" color-interpolation-filters="sRGB">
<feFlood flood-opacity="0" result="BackgroundImageFix"/>
<feBlend mode="normal" in="SourceGraphic" in2="BackgroundImageFix" result="shape"/>
<feColorMatrix in="SourceAlpha" type="matrix" values="0 0 0 0 0 0 0 0 0 0 0 0 0 0 0 0 0 0 127 0" result="hardAlpha"/>
<feOffset dx="-17" dy="-13"/>
<feComposite in2="hardAlpha" operator="arithmetic" k2="-1" k3="1"/>
<feColorMatrix type="matrix" values="0 0 0 0 0.590392 0 0 0 0 0.441146 0 0 0 0 0.875 0 0 0 0.5 0"/>
<feBlend mode="normal" in2="shape" result="effect1_innerShadow_130_243"/>
</filter>
</defs>
</svg>
