<?xml version="1.0" encoding="utf-8"?>
<!-- Generator: Adobe Illustrator 26.0.3, SVG Export Plug-In . SVG Version: 6.00 Build 0)  -->
<svg version="1.1" id="Layer_1" xmlns="http://www.w3.org/2000/svg" xmlns:xlink="http://www.w3.org/1999/xlink" x="0px" y="0px"
	 viewBox="0 0 363.16 343.06" style="enable-background:new 0 0 363.16 343.06;" xml:space="preserve">
<style type="text/css">
	.st0{fill:#FFCE00;}
</style>
<g>
	<g>
		<path class="st0" d="M63.66,263.02c-0.83,0-1.61-0.41-2.07-1.1l-0.09-0.12c-0.32-0.38-0.91-1.1-0.96-2.17
			c-0.05-1.2-0.05-2.38-0.04-3.53l0.01-1.22c0-0.32,0.06-0.62,0.17-0.91c-0.16-1.13-0.32-2.25-0.48-3.38
			c-0.52-3.61-1.05-7.35-1.52-11.04c-0.4-3.13-0.69-6.28-0.87-9.35c-0.19-3.23-1.28-6.25-2.44-9.45c-2.6-7.19-5.11-15.17-7.9-25.12
			c-1.26-4.5-2.33-9.12-3.36-13.57c-0.61-2.65-1.23-5.3-1.88-7.94c-0.06-0.24-0.3-0.65-0.54-1.04c-0.23-0.39-0.49-0.82-0.72-1.32
			c-0.1-0.23-0.21-0.45-0.32-0.68c-0.46-0.97-0.98-2.07-1.26-3.3c-0.53-2.39-1.02-4.82-1.5-7.17c-0.45-2.23-0.9-4.46-1.39-6.68
			c-0.26-1.19-0.58-2.36-0.93-3.6c-0.41-1.49-0.83-3.02-1.15-4.61c-0.44-2.22-0.77-4.48-1.09-6.65c-0.18-1.21-0.35-2.41-0.55-3.61
			c-0.27-1.67-0.56-3.35-0.84-5.02c-0.4-2.36-0.8-4.71-1.17-7.07c-0.25-1.59-0.46-3.19-0.67-4.8c-0.03-0.24-0.06-0.47-0.09-0.71
			c-1.15,1.92-2.3,3.84-3.44,5.76c-1,1.67-1.99,3.34-2.99,5.01l-0.51,0.86c-0.63,1.08-1.29,2.2-2.11,3.27
			c-1.32,1.72-3.25,2.75-5.18,2.75c-0.93,0-1.83-0.24-2.61-0.7c-3.18-1.86-4.88-5.99-3.72-9.02c8.35-21.78,20.4-40.85,35.81-56.66
			c1.28-1.32,2.45-2.75,3.69-4.27c1.24-1.53,2.53-3.11,3.96-4.59c0.62-0.64,1.24-1.28,1.86-1.92c3.61-3.74,7.34-7.61,11.53-10.9
			c4.86-3.83,10.82-5.61,18.78-5.61c1.31,0,2.68,0.05,4.21,0.14c2.13,0.13,4.01,0.37,5.75,0.74c5.94,1.24,10.13,4.8,12.47,10.59
			c3.26,8.07,2.64,16.65-1.83,25.52c-4.56,9.03-9.84,17.74-15.31,26.62c-3.24,5.26-6.84,10.38-10.31,15.33
			c-0.88,1.25-1.75,2.5-2.63,3.75c9.07,8.92,18.24,17.98,27.26,26.95c3,2.98,5.99,5.98,8.98,8.98c3.74,3.76,7.48,7.51,11.26,11.24
			c1.91,1.89,3.93,3.77,5.88,5.58c1.4,1.31,2.81,2.62,4.19,3.94c0.74,0.71,1.34,1.46,1.92,2.18c0.19,0.24,0.38,0.47,0.57,0.71
			c3.22,3.86,1.02,6.24,0.27,6.87c-1.1,0.93-3.1,2.02-5.13,2.02c-0.34,0-0.68-0.03-1-0.1c-2.11-0.42-3.87-1.84-5.28-2.98l-0.17-0.14
			c-17.41-13.98-32.67-26.29-46.66-37.63c-4.96-4.02-9.82-8.11-14.46-12.17c-0.01-0.01-0.01-0.01-0.02-0.02
			c-2.23,2.64-4.64,5.15-6.96,7.57l-0.24,0.25c-0.53,0.55-0.57,0.82-0.44,1.44c1.63,7.89,3.22,15.61,4.61,23.26
			c0.31,1.7,0.58,3.4,0.85,5.11c0.71,4.51,1.37,8.76,2.8,12.89c0.54,1.56,0.4,3.08-0.38,4.18c-0.5,0.7-1.23,1.18-2.09,1.39
			c0.24,0.86,0.48,1.72,0.72,2.56c0.35,1.21,0.7,2.42,1.02,3.64c0.12,0.46,0.32,0.96,0.52,1.5c0.69,1.79,1.71,4.41,0.19,7.26
			c0.02,0.05,0.04,0.11,0.05,0.15c0.07,0.19,0.13,0.38,0.18,0.55c0.78,2.54,1.59,5.08,2.4,7.62l0.38,1.19
			c0.07,0.22,0.15,0.44,0.22,0.65c0.51,1.49,1.27,3.68,0.07,6.09c0.01,0.06,0.03,0.12,0.04,0.18c0.08,0.36,0.17,0.77,0.2,1.23
			l0.07,1.04c0.16,2.33,0.33,4.75,0.44,7.14c0.04,0.97-0.35,1.74-0.58,2.2c-0.04,0.08-0.08,0.15-0.11,0.23
			c-0.35,0.88-1.16,1.49-2.1,1.57c-0.08,0.01-0.15,0.01-0.23,0.01c-0.32,0-0.64-0.06-0.93-0.18c0.37,5.75,0.73,11.49,1.08,17.24
			c0.04,0.59,0.09,1.36-0.14,2.17c-0.19,0.7-0.56,1.2-0.8,1.54c-0.04,0.06-0.09,0.12-0.13,0.18c-0.45,0.72-1.24,1.16-2.09,1.17
			C63.68,263.02,63.67,263.02,63.66,263.02z M46.1,96.69c0.26,0.29,0.51,0.63,0.75,1.05c2.1,3.76,2.86,7.74,3.37,11.48
			c0.71,5.27,1.59,10.62,2.43,15.79l0.15,0.95c0.07-0.09,0.14-0.18,0.22-0.27c2.08-2.62,4.23-5.33,6.17-8.08
			c8.69-12.32,15.4-25.59,21.35-38.09c0.44-0.92,0.73-1.98,0.97-2.83c0.06-0.22,0.12-0.43,0.17-0.62c0.02-3.01-1.33-3.76-2.52-4.07
			c-0.9-0.23-1.76-0.35-2.56-0.35c-1.35,0-2.59,0.32-3.77,0.99c-4.68,2.62-8.83,5.09-12.18,8.68c-3.54,3.8-7.18,7.62-10.7,11.32
			C48.66,93.99,47.38,95.34,46.1,96.69z"/>
		<path d="M85.09,44.33c1.34,0,2.7,0.05,4.05,0.13c1.81,0.11,3.63,0.32,5.4,0.69c5.18,1.08,8.64,4.07,10.66,9.08
			c3.3,8.18,1.96,16.1-1.75,23.45c-4.58,9.06-9.88,17.78-15.21,26.44c-4.04,6.57-8.59,12.82-13,19.16
			c-0.78,1.13-0.82,1.79,0.17,2.75c9.2,9.04,18.37,18.11,27.52,27.2c6.77,6.72,13.45,13.53,20.24,20.23
			c3.29,3.25,6.75,6.35,10.09,9.55c0.85,0.81,1.55,1.78,2.31,2.68c0.86,1.03,1.72,2.39,0.57,3.37c-0.9,0.76-2.35,1.42-3.52,1.42
			c-0.18,0-0.35-0.02-0.51-0.05c-1.57-0.31-3.05-1.54-4.38-2.61c-15.57-12.51-31.13-25.04-46.65-37.62
			c-4.87-3.95-9.67-7.98-14.38-12.11c-0.7-0.62-1.26-0.96-1.79-0.96c-0.53,0-1.05,0.34-1.68,1.09c-2.28,2.71-4.74,5.26-7.2,7.82
			c-1.04,1.08-1.4,2.16-1.09,3.68c1.6,7.72,3.18,15.45,4.6,23.21c1.12,6.15,1.68,12.4,3.74,18.37c0.39,1.12,0.24,2.36-1.05,2.36
			c-0.22,0-0.47-0.04-0.76-0.11c-0.29-0.08-0.52-0.11-0.71-0.11c-0.97,0-0.6,0.97-0.44,1.58c0.66,2.64,1.49,5.23,2.18,7.87
			c0.64,2.44,2.49,4.77,0.6,7.48c-0.28,0.41,0.17,1.39,0.38,2.08c0.91,2.95,1.85,5.89,2.78,8.83c0.54,1.71,1.4,3.34,0.24,5.21
			c-0.33,0.54,0.12,1.56,0.18,2.36c0.19,2.71,0.39,5.41,0.51,8.12c0.02,0.46-0.34,0.94-0.52,1.41c-0.3-0.47-0.8-0.92-0.85-1.42
			c-0.3-2.7-0.48-5.41-0.73-8.11c-0.05-0.53-0.11-1.16-0.43-1.53c-0.37-0.43-1.02-0.62-1.55-0.92c-0.25,0.52-0.72,1.05-0.7,1.55
			c0.12,2.9,0.38,5.8,0.57,8.69c0.46,7.14,0.91,14.29,1.35,21.43c0.03,0.45,0.06,0.93-0.05,1.36c-0.1,0.38-0.41,0.71-0.63,1.06
			c-0.22-0.34-0.62-0.66-0.63-1.01c-0.07-1.54-0.03-3.09-0.03-4.63c0.11-0.02,0.21-0.04,0.32-0.05c-0.73-5.2-1.51-10.38-2.17-15.59
			c-0.39-3.05-0.67-6.12-0.85-9.18c-0.21-3.57-1.37-6.8-2.58-10.16c-2.96-8.19-5.49-16.55-7.84-24.94
			c-1.98-7.08-3.45-14.3-5.22-21.44c-0.24-0.99-0.98-1.84-1.41-2.8c-0.52-1.14-1.14-2.28-1.41-3.48c-1.02-4.6-1.87-9.24-2.88-13.84
			c-0.6-2.74-1.52-5.41-2.06-8.16c-0.67-3.37-1.07-6.79-1.62-10.18c-0.65-4.03-1.38-8.04-2-12.07c-0.48-3.11-0.83-6.25-1.31-9.36
			c-0.09-0.55-0.52-1.05-0.79-1.58c-0.4,0.35-0.92,0.62-1.18,1.05c-2.87,4.73-5.69,9.5-8.54,14.24c-0.79,1.32-1.53,2.68-2.46,3.9
			C18.1,132.39,16.9,133,15.8,133c-0.48,0-0.94-0.12-1.35-0.35c-2.11-1.23-3.36-4.11-2.65-5.97c8.03-20.96,19.56-39.69,35.27-55.81
			c2.72-2.79,4.93-6.07,7.65-8.86c4.23-4.35,8.39-8.86,13.14-12.6C72.92,45.41,78.91,44.33,85.09,44.33 M95.21,58.3
			c0.04,0,0.09,0,0.13-0.01c0.55-0.11,0.97-1.06,1.34-1.7c0.15-0.26,0.08-0.65,0.07-0.65c0,0,0,0,0,0c0-0.86,0.02-1.31,0-1.76
			c-0.05-1.24-0.44-2.26-1.8-2.26c-0.07,0-0.15,0-0.23,0.01c-1.43,0.11-2.02,1.09-1.87,2.44c0.11,0.96,0.23,2,0.69,2.82
			C93.82,57.71,94.66,58.3,95.21,58.3 M41.19,98.74c0.35-0.15,0.72-0.26,1.04-0.46c0.4-0.25,0.76-0.37,1.07-0.37
			c0.53,0,0.97,0.35,1.36,1.05c1.85,3.3,2.57,6.89,3.07,10.6c0.91,6.74,2.06,13.44,3.14,20.16c0.08,0.47,0.44,0.89,0.66,1.33
			c0.35-0.25,0.79-0.44,1.04-0.77c2.9-3.72,5.92-7.37,8.64-11.22c8.51-12.07,15.23-25.16,21.57-38.46c0.73-1.53,1.09-3.25,1.38-4.12
			c0.14-3.83-1.47-6.14-4.39-6.89c-1.07-0.28-2.13-0.43-3.19-0.43c-1.7,0-3.37,0.4-4.99,1.31c-4.6,2.58-9.13,5.23-12.78,9.15
			c-5.63,6.04-11.36,11.99-17.03,17.99C41.5,97.9,41.38,98.36,41.19,98.74 M55,176.51c0.15-0.4,0.29-0.81,0.31-0.87
			c-0.2-1.52-0.34-2.69-0.52-3.85c-0.32-2.05-0.65-4.1-1.04-6.13c-0.05-0.26-0.45-0.46-0.68-0.69c-0.13,0.2-0.4,0.42-0.38,0.6
			c0.44,3.4,0.9,6.8,1.42,10.18C54.16,176.05,54.69,176.26,55,176.51 M85.09,39.33c-8.55,0-15.01,1.95-20.33,6.14
			c-4.31,3.4-8.11,7.33-11.78,11.13c-0.62,0.64-1.23,1.28-1.85,1.91c-1.51,1.55-2.83,3.18-4.11,4.75c-1.2,1.47-2.33,2.87-3.54,4.1
			C27.83,83.43,15.6,102.78,7.13,124.88c-1.6,4.18,0.55,9.59,4.79,12.07c1.16,0.68,2.5,1.04,3.88,1.04c2.7,0,5.38-1.39,7.16-3.73
			c0.91-1.19,1.64-2.43,2.28-3.52c0.17-0.28,0.33-0.56,0.5-0.84c0.94-1.57,1.88-3.14,2.82-4.72c0.31,1.9,0.63,3.81,0.94,5.66
			c0.28,1.67,0.57,3.34,0.84,5.01c0.19,1.19,0.37,2.38,0.54,3.57c0.32,2.21,0.66,4.5,1.11,6.78c0.33,1.67,0.77,3.26,1.19,4.79
			c0.33,1.21,0.65,2.35,0.9,3.47c0.48,2.2,0.94,4.46,1.38,6.64c0.48,2.36,0.97,4.8,1.5,7.21c0.33,1.51,0.95,2.8,1.44,3.83
			c0.1,0.21,0.2,0.43,0.3,0.64c0.28,0.62,0.6,1.15,0.85,1.57c0.1,0.16,0.23,0.38,0.29,0.5c0.64,2.57,1.25,5.21,1.84,7.76
			c1.04,4.49,2.11,9.13,3.39,13.69c2.81,10.01,5.33,18.05,7.95,25.29c1.09,3.02,2.13,5.88,2.29,8.75c0.18,3.13,0.48,6.33,0.88,9.53
			c0.47,3.7,1.01,7.44,1.52,11.06c0.14,0.95,0.27,1.91,0.41,2.86c-0.08,0.35-0.12,0.72-0.12,1.09c0,0.4,0,0.8-0.01,1.2
			c-0.01,1.18-0.02,2.4,0.04,3.66c0.09,1.91,1.14,3.18,1.54,3.66l0.02,0.02c0.94,1.32,2.45,2.1,4.07,2.1c0.02,0,0.04,0,0.06,0
			c1.69-0.02,3.25-0.89,4.16-2.31l0.06-0.09c0.3-0.42,0.87-1.21,1.18-2.34c0.33-1.22,0.27-2.3,0.22-2.95
			c-0.31-4.93-0.61-9.84-0.93-14.74c1.3-0.48,2.36-1.48,2.9-2.8l0.05-0.1c0.3-0.59,0.91-1.81,0.84-3.43
			c-0.11-2.42-0.28-4.85-0.44-7.2l-0.07-1.05c-0.02-0.36-0.07-0.69-0.13-0.98c1.13-2.99,0.21-5.64-0.32-7.17
			c-0.07-0.2-0.14-0.39-0.2-0.59l-0.4-1.26c-0.77-2.41-1.56-4.9-2.31-7.34c1.35-3.44,0.15-6.52-0.54-8.31
			c-0.18-0.47-0.35-0.91-0.44-1.23c-0.33-1.26-0.69-2.5-1.03-3.7c-0.06-0.19-0.11-0.39-0.17-0.58c0.44-0.35,0.83-0.76,1.16-1.22
			c1.26-1.76,1.51-4.11,0.71-6.45c-1.36-3.92-2.01-8.07-2.7-12.47c-0.26-1.69-0.54-3.43-0.86-5.17c-1.37-7.52-2.92-15.1-4.52-22.84
			c1.77-1.85,3.58-3.74,5.34-5.71c4.09,3.54,8.33,7.09,12.66,10.6c13.93,11.29,29.19,23.6,46.66,37.64l0.17,0.14
			c1.54,1.24,3.65,2.94,6.36,3.48c0.48,0.1,0.98,0.14,1.49,0.14c2.71,0,5.26-1.35,6.75-2.61c0.52-0.44,4.95-4.49,0.03-10.38
			c-0.18-0.22-0.37-0.45-0.55-0.67c-0.6-0.75-1.29-1.6-2.14-2.42c-1.4-1.35-2.84-2.68-4.22-3.97c-1.93-1.8-3.93-3.66-5.82-5.53
			c-3.76-3.71-7.56-7.53-11.23-11.22c-2.99-3.01-5.99-6.01-9-9c-8.49-8.44-17.15-17-25.76-25.47c0.47-0.67,0.94-1.34,1.41-2.01
			c3.5-4.98,7.12-10.13,10.4-15.46c5.5-8.93,10.81-17.69,15.41-26.81c4.81-9.53,5.46-18.81,1.92-27.58
			c-2.67-6.61-7.47-10.69-14.28-12.11c-1.86-0.39-3.86-0.64-6.11-0.78C87.88,39.37,86.45,39.33,85.09,39.33L85.09,39.33z
			 M49.27,96.98c0.83-0.88,1.67-1.75,2.5-2.63c3.52-3.69,7.15-7.51,10.7-11.32c3.1-3.33,7.08-5.68,11.57-8.2
			c0.82-0.46,1.63-0.67,2.55-0.67c0.59,0,1.24,0.09,1.93,0.27c0.3,0.08,0.61,0.16,0.65,1.3c-0.03,0.09-0.05,0.19-0.08,0.29
			c-0.21,0.76-0.47,1.7-0.82,2.43c-5.91,12.4-12.56,25.56-21.14,37.73c-0.9,1.27-1.83,2.52-2.79,3.77
			c-0.59-3.67-1.17-7.39-1.66-11.05C52.17,105.05,51.39,100.96,49.27,96.98L49.27,96.98z"/>
	</g>
	<g>
		<path class="st0" d="M261.95,144.1c-0.61,0-1.21-0.22-1.68-0.64c-0.46-0.34-1.32-1-1.46-2.23l-0.07-0.58
			c-0.13-1.06-0.28-2.26-0.12-3.52c0.48-3.7,0.43-6.98-0.14-10.03c-0.32-1.72-0.49-3.44-0.64-5.11c-0.1-1.05-0.2-2.09-0.34-3.14
			c-0.12-0.91-0.29-1.94-0.64-2.71c-0.16-0.35-0.28-0.43-0.28-0.43c0,0-0.05-0.02-0.17-0.02c-0.1,0-0.21,0.01-0.34,0.03
			c-4.44,0.8-8.95,1.54-13.32,2.26c-2.02,0.33-4.04,0.66-6.06,1c-0.44,0.07-0.69,0.15-0.84,0.2c-0.02,0.17-0.03,0.49,0.02,1.05
			l0.15,1.63c0.11,1.18,0.23,2.37,0.32,3.55c0.07,0.87-0.27,1.52-0.43,1.83c-0.33,0.85-1.1,1.45-2,1.57
			c-0.11,0.02-0.22,0.02-0.34,0.02c-0.56,0-1.09-0.19-1.53-0.52c0,0.02,0,0.04,0,0.06c0.12,1.77,0.24,3.54,0.33,5.31
			c0.05,0.97-0.08,1.88-0.19,2.69c-0.04,0.31-0.09,0.62-0.12,0.93c-0.12,1.18-1.05,2.12-2.23,2.24c-0.09,0.01-0.17,0.01-0.26,0.01
			c-1.08,0-2.05-0.7-2.38-1.75c-0.08-0.27-0.19-0.54-0.29-0.82c-0.29-0.77-0.61-1.65-0.72-2.65c-0.31-2.91-0.57-5.86-0.81-8.72
			c-0.1-1.17-0.2-2.34-0.31-3.52c-0.13-1.42-0.36-1.94-0.45-2.09c-0.04,0-0.09-0.01-0.17-0.01c-0.31,0-0.91,0.07-2,0.43
			c-0.54,0.18-1.11,0.27-1.68,0.27c-3.49,0-6.7-3.26-7.01-7.11c-0.01-0.18-0.01-0.36,0.01-0.54c-0.16-5.62,0.78-6.69,6.45-7.57
			c4.91-0.76,8.14-3.43,9.97-8.16c1.02-2.64,0.65-5.64-1-8.04c-1.85-2.69-4.99-4.24-8.64-4.24l-0.35,0c-0.12,0-0.25,0.01-0.38,0.02
			c-0.57,0.04-2.05,0.14-2.64,0.32c-0.12,0.59-0.1,2.02-0.09,2.53c0.01,0.88,0.01,1.76,0.01,2.64l0,1.18c0,1.28-0.97,2.36-2.25,2.49
			l-0.75,0.08c-0.08,0.01-0.17,0.01-0.25,0.01c-1.26,0-2.34-0.94-2.48-2.22l-0.4-3.51c-0.35-3.12-0.7-6.23-1.07-9.34
			c-0.04-0.35-0.05-0.7-0.05-1.05c0-0.1,0-0.22-0.01-0.32c-1.63-0.92-1.82-2.89-1.79-4.72c0.05-3.76,0.14-7.52,0.23-11.28
			c0.04-1.78,0.08-3.56,0.12-5.34c0.06-2.72,0.93-3.97,2.38-4.68c-0.15-0.19-0.27-0.39-0.36-0.57c-0.43-0.87-0.66-2.29,0.69-4.16
			c0.47-0.65,1.03-1.15,1.47-1.56c1.61-1.46,3.23-2.92,4.84-4.39c3.51-3.18,7.14-6.46,10.67-9.72c1.03-0.95,2.17-1.43,3.39-1.43
			c1.22,0,2.25,0.48,3.11,0.93c1.21,0.63,2.45,0.95,3.68,0.95c1.82,0,3.5-0.71,4.73-2c1.34-1.4,2.02-3.38,1.92-5.57
			c-0.04-0.75-0.32-1.68-0.77-2.53c-1.3-2.44-0.9-4.88,1.07-6.52c0.32-0.26,0.62-0.55,0.93-0.83c1.51-1.39,3.4-3.12,6.33-3.12
			c0.37,0,0.74,0.03,1.12,0.09c0.42-0.18,1.03-0.43,1.78-0.43c1.4,0.01,2.85,0.06,4.27,0.48c1.77,0.52,3.46,1.3,4.87,1.98
			c4.84,2.35,8.38,6.14,11.33,9.51c0.69,0.78,0.86,1.69,0.98,2.29l0.05,0.25c0.09,0.4,0.16,0.82,0.23,1.23
			c0.08,0.53,0.17,1.04,0.3,1.35l0.18,0.4c0.51,1.12,1.36,2.97,0.67,5c1.33,0.58,2.19,1.86,2.57,3.8c0.1,0.5,0.19,1,0.28,1.5
			c0.17,0.93,0.32,1.81,0.53,2.66c0.34,1.38,1.22,4.98-2.36,7.23c-0.03,0.09-0.05,0.19-0.05,0.25c0.07,1.18,0.25,2.4,0.44,3.7
			c0.13,0.87,0.26,1.73,0.35,2.6c0.09,0.81,0.07,1.58,0.05,2.26c-0.01,0.27-0.02,0.53-0.02,0.8c0,1.19-0.83,2.21-2,2.45
			c-0.17,0.03-0.34,0.05-0.5,0.05c-0.98,0-1.89-0.58-2.29-1.51c-0.09-0.22-0.2-0.44-0.31-0.66c-0.14-0.29-0.29-0.59-0.43-0.92
			c-0.34,0.25-0.75,0.41-1.19,0.46c-0.09,0.01-0.18,0.02-0.27,0.02c-0.66,0-1.3-0.27-1.77-0.75c-0.8,2.31-0.93,4.93-0.24,7.02
			c0.72,2.18,2.22,3.65,4.48,4.35c0.99,0.31,1.91,0.47,2.75,0.47c1.52,0,2.81-0.51,3.96-1.55c0.29-0.26,1.16-1.06,2.43-1.06
			c0.75,0,2.56,0.3,3.08,3.05l0.48,2.5c0.93,4.86,1.86,9.73,2.78,14.59l0.03,0.17c0.16,0.81,0.43,2.16-0.42,3.35
			c-0.85,1.19-0.67,2.43-0.27,4.52c0.18,0.98,0.37,1.99,0.41,3.07c0.13,3.75-0.58,6.85-2.17,9.49c-0.05,0.08-0.09,0.16-0.13,0.24
			c-0.34,0.63-1.24,2.3-3.29,2.3c-0.72,0-1.45-0.22-2.21-0.68c-0.45,0.16-1.16,0.74-1.28,1.09c-0.06,0.62-0.02,1.39,0.01,2.21
			c0.03,0.61,0.06,1.22,0.05,1.83c-0.01,1.1-0.66,1.83-0.93,2.14c-0.47,0.67-1.24,1.07-2.06,1.07c-0.04,0-0.08,0-0.12,0
			c-0.86-0.04-1.64-0.52-2.07-1.27c-0.19-0.27-0.55-0.79-0.65-1.54c-0.07-0.54-0.13-1.08-0.18-1.62c-0.07-0.64-0.13-1.26-0.22-1.85
			c-2.94,0.72-5.89,1.42-8.84,2.11l-2.73,0.65c-0.39,0.09-0.61,0.14-0.52,1.39c0.12,1.68,0.29,3.41,0.46,5.08
			c0.22,2.16,0.45,4.39,0.56,6.62c0.17,3.37,0.21,6.78,0.24,10.08c0.01,1.19,0.03,2.37,0.04,3.56c0.01,0.77-0.27,1.35-0.43,1.66
			c-0.3,0.78-0.98,1.37-1.79,1.55C262.32,144.08,262.13,144.1,261.95,144.1z"/>
		<path d="M255.39,13.51C255.39,13.51,255.4,13.51,255.39,13.51c1.2,0.01,2.43,0.05,3.55,0.38c1.54,0.46,3.04,1.13,4.49,1.84
			c4.26,2.07,7.48,5.4,10.53,8.9c0.31,0.36,0.36,0.96,0.48,1.46c0.24,1.01,0.27,2.1,0.68,3.03c0.71,1.61,1.59,3.03,0.06,4.73
			c-0.78,0.86-0.32,1.8,0.83,1.8c0.04,0,0.08,0,0.12,0c0.07,0,0.13-0.01,0.19-0.01c1.49,0,1.82,0.97,2.05,2.16
			c0.28,1.43,0.49,2.87,0.83,4.28c0.46,1.9,0.56,3.52-1.53,4.68c-0.59,0.32-1,1.55-0.95,2.33c0.12,2.16,0.57,4.3,0.81,6.46
			c0.1,0.92,0.02,1.85,0.01,2.78c-0.35-0.82-0.83-1.61-1.03-2.46c-0.39-1.67-0.52-3.41-0.97-5.06c-0.17-0.64-0.92-1.12-1.41-1.67
			c-0.35,0.68-0.96,1.36-0.99,2.05c-0.04,1.16,0.35,2.32,0.45,3.49c0.03,0.32-0.35,0.67-0.54,1.01c-0.23-0.25-0.56-0.46-0.66-0.75
			c-0.19-0.5-0.09-1.17-0.39-1.55c-0.13-0.17-0.59-0.27-0.93-0.27c-0.18,0-0.33,0.03-0.38,0.09c-3.85,5.26-4.15,15.43,4.08,18.01
			c1.18,0.37,2.35,0.58,3.5,0.58c2,0,3.92-0.64,5.64-2.2c0.32-0.29,0.56-0.41,0.75-0.41c0.36,0,0.52,0.45,0.63,1.02
			c1.09,5.69,2.19,11.39,3.26,17.09c0.1,0.53,0.28,1.25,0.03,1.6c-2.14,2.99-0.43,6.1-0.33,9.13c0.1,2.89-0.32,5.63-1.81,8.11
			c-0.35,0.58-0.59,1.33-1.28,1.33c-0.29,0-0.66-0.13-1.14-0.47c-0.26-0.18-0.57-0.26-0.9-0.26c-1.57,0-3.75,1.72-3.92,3.29
			c-0.15,1.43,0.05,2.9,0.04,4.35c0,0.25-0.32,0.5-0.5,0.75c-0.12-0.22-0.32-0.42-0.35-0.65c-0.18-1.35-0.25-2.72-0.5-4.05
			c-0.22-1.11-0.82-1.71-1.81-1.71c-0.24,0-0.5,0.03-0.79,0.1c-3.97,0.98-7.95,1.9-11.93,2.84c-2.16,0.51-2.57,2.19-2.44,4
			c0.27,3.89,0.83,7.77,1.03,11.66c0.23,4.51,0.21,9.03,0.29,13.55c0,0.25-0.18,0.49-0.27,0.74c-0.23-0.22-0.63-0.42-0.66-0.66
			c-0.13-1.16-0.34-2.36-0.19-3.5c0.47-3.62,0.52-7.19-0.16-10.81c-0.5-2.67-0.6-5.41-0.96-8.11c-0.16-1.16-0.37-2.36-0.85-3.41
			c-0.54-1.19-1.39-1.91-2.72-1.91c-0.24,0-0.5,0.02-0.78,0.07c-6.44,1.16-12.9,2.18-19.35,3.26c-2.51,0.42-3.13,1.28-2.89,3.94
			c0.16,1.72,0.34,3.43,0.47,5.15c0.02,0.24-0.18,0.49-0.27,0.73c-0.18-0.24-0.49-0.47-0.53-0.74c-0.27-1.79-0.32-3.64-0.79-5.38
			c-0.26-0.98-1.17-1.79-1.79-2.67c-0.48,0.89-1.4,1.8-1.37,2.68c0.14,4.53,0.55,9.05,0.78,13.58c0.06,1.07-0.19,2.16-0.29,3.24
			c-0.31-0.99-0.8-1.97-0.91-2.98c-0.44-4.06-0.75-8.13-1.12-12.19c-0.27-3.04-1.12-4.37-3.11-4.37c-0.75,0-1.67,0.19-2.77,0.55
			c-0.3,0.1-0.6,0.14-0.91,0.14c-2.12,0-4.31-2.19-4.52-4.82c-0.01-0.09,0.02-0.18,0.02-0.27c-0.14-4.5-0.13-4.47,4.43-5.18
			c5.84-0.91,9.75-4.34,11.82-9.71c2.77-7.17-2.49-15.68-11.97-15.68c-0.14,0-0.27,0-0.41,0.01c-0.18,0-0.36,0.02-0.54,0.03
			c-4.7,0.33-5.08,0.74-5,5.38c0.02,1.26,0,2.52,0,3.78c-0.25,0.03-0.5,0.05-0.75,0.08c-0.49-4.29-0.96-8.58-1.47-12.87
			c-0.14-1.18,0.3-2.51-1.32-3.26c-0.47-0.22-0.53-1.64-0.52-2.5c0.08-5.53,0.24-11.07,0.35-16.6c0.05-2.43,0.58-2.58,3.1-3.09
			c6.92-1.41,13.78-3.09,20.66-4.7c0.51-0.12,1-0.44,1.42-0.78c0.25-0.2,0.54-0.7,0.45-0.89c-0.17-0.34-0.59-0.73-0.94-0.78
			c-0.14-0.02-0.28-0.03-0.42-0.03c-0.48,0-0.98,0.09-1.46,0.2c-5.31,1.24-10.61,2.52-15.92,3.73c-1.16,0.26-2.37,0.45-3.55,0.45
			c-0.07,0-0.14,0-0.22,0c-1.57-0.03-1.86-0.79-0.91-2.11c0.32-0.44,0.73-0.81,1.13-1.18c5.18-4.71,10.39-9.38,15.53-14.12
			c0.6-0.55,1.14-0.77,1.69-0.77c0.62,0,1.24,0.27,1.95,0.65c1.62,0.85,3.27,1.24,4.84,1.24c5.14,0,9.43-4.19,9.15-10.19
			c-0.06-1.22-0.49-2.51-1.06-3.59c-0.73-1.36-0.64-2.5,0.46-3.42c1.72-1.43,3.21-3.37,5.66-3.37c0.35,0,0.73,0.04,1.12,0.13
			c0.05,0.01,0.1,0.02,0.15,0.02C254.26,14,254.85,13.51,255.39,13.51 M242.23,47.44c1.07-0.23,1.79-0.34,2.48-0.55
			c8.5-2.53,17.29-4.17,25.3-8.2c1.14-0.57,2.96-0.67,2.48-2.5c-0.05-0.21-0.89-0.34-1.77-0.34c-0.56,0-1.14,0.05-1.54,0.18
			c-8.58,2.6-17.13,5.32-25.68,8.01c-0.52,0.16-1.12,0.27-1.49,0.61c-0.48,0.44-1.08,1.12-1.03,1.63
			C241.02,46.75,241.88,47.13,242.23,47.44 M232.69,73.81c0.06-0.51,0.32-1.11,0.15-1.52c-0.48-1.15-1.1-2.25-1.74-3.33
			c-1.44-2.39-1.27-5.27,0.48-7.36c1.3-1.55,3.07-2.38,4.95-2.38c0.89,0,1.8,0.18,2.69,0.56c2.19,0.93,3.52,3.53,3.29,6.32
			c-0.21,2.6-1.67,4.36-3.79,5.62c-0.67,0.4-1.23,1.56-2.03,1.56c-0.36,0-0.76-0.23-1.25-0.88c-0.42,0.35-1.22,0.71-1.21,1.04
			c0.05,1.21,0.97,1.87,2.4,1.87c0.51,0,1.08-0.08,1.7-0.26c4.73-1.32,8.19-7.21,6.93-12.08c-0.56-2.19-1.33-4.4-3.47-5.64
			c-1.4-0.81-3.07-1.21-4.77-1.21c-4.88,0-10.03,3.28-9.88,9.56c-0.25,3.17,1.47,5.72,4.13,7.76
			C231.62,73.73,232.21,73.7,232.69,73.81 M269.29,101.47c0.31,0,0.55-0.05,0.65-0.18c0.94-1.21-0.31-1.83-1.28-2.37
			c-0.23-0.13-0.44-0.31-0.64-0.5c-1.51-1.48-1.73-3.48-0.52-5.17c0.72-1,1.59-1.62,2.64-1.62c0.42,0,0.87,0.1,1.35,0.31
			c1.6,0.71,2.14,2.82,1.3,5.01c-0.32,0.84-0.82,1.62-1.09,2.47c-0.14,0.45,0.07,1.01,0.12,1.51c0.49-0.13,1.07-0.13,1.45-0.41
			c1.96-1.43,2.35-3.54,2.35-4.93c0.13-4.2-2.16-6.76-5.17-6.76c-0.63,0-1.3,0.11-1.97,0.35c-2.55,0.88-3.94,2.8-4.27,5.46
			c-0.33,2.66,0.48,4.9,2.86,6.26C267.64,101.23,268.62,101.47,269.29,101.47 M255.39,8.51c-0.86,0-1.58,0.18-2.12,0.38
			c-0.26-0.02-0.52-0.03-0.78-0.03c-3.9,0-6.37,2.27-8.01,3.77c-0.28,0.26-0.56,0.51-0.84,0.75c-2.91,2.42-3.55,6.1-1.68,9.61
			c0.33,0.63,0.47,1.19,0.48,1.47c0.07,1.52-0.35,2.81-1.23,3.72c-0.76,0.79-1.79,1.23-2.92,1.23c-0.82,0-1.67-0.23-2.52-0.67
			c-1.15-0.6-2.56-1.22-4.27-1.22c-1.28,0-3.21,0.36-5.08,2.1c-3.52,3.24-7.13,6.52-10.63,9.68c-1.62,1.47-3.25,2.94-4.87,4.41
			c-0.5,0.46-1.19,1.08-1.81,1.94c-1.58,2.17-1.67,4.06-1.38,5.41c-1.02,1.14-1.75,2.83-1.81,5.41c-0.04,1.8-0.08,3.6-0.12,5.41
			c-0.09,3.68-0.18,7.48-0.23,11.23c-0.02,1.11-0.06,4.07,1.83,6c0.01,0.14,0.02,0.28,0.04,0.43c0.37,3.1,0.72,6.21,1.07,9.31
			l0.4,3.53c0.29,2.55,2.45,4.44,4.96,4.44c0.17,0,0.34-0.01,0.51-0.03l0.37-0.04l0.37-0.04c2.55-0.26,4.5-2.41,4.5-4.97
			c0-0.39,0-0.78,0-1.17c0-0.9,0.01-1.8-0.01-2.69c0-0.1,0-0.19,0-0.29c0.11-0.01,0.23-0.02,0.36-0.03
			c0.14-0.01,0.23-0.02,0.32-0.02c0.1,0,0.19,0,0.28,0c3.84,0,5.77,1.97,6.58,3.15c1.18,1.72,1.45,3.86,0.73,5.73
			c-1.5,3.88-4.02,5.97-7.93,6.57l-0.1,0.01c-2.91,0.45-5.21,0.81-6.96,2.89c-1.71,2.04-1.7,4.28-1.62,7.09
			c-0.02,0.23-0.02,0.5,0.01,0.81c0.42,5.19,4.69,9.41,9.51,9.41c0.63,0,1.26-0.07,1.86-0.22c0.08,0.94,0.16,1.88,0.25,2.83
			c0.25,2.88,0.5,5.86,0.82,8.8c0.14,1.32,0.54,2.39,0.86,3.25c0.09,0.23,0.17,0.46,0.25,0.69c0.66,2.1,2.6,3.5,4.77,3.5
			c0.17,0,0.34-0.01,0.52-0.03c2.36-0.24,4.23-2.12,4.46-4.49c0.03-0.28,0.07-0.55,0.1-0.83c0.12-0.87,0.27-1.95,0.21-3.16
			c-0.04-0.78-0.09-1.57-0.14-2.35c1.51-0.36,2.77-1.41,3.41-2.84c0.26-0.5,0.8-1.63,0.69-3.14c-0.09-1.2-0.21-2.4-0.32-3.59
			c-0.01-0.14-0.03-0.28-0.04-0.42c1.55-0.26,3.11-0.51,4.66-0.77c3.86-0.63,7.83-1.29,11.77-1.98c0.05,0.28,0.08,0.54,0.11,0.71
			c0.13,0.97,0.23,1.97,0.33,3.03c0.16,1.72,0.33,3.5,0.68,5.34c0.53,2.82,0.57,5.76,0.12,9.24c-0.2,1.57-0.03,3,0.12,4.15
			c0.02,0.19,0.05,0.37,0.07,0.56c0.17,1.53,0.97,2.84,2.36,3.89c0.91,0.79,2.08,1.21,3.27,1.21c0.36,0,0.73-0.04,1.1-0.12
			c1.57-0.35,2.87-1.44,3.5-2.91c0.24-0.48,0.7-1.46,0.68-2.78c-0.02-1.17-0.03-2.35-0.04-3.52c-0.04-3.33-0.07-6.78-0.25-10.21
			c-0.12-2.3-0.35-4.56-0.57-6.75c-0.14-1.42-0.28-2.77-0.39-4.12l1.26-0.3c2.01-0.47,4.06-0.96,6.12-1.45
			c0.03,0.24,0.06,0.47,0.09,0.71c0.18,1.31,0.8,2.23,1.05,2.59c0.86,1.41,2.37,2.3,4.02,2.38c0.08,0,0.16,0.01,0.24,0.01
			c1.55,0,3.01-0.72,3.95-1.94c0.45-0.51,1.52-1.79,1.54-3.75c0.01-0.7-0.02-1.38-0.05-1.97c0-0.03,0-0.06,0-0.08
			c0.33,0.05,0.65,0.08,0.98,0.08c1.62,0,3.88-0.63,5.49-3.62l0.08-0.14c1.84-3.05,2.67-6.6,2.52-10.85
			c-0.04-1.28-0.26-2.43-0.45-3.45c-0.32-1.67-0.38-2.29-0.15-2.61c1.48-2.07,1.03-4.33,0.84-5.29l-0.03-0.14
			c-0.92-4.88-1.85-9.76-2.79-14.63l-0.47-2.47c-0.93-4.83-4.78-5.08-5.54-5.08c-1.48,0-2.86,0.57-4.11,1.71
			c-0.7,0.63-1.38,0.9-2.28,0.9c-0.59,0-1.26-0.12-2.01-0.35c-1.48-0.46-2.39-1.34-2.85-2.75c-0.29-0.89-0.38-1.94-0.29-3
			c0.01,0,0.01,0,0.02,0c0.88,1.63,2.58,2.63,4.4,2.63c0.33,0,0.67-0.03,1.01-0.1c2.32-0.48,3.99-2.52,3.99-4.89
			c0-0.24,0.01-0.48,0.02-0.73c0.02-0.73,0.05-1.63-0.06-2.62c-0.1-0.93-0.24-1.82-0.37-2.69c-0.12-0.82-0.24-1.61-0.32-2.36
			c1.92-1.69,3.36-4.49,2.25-9.04c-0.19-0.78-0.34-1.62-0.5-2.51c-0.09-0.51-0.18-1.03-0.28-1.54c-0.42-2.13-1.27-3.54-2.27-4.47
			c0.12-2.16-0.72-3.98-1.14-4.9l-0.15-0.33c-0.04-0.15-0.1-0.51-0.14-0.78c-0.07-0.42-0.14-0.89-0.26-1.41
			c-0.01-0.05-0.02-0.11-0.03-0.16c-0.14-0.7-0.42-2.16-1.55-3.45c-3.1-3.55-6.86-7.56-12.12-10.11c-1.51-0.73-3.31-1.55-5.25-2.13
			c-1.73-0.51-3.37-0.57-4.91-0.59C255.43,8.51,255.41,8.51,255.39,8.51L255.39,8.51z"/>
	</g>
	<g>
		<path class="st0" d="M158,336.45c-0.73,0-1.43-0.31-1.9-0.87l-0.07-0.07c-0.34-0.32-1.04-1-1.14-2.12
			c-0.04-0.46-0.09-0.92-0.14-1.38c-0.17-1.53-0.35-3.12-0.17-4.78c0.5-4.8-0.25-9.48-1.14-13.82c-0.12-0.57-0.29-1.05-0.49-1.32
			c-2.62-3.7-3.69-7.8-4.72-11.76c-0.33-1.28-0.65-2.49-1.01-3.69c-1.35-4.45-2.68-8.9-4-13.35c-0.07-0.22-0.13-0.45-0.2-0.67
			c-0.31,0.23-0.68,0.39-1.08,0.46c-0.14,0.02-0.28,0.04-0.42,0.04c-0.69,0-1.36-0.29-1.84-0.81l-0.07-0.06
			c-0.39-0.33-1.19-1.01-1.33-2.21c-0.19-1.66-0.35-3.32-0.52-4.98c-0.21-2.08-0.42-4.23-0.68-6.33c-0.1-0.84-0.2-1.68-0.29-2.51
			c-0.49-4.38-0.95-8.52-2.78-12.33c-0.03-0.06-0.05-0.11-0.08-0.15c-2.15,0.71-4.34,1.36-6.46,1.99c-1.74,0.52-3.54,1.05-5.29,1.61
			c0,1.29,0.09,2.59,0.18,3.96c0.04,0.59,0.08,1.17,0.11,1.76c0.01,0.25-0.01,0.51-0.07,0.75c0.02,0.7,0.06,1.41,0.11,2.16
			c0.14,2.3,0.29,4.69-0.31,7.05c-1.12,4.45-0.8,8.93-0.47,13.68c0.22,3.1,0.45,6.3,0.25,9.54c-0.27,4.37-0.44,8.87-0.51,13.75
			c-0.01,0.97,0.1,1.99,0.21,3.08c0.1,0.89,0.19,1.8,0.23,2.75c0.04,1.08-0.44,1.9-0.75,2.45c-0.06,0.1-0.11,0.19-0.16,0.28
			c-0.39,0.86-1.24,1.43-2.18,1.47c-0.03,0-0.06,0-0.1,0c-0.91,0-1.75-0.5-2.19-1.3c-0.06-0.1-0.13-0.2-0.2-0.31
			c-0.36-0.52-0.89-1.31-0.97-2.38c-0.22-3.26-0.4-6.83-0.56-11.23c-0.07-1.99-0.24-2.26-1-2.65c-1.81-0.95-2.58-3.24-2.9-4.99
			c-0.32-1.73-0.55-3.47-0.77-5.16c-0.22-1.67-0.43-3.24-0.71-4.82c-0.46-2.5-1.02-4.18-2.51-5.35c-1.44-1.13-1.77-3.13-1.84-4.22
			c-0.35-5.49-0.66-10.97-0.96-16.46l-0.34-6.1c-0.03-0.5-0.07-1.01-0.12-1.51c-0.03-0.39-0.07-0.78-0.09-1.17
			c-0.06-0.89-0.17-1.78-0.27-2.66c-0.29-2.48-0.58-5.04-0.12-7.88c0.29-1.77-0.06-3.81-0.43-5.96c-0.17-1-0.35-2.04-0.46-3.08
			c-0.08-0.67-0.17-1.34-0.26-2c-0.12-0.88-0.24-1.79-0.33-2.72c-0.5,0.14-0.98,0.26-1.46,0.37l-0.81,0.19
			c-0.62,0.15-1.31,0.32-1.7,0.46c-0.05,0.49-0.06,1.36-0.06,1.73c-0.02,2.76,0.12,5.59,0.26,8.34c0.09,1.81,0.18,3.63,0.23,5.44
			c0.03,1.05-0.13,2.05-0.27,2.93c-0.06,0.35-0.11,0.69-0.15,1.04c-0.14,1.19-1.11,2.11-2.31,2.19c-0.06,0-0.12,0.01-0.17,0.01
			c-1.13,0-2.13-0.76-2.42-1.86c-0.08-0.31-0.18-0.62-0.28-0.92c-0.26-0.84-0.56-1.78-0.64-2.84c-0.16-2.21-0.28-4.43-0.4-6.64
			c-0.16-2.89-0.32-5.88-0.57-8.79c-0.06-0.77-0.38-1.66-0.72-2.61c-0.18-0.5-0.35-0.99-0.51-1.49c-0.48-1.57-1.08-5.46,3.78-7.77
			c1.38-0.66,2.74-1.33,4.11-2c3.51-1.73,7.13-3.51,10.87-4.98c6.19-2.44,13.41-5.2,20.82-7.22c5.43-1.48,10.72-2.23,15.71-2.23
			c3.42,0,6.8,0.35,10.04,1.04c3.1,0.66,6.23,1.79,9.05,3.27c7.11,3.73,10.23,11.47,7.95,19.72c-1.72,6.2-5.34,11.37-10.76,15.36
			c-2.34,1.72-4.86,3.14-7.31,4.52l-1.06,0.6c-0.33,0.18-0.68,0.38-0.94,0.54c0.06,0.38,0.18,0.9,0.25,1.25
			c1.12,5.15,2.25,10.29,3.39,15.43c0.86,3.91,1.72,7.81,2.58,11.72l0.53,2.39c1.73,7.8,3.51,15.86,3.65,24.17
			c0.03,1.55-0.04,3.09-0.1,4.58c-0.05,1.24-0.1,2.42-0.1,3.6c0,0.49,0.08,1.05,0.16,1.64c0.09,0.62,0.19,1.33,0.21,2.07
			c0.03,1.17-0.6,2-0.95,2.44c-0.04,0.06-0.09,0.11-0.13,0.17c-0.29,0.45-0.73,0.8-1.22,0.99c0.28,5.25,0.49,10.57,0.7,15.72
			l0.02,0.44c0.04,1.1-0.56,1.86-0.82,2.19c-0.42,0.69-1.16,1.14-1.97,1.19C158.12,336.44,158.06,336.45,158,336.45z M116.02,223.18
			c0.04,0.1,0.08,0.22,0.15,0.36c0.29,0.65,0.46,1.31,0.6,1.88c0.34,1.34,0.38,1.35,0.84,1.43c2.03,0.37,2.59,2.5,2.87,4.54
			c0.3,2.22,0.56,4.5,0.76,6.8c2.61-0.93,5.3-1.88,8.08-2.54c5.63-1.34,10.32-3.57,14.35-6.81c1.23-0.99,2.38-2.45,3.14-4
			c0.56-1.13,0.63-2.28,0.19-3.24c-0.45-0.97-1.39-1.69-2.65-2.02c-1.61-0.42-3.36-0.61-4.91-0.78c-0.56-0.06-1.1-0.12-1.61-0.19
			c-1.32,0.17-2.59,0.31-3.82,0.46c-2.8,0.32-5.45,0.63-7.96,1.13c-3.35,0.67-6.71,1.8-9.59,2.79
			C116.28,223.07,116.14,223.13,116.02,223.18z"/>
		<path d="M145.01,203.89c3.17,0,6.34,0.31,9.51,0.99c2.9,0.62,5.79,1.67,8.41,3.04c6.08,3.19,8.63,9.85,6.7,16.84
			c-1.61,5.82-5.02,10.47-9.84,14.01c-2.48,1.82-5.21,3.31-7.9,4.83c-2.73,1.54-2.8,1.48-2.12,4.63c1.97,9.06,3.99,18.1,5.97,27.16
			c1.88,8.61,3.97,17.19,4.12,26.06c0.05,2.71-0.21,5.42-0.21,8.14c0,1.26,0.34,2.52,0.38,3.78c0.01,0.41-0.46,0.83-0.71,1.24
			c-0.23-0.35-0.6-0.68-0.68-1.06c-0.2-1.06-0.25-2.15-0.44-3.21c-0.05-0.28-0.41-0.5-0.63-0.76c-0.19,0.29-0.56,0.59-0.54,0.86
			c0.18,1.97,0.56,3.94,0.67,5.91c0.31,5.6,0.53,11.21,0.75,16.81c0.01,0.26-0.3,0.53-0.47,0.8c-0.21-0.26-0.59-0.5-0.61-0.78
			c-0.16-1.89-0.51-3.82-0.32-5.68c0.52-4.95-0.19-9.77-1.17-14.58c-0.16-0.79-0.44-1.62-0.9-2.27c-3.14-4.43-3.86-9.73-5.38-14.73
			c-2.3-7.56-4.52-15.15-6.79-22.72c-0.11-0.36-0.45-0.66-0.68-0.99c-0.14,0.4-0.4,0.8-0.4,1.2c0.02,2.09,0.13,4.18,0.16,6.27
			c0,0.31-0.24,0.62-0.38,0.93c-0.26-0.28-0.71-0.54-0.74-0.84c-0.43-3.78-0.73-7.57-1.19-11.34c-0.65-5.29-0.91-10.66-3.3-15.62
			c-0.54-1.12-1.03-1.68-1.91-1.68c-0.33,0-0.71,0.08-1.16,0.23c-4.13,1.37-8.34,2.49-12.47,3.84c-0.5,0.16-1.02,1.14-1.03,1.75
			c-0.02,2.09,0.18,4.17,0.29,6.26c-0.03,0-0.06,0-0.08,0c0,3.08,0.61,6.32-0.12,9.22c-2,7.93,0.2,15.8-0.29,23.68
			c-0.28,4.62-0.44,9.24-0.51,13.87c-0.03,1.98,0.37,3.97,0.44,5.96c0.02,0.53-0.45,1.07-0.69,1.61c-0.3-0.55-0.83-1.08-0.87-1.65
			c-0.25-3.72-0.42-7.44-0.56-11.16c-0.07-1.95-0.2-3.66-2.33-4.77c-0.87-0.46-1.39-2.06-1.6-3.23c-0.61-3.3-0.88-6.67-1.49-9.97
			c-0.47-2.57-1.16-5.09-3.43-6.87c-0.58-0.45-0.83-1.58-0.88-2.41c-0.48-7.51-0.88-15.03-1.31-22.55
			c-0.05-0.91-0.15-1.81-0.21-2.71c-0.23-3.31-0.98-6.49-0.41-9.96c0.51-3.11-0.51-6.48-0.87-9.73c-0.2-1.81-0.52-3.6-0.65-5.41
			c-0.09-1.28-0.53-1.87-1.38-1.87c-0.31,0-0.69,0.08-1.12,0.24c-0.85,0.31-1.75,0.48-2.63,0.7c-3.58,0.89-3.79,0.88-3.82,4.64
			c-0.03,4.62,0.37,9.24,0.49,13.87c0.03,1.19-0.26,2.4-0.41,3.6c-0.29-1.1-0.76-2.19-0.84-3.31c-0.37-5.15-0.54-10.32-0.97-15.47
			c-0.13-1.57-0.86-3.09-1.33-4.62c-0.74-2.4,0.46-3.83,2.46-4.78c4.92-2.35,9.75-4.92,14.82-6.91c6.75-2.66,13.58-5.23,20.57-7.14
			C134.9,204.69,139.94,203.89,145.01,203.89 M120.13,241.07c0.34,0,0.74-0.09,1.22-0.27c2.82-1.01,5.65-2.03,8.55-2.73
			c5.65-1.35,10.83-3.67,15.33-7.29c1.57-1.26,2.92-3.03,3.82-4.83c1.88-3.8,0.04-7.72-4.07-8.79c-2.51-0.65-5.16-0.79-7.13-1.06
			c-4.56,0.59-8.47,0.89-12.28,1.66c-3.36,0.68-6.67,1.76-9.92,2.88c-2.33,0.81-2.7,1.82-1.77,3.91c0.78,1.76,0.47,4.25,3.28,4.76
			c0.42,0.08,0.72,1.55,0.84,2.42c0.35,2.52,0.62,5.04,0.83,7.57C118.93,240.55,119.34,241.07,120.13,241.07 M163.56,220.65
			c0.07,0,0.13,0,0.19-0.01c0.12-0.01,0.2-0.43,0.35-0.8c-0.7-1.13-1.39-2.29-2.13-3.42c-0.11-0.17-0.46-0.17-0.7-0.25
			c-0.09,0.31-0.34,0.71-0.24,0.93c0.54,1.14,1.15,2.25,1.81,3.33C162.93,220.58,163.27,220.65,163.56,220.65 M145.01,198.89
			c-5.22,0-10.73,0.78-16.37,2.32c-7.53,2.05-14.83,4.85-21.08,7.31c-3.83,1.51-7.51,3.32-11.07,5.07
			c-1.36,0.67-2.71,1.33-4.07,1.98c-3.54,1.69-6.74,5.4-5.09,10.76c0.18,0.57,0.36,1.09,0.54,1.6c0.27,0.75,0.55,1.53,0.59,1.97
			c0.24,2.87,0.41,5.84,0.56,8.71c0.12,2.19,0.25,4.45,0.41,6.69c0.1,1.35,0.46,2.5,0.75,3.42c0.08,0.27,0.17,0.54,0.24,0.81
			c0.58,2.21,2.58,3.73,4.83,3.73c0.11,0,0.23,0,0.35-0.01c2.39-0.16,4.33-2,4.62-4.39c0.04-0.31,0.09-0.63,0.14-0.94
			c0.05-0.32,0.11-0.66,0.16-1.03c0.07,1.09,0.19,2.12,0.31,3.11c0.1,0.89,0.2,1.73,0.26,2.55c0.03,0.41,0.06,0.81,0.1,1.22
			c0.04,0.48,0.08,0.95,0.11,1.43c0.12,2.05,0.23,4.1,0.35,6.15c0.3,5.39,0.61,10.96,0.96,16.44c0.1,1.51,0.59,4.3,2.79,6.03
			c0.78,0.61,1.18,1.58,1.6,3.84c0.28,1.51,0.48,3.06,0.7,4.7c0.23,1.72,0.46,3.49,0.79,5.28c0.4,2.19,1.4,5.04,3.82,6.53
			c0.02,0.27,0.03,0.58,0.04,0.75c0.17,4.42,0.34,8.01,0.56,11.3c0.12,1.75,0.95,2.97,1.4,3.62c0.03,0.05,0.07,0.1,0.1,0.15
			c0.89,1.57,2.55,2.54,4.35,2.54c0.06,0,0.13,0,0.19,0c1.87-0.07,3.54-1.18,4.33-2.87c0.02-0.04,0.05-0.09,0.07-0.13
			c0.37-0.65,1.15-1.99,1.09-3.79c-0.04-1.03-0.14-2-0.24-2.92c-0.11-1-0.21-1.95-0.2-2.77c0.07-4.85,0.24-9.31,0.51-13.63
			c0.21-3.4-0.02-6.69-0.25-9.87c-0.32-4.54-0.63-8.83,0.4-12.89c0.69-2.74,0.53-5.44,0.38-7.82c-0.04-0.62-0.08-1.22-0.1-1.8
			c0.06-0.36,0.08-0.73,0.06-1.1c-0.03-0.59-0.07-1.19-0.11-1.78c-0.05-0.68-0.09-1.34-0.12-1.98c1.15-0.35,2.31-0.7,3.45-1.04
			c1.42-0.42,2.87-0.85,4.33-1.31c1.04,2.96,1.4,6.24,1.79,9.67c0.09,0.85,0.19,1.7,0.29,2.54c0.25,2.07,0.47,4.2,0.67,6.27
			c0.16,1.64,0.33,3.34,0.52,5.02c0.25,2.17,1.71,3.41,2.19,3.82l0.01,0.01c0.89,0.88,2.07,1.39,3.3,1.44
			c1.15,3.88,2.34,7.86,3.53,11.77c0.35,1.15,0.66,2.34,0.99,3.59c1.03,3.97,2.2,8.46,5.05,12.51c0.02,0.05,0.07,0.2,0.13,0.44
			c0.85,4.15,1.57,8.6,1.1,13.06c-0.2,1.93,0,3.73,0.17,5.31c0.05,0.44,0.1,0.88,0.14,1.32c0.18,2.04,1.45,3.28,1.88,3.7
			c0.95,1.05,2.3,1.65,3.71,1.65c0.11,0,0.23,0,0.34-0.01c1.53-0.11,2.92-0.91,3.78-2.17c0.42-0.53,1.41-1.87,1.34-3.82l-0.02-0.4
			c-0.19-4.71-0.38-9.55-0.62-14.36c0.27-0.26,0.51-0.56,0.72-0.88l0.04-0.06c0.45-0.59,1.52-1.98,1.46-4.03
			c-0.02-0.88-0.14-1.66-0.23-2.35c-0.07-0.5-0.14-0.98-0.14-1.28c0-1.13,0.05-2.28,0.1-3.5c0.07-1.53,0.13-3.11,0.11-4.73
			c-0.15-8.56-1.96-16.74-3.71-24.66c-0.18-0.79-0.35-1.59-0.52-2.38c-0.85-3.88-1.71-7.76-2.56-11.64
			c-1.1-4.99-2.2-9.97-3.29-14.96l0.41-0.23c2.51-1.41,5.1-2.87,7.56-4.68c5.89-4.33,9.82-9.95,11.69-16.7
			c2.57-9.28-1.13-18.37-9.2-22.6c-3.02-1.58-6.37-2.79-9.69-3.5C152.17,199.26,148.61,198.89,145.01,198.89L145.01,198.89z
			 M119.18,224.72c2.33-0.78,4.87-1.56,7.37-2.06c2.41-0.48,4.89-0.77,7.75-1.1c1.14-0.13,2.32-0.27,3.54-0.42
			c0.42,0.05,0.87,0.1,1.34,0.15c1.53,0.17,3.12,0.34,4.55,0.71c0.51,0.13,0.87,0.36,1,0.64c0.12,0.25,0.06,0.65-0.16,1.09
			c-0.6,1.22-1.52,2.4-2.47,3.16c-3.73,3-8.1,5.07-13.36,6.32c-1.83,0.44-3.6,0.98-5.32,1.56c-0.14-1.26-0.29-2.5-0.46-3.73
			C122.77,229.73,122.26,226,119.18,224.72L119.18,224.72z M118.35,222.27C118.35,222.27,118.35,222.27,118.35,222.27L118.35,222.27
			L118.35,222.27z M100.59,242.37c-0.05-1.13-0.1-2.24-0.16-3.34c-0.05-0.93-0.09-1.84-0.13-2.74c0.33,1.94,0.64,3.78,0.42,5.13
			C100.67,241.74,100.63,242.06,100.59,242.37L100.59,242.37z"/>
	</g>
	<g>
		<path class="st0" d="M170.29,151.12c-1.18,0-2.2-0.82-2.44-1.98c-0.07-0.34-0.16-0.69-0.25-1.03c-0.22-0.86-0.46-1.83-0.54-2.87
			c-0.09-1.13-0.1-2.24-0.12-3.31c-0.04-2.46-0.08-4.79-0.92-6.98c-0.69-1.79-0.76-3.61-0.84-5.37c-0.04-0.85-0.07-1.66-0.17-2.41
			c-3.49-1.08-3.73-4.53-3.82-5.9c-0.31-4.42-0.59-8.76-0.65-13.2c-0.23-16.46-0.43-32.91-0.62-49.37
			c-0.1-8.62-0.21-17.23-0.31-25.85c0-0.31-0.01-0.67-0.02-1.01c-0.3,0.02-0.64,0.05-0.98,0.08c-2.08,0.17-4.17,0.36-6.25,0.55
			c-3.65,0.33-7.43,0.68-11.17,0.92c-1.13,0.07-2.31,0.11-3.61,0.11c-2.12,0-4.21-0.09-6.18-0.19c-1.5-0.07-3.14-0.97-4.08-2.24
			c-1.14-1.53-0.14-3.13,0.34-3.9c0.1-0.16,0.27-0.43,0.31-0.53c2.26-5.5,7.17-6.66,11.11-7.59c0.62-0.15,1.24-0.29,1.84-0.45
			c8.98-2.41,20.84-5.5,32.92-8.07c8.36-1.78,17.3-3.22,26.56-4.28c0.88-0.1,1.84-0.15,3.01-0.15c0.59,0,1.18,0.01,1.77,0.02
			c0.56,0.01,1.13,0.02,1.69,0.02c1.18,0,2.56-0.04,3.92-0.35c0.38-0.09,0.77-0.13,1.16-0.13c2.36,0,4.32,1.66,4.88,4.12
			c0.55,2.4-0.51,4.53-2.89,5.84c-0.15,0.08-0.3,0.16-0.45,0.23c0.75,1.6,0.64,3.35-0.34,5.06c0.41,1.46,0.29,2.78-0.33,3.9
			c-1.03,1.85-3.1,2.43-3.78,2.62c-1.07,0.3-2.14,0.42-3.09,0.52L205.44,28c-1.11,0.13-1.77,0.25-1.95,0.36
			c-0.17,0.22-0.53,1.54-0.65,1.97c-0.14,0.53-0.38,0.93-0.53,1.2l-0.09,0.16c-0.39,0.77-1.16,1.29-2.02,1.36
			c-0.07,0.01-0.14,0.01-0.21,0.01c-0.39,0-0.77-0.09-1.11-0.26c-0.04,0.46-0.07,0.93-0.11,1.41c-0.08,1.02-0.16,2.05-0.27,3.07
			c-0.1,0.97-0.63,1.64-0.92,2l-0.1,0.12c-0.46,0.72-1.25,1.14-2.09,1.14c-0.07,0-0.14,0-0.22-0.01c-0.92-0.08-1.72-0.67-2.08-1.52
			c-0.02-0.06-0.06-0.11-0.09-0.17c-0.19-0.37-0.52-0.98-0.57-1.77c-0.08-1.27-0.15-2.53-0.21-3.8c-0.06-1.18-0.11-2.36-0.19-3.53
			c-0.01-0.2-0.03-0.36-0.04-0.49c-0.16,0-0.34,0.01-0.53,0.02c-0.68,0.04-2.45,0.13-2.94,0.35c-0.16,0.33-0.3,1.28-0.43,2.84
			c-0.26,3.15-0.41,6.38-0.55,9.5c-0.07,1.42-0.13,2.85-0.21,4.27c0,0.1-0.01,0.19-0.01,0.28c-0.01,0.43-0.02,1.02-0.21,1.65
			c-0.21,0.69-0.58,1.17-0.83,1.49c-0.04,0.05-0.08,0.1-0.12,0.15c-0.47,0.7-1.25,1.11-2.08,1.11c-0.08,0-0.17,0-0.25-0.01
			c-0.92-0.09-1.71-0.68-2.06-1.53l-0.05-0.09c-0.06-0.11-0.14-0.26-0.21-0.44c-0.1,4.99-0.48,24.51-0.48,24.51
			c-0.01,0.75-0.36,1.42-0.9,1.87c0.07,3.18,0.13,6.35,0.2,9.53c0.21,9.89,0.43,20.11,0.58,30.18c0.07,4.76-1.31,9.11-4.11,12.92
			c-0.05,0.18-0.09,0.56-0.12,0.8l-0.01,0.13c-0.34,2.96-0.7,6.01-2.25,9.15c-0.59,1.19-0.67,2.9-0.76,4.71
			c-0.05,1-0.1,2.03-0.24,3.07c-0.12,0.87-0.31,1.69-0.49,2.47c-0.08,0.32-0.15,0.64-0.22,0.97
			C172.49,150.29,171.47,151.12,170.29,151.12C170.29,151.12,170.29,151.12,170.29,151.12z"/>
		<path d="M211.96,8.15c1.16,0,2.13,0.82,2.44,2.18c0.33,1.47-0.45,2.43-1.66,3.1c-0.39,0.22-0.83,0.37-1.25,0.53
			c-1.26,0.45-1.53,1.19-0.68,2.26c0.9,1.14,0.89,2.27,0.14,3.52c-0.28,0.47-0.37,1.22-0.22,1.75c0.64,2.18-0.62,3.04-2.35,3.53
			c-1.04,0.29-2.14,0.38-3.22,0.5c-3.4,0.39-3.79,0.73-4.72,4.15c-0.09,0.31-0.29,0.59-0.44,0.89c-0.19-0.25-0.46-0.48-0.56-0.77
			c-0.38-1.13-0.34-2.72-1.87-2.72c-0.04,0-0.09,0-0.13,0c-0.34,0.02-0.68,2.04-0.82,3.16c-0.27,2.25-0.37,4.53-0.6,6.78
			c-0.04,0.35-0.41,0.68-0.62,1.01c-0.16-0.38-0.44-0.75-0.46-1.13c-0.16-2.44-0.24-4.89-0.4-7.33c-0.15-2.27-0.54-2.84-2.42-2.84
			c-0.23,0-0.49,0.01-0.78,0.02c-4.84,0.26-5.33,0.62-5.73,5.47c-0.38,4.61-0.52,9.23-0.76,13.85c-0.02,0.45,0.01,0.93-0.11,1.35
			c-0.11,0.35-0.41,0.65-0.63,0.97c-0.13-0.31-0.37-0.62-0.36-0.93c0.01-2.44,0.13-4.89,0.11-7.33c-0.04-3.26-0.14-6.51-0.31-9.76
			c-0.04-0.68-0.3-1.57-0.79-1.95c-0.7-0.55-1.7-0.92-2.58-0.95c0,0,0,0,0,0c-0.3,0-0.87,1.26-0.9,1.96
			c-0.1,2.72,0.02,5.45-0.03,8.18c-0.21,11.89-0.45,23.79-0.69,35.68c-0.31,0-0.63,0-0.94,0.01c0.29,13.89,0.62,27.77,0.83,41.66
			c0.06,4.19-1.15,8.06-3.69,11.49c-0.39,0.53-0.46,1.34-0.55,2.04c-0.33,2.86-0.64,5.57-2.01,8.33c-1.21,2.45-0.85,5.67-1.23,8.55
			c-0.15,1.09-0.45,2.17-0.68,3.25c-0.26-1.19-0.65-2.36-0.74-3.56c-0.28-3.67,0.2-7.35-1.21-11c-0.85-2.2-0.52-4.84-0.87-7.27
			c-0.1-0.68-0.63-1.79-1.09-1.86c-2.35-0.36-2.59-2.12-2.71-3.83c-0.3-4.35-0.59-8.7-0.65-13.06c-0.35-25.07-0.62-50.14-0.94-75.21
			c-0.04-2.86-0.07-3.5-1.82-3.5c-0.48,0-1.1,0.05-1.88,0.11c-5.79,0.48-11.57,1.1-17.37,1.47c-1.15,0.07-2.3,0.1-3.45,0.1
			c-2.02,0-4.04-0.09-6.06-0.19c-0.78-0.04-1.73-0.6-2.19-1.23c-0.2-0.28,0.66-1.28,0.95-1.99c2.08-5.07,7.05-5.45,11.29-6.59
			c10.87-2.92,21.79-5.7,32.79-8.04c8.69-1.85,17.5-3.23,26.33-4.24c0.9-0.1,1.81-0.13,2.73-0.13c1.15,0,2.31,0.05,3.47,0.05
			c1.49,0,2.99-0.08,4.48-0.42C211.57,8.17,211.77,8.15,211.96,8.15 M202.04,16.29c0.15-0.27,0.49-0.68,0.41-0.8
			c-0.51-0.78-1.12-1.5-2.01-2.65c-0.24,0.86-0.48,1.28-0.37,1.4C200.68,14.97,201.37,15.62,202.04,16.29 M171.45,105.85
			c0.31-0.35,0.81-0.66,0.9-1.06c0.41-1.76,0.74-3.54,1.02-5.33c0.07-0.42-0.14-0.88-0.22-1.33c-0.31,0.3-0.8,0.55-0.89,0.9
			c-0.47,1.84-0.84,3.71-1.26,5.64C171.14,105.05,171.29,105.45,171.45,105.85 M211.96,3.15c-0.57,0-1.15,0.07-1.72,0.2
			c-0.88,0.2-1.89,0.29-3.36,0.29c-0.55,0-1.1-0.01-1.64-0.02c-0.61-0.01-1.22-0.02-1.82-0.02c-1.27,0-2.32,0.05-3.3,0.17
			c-9.34,1.07-18.36,2.53-26.8,4.32c-12.14,2.58-24.04,5.69-33.05,8.1c-0.58,0.16-1.17,0.29-1.77,0.44c-4,0.94-10.03,2.36-12.8,8.96
			c-0.05,0.09-0.11,0.19-0.17,0.28c-1.57,2.53-1.65,4.78-0.23,6.71c1.38,1.86,3.72,3.14,5.96,3.25c2,0.1,4.13,0.19,6.3,0.19
			c1.35,0,2.58-0.04,3.76-0.11c3.77-0.24,7.57-0.59,11.23-0.92c1.51-0.14,3.03-0.28,4.54-0.41c0.1,8.05,0.2,16.1,0.29,24.15
			c0.19,16.19,0.39,32.93,0.62,49.4c0.06,4.5,0.35,8.87,0.66,13.34c0.29,4.12,1.98,6.3,3.95,7.42c0.01,0.26,0.02,0.54,0.04,0.82
			c0.08,1.87,0.16,3.99,1,6.17c0.68,1.77,0.72,3.79,0.76,6.12c0.02,1.11,0.04,2.26,0.13,3.46c0.1,1.25,0.37,2.33,0.61,3.29
			c0.08,0.31,0.16,0.63,0.23,0.94c0.5,2.3,2.53,3.95,4.89,3.95c0,0,0,0,0,0c2.36,0,4.39-1.65,4.89-3.95
			c0.07-0.31,0.14-0.61,0.21-0.92c0.19-0.81,0.4-1.72,0.54-2.71c0.15-1.14,0.21-2.23,0.26-3.28c0.07-1.47,0.14-2.99,0.5-3.72
			c1.75-3.53,2.14-6.94,2.49-9.95l0.02-0.15c0-0.03,0.01-0.07,0.01-0.11c2.89-4.14,4.31-8.82,4.24-13.94
			c-0.15-10.05-0.37-20.27-0.58-30.14c-0.06-2.87-0.12-5.74-0.18-8.62c0.54-0.78,0.86-1.72,0.88-2.73l0.19-9.52
			c0.07-3.49,0.14-6.99,0.21-10.48c0.05,0,0.1,0,0.16,0c1.63,0,3.17-0.8,4.11-2.16l0.05-0.07c0.32-0.41,0.91-1.17,1.25-2.31
			c0.29-0.97,0.31-1.82,0.31-2.33c0-0.06,0-0.13,0-0.19c0.08-1.44,0.14-2.88,0.21-4.32c0.05-1.12,0.1-2.25,0.16-3.39
			c0.19,0.61,0.44,1.08,0.59,1.36l0.03,0.07c0.74,1.66,2.33,2.79,4.14,2.94c0.14,0.01,0.28,0.02,0.42,0.02
			c1.64,0,3.18-0.81,4.12-2.16l0.02-0.03c0.38-0.48,1.28-1.6,1.46-3.31c0.07-0.71,0.13-1.42,0.19-2.12c1.4-0.34,2.61-1.28,3.27-2.6
			l0.03-0.04c0.19-0.33,0.55-0.96,0.78-1.79c0.05-0.17,0.09-0.33,0.13-0.46c0.1-0.01,0.22-0.03,0.35-0.04l0.5-0.06
			c1.04-0.11,2.23-0.24,3.49-0.6c2.5-0.7,4.28-1.98,5.3-3.82c0.57-1.03,1.12-2.65,0.77-4.78c0.62-1.41,0.83-2.86,0.64-4.26
			c2.48-1.91,3.54-4.72,2.85-7.76C218.46,5.58,215.52,3.15,211.96,3.15L211.96,3.15z"/>
	</g>
	<g>
		<path class="st0" d="M295.6,281.39c-0.67,0-1.3-0.28-1.78-0.76l-0.07-0.06c-0.33-0.28-1.12-0.93-1.28-2.06
			c-0.28-1.99-0.57-4.14-0.77-6.34c-0.08-0.95-0.06-1.84-0.04-2.71c0.01-0.35,0.02-0.7,0.02-1.05c0-0.26,0.04-0.52,0.12-0.76
			l-0.84-10.66c-0.04-0.49-0.09-0.99-0.14-1.48c-0.12-1.17-0.25-2.38-0.22-3.65c0.03-1.22-0.47-2.25-1.17-3.68l-0.21-0.43
			c-1.18-2.44-2.57-6.18-2.53-10.12c0.08-6.39,0.37-12.87,0.65-19.13c0.19-4.28,0.39-8.7,0.52-13.05c0.14-4.66,0.34-9.38,0.54-13.95
			c0.57-13.22,1.16-26.9,0.18-40.29c-0.04-0.53-0.26-1.19-0.49-1.89c-0.22-0.65-0.46-1.38-0.61-2.16c-0.24-1.21-0.63-3.24,0.54-4.73
			l0.38-0.5c1.16-1.53,2.91-3.82,6.21-3.93c0.09-0.1,0.17-0.22,0.21-0.3c1.22-2.71,2.88-4.08,4.94-4.08c1.55,0,3.04,0.84,4.42,2.51
			c0.02,0.02,0.04,0.04,0.05,0.06c0.23-0.01,0.49-0.05,0.78-0.09c4-0.63,7.97-1.26,11.95-1.89c5.9-0.94,11.8-1.87,17.7-2.79
			c3.82-0.59,7.82-1.15,12.22-1.7c0.38-0.05,0.76-0.07,1.14-0.07c1,0,1.91,0.16,2.73,0.47c1.72,0.66,2.9,2.01,3.23,3.7
			c0.34,1.73-0.3,3.54-1.7,4.85c-0.68,0.64-1.33,1.34-2.02,2.08c-0.29,0.31-0.58,0.63-0.88,0.94c-0.14,0.18-0.41,0.5-0.86,0.74
			c-0.99,0.55-1.97,1.18-3.01,1.84c-2.44,1.56-4.97,3.18-7.9,3.9c-6.36,1.56-12.9,2.64-19.23,3.67c-2.04,0.33-4.08,0.67-6.12,1.02
			l-0.22,0.04c-0.49,0.08-1.03,0.18-1.4,0.26c-0.05,0.4-0.1,1.01-0.14,1.56c-0.38,4.87-0.78,9.65-1.18,14.44
			c-0.29,3.45-0.57,6.9-0.85,10.35c1.48-0.15,2.94-0.38,4.49-0.62l0.38-0.06c0.52-0.08,0.99-0.12,1.44-0.12
			c2.22,0,3.98,1.01,5.11,2.93c0.05,0.02,0.1,0.04,0.14,0.04l0.06,0c0.85,0,1.74-0.1,2.68-0.21c0.72-0.08,1.45-0.16,2.17-0.21
			c0.24-0.01,0.47-0.02,0.7-0.02c1.91,0,3.41,0.55,4.45,1.64c1.09,1.13,1.58,2.7,1.49,4.78c-0.08,2.01-0.28,4.01-0.48,5.95
			l-0.02,0.17c-0.1,1.06-0.76,1.72-1.04,2c-0.48,0.6-1.21,0.96-1.97,0.96c-0.04,0-0.08,0-0.13,0c-0.81-0.04-1.56-0.47-1.99-1.16
			c-0.2-0.26-0.6-0.78-0.74-1.53c-0.09-0.47-0.15-0.94-0.21-1.41c-1.86,0.94-3.75,1.14-5.45,1.33c-0.44,0.05-0.89,0.1-1.33,0.16
			c-2.11,0.3-4.22,0.62-6.32,0.94c-1.75,0.27-3.5,0.53-5.26,0.79c-0.11,0.02-0.19,0.03-0.24,0.05c-0.02,0.08-0.06,0.22-0.08,0.44
			c-0.69,7.06-1.45,14.64-2.34,22.27c-0.34,2.9-0.8,5.81-1.24,8.62c-0.18,1.14-0.36,2.29-0.53,3.43c4.68-0.85,9.44-1.58,14.04-2.28
			l3.83-0.59c0.37-0.06,0.85-0.12,1.35-0.12c0.89,0,1.65,0.21,2.28,0.61c0.62,0.41,1.24,0.59,2,0.59c1.06,0,2.28-0.37,3.56-0.76
			l0.17-0.05c0.76-0.23,1.44-0.34,2.08-0.34c1.02,0,3.42,0.35,4.45,3.45c0.06,0.03,0.12,0.07,0.16,0.08
			c3.6,1.28,4.11,3.86,4.09,5.29c-0.02,1.54-0.67,4.26-4.78,5.21c-1.21,0.28-2.45,0.57-2.87,0.78c-0.14,0.44-0.23,1.67-0.32,2.87
			l-0.12,1.7c-0.13,1.8-0.26,3.6-0.43,5.4c-0.09,0.9-0.52,1.54-0.79,1.92c-0.03,0.05-0.07,0.1-0.1,0.15
			c-0.41,0.69-1.15,1.18-1.95,1.24c-0.08,0.01-0.15,0.01-0.23,0.01c-0.72,0-1.43-0.29-1.9-0.85c-0.03-0.03-0.09-0.08-0.14-0.13
			c-0.42-0.39-1.21-1.13-1.33-2.34c-0.23-2.38-0.36-4.37-0.39-6.25c-10.48,0.78-19.09,1.39-27.08,1.92
			c-0.17,0.01-0.29,0.03-0.37,0.05c0,0.01-0.07,1.12-0.11,1.66c-0.16,2.41-0.31,4.68-0.06,6.86c0.11,0.95,0.28,1.89,0.46,2.9
			c0.49,2.69,0.99,5.47,0.33,8.61c-0.2,0.95-0.05,2.16,0.1,3.43c0.08,0.69,0.17,1.39,0.21,2.12l0.06,0.96
			c0.07,1.04,0.13,2.13,0.15,3.22c0.01,1.04-0.52,1.76-0.77,2.1l-0.06,0.08c-0.4,0.68-1.07,1.11-1.86,1.2
			C295.78,281.38,295.69,281.39,295.6,281.39z"/>
		<path d="M348.01,132.13c0.63,0,1.27,0.09,1.83,0.3c1.99,0.76,2.27,2.95,0.72,4.38c-1.08,1.01-2.06,2.13-3.08,3.2
			c-0.06,0.07-0.11,0.16-0.18,0.2c-3.42,1.89-6.64,4.6-10.3,5.5c-8.27,2.03-16.76,3.21-25.17,4.66c-3.57,0.62-3.54,0.53-3.83,4.2
			c-0.66,8.33-1.37,16.66-2.05,24.99c-0.17,2.05-0.18,2.53,1.03,2.53c0.34,0,0.78-0.04,1.34-0.09c1.81-0.17,3.61-0.45,5.4-0.73
			c0.37-0.06,0.72-0.09,1.06-0.09c1.28,0,2.31,0.47,3.06,1.9c0.31,0.58,1.37,1.06,2.09,1.07c0.05,0,0.1,0,0.15,0
			c1.67,0,3.33-0.32,5.01-0.42c0.19-0.01,0.37-0.02,0.54-0.02c2.49,0,3.56,1.18,3.45,3.81c-0.08,1.99-0.28,3.98-0.48,5.97
			c-0.03,0.25-0.35,0.48-0.54,0.72c-0.14-0.21-0.35-0.41-0.39-0.64c-0.15-0.8-0.23-1.62-0.34-2.43c-0.17-1.21-0.58-1.88-1.25-1.88
			c-0.33,0-0.73,0.16-1.2,0.51c-2.16,1.57-4.59,1.51-7,1.85c-3.87,0.54-7.72,1.17-11.59,1.72c-1.61,0.23-2.29,1.1-2.45,2.72
			c-0.72,7.41-1.47,14.82-2.34,22.22c-0.5,4.23-1.24,8.43-1.87,12.64c-0.29,1.94-0.29,2.51,0.67,2.51c0.42,0,1.02-0.11,1.86-0.26
			c6.07-1.12,12.19-2,18.29-2.94c0.3-0.05,0.64-0.09,0.97-0.09c0.34,0,0.67,0.05,0.91,0.2c1.13,0.73,2.25,1,3.36,1
			c1.49,0,2.97-0.47,4.46-0.92c0.5-0.15,0.95-0.24,1.35-0.24c1.04,0,1.77,0.57,2.16,2.02c0.16,0.57,0.97,1.14,1.61,1.37
			c1.44,0.51,2.45,1.33,2.43,2.9c-0.02,1.77-1.31,2.46-2.84,2.81c-4.76,1.1-4.76,1.1-5.12,5.9c-0.17,2.35-0.33,4.71-0.55,7.05
			c-0.04,0.38-0.38,0.73-0.58,1.09c-0.31-0.36-0.84-0.7-0.88-1.08c-0.2-2.08-0.35-4.17-0.38-6.26c-0.02-1.63-0.7-2.28-2.13-2.28
			c-0.13,0-0.28,0.01-0.42,0.02c-9.06,0.68-18.12,1.33-27.19,1.93c-1.66,0.11-2.61,0.9-2.7,2.45c-0.17,2.96-0.48,5.97-0.15,8.9
			c0.4,3.56,1.61,6.97,0.82,10.71c-0.42,1.97,0.15,4.14,0.26,6.22c0.08,1.36,0.18,2.72,0.2,4.08c0,0.28-0.3,0.56-0.46,0.84
			c-0.23-0.24-0.61-0.45-0.65-0.72c-0.3-2.06-0.57-4.13-0.75-6.2c-0.1-1.17-0.02-2.36-0.02-3.54c0.06-0.01,0.12-0.01,0.18-0.02
			c-0.3-3.87-0.6-7.73-0.91-11.6c-0.13-1.63-0.4-3.25-0.36-4.88c0.04-1.99-0.78-3.49-1.62-5.25c-1.33-2.75-2.31-5.99-2.28-9
			c0.13-10.72,0.85-21.42,1.16-32.14c0.53-18.16,2.04-36.32,0.71-54.5c-0.11-1.47-0.86-2.88-1.15-4.35
			c-0.17-0.89-0.39-2.14,0.06-2.72c1.25-1.59,2.38-3.47,4.87-3.47c0.1,0,0.2,0,0.3,0.01c0.01,0,0.02,0,0.03,0
			c0.63,0,1.57-1.03,1.91-1.78c0.77-1.72,1.66-2.61,2.67-2.61c0.77,0,1.6,0.52,2.5,1.61c0.63,0.76,1.28,0.96,1.97,0.96
			c0.38,0,0.78-0.06,1.19-0.13c9.87-1.55,19.74-3.14,29.62-4.67c4.04-0.63,8.09-1.18,12.15-1.69
			C347.45,132.15,347.73,132.13,348.01,132.13 M304.69,146.46c0.06,0,0.13,0,0.19-0.02c1.23-0.22,2.44-0.57,3.65-0.88
			c-0.01,0.02-0.02,0.03-0.03,0.05c0.02,0,0.04,0,0.06-0.01c-0.12,0.51-0.25,1.02-0.37,1.52c1.1-0.26,2.2-0.49,3.28-0.82
			c0.19-0.06,0.25-0.56,0.36-0.85c-0.07,0-0.15,0-0.22,0c-0.2,0-0.41,0-0.61,0c-0.3,0-0.6,0-0.9,0.02
			c-0.51,0.02-1.02,0.08-1.53,0.13c0-0.02,0.01-0.04,0.01-0.05c-0.02,0-0.03,0.01-0.05,0.01c0.21-0.36,0.43-0.72,0.64-1.09
			c-0.33-0.1-0.68-0.32-0.99-0.32c-0.04,0-0.08,0-0.12,0.01c-1.24,0.26-2.47,0.58-3.66,1c-0.4,0.14-0.68,0.65-1.01,0.99
			C303.82,146.25,304.28,146.46,304.69,146.46 M299.14,207.15C299.14,207.15,299.14,207.15,299.14,207.15
			c0.58-0.01,1.39-0.47,1.68-0.98c0.52-0.92,0.72-2.03,1.17-3.37c-0.41-0.6-0.74-1.61-1.38-1.87c-0.05-0.02-0.11-0.03-0.18-0.03
			c-0.53,0-1.53,0.6-1.73,1.1c-0.48,1.2-0.65,2.57-0.69,3.88C297.99,206.32,298.74,207.15,299.14,207.15 M348.01,127.13
			c-0.48,0-0.97,0.03-1.45,0.09c-4.42,0.55-8.44,1.11-12.3,1.71c-5.91,0.92-11.82,1.86-17.73,2.79c-3.78,0.6-7.57,1.2-11.35,1.8
			c-1.65-1.6-3.47-2.42-5.43-2.42c-1.63,0-4.57,0.62-6.72,4.55c-3.53,0.68-5.5,3.27-6.63,4.75c-0.12,0.16-0.24,0.31-0.36,0.47
			c-1.88,2.39-1.31,5.34-1.03,6.75c0.18,0.95,0.46,1.76,0.7,2.48c0.14,0.42,0.35,1.06,0.37,1.28c0.96,13.25,0.38,26.85-0.19,40.01
			c-0.2,4.58-0.4,9.31-0.54,13.98c-0.13,4.32-0.32,8.73-0.52,13c-0.28,6.29-0.57,12.79-0.65,19.22c-0.05,4.42,1.48,8.55,2.77,11.23
			l0.21,0.44c0.61,1.26,0.93,1.94,0.92,2.53c-0.03,1.43,0.11,2.78,0.24,3.97c0.05,0.47,0.1,0.94,0.14,1.41
			c0.22,2.8,0.44,5.61,0.66,8.41l0.14,1.85c-0.06,0.31-0.09,0.63-0.09,0.96c0,0.33-0.01,0.66-0.02,0.99
			c-0.02,0.89-0.04,1.91,0.05,2.99c0.2,2.27,0.49,4.45,0.78,6.48c0.3,2.07,1.67,3.23,2.14,3.62c0.93,0.89,2.17,1.39,3.46,1.39
			c0.19,0,0.39-0.01,0.58-0.03c1.49-0.18,2.82-1.01,3.63-2.27c0.36-0.49,1.28-1.75,1.25-3.62c-0.02-1.14-0.09-2.25-0.15-3.31
			l-0.06-0.97c-0.05-0.81-0.14-1.56-0.23-2.28c-0.12-0.97-0.25-2.08-0.14-2.62c0.76-3.61,0.19-6.78-0.31-9.57
			c-0.17-0.96-0.34-1.87-0.44-2.73c-0.21-1.82-0.1-3.81,0.04-5.92c6.84-0.46,14.15-0.98,22.69-1.61c0.07,1.18,0.17,2.44,0.3,3.81
			c0.21,2.15,1.59,3.44,2.12,3.92l0.05,0.04c0.95,1.04,2.29,1.63,3.7,1.63c0.17,0,0.33-0.01,0.5-0.03c1.59-0.16,3.01-1.07,3.81-2.45
			l0.03-0.04c0.35-0.51,1.07-1.56,1.21-3.11c0.17-1.85,0.31-3.7,0.43-5.49l0.12-1.66c0.03-0.37,0.06-0.77,0.09-1.12
			c0.37-0.09,0.78-0.18,1.17-0.27c1.56-0.36,6.64-1.97,6.71-7.62c0.02-1.58-0.43-5.31-4.83-7.31c-1.25-2.56-3.53-4.05-6.37-4.05
			c-0.88,0-1.8,0.15-2.8,0.45l-0.17,0.05c-1.1,0.33-2.15,0.65-2.84,0.65c-0.27,0-0.41-0.04-0.63-0.19
			c-1.03-0.68-2.26-1.02-3.64-1.02c-0.67,0-1.28,0.08-1.73,0.15c-1.26,0.2-2.53,0.39-3.79,0.58c-3.5,0.53-7.1,1.08-10.68,1.69
			c0.45-2.83,0.91-5.75,1.25-8.69c0.83-7.08,1.55-14.16,2.2-20.82c1.2-0.18,2.39-0.36,3.59-0.54c2.07-0.32,4.21-0.64,6.31-0.94
			c0.42-0.06,0.83-0.1,1.25-0.15c1-0.11,2.16-0.23,3.4-0.53c0.27,0.56,0.57,0.95,0.72,1.15c0.88,1.28,2.31,2.08,3.87,2.16
			c0.08,0,0.17,0.01,0.25,0.01c1.45,0,2.83-0.63,3.78-1.73c0.46-0.46,1.55-1.63,1.74-3.49l0.02-0.17c0.2-1.97,0.4-4.01,0.48-6.09
			c0.11-2.76-0.62-4.98-2.19-6.61c-1.53-1.6-3.64-2.41-6.26-2.41c-0.27,0-0.55,0.01-0.85,0.03c-0.81,0.05-1.57,0.14-2.31,0.22
			c-0.45,0.05-0.89,0.1-1.31,0.14c-1.58-1.89-3.79-2.92-6.39-2.92c-0.58,0-1.17,0.05-1.82,0.15l-0.35,0.05
			c-0.47,0.07-0.94,0.15-1.4,0.21c0.2-2.4,0.39-4.79,0.59-7.19c0.39-4.72,0.78-9.44,1.16-14.17c1.94-0.33,3.87-0.65,5.81-0.97
			c6.37-1.05,12.96-2.13,19.42-3.71c3.33-0.82,6.15-2.62,8.65-4.22c1-0.64,1.95-1.25,2.88-1.76c0.78-0.43,1.28-0.97,1.54-1.29
			c0.28-0.29,0.55-0.59,0.82-0.88c0.65-0.7,1.27-1.37,1.89-1.94c2.04-1.9,2.96-4.57,2.46-7.15c-0.49-2.52-2.28-4.6-4.8-5.56
			C350.53,127.34,349.31,127.13,348.01,127.13L348.01,127.13z"/>
	</g>
	<g>
		<path class="st0" d="M209.13,306.76c-0.97,0-1.86-0.56-2.27-1.46c-0.05-0.11-0.12-0.22-0.18-0.34c-0.29-0.51-0.68-1.21-0.77-2.13
			c-0.13-1.36-0.22-2.72-0.32-4.08c-0.14-2.02-0.27-3.93-0.51-5.85c-0.5-3.93-1.21-7.86-1.96-11.88c-3.31-1.65-3.71-4.93-3.88-6.34
			l-0.53-4.29c-0.5-4.07-1-8.14-1.47-12.22c-0.12-0.47-1.09-1.35-1.68-1.55c-0.39,0.34-0.55,1.15-0.72,2.65l-0.03,0.27
			c-0.05,0.43,0.06,1.05,0.17,1.71c0.1,0.57,0.21,1.22,0.25,1.9c0.06,1.04-0.4,1.82-0.67,2.29c-0.04,0.07-0.08,0.13-0.11,0.2
			c-0.37,0.78-1.14,1.34-2,1.43c-0.09,0.01-0.19,0.01-0.28,0.01c-0.76,0-1.5-0.33-1.97-0.94c-0.04-0.04-0.09-0.1-0.15-0.15
			c-0.39-0.4-1.12-1.15-1.24-2.31c-0.23-2.39-0.49-5.16-0.58-7.95c-0.53,0.03-1.1,0.06-1.48,0.11c-0.11,0.47-0.22,1.22-0.31,1.76
			l-0.28,1.83c-1.02,6.62-2.08,13.47-2.98,20.21c-0.28,2.08-0.37,4.19-0.47,6.41c-0.05,1.02-0.09,2.04-0.16,3.06
			c-0.04,0.68-0.36,1.31-0.88,1.75c-0.45,0.38-1.03,0.59-1.61,0.59c-0.09,0-0.18,0-0.26-0.01l-0.37-0.04
			c-1.14-0.11-2.06-0.99-2.23-2.12l-0.25-1.71c-0.18-1.29-0.37-2.57-0.59-3.86l-0.07-0.41c-0.04-0.26-0.1-0.63-0.16-0.85
			c-0.03,0-0.06-0.01-0.1-0.01c-2.6-0.33-3.24-3.96-3.26-4.91c-0.11-3.99-0.11-7.98,0-11.85c0.06-2.05,0.2-4.12,0.33-6.11
			c0.1-1.51,0.2-3.03,0.27-4.54c0-0.06,0.01-0.12,0.01-0.17c-0.04,0-0.08,0.01-0.12,0.02c-1.75,0.25-3.48,0.59-5.3,0.95
			c-1.4,0.28-2.84,0.56-4.29,0.8c-0.86,0.14-1.73,0.21-2.57,0.21c-0.66,0-1.31-0.04-1.93-0.13c-1.64-0.23-3.53-1.85-3.62-3.67
			c-0.07-1.6,0.92-3.46,2.26-4.24c1.9-1.1,3.91-2.08,5.97-2.89c2.96-1.17,6.03-2.27,9.37-3.37c0.75-0.25,0.8-0.26,0.91-1.15
			c1.48-12.14,3-24.69,4.93-37.07c0.74-4.76,2.27-9.3,4.04-14.31c1.5-4.25,5.17-7,9.33-7c3.15,0,6.11,1.59,8.11,4.35
			c2.25,3.11,4.18,6.68,5.58,10.32c3.7,9.64,6.21,19.59,7.47,29.57c1.66,13.19,3.36,27.08,5.21,42.46c0.24,2.02,0.72,5.94-3.07,7.7
			c-0.15,0.6-0.3,1.21-0.44,1.82c-0.34,1.42-0.69,2.88-1.1,4.33l-0.05,0.2c-0.34,1.23-0.8,2.91-2.26,3.83
			c-0.31,0.19-0.39,0.25-0.34,1.57c0.06,1.56,0.13,3.12,0.2,4.68c0.13,2.88,0.25,5.76,0.35,8.64c0.03,0.84-0.21,1.54-0.39,2.04
			c-0.04,0.12-0.08,0.23-0.12,0.35c-0.27,1.02-1.15,1.75-2.2,1.84C209.27,306.76,209.2,306.76,209.13,306.76z M203.12,281.02
			C203.12,281.02,203.12,281.02,203.12,281.02L203.12,281.02z M192.45,221.01c-0.64,3.12-1.23,6.29-1.8,9.37l-0.25,1.32
			c-0.33,1.75-0.63,3.48-0.95,5.39c1.71-0.65,3.39-1.3,5.06-1.96c0.48-0.19,0.53-0.26,0.51-0.6l-0.73-3.84
			C193.68,227.45,193.07,224.23,192.45,221.01z"/>
		<path d="M192.39,185.54c2.21,0,4.46,1.07,6.09,3.32c2.15,2.97,3.96,6.32,5.27,9.75c3.59,9.35,6.07,19.03,7.32,28.99
			c1.78,14.14,3.51,28.29,5.21,42.44c0.26,2.17,0.58,4.49-2.31,5.39c-0.21,0.07-0.45,0.36-0.5,0.59c-0.59,2.3-1.09,4.62-1.73,6.91
			c-0.26,0.92-0.55,2.15-1.24,2.58c-1.55,0.98-1.56,2.32-1.5,3.78c0.18,4.44,0.4,8.87,0.55,13.31c0.02,0.55-0.27,1.11-0.42,1.66
			c-0.25-0.55-0.68-1.08-0.73-1.65c-0.32-3.33-0.41-6.69-0.84-10.01c-0.52-4.03-1.24-8.04-1.98-12.04c-0.12-0.64-0.66-1.44-1.22-1.7
			c-1.95-0.92-2.4-2.59-2.63-4.45c-0.67-5.5-1.36-10.99-1.99-16.49c-0.19-1.68-2.58-3.8-4.31-3.8c-0.26,0-0.5,0.05-0.71,0.15
			c-1.99,0.92-2.15,3.14-2.37,5.02c-0.15,1.31,0.33,2.68,0.4,4.03c0.02,0.43-0.37,0.88-0.57,1.33c-0.3-0.39-0.83-0.75-0.87-1.17
			c-0.26-2.71-0.5-5.43-0.58-8.15c-0.05-1.57-0.68-2.09-2.03-2.09c-0.12,0-0.24,0-0.36,0.01c-3.7,0.21-3.76,0.16-4.35,4
			c-1.14,7.36-2.29,14.71-3.27,22.09c-0.42,3.19-0.44,6.43-0.65,9.64c-0.13-0.01-0.26-0.03-0.39-0.04
			c-0.28-1.87-0.52-3.75-0.84-5.62c-0.25-1.49-0.31-3.05-2.47-3.32c-0.48-0.06-1.06-1.62-1.08-2.5c-0.11-3.9-0.11-7.81,0-11.71
			c0.1-3.54,0.45-7.07,0.6-10.61c0.1-2.14-0.17-2.86-1.67-2.86c-0.36,0-0.78,0.04-1.29,0.11c-3.23,0.46-6.42,1.23-9.65,1.76
			c-0.71,0.12-1.44,0.18-2.16,0.18c-0.53,0-1.06-0.03-1.58-0.11c-0.57-0.08-1.45-0.83-1.47-1.32c-0.03-0.65,0.46-1.63,1.02-1.96
			c1.8-1.04,3.69-1.96,5.63-2.73c3.04-1.2,6.12-2.3,9.23-3.32c1.65-0.54,2.38-1.34,2.61-3.22c1.5-12.35,3.01-24.7,4.92-36.99
			c0.74-4.71,2.33-9.34,3.93-13.86C186.64,187.4,189.48,185.54,192.39,185.54 M187.33,240.43c0.22,0,0.48-0.06,0.78-0.17
			c2.44-0.93,4.89-1.86,7.32-2.82c1.44-0.57,2.19-1.57,2.07-3.24c-1.22-6.4-2.42-12.79-3.67-19.18c-0.09-0.47-0.53-0.88-0.81-1.32
			c-0.41,0.31-1.01,0.54-1.19,0.95c-0.58,1.31-1.16,2.66-1.46,4.06c-0.89,4.16-1.65,8.34-2.43,12.52c-0.48,2.58-0.92,5.17-1.35,7.75
			C186.44,239.91,186.68,240.43,187.33,240.43 M192.39,180.54c-5.24,0-9.83,3.4-11.69,8.66c-1.82,5.13-3.38,9.79-4.16,14.76
			c-1.9,12.19-3.41,24.52-4.86,36.47c-3.12,1.04-6.01,2.08-8.8,3.18c-2.17,0.86-4.29,1.88-6.3,3.05c-2.15,1.25-3.62,3.98-3.51,6.51
			c0.15,3.14,3.1,5.65,5.76,6.04c0.74,0.11,1.51,0.16,2.29,0.16c0.98,0,1.98-0.08,2.97-0.25c1.49-0.24,2.95-0.53,4.37-0.81
			c0.77-0.15,1.53-0.3,2.27-0.44c-0.03,0.52-0.07,1.04-0.1,1.57c-0.14,2.02-0.28,4.1-0.34,6.2c-0.11,3.92-0.11,7.96,0,11.99
			c0.04,1.56,0.82,5.32,3.66,6.78c0.19,1.15,0.36,2.31,0.53,3.54c0.08,0.57,0.16,1.15,0.25,1.72c0.34,2.26,2.17,4.01,4.44,4.24
			l0.19,0.02l0.19,0.02c0.17,0.02,0.34,0.03,0.5,0.03c1.18,0,2.33-0.42,3.23-1.19c1.04-0.88,1.67-2.14,1.76-3.5
			c0.07-1.03,0.11-2.07,0.16-3.11c0.1-2.17,0.19-4.22,0.45-6.19c0.58-4.33,1.22-8.7,1.88-13.03c0.28,0.36,0.54,0.63,0.72,0.81
			l0.05,0.05c0.95,1.15,2.37,1.81,3.85,1.81c0.2,0,0.39-0.01,0.59-0.04c1.23-0.15,2.34-0.74,3.14-1.63
			c0.11,0.92,0.22,1.83,0.34,2.74l0.53,4.3c0.18,1.51,0.64,5.25,4.11,7.61c0.66,3.6,1.28,7.13,1.73,10.62
			c0.24,1.84,0.36,3.72,0.5,5.7c0.09,1.35,0.19,2.74,0.32,4.14c0.14,1.45,0.75,2.53,1.08,3.12c0.04,0.06,0.07,0.13,0.1,0.19
			c0.82,1.78,2.59,2.89,4.53,2.89c0.14,0,0.29-0.01,0.43-0.02c2.1-0.18,3.85-1.67,4.4-3.71c0.01-0.04,0.04-0.11,0.06-0.17
			c0.21-0.61,0.57-1.64,0.53-2.95c-0.1-2.88-0.23-5.8-0.35-8.62c-0.07-1.57-0.14-3.13-0.2-4.7c1.62-1.44,2.16-3.41,2.51-4.66
			l0.05-0.19c0.41-1.49,0.77-2.97,1.12-4.4c0.06-0.25,0.12-0.5,0.18-0.75c4.23-2.72,3.62-7.77,3.4-9.59l-0.01-0.07
			c-1.86-15.44-3.56-29.33-5.21-42.47c-1.28-10.18-3.84-20.33-7.61-30.16c-1.47-3.84-3.51-7.61-5.89-10.89
			C200.05,182.5,196.36,180.54,192.39,180.54L192.39,180.54z"/>
	</g>
	<g>
		<path class="st0" d="M248.45,298.64c-0.87,0-1.69-0.46-2.15-1.22c-0.04-0.06-0.08-0.12-0.13-0.18c-0.29-0.4-0.77-1.06-0.89-1.98
			l-0.17-1.29c-0.33-2.53-0.67-5.15-0.85-7.77c-0.35-5.16-0.63-10.51-0.86-16.35c-0.05-1.35-0.15-1.79-0.22-1.93
			c-0.03-0.02-0.31-0.22-1.52-0.58c-2.2-0.65-3.7-1.69-4.5-3.12c-0.04,0-0.09,0-0.13,0c-0.73,0-1.43-0.32-1.91-0.89
			c-0.07-0.08-0.15-0.15-0.22-0.22c-0.42-0.4-1.1-1.05-1.37-2.04c-0.45-0.03-0.89-0.18-1.26-0.44c-0.04-0.03-0.1-0.06-0.16-0.09
			c-0.43-0.24-1.15-0.64-1.63-1.47c-0.34-0.59-0.71-1.17-1.07-1.76c-1.07-1.73-2.18-3.52-2.89-5.56c-1.59-4.62-2.8-9.44-3.8-13.61
			c-0.5-2.06-0.76-4.36-0.8-7.03c-0.12-8.25,0.07-17.11,2.23-26.07c0.52-2.17,0.73-4.44,0.94-6.85c0.16-1.76,0.32-3.58,0.62-5.39
			c1.14-6.88,3.08-15.8,8.04-23.77c6.13-9.86,14.76-15.08,24.97-15.08c0.61,0,1.22,0.02,1.84,0.05c8.63,0.5,15.52,6.57,16.38,14.43
			c0.32,2.9,0.5,6.07,0.59,9.99c0.06,2.77,0.04,5.56,0.02,8.26c-0.01,1.26-0.02,2.53-0.02,3.79c0,2.12-0.47,5.11-4.41,6.78
			c-0.15,0.18-0.57,0.83-1.09,2.75c-0.06,0.21,0.05,0.87,0.12,1.31c0.1,0.64,0.22,1.36,0.2,2.15c-0.03,0.99-0.28,1.85-0.51,2.61
			c-0.07,0.25-0.15,0.5-0.21,0.76c-0.22,0.9-0.91,1.6-1.78,1.83c0,2.32-0.01,4.65-0.04,6.97c-0.01,0.9-0.34,1.61-0.57,2.13
			c-0.05,0.11-0.1,0.22-0.14,0.33c-0.36,1-1.3,1.66-2.35,1.66c-0.01,0-0.03,0-0.04,0c-1.07-0.02-2.01-0.71-2.34-1.73
			c-0.04-0.13-0.09-0.26-0.15-0.38c-0.2-0.5-0.48-1.19-0.51-2.02c-0.17-4.36-0.32-8.98-0.49-15l-0.01-0.45
			c-0.07-2.92-0.24-4.01-1.87-4.84c-1.83-0.94-2.38-3.34-2.51-5.19c-0.13-1.77-0.1-3.53-0.08-5.24c0.01-0.68,0.02-1.35,0.02-2.03
			c0-0.21,0.03-0.42,0.08-0.61c0-0.53,0.01-1.07,0.01-1.6c0.01-1.58,0.03-3.21-0.03-4.78c-0.07-2-0.85-2.78-2.79-2.78l-0.24,0
			c-3.3,0.12-6.22,2.77-7.83,7.09c-2.99,8.07-3.98,16.56-4.51,23.05l-0.04,0.46c-0.8,9.96-1.64,20.26-1.73,30.35
			c-0.05,6.11,1.67,11.12,5.11,14.91c3.1,3.41,7.12,5.25,11.96,5.47c0.02-0.02,0.37-0.17,0.71-0.44c0.72-0.58,1.4-1.31,2.12-2.08
			c0.24-0.26,0.49-0.52,0.73-0.78c0.4-0.42,0.79-0.86,1.17-1.3c1.41-1.62,3-3.45,5.54-4.46c0.09-0.14,0.21-0.34,0.29-0.49
			c0.19-0.34,0.41-0.72,0.69-1.09c0.83-1.12,2.23-3,4.63-3c0.8,0,1.61,0.22,2.39,0.66c1.43,0.81,3.58,2.81,1.95,7.19
			c-3.78,10.12-9.81,16.5-18.43,19.53c-2.22,0.78-4.55,0.88-6.32,0.88c-0.93,0-1.86-0.03-2.78-0.06l-0.89-0.03
			c-0.23-0.01-0.44-0.01-0.64-0.01c-0.08,0-0.14,0-0.21,0c0,0.12,0,0.26,0,0.43c0.12,4.06,0.39,8.21,0.66,12.22l0.1,1.55
			c0.13,1.95,0.29,3.89,0.45,5.84c0.15,1.84,0.3,3.69,0.43,5.53c0.06,0.87-0.21,1.58-0.39,2.05c-0.03,0.09-0.07,0.17-0.09,0.26
			c-0.28,0.96-1.1,1.66-2.09,1.78C248.66,298.63,248.56,298.64,248.45,298.64z"/>
		<path d="M258.71,156.45c0.56,0,1.12,0.02,1.7,0.05c6.95,0.41,13.26,5.06,14.04,12.21c0.35,3.24,0.5,6.51,0.58,9.77
			c0.09,4,0,8-0.01,11.99c0,2.18-0.67,3.58-3.01,4.54c-1.21,0.49-1.96,2.75-2.4,4.35c-0.33,1.23,0.26,2.69,0.23,4.04
			c-0.03,0.95-0.42,1.9-0.65,2.85c-0.24-0.89-0.54-1.76-0.72-2.66c-0.12-0.62-0.03-1.27-0.13-1.9c-0.05-0.3-0.35-0.56-0.54-0.84
			c-0.15,0.28-0.39,0.55-0.42,0.84c-0.07,0.63-0.04,1.27-0.04,1.91c-0.01,4,0.01,8-0.04,11.99c-0.01,0.55-0.37,1.11-0.57,1.66
			c-0.19-0.58-0.52-1.15-0.54-1.73c-0.2-4.99-0.35-9.98-0.49-14.97c-0.08-2.92,0.02-5.79-3.24-7.45c-0.74-0.38-1.08-2.04-1.16-3.14
			c-0.17-2.35-0.05-4.72-0.05-7.08c0.02,0,0.05,0,0.07,0c0-2.36,0.07-4.73-0.02-7.09c-0.12-3.36-2.04-5.19-5.28-5.19
			c-0.11,0-0.22,0-0.33,0.01c-4.42,0.16-8.17,3.59-10.08,8.72c-2.85,7.67-4,15.66-4.65,23.72c-0.83,10.32-1.68,20.66-1.77,30.99
			c-0.05,5.96,1.5,11.93,5.76,16.62c3.64,4.01,8.3,6.04,13.69,6.29c0.03,0,0.06,0,0.08,0c0.77,0,1.68-0.49,2.31-1
			c1.12-0.91,2.08-2.02,3.08-3.07c1.86-1.94,3.32-4.29,6.1-5.27c0.77-0.27,1.2-1.51,1.79-2.31c0.72-0.97,1.51-1.99,2.63-1.99
			c0.35,0,0.74,0.1,1.17,0.34c1.66,0.94,1.4,2.61,0.83,4.13c-3.13,8.37-8.27,15.01-16.91,18.04c-1.7,0.6-3.59,0.74-5.49,0.74
			c-1.21,0-2.42-0.06-3.59-0.09c-0.26-0.01-0.49-0.01-0.72-0.01c-2.15,0-2.78,0.46-2.7,3.01c0.13,4.62,0.46,9.24,0.77,13.86
			c0.25,3.79,0.61,7.58,0.87,11.37c0.03,0.47-0.25,0.96-0.39,1.44c-0.24-0.4-0.64-0.79-0.69-1.21c-0.38-2.96-0.8-5.93-1.01-8.91
			c-0.37-5.42-0.64-10.85-0.85-16.28c-0.12-3.19-0.49-3.91-3.54-4.81c-2.25-0.66-3.72-1.73-3.34-4.39c0.11-0.77-0.15-1.63-0.34-2.41
			c-0.2-0.78-0.52-1.54-0.8-2.3c-0.15,0.84-0.36,1.67-0.44,2.52c-0.06,0.63,0.12,1.27,0.06,1.9c-0.05,0.5-0.32,0.98-0.49,1.47
			c-0.38-0.45-1.01-0.86-1.1-1.36c-0.31-1.78-0.44-3.59-0.62-5.39c-0.11-1.08-0.1-2.18-0.29-3.25c-0.07-0.41-0.56-0.74-0.87-1.1
			c-0.18,0.38-0.48,0.75-0.5,1.14c-0.04,0.72,0.08,1.44,0.15,2.16c0.11,1.08,0.28,2.16,0.31,3.25c0.01,0.46-0.27,0.94-0.43,1.41
			c-0.36-0.25-0.85-0.42-1.05-0.76c-1.31-2.27-2.91-4.45-3.76-6.89c-1.51-4.37-2.65-8.88-3.74-13.38c-0.51-2.1-0.7-4.31-0.73-6.48
			c-0.13-8.55,0.13-17.04,2.16-25.45c0.98-4.03,0.91-8.3,1.59-12.42c1.33-8.02,3.39-15.94,7.69-22.86
			C241.12,161.87,248.61,156.45,258.71,156.45 M258.71,151.45c-11.12,0-20.49,5.62-27.09,16.26c-5.18,8.35-7.2,17.58-8.38,24.68
			c-0.32,1.9-0.48,3.77-0.64,5.58c-0.2,2.31-0.4,4.49-0.88,6.48c-2.23,9.23-2.43,18.29-2.3,26.7c0.04,2.85,0.33,5.33,0.87,7.58
			c1.02,4.21,2.24,9.1,3.87,13.84c0.8,2.31,2.03,4.3,3.13,6.07c0.35,0.56,0.7,1.13,1.03,1.7c0.82,1.42,2.05,2.11,2.57,2.4l0.05,0.03
			c0.25,0.16,0.51,0.3,0.78,0.42c0.49,0.84,1.09,1.41,1.45,1.76c0.03,0.03,0.07,0.06,0.1,0.09c0.67,0.76,1.54,1.29,2.49,1.53
			c1.04,1.28,2.66,2.42,5.14,3.16c0,0.07,0.01,0.14,0.01,0.22c0.23,5.89,0.51,11.26,0.86,16.42c0.18,2.7,0.53,5.35,0.87,7.92
			l0.17,1.29c0.2,1.57,0.98,2.63,1.36,3.14l0.05,0.07c0.92,1.47,2.53,2.36,4.24,2.36c0.21,0,0.43-0.01,0.64-0.04
			c1.95-0.25,3.58-1.63,4.15-3.51l0.05-0.12c0.23-0.59,0.65-1.69,0.55-3.11c-0.13-1.86-0.28-3.74-0.43-5.55
			c-0.16-1.91-0.32-3.88-0.44-5.81l-0.1-1.51c-0.22-3.27-0.45-6.64-0.58-9.96c0.63,0.02,1.28,0.03,1.94,0.03
			c1.97,0,4.57-0.12,7.15-1.02c9.24-3.24,15.94-10.31,19.94-21.01c2.44-6.53-1.73-9.49-3.06-10.24c-1.16-0.66-2.38-0.99-3.62-0.99
			c-3.66,0-5.75,2.81-6.64,4.01c-0.29,0.39-0.52,0.77-0.71,1.1c-2.63,1.26-4.3,3.19-5.68,4.78c-0.38,0.44-0.74,0.85-1.08,1.21
			c-0.25,0.26-0.5,0.53-0.75,0.8c-0.58,0.63-1.14,1.22-1.67,1.68c-3.84-0.34-6.93-1.85-9.43-4.6c-3.01-3.31-4.51-7.75-4.46-13.21
			c0.09-10,0.92-20.25,1.72-30.16l0.04-0.48c0.51-6.33,1.47-14.6,4.36-22.38c1.22-3.29,3.36-5.38,5.58-5.46c0.05,0,0.1,0,0.15,0
			c0.1,0,0.18,0,0.25,0.01c0.01,0.09,0.03,0.21,0.03,0.36c0.06,1.52,0.04,3.05,0.03,4.67c0,0.45-0.01,0.9-0.01,1.36
			c-0.05,0.29-0.08,0.58-0.08,0.88c0,0.66-0.01,1.33-0.02,1.99c-0.03,1.76-0.05,3.57,0.08,5.46c0.18,2.49,1,5.77,3.87,7.23
			c0.21,0.11,0.28,0.18,0.28,0.18c0.17,0.32,0.2,1.68,0.22,2.5l0.01,0.46c0.17,6.01,0.32,10.65,0.49,15.03
			c0.05,1.27,0.45,2.27,0.7,2.86c0.03,0.08,0.06,0.15,0.09,0.23c0.66,2.03,2.54,3.41,4.68,3.44c0.03,0,0.05,0,0.08,0
			c2.11,0,3.99-1.33,4.7-3.32c0.01-0.02,0.04-0.08,0.07-0.15c0.27-0.6,0.78-1.71,0.79-3.14c0.02-1.84,0.03-3.7,0.04-5.53
			c0.83-0.67,1.45-1.61,1.71-2.71c0.05-0.21,0.12-0.42,0.18-0.63c0.24-0.82,0.57-1.94,0.61-3.26c0.03-1.02-0.11-1.9-0.23-2.61
			c-0.03-0.18-0.07-0.41-0.09-0.58c0.16-0.55,0.29-0.93,0.39-1.18c3.38-1.73,5.09-4.65,5.1-8.69c0-1.25,0.01-2.5,0.02-3.74
			c0.02-2.73,0.05-5.56-0.02-8.37c-0.09-3.99-0.28-7.24-0.61-10.2c-0.99-9.08-8.86-16.08-18.72-16.66
			C260.04,151.47,259.37,151.45,258.71,151.45L258.71,151.45z M252.21,268.83C252.21,268.83,252.21,268.83,252.21,268.83
			L252.21,268.83L252.21,268.83z"/>
	</g>
	<g>
		<path class="st0" d="M150.24,175.74c-2.08,0-3.9-1.56-4.51-3.88c-0.48-1.81-0.86-3.64-1.23-5.42c-0.27-1.3-0.54-2.6-0.85-3.89
			c-0.16-0.68-0.41-1.39-0.68-2.13c-0.23-0.64-0.46-1.3-0.66-1.99c-0.12-0.42-0.26-0.84-0.4-1.27c-0.44-1.37-0.95-2.92-0.98-4.58
			c-0.23-11.66-1.58-23.48-2.88-34.9c-0.45-3.94-0.9-7.88-1.31-11.83c-0.02-0.15-0.03-0.28-0.05-0.38c-0.08,0-0.17,0.01-0.25,0.02
			c-2.42,0.27-4.88,0.32-7.02,0.34c-0.05,0.37-0.12,0.71-0.18,1.01c-0.03,0.14-0.06,0.29-0.09,0.43c-0.1,0.54-0.17,1.08-0.25,1.62
			c-0.33,2.35-0.69,5.02-2.77,7.57c-0.4,0.49-0.49,1.98-0.57,3.19c-0.05,0.81-0.1,1.64-0.24,2.47c-0.2,1.24-0.38,2.47-0.57,3.71
			c-0.4,2.69-0.81,5.47-1.38,8.21c-0.53,2.58-1.56,5.04-2.39,6.89c-0.58,1.29-2.47,3.09-4.24,3.09c-0.39,0-0.76-0.08-1.1-0.23
			c-1.36-0.59-3.3-2.37-3.34-4.48c-0.07-3.54,0.07-6.94,0.42-10.1c0.48-4.37,1.02-8.79,1.55-13.07c0.32-2.57,0.63-5.15,0.94-7.72
			c-0.39,0.24-0.85,0.38-1.31,0.38c-0.02,0-0.04,0-0.06,0c-0.13,0-0.27-0.02-0.4-0.04c0.08,0.82,0.18,1.65,0.28,2.51
			c0.14,1.23,0.29,2.46,0.39,3.7c0.08,0.95-0.2,1.74-0.41,2.32c-0.05,0.13-0.1,0.26-0.13,0.39c-0.26,0.99-1.1,1.72-2.12,1.84
			c-0.1,0.01-0.2,0.02-0.3,0.02c-0.91,0-1.75-0.49-2.2-1.31c-0.06-0.11-0.13-0.22-0.21-0.32c-0.32-0.48-0.81-1.21-0.93-2.18
			c-0.52-3.95-0.91-7.27-1.21-10.43c-0.43,0.05-0.91,0.09-1.41,0.09c-0.62,0-1.17-0.07-1.68-0.21c-0.94-0.27-1.73-0.71-2.42-1.1
			c-0.23-0.13-0.46-0.26-0.7-0.38c-0.68-0.34-1.16-0.98-1.32-1.73c-0.15-0.75,0.04-1.52,0.53-2.11c0.14-0.17,0.27-0.36,0.39-0.54
			c0.46-0.67,1.1-1.59,2.16-2.15c4.32-2.27,8.99-4.51,14.47-4.77c0.5-0.02,0.84-0.05,1.07-0.07c0.06-0.33,0.13-0.77,0.19-1.18
			l0.06-0.41c2.05-13.29,4.94-28.95,10.76-44.36c0.57-1.51,1.9-5.03,5.93-5.4c0.21-0.02,0.41-0.03,0.6-0.03
			c3.6,0,5.35,2.88,6.19,4.26c3.32,5.46,4.73,11.49,6.1,17.32l0.08,0.34c1.88,8.03,3.76,16.67,4.75,25.44
			c1.67,14.76,3.1,29.78,4.48,44.31c0.56,5.94,1.13,11.87,1.71,17.81c0.05,0.49-0.05,0.97-0.26,1.38l0,1.19c0,1.79,0,3.58-0.01,5.37
			c-0.01,1.51-0.02,4.27-2.44,6.35c-0.03,0.13-0.07,0.34-0.09,0.63c-0.04,0.55-0.03,1.16-0.02,1.8c0.02,1.13,0.04,2.41-0.25,3.7
			c-0.36,1.62-1.68,3.69-3.49,4.51C151.44,175.61,150.84,175.74,150.24,175.74z M133.43,82.38c-0.38,2.04-0.75,4.09-1.13,6.13
			c-0.08,0.42-0.16,0.86-0.23,1.25c0.33-0.03,0.71-0.07,1.12-0.11c0.39-0.04,0.8-0.08,1.15-0.13c-0.02-0.31-0.05-0.68-0.08-1.02
			l-0.19-2.31c-0.03-0.13-0.05-0.26-0.06-0.39l-0.09-1.13c-0.06-0.78-0.12-1.55-0.2-2.33l-0.1-0.94
			C133.54,81.73,133.49,82.06,133.43,82.38z"/>
		<path d="M135.28,43.46c1.97,0,3.07,1.44,4.05,3.06c3.18,5.22,4.52,11.13,5.88,16.92c1.94,8.3,3.75,16.7,4.7,25.15
			c2.34,20.66,4.15,41.38,6.18,62.08c-0.09,0.02-0.18,0.03-0.27,0.05c0,2.54,0.01,5.09,0,7.63c-0.01,1.75-0.17,3.4-1.77,4.63
			c-0.51,0.4-0.7,1.41-0.76,2.16c-0.14,1.72,0.14,3.5-0.22,5.15c-0.24,1.06-1.14,2.35-2.08,2.78c-0.26,0.12-0.51,0.17-0.75,0.17
			c-1.03,0-1.82-0.98-2.09-2.02c-0.8-3.05-1.33-6.18-2.06-9.25c-0.34-1.44-0.96-2.81-1.37-4.23c-0.49-1.72-1.24-3.46-1.28-5.21
			c-0.32-15.75-2.59-31.31-4.2-46.93c-0.19-1.87-0.81-2.62-2.36-2.62c-0.22,0-0.45,0.01-0.71,0.04c-2.34,0.26-4.71,0.31-7.07,0.33
			c-1.36,0.01-2.01,0.56-2.12,1.89c-0.04,0.54-0.18,1.07-0.28,1.61c-0.5,2.77-0.43,5.52-2.5,8.06c-1.29,1.59-0.96,4.51-1.33,6.83
			c-0.63,3.94-1.12,7.91-1.92,11.81c-0.45,2.19-1.3,4.33-2.22,6.37c-0.31,0.69-1.46,1.62-1.96,1.62c-0.04,0-0.08-0.01-0.11-0.02
			c-0.81-0.35-1.82-1.44-1.83-2.24c-0.06-3.26,0.05-6.54,0.41-9.78c0.9-8.21,2-16.39,2.93-24.6c0.09-0.78-0.29-2.18-0.8-2.37
			c-0.3-0.11-0.58-0.16-0.85-0.16c-0.96,0-1.68,0.69-1.91,1.91c-0.08,0.44-0.01,0.92-0.13,1.35c-0.08,0.27-0.37,0.47-0.57,0.71
			c-0.15-0.2-0.35-0.38-0.46-0.61c-0.5-1.04-0.15-2.86-1.68-2.86c-0.11,0-0.23,0.01-0.36,0.03c-0.4,0.06-0.69,2.39-0.62,3.65
			c0.16,2.89,0.62,5.76,0.87,8.64c0.05,0.6-0.3,1.24-0.46,1.86c-0.3-0.54-0.78-1.06-0.86-1.64c-0.46-3.49-0.88-7-1.21-10.51
			c-0.14-1.44-0.71-2.14-1.99-2.14c-0.14,0-0.3,0.01-0.46,0.03c-0.47,0.05-0.96,0.11-1.43,0.11c-0.35,0-0.69-0.03-1-0.12
			c-0.94-0.26-1.78-0.85-2.67-1.3c0.59-0.71,1.04-1.69,1.8-2.08c4.22-2.22,8.47-4.25,13.42-4.48c3.27-0.15,3.17-0.45,3.68-3.78
			c2.31-14.92,5.27-29.68,10.63-43.86c0.7-1.86,1.6-3.59,3.82-3.79C135.03,43.46,135.16,43.46,135.28,43.46 M130.94,92.34
			c0.61,0,1.43-0.09,2.52-0.2c3.58-0.37,3.58-0.37,3.29-3.84c-0.07-0.9-0.15-1.81-0.22-2.71c-0.01,0-0.02,0-0.03,0
			c-0.1-1.17-0.17-2.35-0.3-3.52c-0.34-3.06-0.66-6.13-1.09-9.18c-0.07-0.53-0.62-0.99-0.95-1.48c-0.42,0.4-0.98,0.72-1.24,1.21
			c-0.33,0.63-0.48,1.37-0.61,2.08c-0.84,4.45-1.64,8.9-2.47,13.35C129.19,91.5,129.03,92.34,130.94,92.34 M151.63,130.24
			c0.28-0.65,0.61-1.13,0.52-1.24c-1.51-1.67-3.06-3.29-4.64-4.89c-0.05-0.05-0.16-0.07-0.27-0.07c-0.16,0-0.35,0.04-0.44,0.12
			c-0.15,0.12-0.26,0.57-0.17,0.67C148.19,126.56,149.79,128.27,151.63,130.24 M135.28,38.46c-0.27,0-0.55,0.01-0.83,0.04
			c-5.59,0.5-7.44,5.39-8.05,7c-5.85,15.48-8.76,31.15-10.83,44.48c-5.56,0.47-10.23,2.72-14.55,4.99
			c-1.61,0.85-2.51,2.16-3.05,2.94c-0.09,0.12-0.17,0.25-0.26,0.36c-0.98,1.17-1.36,2.72-1.06,4.21c0.31,1.49,1.28,2.76,2.64,3.45
			c0.2,0.1,0.4,0.22,0.6,0.33c0.78,0.44,1.74,0.98,2.97,1.33c0.49,0.14,0.99,0.23,1.51,0.27c0.26,2.52,0.59,5.18,0.99,8.2
			c0.2,1.54,0.94,2.64,1.33,3.23c0.04,0.06,0.08,0.12,0.12,0.18c0.86,1.58,2.48,2.54,4.24,2.59c-0.27,2.29-0.54,4.59-0.8,6.88
			c-0.36,3.27-0.51,6.77-0.44,10.42c0.06,3.07,2.48,5.71,4.85,6.73c0.66,0.28,1.36,0.43,2.09,0.43c3.05,0,5.69-2.72,6.52-4.57
			c0.89-1.97,1.98-4.59,2.56-7.41c0.58-2.81,1-5.62,1.4-8.35c0.18-1.23,0.36-2.46,0.56-3.68c0.15-0.94,0.21-1.88,0.26-2.7
			c0.04-0.64,0.1-1.57,0.2-2.01c2.35-3.02,2.77-6.09,3.12-8.57c0.04-0.32,0.09-0.64,0.13-0.94c0.96-0.02,1.95-0.06,2.96-0.13
			c0.35,3.28,0.73,6.58,1.09,9.78c1.3,11.37,2.64,23.12,2.87,34.67c0.04,2.03,0.63,3.84,1.1,5.3c0.13,0.4,0.26,0.79,0.37,1.18
			c0.22,0.77,0.48,1.5,0.71,2.14c0.24,0.68,0.47,1.33,0.6,1.88c0.3,1.24,0.56,2.49,0.83,3.82c0.37,1.8,0.76,3.67,1.26,5.54
			c0.89,3.38,3.74,5.74,6.93,5.74c0.96,0,1.9-0.21,2.8-0.61c2.7-1.22,4.41-4.01,4.91-6.24c0.35-1.58,0.33-3.08,0.31-4.29
			c-0.01-0.43-0.01-0.84,0-1.21c2.53-2.71,2.55-6.01,2.56-7.52c0.01-1.8,0.01-3.59,0.01-5.39l0-0.69c0.23-0.66,0.32-1.38,0.25-2.12
			c-0.58-5.94-1.15-11.87-1.71-17.81c-1.38-14.54-2.81-29.57-4.48-44.34c-1.01-8.9-2.9-17.62-4.8-25.73L150,61.96
			c-1.41-6.02-2.87-12.25-6.4-18.05C142.7,42.42,140.28,38.46,135.28,38.46L135.28,38.46z"/>
	</g>
	<g>
		<path class="st0" d="M219.28,108.61c-0.7,0-1.25-0.21-1.62-0.35c-0.06-0.02-0.12-0.05-0.18-0.07c-0.71-0.21-1.32-0.74-1.61-1.42
			c-0.29-0.69-0.28-1.47,0.06-2.13c0.03-0.06,0.06-0.13,0.09-0.2c0.16-0.38,0.41-0.94,0.91-1.46c0.38-0.4,0.78-0.75,1.14-1.06
			c0.29-0.25,0.58-0.5,0.84-0.78c3.71-3.91,4.21-7.55,1.77-12.97c-0.32-0.71-0.39-1.4-0.44-1.9c-0.01-0.13-0.02-0.25-0.04-0.37
			c-0.13-0.79,0.13-1.6,0.69-2.17c0.47-0.48,1.11-0.74,1.78-0.74c0.13,0,0.26,0.01,0.39,0.03c0.1,0.02,0.21,0.02,0.31,0.03
			c0.49,0.04,1.16,0.1,1.86,0.43c4.9,2.3,7.57,5.57,7.92,9.71c0.01,0.07,0.01,0.14,0.01,0.21c0,7.47-6.34,14.58-13.57,15.2
			C219.5,108.6,219.35,108.61,219.28,108.61z"/>
		<path d="M222.66,85.49c0.5,0.08,1.05,0.05,1.5,0.25c3.54,1.66,6.18,4.06,6.49,7.66c0,6.27-5.52,12.21-11.28,12.7
			c-0.03,0-0.05,0-0.08,0c-0.37,0-0.76-0.22-1.14-0.32c0.19-0.36,0.31-0.8,0.58-1.08c0.62-0.65,1.36-1.19,1.98-1.85
			c4.2-4.43,5.24-9.04,2.24-15.71C222.73,86.65,222.75,86.04,222.66,85.49 M222.62,80.48c-1.32,0-2.59,0.53-3.53,1.48
			c-1.13,1.14-1.62,2.75-1.37,4.33c0.01,0.07,0.02,0.14,0.02,0.22c0.06,0.6,0.15,1.6,0.64,2.69c2.28,5.08,1.35,7.43-1.31,10.22
			c-0.16,0.17-0.41,0.39-0.67,0.62c-0.39,0.34-0.84,0.74-1.3,1.22c-0.81,0.84-1.19,1.72-1.39,2.2l-0.04,0.09
			c-0.67,1.33-0.71,2.88-0.12,4.25c0.59,1.35,1.74,2.37,3.15,2.79l0.07,0.03c0.47,0.18,1.35,0.51,2.5,0.51
			c0.17,0,0.34-0.01,0.51-0.02c8.45-0.73,15.86-8.99,15.86-17.69c0-0.14-0.01-0.28-0.02-0.42c-0.3-3.51-2.16-8.39-9.35-11.77
			c-1.11-0.52-2.16-0.61-2.72-0.66c-0.06,0-0.11-0.01-0.17-0.02C223.13,80.5,222.88,80.48,222.62,80.48L222.62,80.48z"/>
	</g>
	<g>
		<path class="st0" d="M278.91,72.36c-0.13,0-0.27-0.01-0.4-0.02c-4.29-0.03-9.38-3.76-10.64-7.82c-0.3-0.97-0.12-1.84,0-2.42
			c0.02-0.11,0.05-0.22,0.06-0.33c0.09-0.8,0.56-1.51,1.26-1.91c0.38-0.21,0.8-0.32,1.22-0.32c0.36,0,0.72,0.08,1.06,0.24l0.37,0.16
			c0.35,0.15,0.75,0.33,1.16,0.57c2.63,1.54,5.26,3.09,7.87,4.66c0.58,0.35,1.09,0.73,1.59,1.09c0.2,0.14,0.39,0.29,0.59,0.43
			c0.74,0.52,1.14,1.4,1.04,2.29c-0.09,0.9-0.66,1.68-1.48,2.04l-0.61,0.27c-0.65,0.29-1.3,0.57-1.96,0.84
			C279.7,72.28,279.32,72.36,278.91,72.36z"/>
		<path d="M270.41,62.04c0.44,0.21,0.91,0.38,1.33,0.63c2.62,1.54,5.24,3.08,7.85,4.64c0.71,0.42,1.35,0.94,2.03,1.42
			c-0.84,0.37-1.67,0.74-2.51,1.09c-0.06,0.02-0.12,0.03-0.19,0.03c-0.11,0-0.24-0.02-0.35-0.02c-3.17-0.02-7.37-3.04-8.31-6.06
			C270.09,63.27,270.35,62.63,270.41,62.04 M270.41,57.04c-0.85,0-1.69,0.21-2.45,0.64c-1.39,0.78-2.32,2.18-2.51,3.76
			c-0.01,0.05-0.02,0.1-0.03,0.15c-0.15,0.73-0.43,2.08,0.06,3.66c1.56,5.01,7.55,9.45,12.89,9.57c0.19,0.02,0.37,0.02,0.54,0.02
			c0.73,0,1.43-0.14,2.09-0.41c0.67-0.27,1.33-0.57,1.99-0.86l0.63-0.28c1.65-0.72,2.79-2.28,2.97-4.08
			c0.18-1.79-0.62-3.55-2.09-4.59c-0.19-0.13-0.37-0.27-0.55-0.4c-0.52-0.38-1.1-0.81-1.78-1.22c-2.73-1.64-5.51-3.27-7.9-4.67
			c-0.54-0.31-1.02-0.53-1.42-0.7c-0.1-0.05-0.21-0.09-0.31-0.14C271.86,57.2,271.13,57.04,270.41,57.04L270.41,57.04z"/>
	</g>
	<g>
		<path class="st0" d="M238.28,35.5c-1.07,0-2.46-0.64-3.06-1.85c-0.74-1.49,0.11-3.41,1.36-4.12c2.44-1.4,3.56-3.91,4.86-6.81
			l0.08-0.17c0.33-0.74,0.8-1.29,1.17-1.73c0.11-0.13,0.22-0.25,0.32-0.39c0.48-0.63,1.22-0.99,1.99-0.99c0.1,0,0.2,0.01,0.3,0.02
			c0.88,0.1,1.64,0.67,2,1.49l0.72,1.66c0.17,0.39,0.24,0.82,0.2,1.25c-0.49,4.94-2.72,8.5-6.83,10.88
			c-0.95,0.55-1.98,0.7-2.86,0.77C238.46,35.49,238.35,35.5,238.28,35.5z"/>
		<path d="M245,21.93c0.3,0.69,0.6,1.37,0.72,1.66c-0.42,4.28-2.34,7.08-5.59,8.97c-0.52,0.3-1.2,0.39-1.81,0.44
			c-0.01,0-0.03,0-0.04,0c-0.29,0-0.71-0.22-0.82-0.46c-0.09-0.19,0.14-0.72,0.36-0.85c3.21-1.83,4.57-4.99,5.97-8.14
			C244.07,22.96,244.6,22.47,245,21.93 M245,16.93c-1.56,0-3.04,0.73-3.99,1.99c-0.07,0.09-0.15,0.18-0.23,0.27
			c-0.43,0.5-1.07,1.26-1.55,2.33l-0.08,0.17c-1.29,2.9-2.17,4.72-3.81,5.66c-2.26,1.29-3.75,4.57-2.37,7.39
			c0.96,1.95,3.09,3.25,5.31,3.25c0.14,0,0.32-0.01,0.45-0.02c1.09-0.09,2.53-0.3,3.91-1.1c4.78-2.78,7.49-7.09,8.06-12.8
			c0.08-0.85-0.05-1.71-0.39-2.49l-0.72-1.66c-0.71-1.63-2.23-2.76-4-2.97C245.39,16.94,245.2,16.93,245,16.93L245,16.93z"/>
	</g>
	<g>
		<path class="st0" d="M94.95,59.2c-0.97-0.02-1.84-0.59-2.24-1.47c-0.07-0.16-0.15-0.32-0.23-0.48c-0.29-0.57-0.65-1.27-0.8-2.14
			c-0.23-1.32,0.51-2.29,0.87-2.76c0.04-0.06,0.09-0.11,0.12-0.17c0.45-0.76,1.26-1.21,2.14-1.21c0.02,0,0.05,0,0.07,0
			c0.91,0.03,1.72,0.55,2.14,1.35l0.91,1.75c0.36,0.7,0.38,1.54,0.03,2.25l-0.72,1.48c-0.42,0.86-1.29,1.4-2.25,1.4
			C94.97,59.2,94.96,59.2,94.95,59.2z"/>
		<path d="M94.8,53.47c0.3,0.58,0.6,1.16,0.91,1.74c-0.3,0.6-0.51,1.04-0.72,1.48c-0.3-0.67-0.73-1.32-0.85-2.02
			C94.07,54.33,94.56,53.88,94.8,53.47 M94.8,48.47c-1.71,0-3.29,0.87-4.21,2.31l-0.04,0.05c-0.48,0.63-1.76,2.32-1.34,4.71
			c0.22,1.23,0.71,2.2,1.04,2.84c0.06,0.12,0.13,0.24,0.18,0.37c0.8,1.77,2.54,2.92,4.48,2.95c0.03,0,0.05,0,0.08,0
			c1.91,0,3.65-1.09,4.49-2.8l0.31-0.64l0.41-0.85c0.7-1.42,0.68-3.1-0.06-4.5l-0.41-0.79l-0.5-0.96c-0.84-1.61-2.48-2.64-4.3-2.69
			C94.9,48.47,94.85,48.47,94.8,48.47L94.8,48.47z"/>
	</g>
</g>
</svg>
