<?xml version="1.0" encoding="utf-8"?>
<!-- Generator: Adobe Illustrator 26.2.1, SVG Export Plug-In . SVG Version: 6.00 Build 0)  -->
<svg version="1.1" id="Layer_1" xmlns="http://www.w3.org/2000/svg" xmlns:xlink="http://www.w3.org/1999/xlink" x="0px" y="0px"
	 viewBox="0 0 106.6 92.3" style="enable-background:new 0 0 106.6 92.3;" xml:space="preserve">
<style type="text/css">
	.st0{fill:#FFFFFF;stroke:#2A2A2A;stroke-width:8;stroke-miterlimit:10;}
	.st1{fill:#2A2A2A;}
	.st2{fill:#FF7558;stroke:#2A2A2A;stroke-width:2.3638;stroke-miterlimit:10;}
	.st3{fill:none;stroke:#2A2A2A;stroke-width:4;stroke-linecap:round;stroke-miterlimit:10;}
</style>
<path class="st0" d="M102.4,31.9C99.3,4.7,82.6,5.2,72.5,4.4c-6.9-0.5-31.6-0.5-38.4,0C24,5.2,7.3,4.7,4.2,31.9
	c-0.3,1.6-0.3,12.6,0,14.3C7.3,73.4,24,73,34.1,73.8c0.5,0,1.2,0.1,1.9,0.1c7.9,0.6,9.6,1.9,8.1,6c-2.9,8.1,7.6,12.2,14.4,3.7
	c5.5-6.8,5.6-9.1,9.8-9.7c1.7-0.1,3.1-0.1,4.2-0.2c10-0.8,26.8-0.3,29.9-27.5C102.7,44.6,102.7,33.6,102.4,31.9z"/>
<g>
	<path class="st1" d="M57.1,61.5c-2.2,0-4.4-0.2-6.8-0.5C37.6,59.2,28,53,24.2,44c-2.6-6.1-2.2-12.6,0.9-17.1
		c2.8-4,6.2-5.9,10.2-5.9c3.6,0,7.3,1.5,11.3,3.1c3.1,1.3,6.4,2.6,9.8,3.3c1.7,0.3,3.3,0.5,5.1,0.5c2.7,0,5.2-0.4,7.5-0.7
		c2-0.3,3.9-0.6,5.7-0.6c4.8,0,7.9,2.2,10,7c2,4.6,1.2,10.5-2.2,15.7C77.5,57.1,68.2,61.5,57.1,61.5z"/>
	<path class="st1" d="M35.4,23c5.9,0,12.7,4.8,20.6,6.4c1.9,0.4,3.8,0.5,5.5,0.5c5.2,0,9.6-1.3,13.2-1.3c3.4,0,6.2,1.2,8.2,5.9
		c4,9-5,25.1-25.8,25.1c-2,0-4.2-0.2-6.5-0.5c-25.1-3.7-29.8-22.7-23.9-31C29.4,24.3,32.3,23,35.4,23 M35.4,19L35.4,19
		c-4.7,0-8.7,2.3-11.9,6.8c-3.6,5.1-4,12.3-1.1,19C26.5,54.4,36.6,61.1,50,63c2.4,0.3,4.8,0.5,7,0.5c11.8,0,21.7-4.8,27.2-13.1
		c3.8-5.8,4.6-12.4,2.3-17.6c-2.4-5.5-6.3-8.2-11.9-8.2c-1.9,0-3.9,0.3-6,0.6c-2.3,0.3-4.7,0.7-7.2,0.7c-1.7,0-3.2-0.1-4.7-0.5
		c-3.2-0.6-6.4-1.9-9.4-3.2C43.3,20.6,39.4,19,35.4,19L35.4,19z"/>
</g>
<g>
	<path class="st2" d="M44.1,40c-9.5-6.3-15.7-0.3-18.2,3.1c2.8,7.6,11.5,14.5,27.9,16.3c8,1.2,14.9-1.1,20.6-3.3
		C61.8,29.8,44.1,40,44.1,40z"/>
	<path class="st3" d="M43.2,38.4c5.9,3.3,9.1,8.8,9.1,8.8"/>
</g>
</svg>
