<?xml version="1.0" standalone="no"?>
<!DOCTYPE svg PUBLIC "-//W3C//DTD SVG 20010904//EN"
 "http://www.w3.org/TR/2001/REC-SVG-20010904/DTD/svg10.dtd">
<svg version="1.0" xmlns="http://www.w3.org/2000/svg"
 width="260.000000pt" height="260.000000pt" viewBox="0 0 260.000000 260.000000"
 preserveAspectRatio="xMidYMid meet">
<metadata>
Created by potrace 1.14, written by Peter Selinger 2001-2017
</metadata>
<g transform="translate(0.000000,260.000000) scale(0.100000,-0.100000)"
fill="#000000" stroke="none">
<path d="M1536 2472 c-27 -3 -273 -165 -921 -606 -323 -219 -414 -285 -438
-317 -22 -31 -23 -38 -32 -371 l-7 -247 26 -25 c14 -15 32 -26 41 -26 25 0 65
-30 81 -61 35 -68 2 -139 -114 -242 l-32 -29 0 -162 c0 -195 14 -262 58 -273
17 -4 378 47 957 136 1134 175 1145 176 1161 193 25 25 106 463 128 695 26
273 46 535 46 613 0 121 -25 233 -62 288 -48 71 -123 140 -223 208 -174 118
-320 178 -515 209 -58 9 -109 17 -115 19 -5 1 -23 0 -39 -2z m150 -137 c152
-34 226 -60 321 -111 142 -77 295 -203 334 -275 10 -19 19 -17 -531 -113
l-305 -53 -18 41 c-10 23 -32 62 -49 88 -58 92 -205 135 -303 89 -55 -26 -80
-52 -115 -121 -24 -48 -30 -72 -30 -125 0 -36 -3 -65 -6 -65 -3 0 -105 -18
-227 -39 -290 -52 -314 -55 -302 -44 6 6 231 158 500 339 270 180 517 347 550
371 33 23 63 42 66 43 4 0 55 -11 115 -25z m687 -562 c-22 -286 -55 -674 -63
-738 -13 -104 -82 -478 -90 -488 -3 -4 -62 -16 -131 -27 -473 -75 -1733 -272
-1772 -277 l-48 -6 3 87 3 87 76 3 c60 2 86 8 128 31 118 65 159 138 149 269
-6 70 -33 129 -85 187 -53 59 -104 81 -196 87 l-77 5 1 231 1 232 346 58 c191
31 357 60 370 63 18 4 22 1 22 -19 0 -135 137 -257 274 -246 127 11 216 129
220 293 l1 59 35 8 c19 4 204 37 410 74 206 36 377 68 379 70 2 2 14 4 26 4
20 0 22 -4 18 -47z"/>
<path d="M1735 1296 c-113 -29 -206 -101 -252 -195 -25 -50 -28 -66 -28 -161
0 -95 3 -111 28 -162 36 -73 119 -149 195 -179 41 -16 79 -23 137 -23 70 -1
89 3 146 31 89 41 142 92 181 171 31 62 33 74 33 167 0 90 -3 106 -28 155 -81
157 -250 238 -412 196z"/>
</g>
</svg>
