<?xml version="1.0" encoding="utf-8"?>
<!-- Generator: Adobe Illustrator 26.2.1, SVG Export Plug-In . SVG Version: 6.00 Build 0)  -->
<svg version="1.1" id="Layer_1" xmlns="http://www.w3.org/2000/svg" xmlns:xlink="http://www.w3.org/1999/xlink" x="0px" y="0px"
	 viewBox="0 0 3048.3 712.4" style="enable-background:new 0 0 3048.3 712.4;" xml:space="preserve">
<style type="text/css">
	.st0{display:none;}
	.st1{display:inline;fill:#020202;}
	.st2{display:inline;fill:#030303;}
	.st3{display:inline;fill:#040404;}
	.st4{display:inline;fill:#030202;}
	.st5{fill:#2A2A2A;}
	.st6{fill:#FFFFFF;}
	.st7{fill:#FFFFFF;stroke:#2A2A2A;stroke-width:30;stroke-miterlimit:10;}
	.st8{fill:#2A2A2A;stroke:#2A2A2A;stroke-width:60;stroke-miterlimit:10;}
	.st9{fill:#FF7558;}
	.st10{clip-path:url(#SVGID_00000096051210418504544550000003695800571240578743_);fill:#2A2A2A;}
</style>
<g id="Layer_4" class="st0">
	<path class="st1" d="M414.5,611.6c-17.8,34.9-46.1,54.6-82.1,64.6c-21.3,5.9-43.1,8.7-64.9,10.2c-26.3,1.7-52.6,2.5-79,2.5
		c-29.3,0-58.5-1.1-87.8-2.1c-14.1-0.5-28.3-1.3-42.3-2.8c-8.1-0.9-16.4-2.7-24-5.6c-9-3.6-15-10.7-16.5-20.8
		c-1.5-10,0.5-18.6,10.2-23.6c15.4-7.9,22-21.6,25.1-37.5c1.7-8.6,3-17.4,3.4-26.1c2.4-56.6,4.5-113.1,6.6-169.7
		c0.3-8.3,0.3-16.6-0.4-24.9c-0.5-6.3-1.9-12.6-3.8-18.5c-2.8-8.7-8.5-15.3-17-19.2c-2.6-1.2-5.3-2.4-8-3.6
		c-17.1-7.9-21-27.1-7.5-40.3c4.7-4.6,11.2-7.8,17.4-10.3c5.3-2.1,11.4-2.6,17.2-2.8c25.3-1,50.7-2,76-2.3
		c17.5-0.2,146.6,0,186.5,10c4.2,1.2,8.4,2.4,12.5,4c53.5,20.9,63.9,69,52.7,108c-4.7,16.3-12.9,30.4-25.8,41.7
		c-2.9,2.6-6,5.1-8.3,8.2c-4.8,6.4-3.6,13.2,3.2,17.5c3.7,2.3,7.9,3.9,11.7,5.9c26,13.8,45.7,33.2,53.7,62.4
		c5.2,18.9,3.5,37.7-1.9,56.3C419.9,598.9,417.2,604.7,414.5,611.6z M197.7,557.2c1,14.1,1.1,28.2,3.1,42.1
		c2.9,20.3,10.3,25.5,30.8,23.7c16.5-1.5,28.7-9.3,33.7-25.5c6.9-22.6,5.9-45.3-4.2-66.8c-8.3-17.6-30.4-26.9-49.4-22.3
		c-6.9,1.7-11.1,5.8-12.8,12.5c-0.8,3.3-1.1,6.7-1.2,10.1C197.6,538.7,197.7,546.5,197.7,557.2z M255.7,407.1c0-5.8,0.4-11.7,0-17.5
		c-0.7-10.8-2.9-21.2-8.1-30.9c-6.6-12.3-17.3-18.3-30.9-18.8c-10.5-0.4-16.5,4.7-18.3,15c-0.6,3.3-0.6,6.8-0.6,10.2
		c0,21-0.1,41.9,0.1,62.9c0,4.8,0.6,9.7,1.6,14.4c1,4.6,4.3,7.3,9.1,8.3c20.1,4.2,38.5-6.8,44.2-26.6
		C254,419.4,254.5,414.5,255.7,407.1z"/>
	<path class="st2" d="M707.2,432.7c15.7,19.4,22.2,40.7,22,64.6c-0.1,24.4,0.5,48.7,1,73.1c0.1,5.8,0.7,25.7,12.5,28.7
		c12.7,2.9,18.7,14.2,18.8,25.6c0,15-19.2,63.1-91.1,63.1c-14.2-0.7-26.8-5.6-36.3-16.3c-14.1-15.8-18.7-13.3-33.3-3.4
		c-33.1,22.5-68.8,25.8-106,13c-22.7-7.8-40-22.7-47.7-46.1c-9.2-28.1-4.5-53.9,15.6-76.3c12.3-13.7,27.8-22.8,44.9-29.2
		c20.3-7.5,41.5-10.6,63-11.4c7.3-0.3,14.6,0,21.9-0.6c7.9-0.6,11.4-4,12.3-11.9c1.5-13.2,0.5-26.4-3.6-39
		c-1.6-4.9-4.7-9.8-8.1-13.7c-10.9-12.2-24.2-12.8-35.4-1.1c-7.4,7.7-13.5,16.6-20.2,25c-6.5,8-14,14.6-23,19.9
		c-17.3,10.3-43.5-1.9-45.1-25.2c-1.4-20.3,5.1-37.4,20.5-50.8c15.5-13.5,33.5-20.7,54-23.6c30.7-4.4,61.2-4.7,91.7,0.5
		C662.3,402.3,687.4,411.1,707.2,432.7z M560.6,602.8c1.6,4.1,2.6,8.4,4.8,12.1c4.7,7.7,11.8,11.6,20.9,10.7
		c9.3-0.9,15.1-6.5,17.8-15.1c4-12.8,4.2-26,2.2-39.1c-1.4-8.9-8-13.2-17.1-12c-9.7,1.3-17.3,6.2-22.7,14.4
		C561.1,581.9,559.4,590.8,560.6,602.8z"/>
	<path class="st2" d="M1520.8,581.9c0-36.1,0-70.7,0-105.3c0-2.4,0-4.9,0-7.3c-0.2-15.9-0.2-15.9-16.7-15.7c-4.9,0-9.8,0.2-14.6-0.1
		c-11.8-0.8-18.6-8.2-18.9-19.7c-0.3-8.2,1.2-15.8,7.5-21.4s69.3-52.7,96.2-71.1c9.6-6.6,19.9-12.3,30.2-17.8
		c10.2-5.4,17.3-6.5,27.1-6.5c13.9,0,23.4,7.2,23.4,30.4c0.3,9.3-0.2,18.5,0.1,27.8c0.5,15.3,2.1,16.8,17,17
		c15.6,0.2,31.2-0.1,46.8,0.1c19.5,0.2,21.8,2.5,21.9,22.1c0.1,7.8-0.1,15.6-1.1,23.4c-1.3,11.3-5.6,15.4-17.1,15.8
		c-14.1,0.5-28.3,0.2-42.4,0.3c-3.4,0-6.8-0.1-10.2,0.1c-11.5,0.7-14.1,3.3-14.8,15.3c-0.1,1.9-0.1,3.9-0.1,5.9
		c0,26.8-0.2,53.7,0.1,80.5c0.1,8.2,0.8,16.6,2.6,24.6c5,22.2,22.1,30.8,43.3,22.2c4.5-1.8,8.6-4.5,13.1-6.5
		c11.2-5.1,18.4-2.9,24.5,7.7c5.5,9.6,5.5,19.5,1.1,29.5c-4.2,9.6-11.2,17.1-19.3,23.5c-18,14.2-38.7,22.6-60.7,27.6
		c-22.1,5.1-44.3,6.3-66.7,0.9c-40.4-9.8-65.7-38-70.7-79.6C1521.5,598,1521.3,590.7,1520.8,581.9z"/>
	<path class="st3" d="M844.3,416.2c51-27.4,102.9-31.2,156.5-12.6c17.8,6.2,33.4,16.2,45.8,30.6c14,16.2,21.7,34.6,17.2,56.6
		c-7,34.3-41.2,50.6-72,40.9c-8.7-2.8-15.5-8.5-19.7-16.6c-3.1-6-5.6-12.4-8.2-18.7c-1.9-4.5-3.2-9.2-5.3-13.6
		c-9-19.1-29.6-23.9-46.3-10.8c-11.5,9-16.9,21.6-17.5,35.7c-1.3,31.3,10.1,57.4,35.8,76c21.5,15.5,45.5,15.6,70,8.2
		c6.5-2,12.7-5,19.1-7.4c11.8-4.4,21-1.6,28.1,8.5c6.6,9.4,8.1,19.7,4.6,30.6c-3.8,12-11.4,21.4-20.7,29.6
		c-17.6,15.5-38.4,24.8-61.1,30c-40.2,9.2-79.5,7.4-117.2-10.7c-75.2-36.1-105.2-128.2-65.1-200.1
		C801.6,448.7,820.4,430.6,844.3,416.2z"/>
	<path class="st2" d="M2164.5,687.9c-10.9-1.8-20.7-2.8-29.9-5.5c-7.3-2.2-14.6-5.7-20.9-10c-18-12.4-14.5-40.1,8.6-48.4
		c6.7-2.6,9.5-7.9,10.6-14.6c1.1-7.2,2.4-14.5,3-21.7c3.6-47.7,3.4-95.5,2.5-143.4c-0.2-9.7-1.3-19.5-2.2-29.2
		c-1.9-19-9.2-34.8-27.1-44c-1.3-0.7-2.4-1.7-3.7-2.4c-13.4-7.6-17.3-27.3-4.6-40.4c6-6.2,13.5-11.1,21.1-15.3
		c15.5-8.5,57.7-25.7,116.3-25.7c17.2,0,30,12,30,38.3c0,16.9-0.2,32.1-0.9,48.2c-1.3,32.2-2.7,64.3-3.1,96.5
		c-0.5,39.5-0.2,79-0.1,118.6c0,7.8,0.5,13.6,1.1,21.4c0.5,6.2,3.4,10.9,9.7,13.3c4,1.6,7.9,3.7,11.6,6.1c15.1,9.6,11.8,37-2.8,46.6
		c-4.1,2.7-15.3,6.5-23.3,8.4C2229.1,692,2197.5,691.8,2164.5,687.9z"/>
	<path class="st4" d="M1479.9,629c-4.7-3.5-9.7-6.5-14.6-9.7c-11.2-7.1-21.9-14.8-30.1-25.3c-22.1-28.5-43.9-57.3-65.6-86
		c-2.9-3.9-5.1-8.3-7.3-12.6c-3-6-1.3-11.5,3.2-15.9c2.7-2.7,6.1-4.9,9.6-6.6c12.3-5.8,24.8-11.2,37.2-16.8c5.3-2.4,11.1-4,16-7.1
		c10.6-6.5,14.4-17.8,9.1-29c-2.4-5-6.6-10.1-11.4-12.8c-7.5-4.2-15.9-7.8-24.3-9.4c-29.5-5.5-59.2-5.7-88.7,0
		c-8.9,1.7-17.9,5-25.9,9.4c-14.4,8-17.5,23.8-8.6,37.7c1.1,1.6,2.4,3.1,3.6,4.6c2.6,3.4,1.9,6.4-1.3,8.8
		c-9.4,7.1-19.6,12.7-30.9,16.3c-9.7,3.1-15.4,0.3-16.9-9.8c-1.4-9.6-1.7-19.4-1.5-29.1c0.6-35.6,1.6-71.2,2.4-106.8
		c0.1-5.8-0.3-11.7-0.3-17.5c0-22.1-11.1-29.4-24-29.4c-6.6,0-14.7,0.9-21.5,3c-38.2,11.8-74.7,27.8-109.7,47.3
		c-3.8,2.1-7.3,4.9-10.9,7.4c-10.4,7.2-5.8,24.3,5.1,26.8c3.8,0.9,7.6,1.7,11.4,2.7c13.8,3.7,18.4,8.9,20.2,23.3
		c0.5,4.3,0.6,8.8,0.6,13.1c0,25.4,0.6,50.7-0.1,76.1c-1.1,39-3.2,78-4.7,116.9c-0.5,12.3-3.5,22.2-16.1,28.5
		c-8.1,4-14.2,11.9-14.6,22.3c-0.5,13,5.5,23.5,18.4,28.6c0.5,0.2,1,0.4,1.5,0.5c8.1,3,16.8,4.8,25.3,5.9
		c11.6,1.5,23.3,2.2,35.1,2.3c33.3,1.4,66.6-3,85.9-8.8c31.2-9.4,30-44.8,9.6-56.2c-4.2-2.3-6.1-5-7.2-13.1
		c-1.8-13.2-2.6-19-0.1-32.6c0.5-2.9,4.9-4.5,7.1-2.5c4.6,4.3,9.2,8.7,13.1,13.6c16,20.3,31.7,40.8,47.6,61.2
		c3.3,4.2,6.8,8.3,10.4,12.3c0.6,0.8,1.4,1.5,2.2,2.3c26.1,25,104.3,29.5,144.3,14.7c5.4-1.7,10.7-4.1,15.7-7.2
		C1491,662.8,1497,641.6,1479.9,629z"/>
	<path class="st2" d="M2028.9,432.7c15.7,19.4,22.2,40.7,22,64.6c-0.1,24.4,0.5,48.7,1,73.1c0.1,5.8,0.7,25.7,12.5,28.7
		c12.7,2.9,18.7,14.2,18.8,25.6c0,15-19.2,63.1-91.1,63.1c-14.2-0.7-26.8-5.6-36.3-16.3c-14.1-15.8-18.7-13.3-33.3-3.4
		c-33.1,22.5-68.8,25.8-106,13c-22.7-7.8-40-22.7-47.7-46.1c-9.2-28.1-4.5-53.9,15.6-76.3c12.3-13.7,27.8-22.8,44.9-29.2
		c20.3-7.5,41.5-10.6,63-11.4c7.3-0.3,14.6,0,21.9-0.6c7.9-0.6,11.4-4,12.3-11.9c1.5-13.2,0.5-26.4-3.6-39
		c-1.6-4.9-4.7-9.8-8.1-13.7c-10.9-12.2-24.2-12.8-35.4-1.1c-7.4,7.7-13.5,16.6-20.2,25c-6.5,8-14,14.6-23,19.9
		c-17.3,10.3-43.5-1.9-45.1-25.2c-1.4-20.3,5.1-37.4,20.5-50.8c15.5-13.5,33.5-20.7,54-23.6c30.7-4.4,61.2-4.7,91.7,0.5
		C1984,402.3,2009.1,411.1,2028.9,432.7z M1882.3,602.8c1.6,4.1,2.6,8.4,4.8,12.1c4.7,7.7,11.8,11.6,20.9,10.7
		c9.3-0.9,15.1-6.5,17.8-15.1c4-12.8,4.2-26,2.2-39.1c-1.4-8.9-8-13.2-17.1-12c-9.7,1.3-17.3,6.2-22.7,14.4
		C1882.8,581.9,1881.1,590.8,1882.3,602.8z"/>
	<path class="st4" d="M2725.7,629c-4.7-3.5-9.7-6.5-14.6-9.7c-11.2-7.1-21.9-14.8-30.1-25.3c-22.1-28.5-43.9-57.3-65.6-86
		c-2.9-3.9-5.1-8.3-7.3-12.6c-3-6-1.3-11.5,3.2-15.9c2.7-2.7,6.1-4.9,9.6-6.6c12.3-5.8,24.8-11.2,37.2-16.8c5.3-2.4,11.1-4,16-7.1
		c10.6-6.5,14.4-17.8,9.1-29c-2.4-5-6.6-10.1-11.4-12.8c-7.5-4.2-15.9-7.8-24.3-9.4c-29.5-5.5-59.2-5.7-88.7,0
		c-8.9,1.7-17.9,5-25.9,9.4c-14.4,8-17.5,23.8-8.6,37.7c1.1,1.6,2.4,3.1,3.6,4.6c2.6,3.4,1.9,6.4-1.3,8.8
		c-9.4,7.1-19.6,12.7-30.9,16.3c-9.7,3.1-15.4,0.3-16.9-9.8c-1.4-9.6-1.7-19.4-1.5-29.1c0.6-35.6,1.6-71.2,2.4-106.8
		c0.1-5.8-0.3-11.7-0.3-17.5c0-22.1-11.1-29.4-24-29.4c-6.6,0-14.7,0.9-21.5,3c-38.2,11.8-74.7,27.8-109.7,47.3
		c-3.8,2.1-7.3,4.9-10.9,7.4c-10.4,7.2-5.8,24.3,5.1,26.8c3.8,0.9,7.6,1.7,11.4,2.7c13.8,3.7,18.4,8.9,20.2,23.3
		c0.5,4.3,0.6,8.8,0.6,13.1c0,25.4,0.6,50.7-0.1,76.1c-1.1,39-3.2,78-4.7,116.9c-0.5,12.3-3.5,22.2-16.1,28.5
		c-8.1,4-14.2,11.9-14.6,22.3c-0.5,13,5.5,23.5,18.4,28.6c0.5,0.2,1,0.4,1.5,0.5c8.1,3,16.8,4.8,25.3,5.9
		c11.6,1.5,23.3,2.2,35.1,2.3c33.3,1.4,66.6-3,85.9-8.8c31.2-9.4,30-44.8,9.6-56.2c-4.2-2.3-6.1-5-7.2-13.1
		c-1.8-13.2-2.6-19-0.1-32.6c0.5-2.9,4.9-4.5,7.1-2.5c4.6,4.3,9.2,8.7,13.1,13.6c16,20.3,31.7,40.8,47.6,61.2
		c3.3,4.2,6.8,8.3,10.4,12.3c0.6,0.8,1.4,1.5,2.2,2.3c26.1,25,104.3,29.5,144.3,14.7c5.4-1.7,10.7-4.1,15.7-7.2
		C2736.9,662.8,2742.9,641.6,2725.7,629z"/>
</g>
<path class="st5" d="M414.5,611.6c-17.8,34.9-46.1,54.6-82.1,64.6c-21.3,5.9-43.1,8.7-64.9,10.2c-26.3,1.7-52.6,2.5-79,2.5
	c-29.3,0-58.5-1.1-87.8-2.1c-14.1-0.5-28.3-1.3-42.3-2.8c-8.1-0.9-16.4-2.7-24-5.6c-9-3.6-15-10.7-16.5-20.8
	c-1.5-10,0.5-18.6,10.2-23.6c15.4-7.9,22-21.6,25.1-37.5c1.7-8.6,3-17.4,3.4-26.1c2.4-56.6,4.5-113.1,6.6-169.7
	c0.3-8.3,0.3-16.6-0.4-24.9c-0.5-6.3-1.9-12.6-3.8-18.5c-2.8-8.7-8.5-15.3-17-19.2c-2.6-1.2-5.3-2.4-8-3.6
	c-17.1-7.9-21-27.1-7.5-40.3c4.7-4.6,11.2-7.8,17.4-10.3c5.3-2.1,11.4-2.6,17.2-2.8c25.3-1,50.7-2,76-2.3c17.5-0.2,146.6,0,186.5,10
	c4.2,1.2,8.4,2.4,12.5,4c53.5,20.9,63.9,69,52.7,108c-4.7,16.3-12.9,30.4-25.8,41.7c-2.9,2.6-6,5.1-8.3,8.2
	c-4.8,6.4-3.6,13.2,3.2,17.5c3.7,2.3,7.9,3.9,11.7,5.9c26,13.8,45.7,33.2,53.7,62.4c5.2,18.9,3.5,37.7-1.9,56.3
	C419.9,598.9,417.2,604.7,414.5,611.6z M197.7,557.2c1,14.1,1.1,28.2,3.1,42.1c2.9,20.3,10.3,25.5,30.8,23.7
	c16.5-1.5,28.7-9.3,33.7-25.5c6.9-22.6,5.9-45.3-4.2-66.8c-8.3-17.6-30.4-26.9-49.4-22.3c-6.9,1.7-11.1,5.8-12.8,12.5
	c-0.8,3.3-1.1,6.7-1.2,10.1C197.6,538.7,197.7,546.5,197.7,557.2z M255.7,407.1c0-5.8,0.4-11.7,0-17.5c-0.7-10.8-2.9-21.2-8.1-30.9
	c-6.6-12.3-17.3-18.3-30.9-18.8c-10.5-0.4-16.5,4.7-18.3,15c-0.6,3.3-0.6,6.8-0.6,10.2c0,21-0.1,41.9,0.1,62.9
	c0,4.8,0.6,9.7,1.6,14.4c1,4.6,4.3,7.3,9.1,8.3c20.1,4.2,38.5-6.8,44.2-26.6C254,419.4,254.5,414.5,255.7,407.1z"/>
<path class="st5" d="M707.2,432.7c15.7,19.4,22.2,40.7,22,64.6c-0.1,24.4,0.5,48.7,1,73.1c0.1,5.8,0.7,25.7,12.5,28.7
	c12.7,2.9,18.7,14.2,18.8,25.6c0,15-19.2,63.1-91.1,63.1c-14.2-0.7-26.8-5.6-36.3-16.3c-14.1-15.8-18.7-13.3-33.3-3.4
	c-33.1,22.5-68.8,25.8-106,13c-22.7-7.8-40-22.7-47.7-46.1c-9.2-28.1-4.5-53.9,15.6-76.3c12.3-13.7,27.8-22.8,44.9-29.2
	c20.3-7.5,41.5-10.6,63-11.4c7.3-0.3,14.6,0,21.9-0.6c7.9-0.6,11.4-4,12.3-11.9c1.5-13.2,0.5-26.4-3.6-39c-1.6-4.9-4.7-9.8-8.1-13.7
	c-10.9-12.2-24.2-12.8-35.4-1.1c-7.4,7.7-13.5,16.6-20.2,25c-6.5,8-14,14.6-23,19.9c-17.3,10.3-43.5-1.9-45.1-25.2
	c-1.4-20.3,5.1-37.4,20.5-50.8c15.5-13.5,33.5-20.7,54-23.6c30.7-4.4,61.2-4.7,91.7,0.5C662.3,402.3,687.4,411.1,707.2,432.7z
	 M560.6,602.8c1.6,4.1,2.6,8.4,4.8,12.1c4.7,7.7,11.8,11.6,20.9,10.7c9.3-0.9,15.1-6.5,17.8-15.1c4-12.8,4.2-26,2.2-39.1
	c-1.4-8.9-8-13.2-17.1-12c-9.7,1.3-17.3,6.2-22.7,14.4C561.1,581.9,559.4,590.8,560.6,602.8z"/>
<path class="st5" d="M1520.8,581.9c0-36.1,0-70.7,0-105.3c0-2.4,0-4.9,0-7.3c-0.2-15.9-0.2-15.9-16.7-15.7c-4.9,0-9.8,0.2-14.6-0.1
	c-11.8-0.8-18.6-8.2-18.9-19.7c-0.3-8.2,1.2-15.8,7.5-21.4s69.3-52.7,96.2-71.1c9.6-6.6,19.9-12.3,30.2-17.8
	c10.2-5.4,17.3-6.5,27.1-6.5c13.9,0,23.4,7.2,23.4,30.4c0.3,9.3-0.2,18.5,0.1,27.8c0.5,15.3,2.1,16.8,17,17
	c15.6,0.2,31.2-0.1,46.8,0.1c19.5,0.2,21.8,2.5,21.9,22.1c0.1,7.8-0.1,15.6-1.1,23.4c-1.3,11.3-5.6,15.4-17.1,15.8
	c-14.1,0.5-28.3,0.2-42.4,0.3c-3.4,0-6.8-0.1-10.2,0.1c-11.5,0.7-14.1,3.3-14.8,15.3c-0.1,1.9-0.1,3.9-0.1,5.9
	c0,26.8-0.2,53.7,0.1,80.5c0.1,8.2,0.8,16.6,2.6,24.6c5,22.2,22.1,30.8,43.3,22.2c4.5-1.8,8.6-4.5,13.1-6.5
	c11.2-5.1,18.4-2.9,24.5,7.7c5.5,9.6,5.5,19.5,1.1,29.5c-4.2,9.6-11.2,17.1-19.3,23.5c-18,14.2-38.7,22.6-60.7,27.6
	c-22.1,5.1-44.3,6.3-66.7,0.9c-40.4-9.8-65.7-38-70.7-79.6C1521.5,598,1521.3,590.7,1520.8,581.9z"/>
<path class="st5" d="M844.3,416.2c51-27.4,102.9-31.2,156.5-12.6c17.8,6.2,33.4,16.2,45.8,30.6c14,16.2,21.7,34.6,17.2,56.6
	c-7,34.3-41.2,50.6-72,40.9c-8.7-2.8-15.5-8.5-19.7-16.6c-3.1-6-5.6-12.4-8.2-18.7c-1.9-4.5-3.2-9.2-5.3-13.6
	c-9-19.1-29.6-23.9-46.3-10.8c-11.5,9-16.9,21.6-17.5,35.7c-1.3,31.3,10.1,57.4,35.8,76c21.5,15.5,45.5,15.6,70,8.2
	c6.5-2,12.7-5,19.1-7.4c11.8-4.4,21-1.6,28.1,8.5c6.6,9.4,8.1,19.7,4.6,30.6c-3.8,12-11.4,21.4-20.7,29.6
	c-17.6,15.5-38.4,24.8-61.1,30c-40.2,9.2-79.5,7.4-117.2-10.7c-75.2-36.1-105.2-128.2-65.1-200.1
	C801.6,448.7,820.4,430.6,844.3,416.2z"/>
<path class="st5" d="M2164.5,687.9c-10.9-1.8-20.7-2.8-29.9-5.5c-7.3-2.2-14.6-5.7-20.9-10c-18-12.4-14.5-40.1,8.6-48.4
	c6.7-2.6,9.5-7.9,10.6-14.6c1.1-7.2,2.4-14.5,3-21.7c3.6-47.7,3.4-95.5,2.5-143.4c-0.2-9.7-1.3-19.5-2.2-29.2
	c-1.9-19-9.2-34.8-27.1-44c-1.3-0.7-2.4-1.7-3.7-2.4c-13.4-7.6-17.3-27.3-4.6-40.4c6-6.2,13.5-11.1,21.1-15.3
	c15.5-8.5,57.7-25.7,116.3-25.7c17.2,0,30,12,30,38.3c0,16.9-0.2,32.1-0.9,48.2c-1.3,32.2-2.7,64.3-3.1,96.5
	c-0.5,39.5-0.2,79-0.1,118.6c0,7.8,0.5,13.6,1.1,21.4c0.5,6.2,3.4,10.9,9.7,13.3c4,1.6,7.9,3.7,11.6,6.1c15.1,9.6,11.8,37-2.8,46.6
	c-4.1,2.7-15.3,6.5-23.3,8.4C2229.1,692,2197.5,691.8,2164.5,687.9z"/>
<path class="st5" d="M1479.9,629c-4.7-3.5-9.7-6.5-14.6-9.7c-11.2-7.1-21.9-14.8-30.1-25.3c-22.1-28.5-43.9-57.3-65.6-86
	c-2.9-3.9-5.1-8.3-7.3-12.6c-3-6-1.3-11.5,3.2-15.9c2.7-2.7,6.1-4.9,9.6-6.6c12.3-5.8,24.8-11.2,37.2-16.8c5.3-2.4,11.1-4,16-7.1
	c10.6-6.5,14.4-17.8,9.1-29c-2.4-5-6.6-10.1-11.4-12.8c-7.5-4.2-15.9-7.8-24.3-9.4c-29.5-5.5-59.2-5.7-88.7,0
	c-8.9,1.7-17.9,5-25.9,9.4c-14.4,8-17.5,23.8-8.6,37.7c1.1,1.6,2.4,3.1,3.6,4.6c2.6,3.4,1.9,6.4-1.3,8.8
	c-9.4,7.1-19.6,12.7-30.9,16.3c-9.7,3.1-15.4,0.3-16.9-9.8c-1.4-9.6-1.7-19.4-1.5-29.1c0.6-35.6,1.6-71.2,2.4-106.8
	c0.1-5.8-0.3-11.7-0.3-17.5c0-22.1-11.1-29.4-24-29.4c-6.6,0-14.7,0.9-21.5,3c-38.2,11.8-74.7,27.8-109.7,47.3
	c-3.8,2.1-7.3,4.9-10.9,7.4c-10.4,7.2-5.8,24.3,5.1,26.8c3.8,0.9,7.6,1.7,11.4,2.7c13.8,3.7,18.4,8.9,20.2,23.3
	c0.5,4.3,0.6,8.8,0.6,13.1c0,25.4,0.6,50.7-0.1,76.1c-1.1,39-3.2,78-4.7,116.9c-0.5,12.3-3.5,22.2-16.1,28.5
	c-8.1,4-14.2,11.9-14.6,22.3c-0.5,13,5.5,23.5,18.4,28.6c0.5,0.2,1,0.4,1.5,0.5c8.1,3,16.8,4.8,25.3,5.9c11.6,1.5,23.3,2.2,35.1,2.3
	c33.3,1.4,66.6-3,85.9-8.8c31.2-9.4,30-44.8,9.6-56.2c-4.2-2.3-6.1-5-7.2-13.1c-1.8-13.2-2.6-19-0.1-32.6c0.5-2.9,4.9-4.5,7.1-2.5
	c4.6,4.3,9.2,8.7,13.1,13.6c16,20.3,31.7,40.8,47.6,61.2c3.3,4.2,6.8,8.3,10.4,12.3c0.6,0.8,1.4,1.5,2.2,2.3
	c26.1,25,104.3,29.5,144.3,14.7c5.4-1.7,10.7-4.1,15.7-7.2C1491,662.8,1497,641.6,1479.9,629z"/>
<path class="st5" d="M2028.9,432.7c15.7,19.4,22.2,40.7,22,64.6c-0.1,24.4,0.5,48.7,1,73.1c0.1,5.8,0.7,25.7,12.5,28.7
	c12.7,2.9,18.7,14.2,18.8,25.6c0,15-19.2,63.1-91.1,63.1c-14.2-0.7-26.8-5.6-36.3-16.3c-14.1-15.8-18.7-13.3-33.3-3.4
	c-33.1,22.5-68.8,25.8-106,13c-22.7-7.8-40-22.7-47.7-46.1c-9.2-28.1-4.5-53.9,15.6-76.3c12.3-13.7,27.8-22.8,44.9-29.2
	c20.3-7.5,41.5-10.6,63-11.4c7.3-0.3,14.6,0,21.9-0.6c7.9-0.6,11.4-4,12.3-11.9c1.5-13.2,0.5-26.4-3.6-39c-1.6-4.9-4.7-9.8-8.1-13.7
	c-10.9-12.2-24.2-12.8-35.4-1.1c-7.4,7.7-13.5,16.6-20.2,25c-6.5,8-14,14.6-23,19.9c-17.3,10.3-43.5-1.9-45.1-25.2
	c-1.4-20.3,5.1-37.4,20.5-50.8c15.5-13.5,33.5-20.7,54-23.6c30.7-4.4,61.2-4.7,91.7,0.5C1984,402.3,2009.1,411.1,2028.9,432.7z
	 M1882.3,602.8c1.6,4.1,2.6,8.4,4.8,12.1c4.7,7.7,11.8,11.6,20.9,10.7c9.3-0.9,15.1-6.5,17.8-15.1c4-12.8,4.2-26,2.2-39.1
	c-1.4-8.9-8-13.2-17.1-12c-9.7,1.3-17.3,6.2-22.7,14.4C1882.8,581.9,1881.1,590.8,1882.3,602.8z"/>
<g>
	<g>
		<path class="st6" d="M2728.1,511.2c-15.9,0-29.7-6.8-38-18.5c-8.2-11.6-9.8-26.3-4.6-41.6c-4.3-2.1-13.8-4.5-20.5-6.2
			c-5.5-1.4-11.8-3-18.1-4.9c-1.8-0.5-4-1.1-6.5-1.8c-16.4-4.5-43.9-12-68.6-33.1c-29.7-25.4-47-63.3-51.4-112.7
			c-0.6-7.2-1.7-61.1,0.1-73c6.9-59.7,27.1-99.8,61.8-122.7c29.5-19.5,62.4-21.8,88.8-23.6c3.1-0.2,6-0.4,8.9-0.7l0.1,0
			c18.7-1.4,61.1-1.8,94.5-1.8c33.4,0,75.9,0.5,94.8,1.8c2.8,0.2,5.7,0.4,8.6,0.6c26.5,1.8,59.5,4,89,23.5
			c34.8,22.9,55,63.1,61.9,122.8c1.9,12.5,0.7,66.1,0.1,72.9c-5.3,60.1-31,103-76.4,127.5c-37.2,20-80.4,23.5-109,25.8l-4.1,0.3
			c-25.2,2.1-32.4,5.2-57.9,36.8C2767.2,500.8,2747.7,511.2,2728.1,511.2C2728.1,511.2,2728.1,511.2,2728.1,511.2z"/>
		<path class="st5" d="M2774.6,85.4c38.5,0,77,0.6,93.8,1.8c49.3,3.8,130.6,1.4,145.8,134c1.6,8.2,0.7,61.8,0,69.6
			c-11.3,129.8-119.7,135.4-175.8,140c-30.8,2.5-41.5,9.2-68.3,42.3c-12.9,16.2-28.5,23-42,23c-21.1,0-36.8-16.9-28.2-41
			c7.1-19.6-19.1-20.7-48.7-29.6c-27-8.1-105.7-20.8-115.8-134.6c-0.8-8.6-1.4-61.9,0-69.7c15.2-132.6,96.6-130.1,145.8-134
			C2697.7,86,2736.1,85.4,2774.6,85.4 M2774.6,55.4c-33.7,0-76.5,0.5-95.6,1.9l-0.1,0l-0.1,0c-2.7,0.2-5.7,0.4-8.7,0.6
			c-26.7,1.9-63.3,4.4-96,26.1c-18.4,12.2-33.5,29-44.7,50.1c-12,22.5-20,50.7-23.7,83.7c-1.9,15.7-0.8,67.8-0.1,75.8
			c4.8,53.5,23.8,94.8,56.6,122.8c27.2,23.3,56.7,31.4,74.4,36.2c2.4,0.7,4.5,1.2,6.1,1.7c6.7,2,13.1,3.6,18.8,5.1
			c2,0.5,4.3,1.1,6.6,1.7c-1.6,14.6,1.7,28.7,9.8,40.2c11,15.6,29.8,24.9,50.3,24.9c24.1,0,48-12.5,65.4-34.2
			c23.6-29.3,27.7-29.6,47.4-31.2c1.3-0.1,2.7-0.2,4.1-0.3c29.9-2.4,75-6.1,114.9-27.6c23.3-12.5,42.1-29.7,56-51.1
			c15.7-24.1,25.2-53.9,28.2-88.4c0.5-5.4,2.1-59.3-0.1-75.9c-3.8-32.9-11.8-61-23.8-83.5c-11.3-21.1-26.3-38-44.8-50.2
			c-32.9-21.6-69.5-24.1-96.3-25.9c-3-0.2-5.8-0.4-8.4-0.6l-0.1,0l-0.1,0C2851.1,55.9,2808.3,55.4,2774.6,55.4L2774.6,55.4z"/>
	</g>
	<path class="st7" d="M3014.2,221.3c-15.2-132.6-96.5-130.2-145.8-134c-33.6-2.4-154-2.4-187.2,0c-49.2,4-130.6,1.4-145.8,134
		c-1.4,7.8-0.8,61.1,0,69.7c10.1,113.9,88.8,126.5,115.8,134.6c29.7,8.9,55.8,10,48.7,29.6c-14.2,39.5,37,59.5,70.1,18
		c26.8-33.2,37.5-39.8,68.3-42.3c56.1-4.6,164.5-10.3,175.8-140C3014.8,283.1,3015.7,229.5,3014.2,221.3z"/>
	<g>
		<g>
			<path class="st8" d="M2694.9,185.1c26.4,0,56.9,21.5,92.4,28.7c8.5,1.8,17.1,2.2,24.6,2.2c23.3,0,43-5.9,59.1-5.9
				c15.2,0,27.7,5.3,36.7,26.4c18,40.4-22.4,112.6-115.7,112.6c-9,0-18.9-0.9-29.2-2.2c-112.6-16.5-133.5-101.7-107.1-139
				C2668.1,190.8,2681,185.1,2694.9,185.1"/>
		</g>
		<g>
			<path class="st9" d="M2661.9,276.9c32.1,57.7,123.4,76.9,176.6,59.8c7.4-2.4,9.8-11.8,4.5-17.5c-57.5-61.4-144.8-68.3-175.4-57.7
				C2661.4,263.7,2658.7,271.1,2661.9,276.9z"/>
		</g>
	</g>
</g>
<g>
	<defs>
		<path id="SVGID_1_" d="M2516.5,465.2c4.4-2.8,23.9-17.8,34-15.5c18.2,4.1,27.1,14.4,50.5,18.5c12.7,2.2,2.5,18.1,7.1,27.2
			l34.7,20.3l120.4,151.3l-70.7,23.6l-366.8,2.6l-18.2-39.4l-5.5-329.9l159.7-57.1l33.3,41.9l16.9,139.2
			C2511.9,447.9,2503.2,473.7,2516.5,465.2z"/>
	</defs>
	<clipPath id="SVGID_00000028313441206286153040000011629424971872707728_">
		<use xlink:href="#SVGID_1_"  style="overflow:visible;"/>
	</clipPath>
	<path style="clip-path:url(#SVGID_00000028313441206286153040000011629424971872707728_);fill:#2A2A2A;" d="M2725.7,629
		c-4.7-3.5-9.7-6.5-14.6-9.7c-11.2-7.1-21.9-14.8-30.1-25.3c-22.1-28.5-43.9-57.3-65.6-86c-2.9-3.9-5.1-8.3-7.3-12.6
		c-3-6-1.3-11.5,3.2-15.9c2.7-2.7,6.1-4.9,9.6-6.6c12.3-5.8,24.8-11.2,37.2-16.8c5.3-2.4,11.1-4,16-7.1c10.6-6.5,14.4-17.8,9.1-29
		c-2.4-5-6.6-10.1-11.4-12.8c-7.5-4.2-15.9-7.8-24.3-9.4c-29.5-5.5-59.2-5.7-88.7,0c-8.9,1.7-17.9,5-25.9,9.4
		c-14.4,8-17.5,23.8-8.6,37.7c1.1,1.6,2.4,3.1,3.6,4.6c2.6,3.4,1.9,6.4-1.3,8.8c-9.4,7.1-19.6,12.7-30.9,16.3
		c-9.7,3.1-15.4,0.3-16.9-9.8c-1.4-9.6-1.7-19.4-1.5-29.1c0.6-35.6,1.6-71.2,2.4-106.8c0.1-5.8-0.3-11.7-0.3-17.5
		c0-22.1-11.1-29.4-24-29.4c-6.6,0-14.7,0.9-21.5,3c-38.2,11.8-74.7,27.8-109.7,47.3c-3.8,2.1-7.3,4.9-10.9,7.4
		c-10.4,7.2-5.8,24.3,5.1,26.8c3.8,0.9,7.6,1.7,11.4,2.7c13.8,3.7,18.4,8.9,20.2,23.3c0.5,4.3,0.6,8.8,0.6,13.1
		c0,25.4,0.6,50.7-0.1,76.1c-1.1,39-3.2,78-4.7,116.9c-0.5,12.3-3.5,22.2-16.1,28.5c-8.1,4-14.2,11.9-14.6,22.3
		c-0.5,13,5.5,23.5,18.4,28.6c0.5,0.2,1,0.4,1.5,0.5c8.1,3,16.8,4.8,25.3,5.9c11.6,1.5,23.3,2.2,35.1,2.3c33.3,1.4,66.6-3,85.9-8.8
		c31.2-9.4,30-44.8,9.6-56.2c-4.2-2.3-6.1-5-7.2-13.1c-1.8-13.2-2.6-19-0.1-32.6c0.5-2.9,4.9-4.5,7.1-2.5c4.6,4.3,9.2,8.7,13.1,13.6
		c16,20.3,31.7,40.8,47.6,61.2c3.3,4.2,6.8,8.3,10.4,12.3c0.6,0.8,1.4,1.5,2.2,2.3c26.1,25,104.3,29.5,144.3,14.7
		c5.4-1.7,10.7-4.1,15.7-7.2C2736.9,662.8,2742.9,641.6,2725.7,629z"/>
</g>
</svg>
