<?xml version="1.0" encoding="utf-8"?>
<!-- Generator: Adobe Illustrator 26.2.1, SVG Export Plug-In . SVG Version: 6.00 Build 0)  -->
<svg version="1.1" id="Layer_1" xmlns="http://www.w3.org/2000/svg" xmlns:xlink="http://www.w3.org/1999/xlink" x="0px" y="0px"
	 viewBox="0 0 666.77 169.56" style="enable-background:new 0 0 666.77 169.56;" xml:space="preserve">
<style type="text/css">
	.st0{fill:#2A2A2A;}
	.st1{fill:#FFFFFF;stroke:#2A2A2A;stroke-width:5;stroke-miterlimit:10;}
	.st2{fill:#153649;stroke:#2A2A2A;stroke-width:2;stroke-miterlimit:10;}
	.st3{fill:#FF7558;}
	.st4{fill:none;stroke:#2A2A2A;stroke-width:2;stroke-miterlimit:10;}
	.st5{fill:none;stroke:#2A2A2A;stroke-width:2;stroke-linecap:round;stroke-miterlimit:10;}
</style>
<g>
	<path class="st0" d="M263.25,111.61c9.13-1.98,13.47-11.55,14.22-19.96c1.92-11.09,18.41-9.3,26.78-7.6
		c3.34,0.92,4.05,2.06,3.88,5.62c-0.34,12.27-9.74,21.84-20.54,26.42c8.82,4.28,12.31,13.12,15.55,21.93
		c4.37,6.89,12.29,12.05,8.16,21.56c-3.87,9.54-16.66,6.12-24.68,5.29c-5.84-0.97-9.39-4.53-10.86-10.02
		c-3.12-9.39,0.09-22.97-10.06-28.46c-2.94-1.54-4.34-0.88-4.46,2.38c-1.53,12.8,11.17,16.41,7.48,30.28
		c-1.66,10.66-44.39,10.34-41.91-3.56c-0.04-5.56,1.68-10.6,4.76-15.05c6.33-9.36,3.16-21.02,3.16-31.54
		c-0.56-8.73-13.77-20.63,0.59-24.89c9.21-1.6,41-4.39,34.23,12.26C266.76,101.05,263.82,105.95,263.25,111.61z"/>
	<path class="st0" d="M549.8,111.28c8.31-0.7,12.75-10.25,13.95-17.6c0.4-13.14,17.58-11.51,26.86-9.71
		c3.48,0.97,4.11,1.86,4.03,5.48c-0.12,12.57-9.93,22.27-21,26.83c9.95,3.19,12.34,13.93,16.37,22.3
		c5.35,6.8,11.14,11.61,8.01,20.45c-2.38,11.56-33.14,8.34-35.09-2.52c-4.09-9.4-0.13-22.76-9.42-29.36
		c-2.92-2.1-5.88-2.46-5.76,1.96c-1.44,12.73,11.57,16.27,7.43,30.28c-2.44,10.27-44.21,9.94-41.83-4c0.04-5.07,1.29-9.9,4.23-13.96
		c6.68-9.35,4.11-20.8,3.81-31.41c0.12-8.87-13.83-21.27-0.02-25.9c9.17-1.74,40.59-4.72,34.97,11.65
		C553.45,100.71,550.1,105.25,549.8,111.28z"/>
	<path class="st0" d="M59.34,118c14.69,3.61,19.15,21.34,14.11,34.08c-8.21,18.92-40.34,15.78-57.6,14.8
		c-8.34-0.36-18.78-7.25-11.19-15.83c4.45-3.84,9.49-7.11,9.01-13.75c-1.34-10.93,3.36-29.65-5.77-37.13
		c-14.98-17.81,27.46-19.07,37.5-17.8C63.34,81.87,79.24,107.98,59.34,118z M47.11,135.84c-1.51-13.89-10.78-4.44-7.78,4.57
		c0.44,1.54,1.84,2.32,3.59,2.36C46.74,142.9,46.45,138.6,47.11,135.84z M44.38,102.89c-0.54-2.2-0.78-6.58-4.26-6.32
		c-4.05,0.43-3.6,6.49-2.69,9.36C39.5,110.67,45.35,107.76,44.38,102.89z"/>
	<path class="st0" d="M134.41,165.14c-5.33-1.18-15.97,2.14-16.23-5.88c-0.45-5.87,5.16-9.8,4.88-15.65
		c0.99-9.92-19.13-7.19-11.88,8.63c8.5,18.46-17.82,14.04-28.4,13.41c-9.21-0.95-4.95-16.84,0.02-20.9
		c8.88-8.87,7.74-22.67,10.71-34.08c0.79-4.51,0.03-8.76-2.53-12.67c-7.02-14.77,16.12-13.58,25.02-14.71
		c8.35,0.2,28.68-2.44,24.79,11.26c-2.42,3.94-3.33,7.81-2.04,12.32c2.12,9.1,4.1,18.23,6.1,27.35c0.83,3.77,2.88,6.66,5.73,9.23
		c3.97,3.58,5.8,8.18,5.02,13.55c-1.02,10.14-13.91,7.53-21.21,8.01C134.41,165.06,134.41,165.1,134.41,165.14z M112.39,115.63
		c0.08,0.01,0.16,0.02,0.24,0.03c0.06,1.71-0.44,3.91,0.91,5.22c2.18,1.75,6.45,0.25,6.4-2.49c-0.56-2.94,0.19-17.08-5.32-12.2
		C112.84,108.95,113.08,112.51,112.39,115.63z"/>
	<path class="st0" d="M427.98,164.54c-5.32-1.18-16.01,2.15-16.24-5.87c-0.4-5.85,5.26-9.79,4.84-15.67
		c1.17-7.73-12.55-6.75-12.9-0.16c-1.35,5.19,2.21,9.58,2.73,14.59c-0.23,13.29-20.98,7.17-29.61,7.64
		c-8.41-0.39-5.7-13.88-2.13-18.45c2.75-3.69,6.86-6.61,7.53-11.41c1.13-12.2,9.33-25.94,2.51-37.42
		c-6.76-14.59,16.48-13.67,25.33-14.45c8.22,0.9,28.22-2.71,24.16,11.18c-6.42,9.32,3.02,28.22,4.17,39.7
		c0.78,3.57,2.77,6.31,5.48,8.69c3.8,3.32,5.54,7.66,5.18,12.64c-0.54,11.31-13.38,8.26-21.03,8.75
		C427.98,164.38,427.98,164.46,427.98,164.54z M406,115.5c0.09,0.01,0.17,0.02,0.26,0.03c-1.7,6.23,6.32,8.35,7.29,2.4
		C413.74,104.95,408.01,97.69,406,115.5z"/>
	<path class="st0" d="M193.18,166.26c-39.92,0.26-53.34-50.01-26.65-74.11c16.28-16.87,30.29-3.6,44.43-9.74
		c1.81-1.38,3.96-1.6,6.18-1.19c9.87,1.19,4.1,19.83,3.01,26.42c-3.1,9.54-14.72,4.78-18.82-1.44c-5.58-8.05-15.9-3.02-19.48,4.25
		c-11.1,21.94,11.83,39.05,26.04,17.44c5.88-6.19,13.37-3.62,16.72,2.37C231.83,148,210.28,167.11,193.18,166.26z"/>
	<path class="st0" d="M330.86,100.49c-2.87,2.67-2.89,5.92-4.7,8.93c-3.99,7.85-16.93,5.42-17.48-3.12
		c0.02-6.58,4.05-23.54,12.45-22.79c4.4,0.16,8.84,0.28,13.19,0.94c11.6,2.63,22.79-1.28,34.29-0.99
		c9.93,1.47,17.71,22.34,6.07,26.42c-6.62,2.41-11.63-2.74-13.7-8.53c-3.46-3.58-3.86,3.3-3.68,5.61c0.33,8.93,0.5,17.88,1.23,26.78
		c0.86,8.14,6.71,15.04,7.03,23.35c0.14,12.35-32.08,9.37-39.23,4.86c-8.34-8.96,6.7-20.56,5.89-30.75
		C331.4,122.66,335.71,107.03,330.86,100.49z"/>
	<path class="st0" d="M484.86,84.83c12,4.48-2.71,17.61-1.65,25.98c-2.1,9.73,1.63,42.61,16.33,26.03c2.1-2.66,3.41-3.23,6.57-2.48
		c7.05,1.33,5.46,9.44,4.13,14.46c-4.13,12.86-9.52,18.06-23.5,16.27c-14.36-0.98-42.85,3.76-31.65-19.99
		c2.39-4.29,5.47-8.41,5.22-13.58c-1.06-11,2.84-23.25-3.42-33.12C447.88,81.08,475.99,83.71,484.86,84.83z"/>
</g>
<g>
	<path class="st1" d="M661.24,33.17c-3.07-27.23-19.85-26.74-29.89-27.54c-6.86-0.54-31.58-0.54-38.44,0
		c-10.05,0.79-26.82,0.3-29.89,27.54c-0.26,1.65-0.26,12.62,0,14.27c3.07,27.23,19.85,26.74,29.89,27.54
		c0.54,0.04,1.19,0.08,1.93,0.12c7.88,0.56,9.58,1.86,8.1,6.03c-2.86,8.06,7.64,12.21,14.42,3.71c5.46-6.85,5.6-9.05,9.83-9.66
		c1.71-0.06,3.14-0.13,4.16-0.21c10.05-0.79,26.82-0.3,29.89-27.54C661.5,45.79,661.5,34.82,661.24,33.17z"/>
	<path class="st2" d="M585.06,29.03c7.92-11.2,17.48-1.09,29.8,1.35c13.56,2.69,22.45-6.18,27.44,5.18
		c4.45,10.11-7,28.82-32.92,25.06C583.81,56.9,579.06,37.51,585.06,29.03z"/>
	<path class="st3" d="M602.06,44.84c-8.01-5.29-13.29-0.25-15.42,2.59c3.94,5.83,11.53,10.87,23.63,12.62
		c6.8,0.99,12.63,0.23,17.41-1.59C620.77,38.19,602.06,44.84,602.06,44.84z"/>
	<g>
		<path class="st4" d="M602.06,44.84c-8.01-5.29-13.29-0.25-15.42,2.59c3.94,5.83,11.53,10.87,23.63,12.62
			c6.8,0.99,12.63,0.23,17.41-1.59C617.06,36.17,602.06,44.84,602.06,44.84z"/>
		<path class="st5" d="M601.36,44.39c4.22,3.18,6.79,7.44,6.79,7.44"/>
	</g>
</g>
</svg>
