<?xml version="1.0" encoding="utf-8"?>
<!-- Generator: Adobe Illustrator 26.2.1, SVG Export Plug-In . SVG Version: 6.00 Build 0)  -->
<svg version="1.1" xmlns="http://www.w3.org/2000/svg" xmlns:xlink="http://www.w3.org/1999/xlink" x="0px" y="0px"
	 viewBox="0 0 666.77 169.56" style="enable-background:new 0 0 666.77 169.56;" xml:space="preserve">
<style type="text/css">
	.st0{fill:#FFFFFF;stroke:#2A2A2A;stroke-width:5;stroke-miterlimit:10;}
	.st1{fill:#153649;stroke:#2A2A2A;stroke-width:2;stroke-miterlimit:10;}
	.st2{fill:#FF7558;}
	.st3{fill:none;stroke:#2A2A2A;stroke-width:2;stroke-miterlimit:10;}
	.st4{fill:none;stroke:#2A2A2A;stroke-width:2;stroke-linecap:round;stroke-miterlimit:10;}
	.st5{display:none;}
	.st6{display:inline;}
	.st7{fill:#2A2A2A;}
</style>
<g id="Layer_1">
	<g>
		<path class="st0" d="M661.24,33.17c-3.07-27.23-19.85-26.74-29.89-27.54c-6.86-0.54-31.58-0.54-38.44,0
			c-10.05,0.79-26.82,0.3-29.89,27.54c-0.26,1.65-0.26,12.62,0,14.27c3.07,27.23,19.85,26.74,29.89,27.54
			c0.54,0.04,1.19,0.08,1.93,0.12c7.88,0.56,9.58,1.86,8.1,6.03c-2.86,8.06,7.64,12.21,14.42,3.71c5.46-6.85,5.6-9.05,9.83-9.66
			c1.71-0.06,3.14-0.13,4.16-0.21c10.05-0.79,26.82-0.3,29.89-27.54C661.5,45.79,661.5,34.82,661.24,33.17z"/>
		<path class="st1" d="M585.06,29.03c7.92-11.2,17.48-1.09,29.8,1.35c13.56,2.69,22.45-6.18,27.44,5.18
			c4.45,10.11-7,28.82-32.92,25.06C583.81,56.9,579.06,37.51,585.06,29.03z"/>
		<path class="st2" d="M602.06,44.84c-8.01-5.29-13.29-0.25-15.42,2.59c3.94,5.83,11.53,10.87,23.63,12.62
			c6.8,0.99,12.63,0.23,17.41-1.59C620.77,38.19,602.06,44.84,602.06,44.84z"/>
		<g>
			<path class="st3" d="M602.06,44.84c-8.01-5.29-13.29-0.25-15.42,2.59c3.94,5.83,11.53,10.87,23.63,12.62
				c6.8,0.99,12.63,0.23,17.41-1.59C617.06,36.17,602.06,44.84,602.06,44.84z"/>
			<path class="st4" d="M601.36,44.39c4.22,3.18,6.79,7.44,6.79,7.44"/>
		</g>
	</g>
</g>
<g id="Layer_2" class="st5">
	<g class="st6">
		<path class="st7" d="M263.25,111.61c9.13-1.98,13.47-11.55,14.22-19.96c1.92-11.09,18.41-9.3,26.78-7.6
			c3.34,0.92,4.05,2.06,3.88,5.62c-0.34,12.27-9.74,21.84-20.54,26.42c8.82,4.28,12.31,13.12,15.55,21.93
			c4.37,6.89,12.29,12.05,8.16,21.56c-3.87,9.54-16.66,6.12-24.68,5.29c-5.84-0.97-9.39-4.53-10.86-10.02
			c-3.12-9.39,0.09-22.97-10.06-28.46c-2.94-1.54-4.34-0.88-4.46,2.38c-1.53,12.8,11.17,16.41,7.48,30.28
			c-1.66,10.66-44.39,10.34-41.91-3.56c-0.04-5.56,1.68-10.6,4.76-15.05c6.33-9.36,3.16-21.02,3.16-31.54
			c-0.56-8.73-13.77-20.63,0.59-24.89c9.21-1.6,41-4.39,34.23,12.26C266.76,101.05,263.82,105.95,263.25,111.61z"/>
		<path class="st7" d="M549.8,111.28c8.31-0.7,12.75-10.25,13.95-17.6c0.4-13.14,17.58-11.51,26.86-9.71
			c3.48,0.97,4.11,1.86,4.03,5.48c-0.12,12.57-9.93,22.27-21,26.83c9.95,3.19,12.34,13.93,16.37,22.3
			c5.35,6.8,11.14,11.61,8.01,20.45c-2.38,11.56-33.14,8.34-35.09-2.52c-4.09-9.4-0.13-22.76-9.42-29.36
			c-2.92-2.1-5.88-2.46-5.76,1.96c-1.44,12.73,11.57,16.27,7.43,30.28c-2.44,10.27-44.21,9.94-41.83-4
			c0.04-5.07,1.29-9.9,4.23-13.96c6.68-9.35,4.11-20.8,3.81-31.41c0.12-8.87-13.83-21.27-0.02-25.9
			c9.17-1.74,40.59-4.72,34.97,11.65C553.45,100.71,550.1,105.25,549.8,111.28z"/>
		<path class="st7" d="M59.34,118c14.69,3.61,19.15,21.34,14.11,34.08c-8.21,18.92-40.34,15.78-57.6,14.8
			c-8.34-0.36-18.78-7.25-11.19-15.83c4.45-3.84,9.49-7.11,9.01-13.75c-1.34-10.93,3.36-29.65-5.77-37.13
			c-14.98-17.81,27.46-19.07,37.5-17.8C63.34,81.87,79.24,107.98,59.34,118z M47.11,135.84c-1.51-13.89-10.78-4.44-7.78,4.57
			c0.44,1.54,1.84,2.32,3.59,2.36C46.74,142.9,46.45,138.6,47.11,135.84z M44.38,102.89c-0.54-2.2-0.78-6.58-4.26-6.32
			c-4.05,0.43-3.6,6.49-2.69,9.36C39.5,110.67,45.35,107.76,44.38,102.89z"/>
		<path class="st7" d="M134.41,165.14c-5.33-1.18-15.97,2.14-16.23-5.88c-0.45-5.87,5.16-9.8,4.88-15.65
			c0.99-9.92-19.13-7.19-11.88,8.63c8.5,18.46-17.82,14.04-28.4,13.41c-9.21-0.95-4.95-16.84,0.02-20.9
			c8.88-8.87,7.74-22.67,10.71-34.08c0.79-4.51,0.03-8.76-2.53-12.67c-7.02-14.77,16.12-13.58,25.02-14.71
			c8.35,0.2,28.68-2.44,24.79,11.26c-2.42,3.94-3.33,7.81-2.04,12.32c2.12,9.1,4.1,18.23,6.1,27.35c0.83,3.77,2.88,6.66,5.73,9.23
			c3.97,3.58,5.8,8.18,5.02,13.55c-1.02,10.14-13.91,7.53-21.21,8.01C134.41,165.06,134.41,165.1,134.41,165.14z M112.39,115.63
			c0.08,0.01,0.16,0.02,0.24,0.03c0.06,1.71-0.44,3.91,0.91,5.22c2.18,1.75,6.45,0.25,6.4-2.49c-0.56-2.94,0.19-17.08-5.32-12.2
			C112.84,108.95,113.08,112.51,112.39,115.63z"/>
		<path class="st7" d="M427.98,164.54c-5.32-1.18-16.01,2.15-16.24-5.87c-0.4-5.85,5.26-9.79,4.84-15.67
			c1.17-7.73-12.55-6.75-12.9-0.16c-1.35,5.19,2.21,9.58,2.73,14.59c-0.23,13.29-20.98,7.17-29.61,7.64
			c-8.41-0.39-5.7-13.88-2.13-18.45c2.75-3.69,6.86-6.61,7.53-11.41c1.13-12.2,9.33-25.94,2.51-37.42
			c-6.76-14.59,16.48-13.67,25.33-14.45c8.22,0.9,28.22-2.71,24.16,11.18c-6.42,9.32,3.02,28.22,4.17,39.7
			c0.78,3.57,2.77,6.31,5.48,8.69c3.8,3.32,5.54,7.66,5.18,12.64c-0.54,11.31-13.38,8.26-21.03,8.75
			C427.98,164.38,427.98,164.46,427.98,164.54z M406,115.5c0.09,0.01,0.17,0.02,0.26,0.03c-1.7,6.23,6.32,8.35,7.29,2.4
			C413.74,104.95,408.01,97.69,406,115.5z"/>
		<path class="st7" d="M193.18,166.26c-39.92,0.26-53.34-50.01-26.65-74.11c16.28-16.87,30.29-3.6,44.43-9.74
			c1.81-1.38,3.96-1.6,6.18-1.19c9.87,1.19,4.1,19.83,3.01,26.42c-3.1,9.54-14.72,4.78-18.82-1.44c-5.58-8.05-15.9-3.02-19.48,4.25
			c-11.1,21.94,11.83,39.05,26.04,17.44c5.88-6.19,13.37-3.62,16.72,2.37C231.83,148,210.28,167.11,193.18,166.26z"/>
		<path class="st7" d="M330.86,100.49c-2.87,2.67-2.89,5.92-4.7,8.93c-3.99,7.85-16.93,5.42-17.48-3.12
			c0.02-6.58,4.05-23.54,12.45-22.79c4.4,0.16,8.84,0.28,13.19,0.94c11.6,2.63,22.79-1.28,34.29-0.99
			c9.93,1.47,17.71,22.34,6.07,26.42c-6.62,2.41-11.63-2.74-13.7-8.53c-3.46-3.58-3.86,3.3-3.68,5.61
			c0.33,8.93,0.5,17.88,1.23,26.78c0.86,8.14,6.71,15.04,7.03,23.35c0.14,12.35-32.08,9.37-39.23,4.86
			c-8.34-8.96,6.7-20.56,5.89-30.75C331.4,122.66,335.71,107.03,330.86,100.49z"/>
		<path class="st7" d="M484.86,84.83c12,4.48-2.71,17.61-1.65,25.98c-2.1,9.73,1.63,42.61,16.33,26.03c2.1-2.66,3.41-3.23,6.57-2.48
			c7.05,1.33,5.46,9.44,4.13,14.46c-4.13,12.86-9.52,18.06-23.5,16.27c-14.36-0.98-42.85,3.76-31.65-19.99
			c2.39-4.29,5.47-8.41,5.22-13.58c-1.06-11,2.84-23.25-3.42-33.12C447.88,81.08,475.99,83.71,484.86,84.83z"/>
	</g>
</g>
<g id="Layer_3">
	<g>
		<path class="st7" d="M263.77,110.78c3.95-0.61,6.46-2.67,8.5-5.3c3.21-4.15,5.43-8.73,5.67-14.1c0.03-0.61,0.23-1.21,0.31-1.83
			c0.3-2.36,1.6-3.93,3.69-4.98c2.81-1.41,5.84-2.06,8.91-2.35c4.62-0.44,9.25-0.5,13.79,0.85c3.7,1.1,4.96,3.02,4.39,6.9
			c-1.13,7.67-4.67,13.97-10.63,18.93c-2.94,2.45-5.97,4.74-9.64,6.02c-0.25,0.09-0.43,0.35-0.84,0.7c0.61,0.28,1.03,0.49,1.47,0.67
			c3.39,1.35,5.89,3.71,7.79,6.76c1.8,2.89,3.39,5.88,4.53,9.11c0.62,1.75,1.36,3.45,2.09,5.15c0.86,2.02,2.08,3.74,3.87,5.09
			c5.77,4.35,5.87,11.99,4.28,16.53c-0.74,2.11-2.24,3.5-4.21,4.24c-1.91,0.72-3.93,1.31-5.94,1.54c-5.14,0.58-10.27,0.2-15.37-0.75
			c-4.85-0.9-7.81-3.93-9.6-8.26c-1.3-3.16-1.75-6.55-2.13-9.93c-0.4-3.47-0.74-6.97-1.41-10.39c-0.76-3.86-2.64-7.14-6.15-9.24
			c-0.79-0.47-1.64-0.87-2.51-1.16c-1.23-0.41-2-0.05-2.49,1.11c-0.23,0.56-0.37,1.18-0.4,1.79c-0.21,4.37,0.07,8.63,2.44,12.53
			c1.28,2.11,2.35,4.34,3.51,6.52c1.63,3.08,2.39,6.34,2.02,9.83c-0.35,3.28-1.94,5.64-5.13,6.67c-1.95,0.63-3.96,1.21-5.98,1.44
			c-6.15,0.7-12.32,1.12-18.48,0.1c-2.03-0.34-4.09-0.64-6.03-1.27c-5.34-1.72-7.75-5.75-6.56-11.25c0.52-2.38,1.57-4.67,2.59-6.9
			c1.03-2.24,2.34-4.35,3.51-6.52c1.29-2.4,1.98-4.99,2.12-7.68c0.44-8.03,0.29-16.06-0.66-24.05c-0.43-3.63-2.1-6.86-3.87-10.02
			c-0.7-1.25-1.42-2.53-1.82-3.89c-1.31-4.46,0.89-8.65,5.38-9.95c2.35-0.69,4.84-1.13,7.29-1.23c6.07-0.26,12.16-0.48,18.19,0.55
			c1.82,0.31,3.66,0.67,5.38,1.32c3.88,1.46,5.51,4.63,4.42,8.64c-0.48,1.77-1.29,3.47-2.08,5.13c-1.68,3.54-3.35,7.08-4.01,10.98
			C263.9,109.3,263.88,109.79,263.77,110.78z"/>
		<path class="st7" d="M549.95,110.76c3.76-0.62,6.26-2.69,8.33-5.32c3.31-4.23,5.44-8.99,5.71-14.42c0.19-3.82,2.17-6.08,5.67-7.2
			c7.14-2.28,14.33-2.54,21.6-0.57c2.46,0.67,3.62,2.25,3.73,4.65c0.06,1.22-0.05,2.48-0.29,3.68c-1.38,7.04-4.9,12.81-10.42,17.39
			c-3.09,2.57-6.3,4.93-10.84,6.36c1.2,0.61,1.77,0.94,2.37,1.19c2.88,1.16,5.16,3.12,6.73,5.71c1.76,2.89,3.23,5.96,4.72,9
			c0.77,1.57,1.34,3.23,1.97,4.87c1.02,2.64,2.52,4.82,4.78,6.67c4.55,3.71,6.08,10.89,3.84,16.39c-0.79,1.94-2.2,3.3-4.07,4
			c-1.91,0.72-3.92,1.33-5.93,1.56c-5.25,0.59-10.47,0.23-15.67-0.79c-4.21-0.83-6.97-3.36-8.85-7.01c-1.38-2.69-1.96-5.63-2.34-8.6
			c-0.42-3.27-0.66-6.56-1.18-9.82c-0.34-2.12-0.84-4.25-1.59-6.26c-1.25-3.34-3.67-5.68-6.99-7.02c-2.1-0.85-3.18-0.3-3.42,1.99
			c-0.44,4.14-0.27,8.24,1.74,12.04c1.3,2.46,2.57,4.93,3.91,7.36c1.9,3.45,2.67,7.09,2.03,11.01c-0.44,2.67-1.85,4.58-4.35,5.54
			c-1.72,0.66-3.51,1.29-5.32,1.54c-8,1.08-16.02,1.37-23.96-0.48c-1.67-0.39-3.33-1.11-4.81-1.99c-2.59-1.53-3.74-4-3.82-7
			c-0.07-2.64,0.57-5.12,1.71-7.45c0.99-2.03,2.07-4.03,3.23-5.97c2.61-4.36,3.89-9.05,3.75-14.12c-0.16-5.87-0.32-11.73-0.54-17.6
			c-0.17-4.65-1.92-8.8-4.19-12.79c-0.76-1.33-1.54-2.72-1.91-4.18c-1.14-4.58,1.16-8.53,5.73-9.78c2.27-0.62,4.65-1.05,6.99-1.15
			c6.07-0.25,12.15-0.43,18.19,0.53c2.24,0.36,4.45,0.79,6.51,1.82c2.11,1.07,3.2,2.72,3.42,5.11c0.25,2.7-0.66,5.04-1.76,7.4
			c-1.25,2.7-2.48,5.43-3.54,8.21C550.25,106.86,549.67,108.54,549.95,110.76z"/>
		<path class="st7" d="M59.13,117.24c1.29,0.41,1.96,0.61,2.61,0.84c4.01,1.42,7.25,3.78,9.51,7.47c5.13,8.35,5.36,17.16,2.22,26.14
			c-1.7,4.87-5.31,8.26-9.89,10.58c-4.08,2.07-8.49,3.12-12.97,3.86c-11.9,1.97-23.8,1.54-35.7-0.01c-2.77-0.36-5.46-1.07-7.97-2.33
			c-5.33-2.68-6.51-8.7-2.54-13.22c0.94-1.07,2.14-1.92,3.22-2.88c1.08-0.95,2.18-1.88,3.24-2.86c1.25-1.16,2.02-2.62,2.26-4.3
			c0.28-2.04,0.67-4.09,0.64-6.13c-0.13-7.93-0.39-15.85-0.64-23.78c-0.04-1.13-0.28-2.24-0.41-3.37c-0.39-3.25-1.79-6.08-4.63-7.66
			c-5.37-2.98-4.12-11.63,1.83-13.88c4.55-1.73,9.21-2.92,14.03-3.58c6.65-0.91,13.33-1.28,20.03-1.09
			c4.45,0.13,8.8,0.92,12.92,2.69c5.18,2.22,8.97,6.02,10.91,11.21c2.06,5.52,1.66,11.15-1.2,16.43c-1.05,1.93-2.65,3.41-4.6,4.46
			C61.25,116.24,60.5,116.57,59.13,117.24z M37.63,133.84c0.23,1.44,0.33,2.88,0.72,4.24c0.48,1.68,1.8,2.44,3.52,2.34
			c1.98-0.12,3.46-1.32,4.02-3.24c0.68-2.33,0.71-4.71,0.03-6.99c-0.33-1.11-1.12-2.23-2.01-2.99c-2.07-1.77-4.81-0.87-5.49,1.76
			C38.02,130.55,37.89,132.2,37.63,133.84z M44.22,102.51c0.08-0.02,0.16-0.03,0.24-0.05c-0.36-1.59-0.6-3.22-1.13-4.76
			c-0.49-1.41-1.78-1.92-3.21-1.98c-1.49-0.06-2.2,0.93-2.67,2.15c-0.93,2.41-0.8,4.87-0.02,7.26c0.54,1.67,2.15,2.52,3.92,2.35
			c1.59-0.16,2.61-1.24,2.85-3.13C44.29,103.75,44.22,103.13,44.22,102.51z"/>
		<path class="st7" d="M82.9,165.14c-3.75-0.48-5.57-2.22-6.27-5.73c-0.75-3.76-0.08-7.2,2.24-10.22c2.07-2.69,4.38-5.2,6.46-7.88
			c0.93-1.2,1.76-2.55,2.31-3.95c0.83-2.1,1.56-4.27,2-6.48c1.48-7.47,2.88-14.96,4.17-22.46c0.61-3.58-0.26-6.94-2.33-9.97
			c-0.52-0.76-0.99-1.57-1.5-2.34c-2.43-3.71-1.08-10.02,3.98-11.8c2.41-0.85,4.91-1.64,7.43-2c10.87-1.57,21.75-1.66,32.58,0.42
			c1.1,0.21,2.21,0.52,3.25,0.95c4.49,1.85,6.24,5.74,4.61,10.29c-0.45,1.25-1.04,2.47-1.73,3.61c-1.41,2.34-1.67,4.82-1.23,7.45
			c1.7,10.27,4.11,20.38,6.76,30.43c0.76,2.89,2.57,5.07,4.88,6.96c3.93,3.21,5.65,7.54,5.55,12.52c-0.1,5.11-2.67,8.37-7.68,9.45
			c-3.09,0.67-6.32,0.96-9.49,0.99c-4.11,0.04-8.22-0.34-12.33-0.58c-0.92-0.05-1.84-0.25-2.74-0.44c-3.57-0.76-5.07-2.65-4.97-6.31
			c0.08-2.95,0.98-5.67,2.52-8.17c1.46-2.37,1.89-5,1.9-7.7c0.02-3.01-1.31-4.53-4.24-5.16c-1.97-0.42-3.88-0.29-5.77,0.4
			c-1.71,0.63-2.76,1.83-2.89,3.65c-0.15,2.05-0.3,4.12-0.15,6.16c0.09,1.16,0.66,2.35,1.25,3.4c1.62,2.87,2.51,5.81,1.95,9.16
			c-0.34,1.99-1.29,3.42-3.01,4.41c-1.65,0.94-2.97,1.11-5.3,1.45C102.75,165.96,86.74,165.62,82.9,165.14z M112.8,111.65
			c0.06,1.42,0,2.36,0.18,3.25c0.11,0.55,0.48,1.19,0.93,1.49c2.28,1.55,5.64,0.13,5.74-2.61c0.09-2.62-0.4-5.27-0.67-7.9
			c-0.04-0.4-0.17-0.81-0.35-1.17c-0.93-1.93-3.32-2.14-4.42-0.35c-0.42,0.68-0.68,1.5-0.8,2.29
			C113.12,108.48,112.96,110.31,112.8,111.65z"/>
		<path class="st7" d="M193.25,165.63c-13.84,0.02-24.83-5.72-33.17-16.65c-4.09-5.37-6.26-11.53-6.96-18.24
			c-1.15-11.02,0.94-21.33,6.74-30.8c2.65-4.33,5.96-8.16,9.99-11.28c6.04-4.67,12.79-7.44,20.56-7.14
			c1.43,0.05,2.88,0.25,4.28,0.56c4.75,1.04,9.39,0.71,14.04-0.64c2.06-0.6,4.21-0.94,6.34-1.2c1.09-0.13,2.26,0.08,3.35,0.33
			c2.71,0.62,4.17,2.34,4.57,5.15c0.49,3.42,0.13,6.8-0.32,10.16c-0.45,3.36-1.07,6.71-1.75,10.03c-0.33,1.61-0.98,3.17-2.32,4.27
			c-2.11,1.73-4.43,2.46-7.18,1.71c-2.68-0.73-4.88-2.14-6.72-4.17c-1.04-1.14-2.09-2.28-3.08-3.46
			c-3.06-3.68-10.92-4.17-14.92-0.59c-6.55,5.87-9.26,17.15-5.84,25.25c3.76,8.91,15.47,11.22,21.98,4.19
			c1.4-1.51,2.78-3.04,4.17-4.56c0.28-0.3,0.53-0.63,0.81-0.94c2.92-3.17,6.36-5.05,10.73-3.55c4.7,1.61,7.48,5.04,8.03,10
			c0.49,4.42-0.34,8.72-2.61,12.51c-5.07,8.46-11.86,14.96-21.53,18.01C199.41,165.52,196.36,165.62,193.25,165.63z"/>
		<path class="st7" d="M358.14,115.85c0.31,5.59,0.56,10.22,0.82,14.85c0.25,4.48,1.4,8.72,3.43,12.73
			c0.79,1.56,1.47,3.18,2.24,4.75c1.3,2.65,1.7,5.44,1.73,8.38c0.02,2.86-1.34,4.74-3.71,5.88c-1.65,0.79-3.47,1.36-5.27,1.65
			c-8.21,1.29-16.43,1.21-24.58-0.4c-1.88-0.37-3.7-1.24-5.41-2.15c-1.95-1.04-2.91-2.77-2.87-5.09c0.04-2.2,0.32-4.31,1.22-6.32
			c1.69-3.75,3.38-7.51,5.09-11.25c1.3-2.84,2.03-5.79,2.12-8.94c0.23-7.2,0.61-14.4,0.87-21.61c0.06-1.54-0.1-3.09-0.26-4.62
			c-0.09-0.8-0.37-1.6-0.65-2.37c-0.25-0.7-0.68-1.45-1.49-1.3c-0.49,0.09-1.04,0.66-1.27,1.16c-0.82,1.77-1.49,3.62-2.25,5.41
			c-1.35,3.17-3.39,5.6-6.9,6.54c-5.74,1.55-11.55-2.61-11.68-8.51c-0.04-1.83,0.17-3.71,0.55-5.5c0.94-4.35,2.68-8.41,4.83-12.31
			c1.56-2.82,3.91-4.22,7.03-4.19c3.29,0.03,6.58,0.16,9.86,0.45c3.9,0.34,7.77,0.96,11.66,1.34c4.33,0.43,8.64-0.03,12.92-0.73
			c2.85-0.46,5.69-0.91,8.53-1.41c4.71-0.83,8.48,0.69,11.46,4.4c3.35,4.19,4.71,9.11,5.13,14.32c0.26,3.18-1.44,5.47-4,7.19
			c-3.48,2.32-10.54,1.91-13.27-3.14c-0.49-0.9-0.91-1.85-1.35-2.77c-0.26-0.55-0.43-1.18-0.78-1.66c-0.55-0.75-1.24-1.49-2.3-1.22
			c-0.94,0.24-1.14,1.15-1.26,1.96c-0.14,0.91-0.18,1.85-0.18,2.77C358.13,108.36,358.14,112.59,358.14,115.85z"/>
		<path class="st7" d="M484.58,83.48c5.6,1.39,6.96,3.96,5.51,9.58c-0.33,1.28-0.81,2.57-1.48,3.69c-1.99,3.31-3.29,6.79-3.95,10.62
			c-1.44,8.26-0.91,16.41,0.95,24.52c0.64,2.77,1.9,5.21,4.13,7.08c2.81,2.36,5.19,2.49,8.04,0.17c1.18-0.96,2.3-2.11,3.09-3.4
			c1.2-1.96,2.83-2.47,4.96-2.31c4.22,0.32,6.94,2.93,6.8,7.21c-0.09,2.74-0.67,5.51-1.39,8.17c-0.95,3.49-2.69,6.68-4.67,9.71
			c-2.26,3.47-5.36,5.53-9.61,5.93c-3.09,0.29-6.14,0.46-9.23,0c-6.14-0.93-12.32-0.71-18.5-0.64c-2.55,0.03-5.11-0.42-7.65-0.71
			c-0.7-0.08-1.39-0.38-2.06-0.63c-3.42-1.29-5.33-3.68-5.56-7.4c-0.23-3.68,0.37-7.19,2.04-10.48c0.88-1.74,1.93-3.4,2.92-5.09
			c1.61-2.72,2.47-5.63,2.46-8.81c-0.02-7.11,0.03-14.21-0.03-21.32c-0.02-1.95-0.26-3.9-0.53-5.83c-0.27-1.87-1.07-3.53-2.32-4.97
			c-1.81-2.08-2.37-4.56-2.05-7.21c0.42-3.45,2.17-5.97,5.61-7.04C468.27,81.93,477.72,81.93,484.58,83.48z"/>
		<path class="st7" d="M376.97,165.14c-3.75-0.48-5.57-2.22-6.27-5.73c-0.75-3.76-0.08-7.2,2.24-10.22c2.07-2.69,4.38-5.2,6.46-7.88
			c0.93-1.2,1.76-2.55,2.31-3.95c0.83-2.1,1.56-4.27,2-6.48c1.48-7.47,2.88-14.96,4.17-22.46c0.61-3.58-0.26-6.94-2.33-9.97
			c-0.52-0.76-0.99-1.57-1.5-2.34c-2.43-3.71-1.08-10.02,3.98-11.8c2.41-0.85,4.91-1.64,7.43-2c10.87-1.57,21.75-1.66,32.58,0.42
			c1.1,0.21,2.21,0.52,3.25,0.95c4.49,1.85,6.24,5.74,4.61,10.29c-0.45,1.25-1.04,2.47-1.73,3.61c-1.41,2.34-1.67,4.82-1.23,7.45
			c1.7,10.27,4.11,20.38,6.76,30.43c0.76,2.89,2.57,5.07,4.88,6.96c3.93,3.21,5.65,7.54,5.55,12.52c-0.1,5.11-2.67,8.37-7.68,9.45
			c-3.09,0.67-6.32,0.96-9.49,0.99c-4.11,0.04-8.22-0.34-12.33-0.58c-0.92-0.05-1.84-0.25-2.74-0.44c-3.57-0.76-5.07-2.65-4.97-6.31
			c0.08-2.95,0.98-5.67,2.52-8.17c1.46-2.37,1.89-5,1.9-7.7c0.02-3.01-1.31-4.53-4.24-5.16c-1.97-0.42-3.88-0.29-5.77,0.4
			c-1.71,0.63-2.76,1.83-2.89,3.65c-0.15,2.05-0.3,4.12-0.15,6.16c0.09,1.16,0.66,2.35,1.25,3.4c1.62,2.87,2.51,5.81,1.95,9.16
			c-0.34,1.99-1.29,3.42-3.01,4.41c-1.65,0.94-2.97,1.11-5.3,1.45C396.82,165.96,380.82,165.62,376.97,165.14z M406.88,111.65
			c0.06,1.42,0,2.36,0.18,3.25c0.11,0.55,0.48,1.19,0.93,1.49c2.28,1.55,5.64,0.13,5.74-2.61c0.09-2.62-0.4-5.27-0.67-7.9
			c-0.04-0.4-0.17-0.81-0.35-1.17c-0.93-1.93-3.32-2.14-4.42-0.35c-0.42,0.68-0.68,1.5-0.8,2.29
			C407.2,108.48,407.04,110.31,406.88,111.65z"/>
	</g>
</g>
</svg>
