<?xml version="1.0" standalone="no"?>
<!DOCTYPE svg PUBLIC "-//W3C//DTD SVG 20010904//EN"
 "http://www.w3.org/TR/2001/REC-SVG-20010904/DTD/svg10.dtd">
<svg version="1.0" xmlns="http://www.w3.org/2000/svg"
 width="856.000000pt" height="856.000000pt" viewBox="0 0 856.000000 856.000000"
 preserveAspectRatio="xMidYMid meet">
<metadata>
Created by potrace 1.14, written by Peter Selinger 2001-2017
</metadata>
<g transform="translate(0.000000,856.000000) scale(0.100000,-0.100000)"
fill="#000000" stroke="none">
<path d="M3315 7970 c-728 -17 -1256 -65 -1570 -146 -451 -115 -800 -323
-1071 -638 -338 -391 -543 -913 -646 -1641 -21 -150 -23 -193 -23 -700 0 -601
4 -654 80 -1030 195 -973 663 -1599 1400 -1873 294 -110 541 -155 1045 -192
462 -34 533 -40 623 -56 74 -14 87 -19 82 -33 -33 -83 -48 -175 -49 -301 -1
-160 13 -223 78 -355 74 -150 189 -265 341 -340 145 -72 222 -89 405 -89 136
1 167 4 255 27 125 34 295 117 406 198 157 116 280 256 543 619 174 240 214
284 268 298 24 6 108 14 188 17 233 10 653 44 805 66 591 85 996 276 1341 630
379 390 603 927 716 1714 21 151 23 190 23 700 0 601 -4 651 -80 1030 -225
1129 -815 1782 -1785 1978 -238 49 -639 87 -1115 107 -330 14 -1797 20 -2260
10z m2159 -651 c954 -31 1340 -107 1670 -326 368 -245 609 -695 720 -1344 49
-287 51 -312 51 -804 0 -493 -1 -515 -51 -803 -122 -715 -404 -1190 -840
-1414 -310 -160 -570 -207 -1379 -253 -214 -12 -263 -17 -340 -40 -232 -68
-336 -159 -600 -524 -242 -336 -324 -430 -435 -506 -91 -63 -168 -89 -260 -89
-94 -1 -146 22 -174 79 -22 43 -17 82 29 235 72 236 32 435 -119 586 -167 167
-384 222 -1041 264 -691 44 -996 118 -1285 311 -372 249 -613 698 -724 1351
-50 288 -51 311 -51 803 0 492 1 515 51 804 148 867 510 1354 1143 1536 228
65 454 93 1081 131 357 22 1937 24 2554 3z"/>
<path d="M2620 6431 c-238 -52 -451 -185 -632 -395 -204 -235 -312 -496 -337
-811 -41 -519 177 -1071 583 -1480 204 -204 416 -356 691 -491 387 -191 765
-297 1255 -350 208 -23 594 -23 780 0 607 75 1116 303 1498 670 507 488 710
1145 520 1684 -118 336 -338 584 -605 682 -201 73 -401 79 -805 24 -608 -82
-750 -84 -1055 -15 -161 36 -339 94 -530 172 -479 195 -634 251 -821 296 -149
35 -415 42 -542 14z m1947 -3137 c-3 -3 -12 -4 -19 -1 -8 3 -5 6 6 6 11 1 17
-2 13 -5z m240 0 c-3 -3 -12 -4 -19 -1 -8 3 -5 6 6 6 11 1 17 -2 13 -5z"/>
</g>
</svg>
